<?xml version="1.0" encoding="utf-8"?>
<!-- Generator: Adobe Illustrator 21.0.0, SVG Export Plug-In . SVG Version: 6.00 Build 0)  -->
<svg version="1.1" id="Layer_1" xmlns="http://www.w3.org/2000/svg" xmlns:xlink="http://www.w3.org/1999/xlink" x="0px" y="0px"
	 viewBox="0 0 109.3 137.2" style="enable-background:new 0 0 109.3 137.2;" xml:space="preserve">
<style type="text/css">
	.st0{fill:none;}
	.st1{fill:#FFFFFF;}
</style>
<title>pin-restroom</title>
<g>
	<path class="st0" d="M34.3,36c2.9,0,5.2-2.2,5.3-5.1c-0.1-2.8-2.4-5.1-5.2-5.2c-2.8-0.1-5.1,2-5.2,4.8c0,0.1,0,0.2,0,0.4
		c-0.1,2.7,2,5,4.7,5.1C34,36,34.2,36,34.3,36z"/>
	<path class="st0" d="M44.4,42.5c-1-2.9-3.6-4.9-6.6-5.1c-2.4,0-4.7,0-7.1,0c-2.8,0.1-5.3,1.9-6.3,4.6c-0.5,1.6-1,3.3-1.5,4.9
		c-1,3.4-2.1,6.8-3.2,10.2c-0.5,1.7,0.4,3.2,1.9,3.2c1.1,0,1.9-0.7,2.4-2.1c1-3.3,2-6.6,3-9.9c0.3-1,0.7-2,0.9-3.1
		c0.2-0.6,0.6-0.6,1-0.5s0.1,0.5,0,0.7c-0.4,1.5-0.9,3-1.3,4.5C25.8,56,24,62.2,22.2,68.3c-0.1,0.5-0.1,0.7,0.5,0.6
		c1.7,0,3.5,0,5.2,0c0.6,0,0.7,0.1,0.7,0.7c0,3.4,0,6.8,0,10.2c0,2.4,0,4.8,0,7.2c-0.1,1.3,0.9,2.4,2.2,2.4c0.3,0,0.6,0,0.8-0.1
		c1.2-0.3,1.8-1.2,1.8-2.7c0-5.7,0-11.4,0-17.1c0-0.6,0.2-0.7,0.7-0.7s0.7,0.1,0.7,0.7c0,2.9,0,5.8,0,8.8s0,5.8,0,8.8
		c0,1.1,0.7,2,1.7,2.2c1.3,0.4,2.7-0.3,3.1-1.6C40,87.6,40,87.3,40,87c0-5.6,0-11.3,0-16.9c0-1.1,0-1.1,1.1-1.1h4.5
		c0.9,0,0.9,0,0.6-0.8c-2.2-7.6-4.3-15.1-6.5-22.7c-0.1-0.2-0.2-0.5,0-0.6s0.5-0.1,0.7,0c0.3,0,0.3,0.4,0.4,0.6l2.7,8.9
		c0.5,1.5,0.9,3,1.4,4.5c0.2,0.9,1.1,1.6,2,1.6c1-0.1,1.8-0.8,2-1.7c0.2-0.7,0.2-1.4-0.1-2C47.4,52,45.9,47.2,44.4,42.5z"/>
	<path class="st0" d="M76.7,36c2.8,0.1,5.2-2,5.3-4.9c0-0.1,0-0.2,0-0.2c0-2.9-2.3-5.2-5.2-5.2s-5.2,2.3-5.2,5.2
		C71.6,33.7,73.9,36,76.7,36L76.7,36z"/>
	<path class="st0" d="M81.7,37.4h-10c-3.8,0-6.9,3.1-6.9,6.9c0,0.1,0,0.2,0,0.3c0,5.1,0,10.2,0,15.3c0,0.4,0,0.7,0.1,1.1
		c0.1,0.8,0.6,1.4,1.4,1.7c1.2,0.4,2.5-0.1,2.9-1.3c0.1-0.3,0.2-0.6,0.1-0.9c0-1.9,0-3.8,0-5.8c0-2.8,0-5.6,0-8.5
		c0-0.5,0.2-0.6,0.6-0.6c0.6,0,0.5,0.4,0.5,0.7c0,6.7,0,13.3,0,20s0,13.3,0,19.9c-0.1,1.4,0.7,2.6,2,3.1c1.6,0.5,3.3-0.3,3.8-1.9
		c0.1-0.4,0.2-0.7,0.1-1.1c0-3.8,0-7.5,0-11.3c0-3.9,0-7.8,0-11.7c0-0.5,0.2-0.8,0.7-0.7s0.2,0.5,0.2,0.8c0,7.4,0,14.7,0,22.1
		c0,0.4,0,0.7,0,1.1c0.1,1.6,1.4,2.8,2.9,2.9s2.9-1,3.1-2.5c0.1-0.4,0.1-0.8,0.1-1.2c0-13.1,0-26.3,0-39.4c0-0.3-0.2-0.8,0.5-0.8
		s0.6,0.4,0.6,0.8c0,2.3,0,4.6,0,6.8c0,2.4,0,4.9,0,7.3c0,1.2,0.9,2.2,2.1,2.2c0.1,0,0.3,0,0.4,0c1.3-0.1,2.2-1.2,2.1-2.4l0,0
		c0-5.2,0-10.4,0-15.6c0.1-3.9-2.9-7.1-6.7-7.3C82.1,37.4,81.9,37.4,81.7,37.4z"/>
	<path class="st0" d="M58.9,55c0-9.3,0-18.7,0-28c0-0.7-0.2-0.9-0.8-0.8c-1.3,0.1-2.7,0.1-4,0c-0.8,0-1,0.2-1,1
		c0,20.2,0,40.3,0,60.4c0,0.3,0,0.7,0,1s0.1,0.6,0.6,0.6c1.4,0,2.9,0,4.3,0c0.7,0,0.9-0.2,0.9-0.9c0-10.2,0-20.4,0-30.6V55z"/>
	<path class="st1" d="M76.8,25.7c2.9,0,5.2,2.3,5.3,5.2c0,2.9-2.3,5.2-5.2,5.2s-5.2-2.3-5.2-5.2l0,0C71.6,28,74,25.7,76.8,25.7z
		 M34.4,25.7c2.8,0.1,5.1,2.3,5.2,5.2c-0.1,2.9-2.5,5.1-5.3,5.1c-2.7,0.1-5-2-5.1-4.7c0-0.1,0-0.3,0-0.4c-0.1-2.8,2.1-5.1,4.8-5.2
		C34.2,25.7,34.3,25.7,34.4,25.7z M48.9,58.7c-0.3,0.9-1.1,1.6-2.1,1.7c-0.9,0-1.8-0.6-2-1.6c-0.5-1.5-0.9-3-1.4-4.5l-2.7-8.9
		c-0.1-0.2,0-0.6-0.4-0.6c-0.2-0.1-0.5,0-0.7,0c-0.2,0.1,0,0.4,0,0.6c2.2,7.6,4.3,15.1,6.5,22.7c0.2,0.8,0.2,0.8-0.6,0.8h-4.4
		C40,69,40,69,40,70.1c0,5.6,0,11.3,0,16.9c0.1,1.4-1,2.5-2.3,2.6c-0.3,0-0.6,0-0.9-0.1c-1-0.2-1.8-1.2-1.7-2.2c0-2.9,0-5.8,0-8.8
		s0-5.8,0-8.8c0-0.6-0.2-0.7-0.7-0.7s-0.7,0.1-0.7,0.7c0,5.7,0,11.4,0,17.1c0,1.5-0.6,2.4-1.8,2.7c-1.2,0.4-2.5-0.3-2.9-1.5
		c-0.1-0.3-0.1-0.5-0.1-0.8c0-2.4,0-4.8,0-7.2c0-3.4,0-6.8,0-10.2c0-0.6-0.2-0.7-0.7-0.7c-1.7,0-3.5,0-5.2,0c-0.6,0-0.6-0.2-0.5-0.6
		c1.8-6.1,3.6-12.3,5.4-18.4c0.4-1.5,0.9-3,1.3-4.5c0-0.2,0.4-0.5,0-0.7s-0.8-0.1-1,0.5c-0.3,1-0.6,2-0.9,3.1c-1,3.3-2,6.6-3,9.9
		c-0.4,1.5-1.2,2.2-2.4,2.2c-1.5,0-2.4-1.5-1.9-3.2c1-3.4,2.1-6.8,3.2-10.2c0.5-1.6,1-3.3,1.5-4.9c1-2.7,3.5-4.5,6.3-4.6
		c2.4,0,4.7,0,7.1,0c3,0.2,5.6,2.2,6.6,5.1c1.5,4.8,3,9.5,4.5,14.3C49.1,57.4,49.1,58.1,48.9,58.7z M58,89.1c-1.4-0.1-2.9,0-4.3,0
		c-0.5,0-0.7-0.1-0.6-0.6c0-0.5,0-0.7,0-1c0-20.2,0-40.3,0-60.4c0-0.8,0.2-1,1-1c1.3,0.1,2.7,0.1,4,0c0.7,0,0.8,0.2,0.8,0.8
		c0,9.3,0,18.7,0,28v2.8c0,10.2,0,20.4,0,30.6C58.9,89,58.7,89.2,58,89.1L58,89.1z M89,60.2c0.1,1.2-0.8,2.4-2.1,2.5l0,0
		c-1.2,0.1-2.2-0.7-2.4-1.9c0-0.1,0-0.2,0-0.3c0-2.4,0-4.9,0-7.3c0-2.3,0-4.6,0-6.8c0-0.4,0.1-0.8-0.6-0.8s-0.5,0.4-0.5,0.8
		c0,13.1,0,26.3,0,39.4c0,0.4,0,0.8-0.1,1.2c-0.2,1.5-1.6,2.6-3.1,2.5c-1.6-0.1-2.9-1.3-2.9-2.9c0-0.4,0-0.7,0-1.1
		c0-7.4,0-14.7,0-22.1c0-0.3,0.2-0.7-0.2-0.8s-0.7,0.1-0.7,0.7c0,3.9,0,7.8,0,11.8c0,3.8,0,7.5,0,11.3c0.1,1.7-1.2,3.1-2.8,3.1
		c-0.4,0-0.7,0-1.1-0.1c-1.3-0.4-2.1-1.7-2-3.1c0-6.6,0-13.3,0-19.9s0-13.3,0-20c0-0.3,0.1-0.7-0.5-0.7c-0.4,0-0.6,0.1-0.6,0.6
		c0,2.8,0,5.6,0,8.5c0,1.9,0,3.8,0,5.8c0,1.2-0.9,2.3-2.2,2.3c-0.3,0-0.6,0-0.9-0.1c-0.8-0.2-1.3-0.9-1.4-1.7c0-0.4-0.1-0.7-0.1-1.1
		c0-5.1,0-10.2,0-15.3c-0.1-3.8,2.9-7,6.7-7.1h0.1h10c3.9-0.2,7.1,2.8,7.3,6.6c0,0.2,0,0.4,0,0.7C89,49.9,89,55.1,89,60.2L89,60.2z"
		/>
</g>
</svg>
