<?xml version="1.0" encoding="utf-8"?>
<!-- Generator: Adobe Illustrator 21.0.0, SVG Export Plug-In . SVG Version: 6.00 Build 0)  -->
<svg version="1.1" id="Layer_1" xmlns="http://www.w3.org/2000/svg" xmlns:xlink="http://www.w3.org/1999/xlink" x="0px" y="0px"
	 viewBox="0 0 109.3 137.2" style="enable-background:new 0 0 109.3 137.2;" xml:space="preserve">
<style type="text/css">
	.st0{fill:#FFFFFF;}
</style>
<title>pin-hall</title>
<path class="st0" d="M62.1,6.5c1.2,0.1,2.2,0.9,2.6,2c1.2,2.6,1.8,5.4,1.9,8.3c0.3,12.3-3.2,23-12.8,31.2c-0.5,0.4-0.8,1.1-0.8,1.8
	c0.1,2.8,0.2,5.7,0.2,8.6c0,0.6-0.1,1.1,0.8,1.2c6.5,0.7,9.4,5.1,10.9,10.7c1.1,4.4,0.5,9.1-1.6,13c-1.5,3.2-4.5,5.5-8,6.1
	c-1.2,0.2-1.4,0.8-1.4,1.9c0.1,3.4,0.2,6.9,0.2,10.3c0.1,1.8-0.2,3.6-0.6,5.3c-1,4.4-5.5,7.1-9.9,6.1c-4.5-0.9-8.5-4.8-9.1-9.1
	c-0.3-2,0.1-4.1,1.2-5.8c2.1-3.3,6-3.2,8,0.1c1,1.7,1.3,3.6,0.9,5.5c-0.5,2.6-1.9,3.5-5.2,3.6c0.8,2.9,4.5,4.4,7.9,3.2
	c2-0.7,3.5-2.3,4.2-4.3c0.7-1.8,1-3.8,0.9-5.8c-0.1-3.2-0.3-6.3-0.4-9.5c0-0.8-0.2-1.1-1-1.2c-8.2-0.7-13.2-5.7-16.2-12.9
	c-4.4-10.9-1.4-20.4,6.4-28.7c2.7-2.8,5.6-5.4,8.6-7.9c0.9-0.6,1.3-1.6,1.2-2.7c-0.7-7.6,0.4-15.3,3.3-22.3c1.3-3,3.1-5.7,5.4-8.1
	L62.1,6.5z M51.2,50c-2.5,1.5-4.8,3.2-6.9,5.2c-4.8,4.3-8.3,9.3-8.6,16c-0.4,8.9,6.3,16.5,14.8,16.8c1.2,0,1.4-0.3,1.4-1.4
	c-0.2-6.2-0.3-12.3-0.3-18.5c0-1.2-0.3-1.4-1.5-1.1c-5.5,1.8-7.3,9.3-3.2,13.6c0.3,0.4,1,0.6,0.9,1.3c-4.2-1.8-6.8-7.2-5.7-11.9
	c1.1-4.7,3.6-8.4,8.4-10.2c0.4-0.2,0.9-0.3,0.9-0.9C51.3,56.1,51.3,53.2,51.2,50z M64.2,17.6c-0.5-1.1-1.7-1.7-2.9-1.3
	c-1.4,0.3-2.6,1.2-3.4,2.4c-3.6,5.5-5.7,11.4-5.3,18.2c0.1,1.3,0.5,1.4,1.5,0.7c1.8-1.3,3.3-2.9,4.7-4.7c2.8-3.6,5.2-7.4,5.8-12.1
	C64.7,19.7,64.6,18.6,64.2,17.6L64.2,17.6z M53.2,67c0.1,6.4,0.2,12.8,0.4,19.1c0,2,0.2,2,1.9,1.2c3.6-1.7,4.8-5,5.3-8.6
	C61.5,73.5,58.4,68.5,53.2,67L53.2,67z"/>
</svg>
