<?xml version="1.0" encoding="utf-8"?>
<!-- Generator: Adobe Illustrator 21.0.0, SVG Export Plug-In . SVG Version: 6.00 Build 0)  -->
<svg version="1.1" id="Layer_1" xmlns="http://www.w3.org/2000/svg" xmlns:xlink="http://www.w3.org/1999/xlink" x="0px" y="0px"
	 viewBox="0 0 109.3 137.2" style="enable-background:new 0 0 109.3 137.2;" xml:space="preserve">
<style type="text/css">
	.st0{fill:#FFFFFF;}
</style>
<title>pin-who</title>
<g>
	<path class="st0" d="M48,36.2c2-1.6,3.6-2.7,5.8-2.4c3.8,0.5,5.6,2.3,5.6,6.1c0,8.9,0,17.8,0,26.8c0,0.8,0,1.6,0,2.8
		c1.6-1.3,3.7-1.9,5.8-1.7c3.3,0.1,5.5,2.1,5.6,5.4c0.1,6,0,12,0,18.1c0,1.1-0.4,1.5-1.5,1.5c-5,0.3-5,0.3-5-4.6c0-4.4,0-8.8,0-13.3
		c0-1.7-0.6-2.9-2.4-2.9s-2.5,1.2-2.5,2.8c0,5.2-0.1,10.4,0,15.7c0,1.6-0.4,2.3-2.2,2.3c-4.4-0.1-4.4,0-4.4-4.4c0-15,0-30,0-45
		c0-0.9,0-1.7-0.2-2.6c-0.3-1.3-0.9-2.6-2.5-2.5s-2,1.3-2.3,2.6c-0.1,0.8-0.2,1.6-0.2,2.4c0,4.4-0.1,8.8,0,13.3c0,1.5-0.5,2-2,2
		c-4.6,0-4.6,0.1-4.6-4.4c0-7.8,0-15.7,0-23.5c0-1.7-0.5-2.4-2.2-2.2c-1.3,0.1-2.6,0.1-3.9,0c-1.8-0.2-2.2,0.6-2.2,2.2
		c0.1,8.5,0,17,0.1,25.5c0,1.7-0.4,2.3-2.2,2.2c-5,0-5,0-5-5c0-7.5-0.1-14.9,0.1-22.4c0-2.3-0.7-3-2.8-2.7c-0.7,0.1-1.4,0.1-2.2,0
		c-2.8,0-3.6-1-2.9-3.8c0.2-0.9,0.8-0.9,1.5-0.9c8.9,0,17.8,0,26.7,0c1.4,0,1.7,0.6,1.7,1.8C47.9,28.9,48,32.3,48,36.2z"/>
	<path class="st0" d="M35,79.8c-1.1,3.3-2.1,6.5-3.2,9.8c-1.2,3.7-0.3,3.1-4.4,3.3c-4.1,0.2-4.1,0.1-4.9-3.9
		c-1.3-6.2-2.5-12.3-3.8-18.5c-0.3-1.5,0-2,1.6-2c4.4,0,4.4,0,5.3,4.2c0.7,3,1.3,6.1,2,9.1c0,0,0.1,0,0.4,0.2
		c1.2-3.7,2.5-7.5,3.6-11.2c0.4-1.5,1.1-2,2.7-2c5.1,0.1,5.1,0,6.2,4.9c0.7,3.1,1.6,6.2,2.7,9.2c0.8-3.5,1.7-7,2.5-10.5
		c0.3-1.1,0-2.8,1.1-3.1c1.6-0.3,3.2-0.4,4.7-0.2c0.9,0,0.7,0.8,0.6,1.3c-1.7,7.1-3.4,14.2-5,21.3c-0.2,0.8-0.5,1.2-1.3,1.1h-0.7
		c-6,0.2-6,0.2-7.5-5.6c-0.7-2.5-1.4-4.9-2-7.4L35,79.8z"/>
	<path class="st0" d="M83.5,31.7c0,1-0.1,1.6-0.1,2.2c0,12.8,0,25.7,0,38.5c0,1.4,0.2,2.2,1.7,2.8c1.7,0.7,2.9,2.4,3,4.2
		c0.3,3.1,0.3,6.2,0,9.3c-0.1,1.9-1.3,3.5-3,4.2c-2.3,0.9-4.9,1-7.2,0.1c-1.9-0.6-3.2-2.4-3.2-4.5c-0.1-3-0.1-6.1,0-9.1
		c0-2,1.3-3.8,3.3-4.4c0.8-0.2,1.3-0.9,1.2-1.8c0-13.8,0-27.5,0-41.6c-1.8,0.9-2.7,2.5-4.4,3.5C74.3,32.9,74,30.8,76,29
		c1.5-1.4,3-3,4.3-4.6c0.7-0.8,1.2-0.8,1.9,0c1.2,1.5,2.5,2.8,3.9,4.1c2.2,1.8,2.4,4,1.9,6.8C86.2,34.5,85.3,32.8,83.5,31.7z
		 M83.1,84.4c0-1.5,0-3,0-4.6c0-1.2-0.6-2.2-1.9-2.2c-1,0-1.9,0.9-1.9,1.9c0,0,0,0.1,0,0.1c-0.1,3-0.1,5.9,0,8.9
		c-0.1,1,0.7,1.9,1.7,2c0,0,0.1,0,0.1,0c1.3,0,1.9-0.9,2-2.1S83.1,85.7,83.1,84.4L83.1,84.4z"/>
	<path class="st0" d="M75.4,47.7c0,0.4,0,0.9,0,1.3c0.2,1.5-0.4,2.1-1.9,1.9c-1.1-0.1-2.2-0.1-3.2,0.1c-0.9,0.1-2.3-0.6-2.7,0.5
		c-0.5,1.4-0.5,2.9,0,4.3c0.2,0.6,0.9,1,1.6,0.9c0.9,0,1.7-0.7,1.7-1.6c0.2-2.8,2.2-1.7,3.5-1.7c1.7,0.1,0.7,1.7,0.9,2.6
		c0,0.2,0,0.4-0.1,0.6c-0.7,2.3-3.7,3.5-7.5,3c-3.3-0.4-5-2-5.1-4.6c-0.1-3-0.1-6.1,0-9.1c-0.1-2.8,2.2-5.1,5-5.2c0.1,0,0.2,0,0.3,0
		h0.2C73.9,40.5,75.4,42,75.4,47.7z M70.8,46.2c0-1.3-0.1-2.6-1.6-2.6c-1.8,0-1.7,1.5-1.8,2.8s0.6,1.6,1.8,1.6
		C70.7,48.1,71,47.3,70.8,46.2z"/>
</g>
</svg>
