<?xml version="1.0" encoding="utf-8"?>
<!-- Generator: Adobe Illustrator 21.0.0, SVG Export Plug-In . SVG Version: 6.00 Build 0)  -->
<svg version="1.1" id="Layer_1" xmlns="http://www.w3.org/2000/svg" xmlns:xlink="http://www.w3.org/1999/xlink" x="0px" y="0px"
	 viewBox="0 0 109.3 137.2" style="enable-background:new 0 0 109.3 137.2;" xml:space="preserve">
<style type="text/css">
	.st0{fill:#FFFFFF;}
</style>
<title>pin-zep</title>
<g>
	<path class="st0" d="M97.2,55.2v-0.3c0-3.4,0-6.9,0-10.3c0-0.7-0.1-1.3-0.4-1.9c0.1-0.1,0.1,0,0.2,0h2.7c0.2,0,0.2,0,0.1,0.2
		c-0.2,0.4-0.3,0.9-0.3,1.3c0,0.2,0,0.4,0,0.6c0,7.9,0,15.9,0,23.8c-0.1,0.8,0.1,1.7,0.4,2.4h-3.1l0.2-0.3c0.2-0.4,0.3-0.9,0.3-1.3
		c0-2.1,0-4.3,0-6.4c0-0.3,0-0.5-0.1-0.7l-3.3-9.4c0-0.1,0-0.1-0.1-0.1c0,0.1,0,0.2,0,0.2c0,4.5,0,8.9-0.1,13.4
		c-0.1,0.7,0.1,1.4,0.4,2c0.1,0.1,0,0.1-0.1,0.1h-2.9c0,0,0-0.1,0-0.1c0.3-0.6,0.5-1.2,0.4-1.9c0-2.8,0-5.7,0-8.5c0-4.3,0-8.7,0-13
		c0.1-0.8-0.1-1.6-0.4-2.3c0.1,0,0.1,0,0.2,0h3.1c0.2,0,0.2,0,0.2,0.2c0,0.1-0.1,0.3-0.1,0.4c0,1.5,0,3,0,4.5c0,0.1,0,0.2,0.1,0.3
		l2.5,6.9C97.1,55.2,97.2,55.2,97.2,55.2z"/>
	<path class="st0" d="M21.9,42.6h0.2c2,0,4,0,6,0c1,0,2,0.2,2.9,0.6c1.3,0.5,2.1,1.8,2.1,3.2c0,1.4-0.2,2.7-0.6,4.1
		c-0.6,2.3-1.4,4.5-2.1,6.7c-0.6,1.9-1.2,3.9-1.9,5.8c-0.4,1.2-1,2.4-1.7,3.5c-0.4,0.7-1,1.3-1.7,1.6c-0.4,0.2-0.9,0.3-1.4,0.3
		c-0.5,0-1.1,0-1.7,0c-0.1,0-0.2,0-0.1-0.2c0.3-0.9,0.5-1.9,0.4-2.9c0-6.6,0-13.3,0-19.9C22.4,44.5,22.3,43.5,21.9,42.6z M24.6,65.2
		c0.4-0.4,0.6-0.8,0.9-1.3c0.5-1.2,1-2.4,1.4-3.7c1.2-3.4,2.3-6.7,3.2-10.2c0.3-1,0.5-2,0.6-3.1c0.2-0.9-0.4-1.8-1.3-2
		c0,0-0.1,0-0.1,0c-0.3-0.1-0.6-0.1-0.9-0.1h-3.5c-0.3,0-0.3,0-0.3,0.3c0,6.6,0,13.2,0,19.8L24.6,65.2z"/>
	<path class="st0" d="M36.1,45.3c0-0.8,0-1.7,0-2.5c0-0.1,0-0.2,0.2-0.1h8.3c0.3,0,0.3,0,0.2,0.2L36,65.7c-0.1,0.1-0.1,0.2,0.1,0.2
		h12.6c0.8,0,1.6-0.2,2.2-0.6H51c0.1,0.1,0,0.2,0,0.2c0,0.7,0,1.5,0,2.2c0,0.2,0,0.3-0.3,0.3H32.8c-0.3,0-0.3,0-0.2-0.3L41.4,45
		c0.1-0.3,0.1-0.3-0.2-0.3c-0.9,0-1.8,0-2.7,0c-0.8,0-1.5,0.2-2.2,0.5L36.1,45.3L36.1,45.3z"/>
	<path class="st0" d="M80.5,65.6c0,0.9,0,1.8,0,2.7c0,0.1,0,0.2-0.1,0.1h-7.1c-0.1,0-0.1,0-0.2,0c0.4-0.7,0.5-1.6,0.4-2.4
		c0-7,0-14,0-21c0-0.2,0-0.4,0-0.6c0-0.6-0.1-1.2-0.4-1.7c0-0.1,0.1,0,0.2,0l5.3-0.1c0.2,0,0.3,0,0.3,0.3c0,0.8,0,1.7,0,2.5
		c0,0-0.1,0-0.1,0c-0.8-0.5-1.7-0.7-2.6-0.5c-0.4,0-0.4,0-0.4,0.5c0,0.3,0,0.6,0,0.9s0.1,0.2,0.2,0.2h4.6c0.2,0,0.3,0.1,0.3,0.3
		c0,0.8,0,1.7,0,2.5c-0.1,0-0.2,0-0.2-0.1c-0.5-0.3-1.1-0.5-1.7-0.5h-2.9c-0.2,0-0.2,0.1-0.2,0.2c0,5.7,0,11.4,0,17.1
		c0,0.1,0,0.2,0.2,0.2h3c0.4,0,0.8-0.1,1.1-0.3C80.1,65.8,80.3,65.7,80.5,65.6z"/>
	<path class="st0" d="M63.2,68c0.4-0.7,0.5-1.6,0.5-2.4c0-6.9,0-13.8,0-20.7c0.1-0.8-0.1-1.6-0.4-2.3c0.1,0,0.2,0,0.2,0h6
		c0.5,0,1,0.1,1.5,0.3c0.7,0.3,1.1,0.9,1.2,1.6c0.2,0.7,0.1,1.5-0.2,2.1c-0.4,0.9-1.4,1.5-2.4,1.5h-3.4c-0.2,0-0.3,0-0.3,0.2
		c0,6,0,11.9,0,17.9c0,0.5,0.1,1.1,0.3,1.6c0.1,0.1,0.1,0.2-0.1,0.2L63.2,68L63.2,68z M67.9,46.2h1.7c0.6,0,0.7-0.1,0.8-0.7
		c0,0,0-0.1,0-0.1c0-0.3-0.2-0.6-0.5-0.6c0,0-0.1,0-0.1,0H66c-0.2,0-0.2,0.1-0.2,0.2c0,0.3,0,0.7,0,1.1c0,0.2,0,0.2,0.2,0.2
		L67.9,46.2z"/>
	<path class="st0" d="M53.4,55.3c0-3.6,0-7.3,0-10.9c0-0.6-0.1-1.2-0.4-1.7c-0.1-0.2,0.1-0.1,0.1-0.1h6.1c0.4,0,0.9,0.1,1.3,0.2
		c0.7,0.3,1.3,0.9,1.4,1.7c0.1,0.5,0.1,1.1,0,1.6c-0.3,1.2-1.4,2-2.6,2h-3.5c-0.2,0-0.2,0-0.2,0.2c0,6,0,12,0,17.9
		c0,0.5,0.1,1,0.3,1.5c0.1,0.2,0,0.2-0.1,0.2h-2.7c-0.1,0-0.2,0-0.1-0.1c0.3-0.6,0.4-1.3,0.4-2C53.4,62.3,53.4,58.7,53.4,55.3
		L53.4,55.3z M57.7,46.3h1.7c0.6,0,0.8-0.1,0.8-0.8c0,0,0,0,0-0.1c0-0.3-0.2-0.6-0.5-0.6c0,0-0.1,0-0.1,0h-3.8c-0.1,0-0.2,0-0.2,0.2
		c0,0.4,0,0.7,0,1.1c0,0.2,0,0.2,0.2,0.2L57.7,46.3z"/>
	<path class="st0" d="M9.6,42.6h3.2c0,0.1,0,0.2-0.1,0.2c-0.3,0.6-0.5,1.3-0.5,2c0,7,0,14,0,21c0,0.4,0,0.3,0.3,0.3
		c1.7,0,3.5,0,5.2,0c0.7,0,1.5-0.1,2.2-0.5c0.2-0.1,0.2-0.1,0.2,0.1c0,0.8,0,1.6,0,2.4c0,0.2,0,0.2-0.2,0.2H9.8
		c-0.2,0-0.2,0-0.1-0.2c0.2-0.5,0.4-1,0.3-1.6c0-0.1,0-0.1,0-0.2c0-7.3,0-14.6,0-21.8C10.1,43.9,9.9,43.2,9.6,42.6z"/>
	<path class="st0" d="M14.3,42.6h5.3c0.2,0,0.2,0,0.2,0.2c0,0.8,0,1.7,0,2.5c-0.1,0-0.1,0-0.2,0c-0.5-0.4-1.2-0.5-1.8-0.5h-0.7
		c-0.2,0-0.2,0-0.2,0.2c0,0.4,0,0.8,0,1.1c0,0.2,0,0.2,0.2,0.2h4c0.1,0,0.2,0,0.2,0.2c0,0.9,0,1.7,0,2.6c0,0,0,0,0,0.1L21.1,49
		c-0.4-0.3-0.9-0.4-1.5-0.4h-2.5c-0.2,0-0.2,0.1-0.2,0.2c0,2.5,0,5,0,7.4c0,1.6,0,3.2,0,4.8c0,0.2,0,0.2,0.2,0.2c0.5,0,1,0,1.5,0
		c0.4-0.1,0.8-0.2,1.1-0.5c0.2-0.1,0.2-0.1,0.2,0.1c0,0.8,0,1.6,0,2.4c0,0.2,0,0.2-0.2,0.2h-5.5l0,0c0.3-0.6,0.4-1.2,0.4-1.9
		c0-5.8,0-11.5,0-17.3C14.8,43.8,14.6,43.1,14.3,42.6z"/>
	<path class="st0" d="M81.3,68.4c0.3-0.6,0.5-1.2,0.4-1.9c0-5.6,0-11.2,0.1-16.8c0-1.6,0-3.2,0-4.8c0.1-0.8-0.1-1.6-0.4-2.3h3.2
		c0,0.1,0,0.2-0.1,0.2c-0.3,0.6-0.5,1.3-0.5,2c0,7,0,14-0.1,21.1c0,0.4,0,0.3,0.3,0.3c1,0,2,0,3,0c0.7,0,1.5-0.2,2.2-0.5l0.2-0.1
		c0.1,0,0,0.1,0,0.2c0,0.8,0,1.6,0,2.4c0,0.2,0,0.2-0.2,0.2L81.3,68.4L81.3,68.4z"/>
	<path class="st0" d="M52.4,49.1L52.4,49.1c-0.7-0.4-1.4-0.6-2-0.5c-0.7,0-1.4,0-2.1,0c-0.2,0-0.2,0-0.2,0.2c0,4.1,0,8.2,0,12.3
		c0,0.2,0.1,0.2,0.2,0.2c0.4,0,0.8,0,1.1,0c0.5,0,0.9-0.1,1.3-0.4c0.2-0.1,0.3-0.2,0.4-0.2s0.1,0.1,0.1,0.1c0,0.8,0,1.6,0,2.4
		c0,0.1,0,0.2-0.2,0.2h-5.6c0,0,0,0,0-0.1c0.3-0.6,0.5-1.3,0.4-2c0-5.6,0-11.2,0-16.8c0.1-0.7-0.1-1.4-0.4-2c0.1-0.1,0.2,0,0.2,0
		h5.1c0.2,0,0.2,0,0.2,0.2c0,0.8,0,1.5,0,2.3c0,0.1,0,0.1,0,0.2c-0.1,0-0.2,0-0.2-0.1c-0.5-0.3-1-0.5-1.6-0.5h-0.9
		c-0.2,0-0.2,0.1-0.2,0.2c0,0.4,0,0.7,0,1.1c0,0.2,0,0.3,0.3,0.3h3.9c0.2,0,0.3,0.1,0.3,0.3c0,0.8,0,1.5,0,2.3
		C52.4,49.1,52.4,49.1,52.4,49.1z"/>
	<path class="st0" d="M86.2,42.6h2.9c0.1,0,0.2,0,0.1,0.1c-0.3,0.6-0.4,1.3-0.4,1.9c0,0.9,0,1.7,0,2.6c0,4.6,0,9.1,0,13.7
		c-0.1,0.8,0,1.6,0.4,2.3c0,0.1,0,0.1-0.1,0.1h-2.7c-0.2,0-0.2,0-0.1-0.2c0.3-0.6,0.4-1.2,0.3-1.8c0-1.2,0-2.3,0-3.4
		c0-4.4,0-8.8,0-13.2C86.7,44,86.5,43.3,86.2,42.6z"/>
	<path class="st0" d="M34.4,55.3H36c0.2,0,0.2,0,0.2,0.2c-0.3,0.8-0.6,1.7-0.9,2.5c0,0.1-0.1,0.2-0.2,0.2h-3.2c-0.2,0-0.2,0-0.1-0.2
		c0.3-0.8,0.6-1.7,0.9-2.5c0-0.1,0.1-0.2,0.2-0.2H34.4z"/>
</g>
</svg>
