<?xml version="1.0" encoding="utf-8"?>
<!-- Generator: Adobe Illustrator 21.0.0, SVG Export Plug-In . SVG Version: 6.00 Build 0)  -->
<svg version="1.1" id="Layer_1" xmlns="http://www.w3.org/2000/svg" xmlns:xlink="http://www.w3.org/1999/xlink" x="0px" y="0px"
	 viewBox="0 0 109.3 137.2" style="enable-background:new 0 0 109.3 137.2;" xml:space="preserve">
<style type="text/css">
	.st0{fill:#FFFFFF;}
</style>
<title>pin-sam</title>
<g>
	<path class="st0" d="M13.5,52.6c2.8-0.2,5-2.5,5-5.3c0-2.2-1.4-4.1-3.4-4.8c-0.7-0.2-1.3-0.4-2-0.6c-0.7-0.2-1.4-0.5-2-0.8
		c-0.8-0.4-1.3-1.3-1.3-2.2c-0.1-1.8,1.3-3.3,3.1-3.3c1.5,0,2.8,0.9,3.2,2.3c0.3,0.8,0.3,0.8,1.1,0.8h0.3c0.6,0,0.7-0.1,0.6-0.7
		c0-0.1,0-0.2-0.1-0.4c-0.4-1.9-1.9-3.3-3.8-3.7c-2-0.5-4.2,0.2-5.4,1.9c-1.5,2-1.1,4.9,0.9,6.4c0.3,0.2,0.7,0.4,1.1,0.6
		c0.6,0.2,1.1,0.4,1.7,0.5c0.9,0.2,1.8,0.5,2.6,1c1.2,0.6,1.8,1.9,1.6,3.2c-0.2,1.5-1.2,2.7-2.7,3.1c-1.9,0.6-4-0.5-4.6-2.4
		c0-0.1-0.1-0.2-0.1-0.3c-0.2-0.8-0.2-0.8-1-0.8H8.1c-0.6,0-0.6,0-0.5,0.7c0.3,2.9,3,5,5.9,4.7C13.4,52.6,13.5,52.6,13.5,52.6z"/>
	<path class="st0" d="M23.9,46.9c0.1-0.4,0.5-0.7,1-0.7c2.4,0,4.7,0,7.1,0c0.5,0,0.9,0.3,1,0.7c0.5,1.3,1.1,2.6,1.7,3.9
		c0.7,1.6,0.7,1.6,2.5,1.4c-0.1-0.4-0.2-0.7-0.3-1c-2.3-5.3-4.6-10.7-6.9-16c-0.6-1.3-0.2-1-1.7-1.1c-0.5-0.1-0.9,0.2-1.1,0.7
		C24.8,40.4,22.4,46,20,51.6c-0.1,0.2-0.3,0.4-0.1,0.7c0.2,0,0.5,0,0.7,0c0.7,0.1,1-0.2,1.2-0.8C22.6,50,23.3,48.5,23.9,46.9z
		 M28.5,36c1.1,3,2.4,5.7,3.5,8.6H25C26.1,41.7,27.4,39,28.5,36z"/>
	<path class="st0" d="M57.9,51.3c0-5,0-10.1,0-15.1c0-0.6,0.3-1.4-0.1-1.8s-1.3-0.1-1.9-0.2s-0.8,0.2-1,0.7c-1.9,4.8-4,9.5-5.8,14.4
		c-0.1,0.1-0.1,0.3-0.3,0.4c-0.2-0.5-0.4-1.1-0.6-1.6c-1.6-4-3.3-8-4.9-12c-0.2-0.6-0.3-1.4-0.8-1.7s-1.4-0.1-2-0.1h-0.1
		c-0.4,0-0.5,0.1-0.5,0.5c0,0.2,0,0.3,0,0.5c0,5.4,0,10.8,0,16.2c0,0.2,0,0.4,0,0.7c0,0.1,0.1,0.3,0.2,0.3c0.5,0.1,0.9,0.1,1.4,0
		c0.3-0.2,0.2-0.6,0.1-0.9c0-4.8,0-9.7,0-14.5c0-0.2-0.1-0.4,0.2-0.7c0.1,0.2,0.2,0.3,0.2,0.5c0.7,2,1.5,3.9,2.3,5.9
		c1.2,3,2.4,6,3.6,8.9c0.1,0.2,0.1,0.6,0.4,0.7c0.4,0.1,0.8,0.1,1.2,0c0.4,0,0.4-0.5,0.5-0.7c2-5,4-9.8,5.9-14.8
		c0.1-0.2,0.1-0.5,0.4-0.5c0,0.2,0,0.3,0,0.5c-0.2,4.8,0,9.6-0.1,14.5c0,0.2,0,0.5,0,0.8s0.1,0.3,0.3,0.3c0.4,0,0.8,0,1.2,0
		c0.2,0,0.3-0.2,0.3-0.3S57.9,51.5,57.9,51.3z"/>
	<path class="st0" d="M102.3,65.2c-0.8-1.1-2.1-1.9-3.4-2.2c-0.7-0.1-1.4-0.3-2.1-0.6c-0.5-0.2-1-0.6-1.2-1.2
		c-0.5-1.3,0.2-2.8,1.5-3.3c1.2-0.5,2.6,0.1,3.1,1.3c0,0.1,0.1,0.2,0.1,0.3c0.2,0.7,0.2,0.7,1,0.7h0.8c1.1,0,1.1,0,0.9-1.1
		c-0.5-2.7-3-4.4-5.7-4c-0.2,0-0.4,0.1-0.6,0.1c-2.2,0.6-3.8,2.6-3.8,4.9c-0.2,2.2,1.3,4.3,3.4,4.9c0.4,0.1,0.8,0.2,1.2,0.3
		c0.7,0.1,1.4,0.4,2,0.7c0.8,0.4,1.4,1.2,1.4,2.1c0.1,1.5-1,2.9-2.5,3.2c-1.5,0.3-3-0.6-3.4-2.1c-0.1-0.1-0.1-0.3-0.1-0.5
		c0-0.4-0.3-0.4-0.6-0.4c-0.5,0-1,0-1.5,0s-0.6,0.1-0.5,0.6c0.2,2.3,1.8,4.3,4,4.9c3,0.9,6.2-0.9,7-3.9
		C103.6,68.3,103.3,66.6,102.3,65.2L102.3,65.2z"/>
	<path class="st0" d="M15.8,66.7c2-0.4,3.5-2,3.9-4c0.2-1.1,0.2-2.1-0.1-3.2c-0.4-1.6-1.6-2.9-3.1-3.4c-1-0.4-2-0.5-3-0.5H8.9
		c-1,0-1,0-1,1c0,0,0,0.1,0,0.1c0,5.3,0,10.7,0,16c0,0.2,0,0.4,0,0.6s0.1,0.5,0.5,0.5h1.2c0.9,0,0.9,0,0.9-0.9c0-2.2,0-4.4,0-6.6
		c-0.1-0.3,0-0.6,0.1-0.9c0.3,0.1,0.3,0.3,0.4,0.4l5.3,7.5c0.1,0.2,0.2,0.5,0.5,0.5c1,0,1.9,0,3,0l-5-6.7c0.1-0.1,0.1-0.1,0.2-0.1
		L15.8,66.7z M10.8,65c-0.3,0-0.3-0.2-0.3-0.5c0-1,0-2,0-2.9s0-1.9,0-2.8c0-0.5,0.1-0.7,0.6-0.7c1.1,0,2.2,0,3.3,0.1
		c1.8,0.2,3.1,1.8,3,3.6c0,0.2-0.1,0.4-0.1,0.6c-0.2,1-1,1.7-1.9,2.1C13.9,64.9,12.3,65.1,10.8,65L10.8,65z"/>
	<path class="st0" d="M91,55.6h-6.5c-1.8,0-1.8,0-1.7,1.8c0,0.7,0,0.7,0.7,0.7s1.3,0,2,0c0.4,0,0.6,0.2,0.5,0.6c0,0.2,0,0.4,0,0.6
		c0,3.8,0,7.6,0,11.3c0,0.8,0,1.6,0,2.5c0,0.8,0,0.7,0.8,0.7h1.1c0.7,0,0.7,0,0.7-0.8c0-2.4,0-4.7,0-7.1c0-2.1,0-4.2,0-6.3
		c0-1.4,0-1.4,1.4-1.4c1.9,0,1.7,0.3,1.7-1.8C91.7,55.6,91.7,55.6,91,55.6z"/>
	<path class="st0" d="M77.1,66.9l0.7-0.2c1.6-0.3,3-1.5,3.7-3c1.3-2.8,0.2-6.2-2.6-7.5c-0.5-0.3-1.1-0.4-1.7-0.5
		c-2.2-0.2-4.5-0.3-6.7-0.2c-0.3,0-0.4,0.1-0.4,0.4s0,0.4,0,0.6c0,5.4,0,10.8,0,16.2c0,0.2,0,0.4,0,0.6s0.1,0.4,0.5,0.4
		c0.5,0,1,0,1.5,0s0.6-0.2,0.6-0.7c0-2.2,0-4.5,0-6.7c-0.1-0.3-0.1-0.7,0-1c0.4,0.1,0.4,0.4,0.6,0.6l5.2,7.3
		c0.2,0.2,0.3,0.5,0.7,0.5c0.9,0,1.8,0,2.9,0L77,67C77,67,77.1,66.9,77.1,66.9z M73,65c-0.4,0-0.4-0.2-0.4-0.5c0-1,0-2,0-2.9
		c0-1,0-2,0-2.9c0-0.3,0.1-0.5,0.5-0.5c1.2,0,2.3,0,3.5,0.1c1.8,0.2,3.1,1.8,3,3.6c0,0.3-0.1,0.5-0.2,0.8c-0.3,0.9-1,1.6-1.9,1.9
		C76,64.9,74.5,65.1,73,65z"/>
	<path class="st0" d="M61,65.8c1.4,0,2.9,0,4.3,0c2,0,2,0,1.8-2c0,0,0-0.1,0-0.1c0-0.3-0.2-0.4-0.4-0.4H66c-1.6,0-3.3,0-4.9,0
		c-0.4,0-0.6-0.1-0.6-0.6c0-1.3,0-2.7,0-4.1c0-0.5,0.2-0.6,0.6-0.6c1.1,0,2.2,0,3.2,0h2.4c0.4,0,0.6-0.2,0.6-0.6s0-0.8,0-1.1
		c0-0.8,0-0.8-0.8-0.8h-7.9c-0.8,0-0.8,0-0.8,0.8c0,2.7,0,5.5,0,8.2c0,2.7,0,5.5,0,8.3c0,0.8,0,0.8,0.8,0.8h7c1.6,0,1.6,0,1.6-1.6
		c0-0.9,0-0.9-0.9-0.9c-1.7,0-3.5,0-5.2,0c-0.5,0-0.7-0.2-0.6-0.6c0-1.4,0-2.8,0-4.3C60.4,65.9,60.6,65.7,61,65.8z"/>
	<path class="st0" d="M31,55.2c-5.2,0-9.4,4.3-9.4,9.5c0,5.2,4.3,9.4,9.5,9.4c5.2,0,9.4-4.2,9.4-9.4c0-5.2-4.2-9.5-9.4-9.5
		C31.1,55.2,31.1,55.2,31,55.2z M31,71.5c-3.8,0-6.8-3.1-6.8-6.9c0-3.8,3.1-6.8,6.9-6.8c3.8,0,6.8,3.1,6.8,6.9c0,0,0,0.1,0,0.1
		C37.9,68.6,34.8,71.5,31,71.5C31.1,71.5,31,71.5,31,71.5L31,71.5z"/>
	<path class="st0" d="M52.8,64.5L52.2,64c0-0.3,0.2-0.4,0.4-0.5c1.2-1.1,1.6-2.9,1-4.4c-0.7-2.1-2.7-3.6-4.9-3.5c-1.5,0-3,0-4.5,0
		c-0.7,0-0.7,0-0.7,0.8c0,1.7,0,3.5,0,5.2c0,3.8,0,7.5,0,11.3c0,0.9,0,0.9,0.9,0.9h4.8c0.6,0,1.2-0.1,1.8-0.2c2-0.5,3.4-2.1,3.8-4.1
		C55.2,67.6,54.4,65.6,52.8,64.5z M46.4,58.1c0.9,0,1.8,0,2.7,0.1c1,0.2,1.8,1,2,2c0.3,1.3-0.6,2.5-1.8,2.8c0,0,0,0,0,0
		c-1,0.1-1.9,0.2-2.9,0.1c-0.3,0-0.4-0.2-0.4-0.4c0-0.7,0-1.4,0-2.1s0-1.3,0-2C46,58.3,46.1,58.1,46.4,58.1L46.4,58.1z M49.7,71.2
		c-1.1,0.1-2.1,0-3.2,0.1c-0.4,0-0.4-0.2-0.4-0.5c0-0.8,0-1.6,0-2.4s0-1.6,0-2.4c0-0.4,0.2-0.6,0.6-0.5c0.9,0,1.9,0,2.8,0
		c1.5,0.1,2.8,1.3,2.9,2.9C52.4,69.8,51.2,71.1,49.7,71.2z"/>
</g>
</svg>
