<?xml version="1.0" encoding="utf-8"?>
<!-- Generator: Adobe Illustrator 21.0.0, SVG Export Plug-In . SVG Version: 6.00 Build 0)  -->
<svg version="1.1" id="Layer_1" xmlns="http://www.w3.org/2000/svg" xmlns:xlink="http://www.w3.org/1999/xlink" x="0px" y="0px"
	 viewBox="0 0 109.3 137.2" style="enable-background:new 0 0 109.3 137.2;" xml:space="preserve">
<style type="text/css">
	.st0{fill:#FFFFFF;}
</style>
<title>pin-bowie</title>
<path class="st0" d="M87.7,21c-0.3,0.4-0.5,0.8-0.9,1.2c-2.6,3.4-5.2,6.7-7.8,10.1c-1.9,2.5-3.8,5-5.7,7.5s-3.7,4.8-5.6,7.1
	c-1.1,1.4-2.2,2.9-3.3,4.3c-0.6,0.8-1.3,1.6-1.9,2.4c-0.1,0.1-0.2,0.2-0.1,0.3s0.2,0,0.3,0l7.3-1.3l7.8-1.4l0.9-0.2
	c0.1,0,0.3-0.1,0.3,0.1s-0.1,0.2-0.1,0.3l-2,2.2c-1.3,1.4-2.6,2.8-3.9,4.2c-2.2,2.3-4.3,4.6-6.4,6.9c-2.1,2.3-4.1,4.4-6.2,6.6
	l-8.5,9.2l-5,5.4l-7.7,8.2l-4,4.2l-3.5,3.7c-0.1,0.1-0.2,0.3-0.4,0.3c-0.1-0.2,0-0.3,0.1-0.4c0.5-1,1-2,1.4-3
	c0.5-1.3,1.1-2.6,1.7-3.9l3.1-7.3l3.9-9c1.2-2.7,2.3-5.3,3.5-8l3-7c0-0.1,0.1-0.2,0.1-0.3s-0.2,0-0.3,0c-1.5,0.3-2.9,0.7-4.4,1
	c-1.7,0.4-3.4,0.8-5.1,1.3c-1.3,0.3-2.6,0.6-3.9,0.9c-0.5,0.1-0.6,0-0.4-0.4c0.4-1.2,0.9-2.4,1.3-3.7c1.1-3,2.1-5.9,3.2-8.9l4.7-13
	l2.7-7.5l2.4-6.5l1.8-5.1c0-0.1,0.1-0.3,0.1-0.4L87.7,21z"/>
</svg>
