<?xml version="1.0" encoding="utf-8"?>
<!-- Generator: Adobe Illustrator 21.0.0, SVG Export Plug-In . SVG Version: 6.00 Build 0)  -->
<svg version="1.1" id="Layer_1" xmlns="http://www.w3.org/2000/svg" xmlns:xlink="http://www.w3.org/1999/xlink" x="0px" y="0px"
	 viewBox="0 0 109.3 137.2" style="enable-background:new 0 0 109.3 137.2;" xml:space="preserve">
<style type="text/css">
	.st0{fill:#FFFFFF;}
</style>
<title>pin-crosby</title>
<path class="st0" d="M94.4,38.3c-0.2,0.4-0.5,0.8-0.8,1.2c-0.1,0.2-0.3,0.2-0.5,0.2c-0.4-0.1-0.8,0-1.1,0.2
	c-4.7,1.6-9.1,3.8-13.2,6.6c-3.5,2.4-6.8,5.1-10,7.7c-2.8,2.3-5.6,4.6-8.4,6.8c-3.4,2.7-6.8,5.2-10.3,7.8c-0.2,0.2-0.5,0.4-0.3,0.7
	c0.5,0.9,0,1.8-0.2,2.6c-1,2.5-2.8,4.7-5,6.3c-1.2,0.9-2.4,1.6-3.6,2.3c-2,1.1-4.1,1.9-6.4,2.4c-1.7,0.4-3.5,0.5-5.3,0.3
	c-1.3-0.1-2.5-0.3-3.7-0.7c-1-0.3-2-0.7-2.9-1.1c-1.4-0.7-2.4-2-2.7-3.6c-0.5-2.3-0.8-4.6-0.8-6.9c-0.1-2-0.2-4.1-0.2-6.1
	c0-2.4-0.1-4.8,0-7.2c0-0.8,0-1.6,0-2.4c-0.1-0.8,0.3-1.5,0.9-2c1.8-1.4,3.8-2.5,6-3.1c1.6-0.6,3.3-1,5-1.2c1.6-0.3,3.2-0.3,4.8,0
	c0.6,0.1,1,0.5,1.4,0.9c1,1.4,1.9,2.9,2.9,4.3s1.9,3.1,2.8,4.6c0.5,0.8,0.7,0.8,1.4,0.4c3.4-1.7,6.8-3.5,10.1-5.4
	c3.3-1.9,6.6-3.9,9.9-5.9c5.7-3.5,11.7-6.5,18-8.8c2.3-0.9,4.7-1.6,7.1-2.4c0.5-0.2,1-0.4,1.5-0.7c0.6-0.2,1.2-0.1,1.7,0.2
	c0.8,0.4,1.5,1,2.1,1.6L94.4,38.3z"/>
</svg>
