<?xml version="1.0" encoding="utf-8"?>
<!-- Generator: Adobe Illustrator 21.0.0, SVG Export Plug-In . SVG Version: 6.00 Build 0)  -->
<svg version="1.1" id="Layer_1" xmlns="http://www.w3.org/2000/svg" xmlns:xlink="http://www.w3.org/1999/xlink" x="0px" y="0px"
	 viewBox="0 0 109.3 137.2" style="enable-background:new 0 0 109.3 137.2;" xml:space="preserve">
<style type="text/css">
	.st0{fill:#FFFFFF;}
</style>
<title>pin-ramones</title>
<g>
	<path class="st0" d="M91,61.6c-0.9,0-1.8,0-2.7,0c-0.5,0-0.7-0.1-0.7-0.7c0-1.1,0-2.3,0-3.4c0-0.5,0.2-0.7,0.7-0.6
		c0.7,0,1.4,0,2.1,0c0.4,0,0.7-0.1,0.6-0.6c0-1,0-1.9,0-2.9c0-0.4-0.2-0.6-0.6-0.6c-0.7,0-1.5,0-2.2,0c-0.4,0-0.7-0.1-0.7-0.6
		c0-1,0-1.9,0-2.9c0-0.4,0.2-0.6,0.6-0.6c0.8,0,1.6,0,2.4,0c0.6,0,0.8-0.2,0.7-0.8c0-0.9,0-1.8,0-2.7c0-0.6-0.2-0.8-0.8-0.8
		c-2.5,0-5.1,0-7.6,0c-0.6,0-0.8,0.2-0.8,0.8c0,3.2,0,6.5,0,9.7s0,6.6,0,9.9c0,0.4-0.1,0.8,0.5,0.8c2.8,0,5.7,0,8.5,0
		c0.4,0,0.6-0.2,0.6-0.6c0-1,0-2,0-3C91.7,61.7,91.5,61.6,91,61.6z"/>
	<path class="st0" d="M101.3,53.3c-0.8-0.4-1.6-0.9-2.4-1.5c-1-0.8-1.3-2.2-0.9-3.3c0.1-0.4,0.6-0.7,1-0.6c0.4,0,0.7,0.4,0.7,0.8
		c0,0,0,0,0,0c0,0.6,0.1,1.2,0,1.8c0,0.4,0.1,0.7,0.6,0.7c1.3,0,2.6,0,4,0c0.5,0,0.6-0.2,0.6-0.6c0-0.8,0-1.6-0.1-2.5
		c-0.1-1.3-0.9-2.5-2.2-3c-2.2-1-4.7-1.1-7-0.2c-1.5,0.5-2.5,1.8-2.7,3.3c-0.1,1-0.2,2.1-0.1,3.1c0.1,1.6,0.9,3.1,2.2,4
		c1.3,0.9,2.7,1.8,4,2.8c1.1,1.1,1.4,2.6,0.9,4.1c-0.2,0.4-0.6,0.6-1.1,0.6c-0.4-0.1-0.7-0.4-0.7-0.9c0-0.4,0-0.7-0.1-1.1
		c0-0.8,0.3-1.8-0.1-2.3s-1.6-0.1-2.2-0.2s-1.4,0-2.1,0c-0.4,0-0.7,0.1-0.6,0.6c0.1,1,0,1.9,0.1,2.9c0.1,2,1.4,3.6,3.3,4.1
		c1.8,0.6,3.8,0.6,5.6,0c1.9-0.5,3.3-2.1,3.3-4.1C105.7,58,104.8,55.1,101.3,53.3z"/>
	<path class="st0" d="M78.9,44.6c-0.9,0.1-1.9,0.1-2.8,0c-0.7,0-0.9,0.2-0.9,0.9c0,2.4,0,4.9,0,7.3c0,0.3,0.1,0.5-0.1,0.8
		C75,53.5,75,53.4,75,53.3c-0.9-2.6-1.7-5.3-2.6-7.9c-0.2-0.5-0.4-0.8-1-0.7c-1,0.1-2.1,0.1-3.1,0c-0.7,0-0.8,0.2-0.8,0.8
		c0,3.2,0,6.3,0,9.5c0,3.4,0,6.8,0,10.2c0,0.5,0.1,0.7,0.7,0.7c1.1,0,2.2,0,3.3,0c0.5,0,0.7-0.2,0.7-0.7c0-1.4,0-2.7,0-4.1
		s0-2.8,0-4.3c0.2,0.2,0.3,0.5,0.4,0.7c0.8,2.6,1.6,5.2,2.3,7.7c0.1,0.5,0.3,0.7,0.8,0.7c1.2,0,2.4,0,3.6,0c0.4,0,0.6-0.1,0.6-0.6
		c0-0.1,0-0.3,0-0.4c0-6.4,0-12.9,0-19.3C79.9,44.8,79.7,44.6,78.9,44.6z"/>
	<path class="st0" d="M17.8,52.7c0.3-1.6,0.3-3.2-0.1-4.8c-0.3-1.7-1.7-3-3.4-3.1c-2.7-0.2-5.4-0.3-8.2-0.2c-0.5,0-0.5,0.3-0.5,0.6
		c0,6.7,0,13.3,0,19.9c0,0.5,0.1,0.6,0.6,0.6c1.4,0,2.8,0,4.2,0c0.6,0,0.8-0.2,0.7-0.7c0-2.7,0-5.3,0-8c0-0.3-0.2-0.8,0.3-0.8
		s1,0,1.2,0.6c0.1,0.6,0.2,1.1,0.2,1.7c0,2.2,0,4.3,0,6.5c0,0.5,0.1,0.7,0.6,0.7c1.3,0,2.6,0,3.9,0c0.4,0,0.6-0.1,0.6-0.6
		c0-2.4,0-4.8,0-7.2c0.1-1.5-0.9-2.8-2.3-3.1l-0.4-0.2c0.2-0.2,0.4-0.2,0.6-0.2C16.9,54.4,17.7,53.7,17.8,52.7z M12.8,52
		c0,0.4-0.3,0.7-0.6,0.9c-0.8,0.3-1,0.1-1-0.7c0-0.5,0-1,0-1.6s0-1,0-1.5c0-0.3-0.2-0.7,0.2-0.8c0.5-0.1,1,0.1,1.2,0.6
		c0.1,0.1,0.1,0.3,0.1,0.5C12.9,50.2,12.9,51.1,12.8,52L12.8,52z"/>
	<path class="st0" d="M65.5,55.2c0-1.9,0-3.7,0-5.6c0-0.3,0-0.5-0.1-0.8c-0.2-1.8-1.4-3.3-3.1-4c-1.4-0.6-3-0.7-4.4-0.5
		c-3.1,0.5-4.7,2.2-4.9,5.3c-0.2,3.7-0.2,7.4,0,11c0,0.7,0.1,1.4,0.3,2.1c0.9,2.3,2.8,3.3,5.1,3.5c4.5,0.5,7.1-1.8,7.2-6.3
		C65.5,58.4,65.5,56.8,65.5,55.2L65.5,55.2z M60,60.9c0,0.4-0.1,0.8-0.1,1.2c0,0.4-0.4,0.6-0.7,0.6c0,0,0,0,0,0
		c-0.4,0-0.7-0.3-0.7-0.6c0,0,0,0,0,0c0-0.6-0.1-1.3-0.1-1.9c0-1.6,0-3.2,0-4.9v-6.1c0-0.3,0-0.6,0.1-0.9c0.1-0.3,0.4-0.5,0.8-0.5
		c0.3,0,0.6,0.2,0.6,0.5c0.1,0.3,0.1,0.7,0.1,1.1C60,53.2,60,57,60,60.9z"/>
	<path class="st0" d="M29.7,45.3c-0.1-0.6-0.3-0.7-0.8-0.7c-1.1,0-2.2,0-3.3,0s-2.2,0-3.2,0c-0.6,0-0.8,0.1-0.9,0.7
		c-0.4,3-0.8,5.9-1.2,8.9c-0.5,3.6-0.9,7.2-1.4,10.8c-0.1,0.5,0,0.8,0.6,0.8c1.5,0,3,0,4.5,0c0.4,0,0.6-0.1,0.6-0.6
		c0-0.7,0.1-1.3,0.2-2c0.2-1.6,0-1.2,1.4-1.3c0.5,0,0.7,0.2,0.7,0.7c0,0.8,0.1,1.6,0.2,2.5c0,0.5,0.2,0.7,0.7,0.7c1.4,0,2.8,0,4.2,0
		c0.7,0,0.8-0.2,0.7-0.8C31.6,58.4,30.7,51.9,29.7,45.3z M25.6,58.3c-0.7,0-0.8-0.2-0.8-0.8c0.3-2.4,0.6-4.9,0.8-7.3h0.2l0.7,6.8
		c0,0.1,0,0.2,0,0.2C26.7,58.3,26.7,58.2,25.6,58.3L25.6,58.3z"/>
	<path class="st0" d="M50.1,44.7c-2,0-3.9,0-5.8,0c-0.5,0-0.8,0.2-0.8,0.7c0,0.2,0,0.4-0.1,0.7l-1,8c-0.1-0.2-0.2-0.5-0.3-0.8
		c-0.3-2.5-0.7-4.9-1-7.4c-0.1-0.8-0.3-1.1-1.2-1.1c-1.7,0.1-3.5,0.1-5.2,0c-0.7,0-1,0.2-1,0.9c0,3.8,0,7.6,0,11.5c0,2.7,0,5.3,0,8
		c0,0.7,0.2,0.8,0.8,0.8c1.1-0.1,2.1,0,3.2,0c0.6,0,0.8-0.2,0.8-0.8c0-3.7,0-7.4,0-11.1c-0.1-0.3,0-0.6,0.1-0.9
		c0.5,3.6,1,7,1.5,10.5c0.3,2.3,0.3,2.3,2.6,2.3c0.1,0,0.3,0,0.4,0c0.6,0.1,0.8-0.2,0.9-0.8c0.5-4.1,1.1-8.1,1.6-12.2h0.2
		c0,0.3,0,0.6,0,0.9c0,3.8,0,7.5,0,11.3c0,0.6,0.1,0.8,0.8,0.8c1.2-0.1,2.3,0,3.5,0c0.4,0,0.6-0.1,0.6-0.6c0-6.7,0-13.3,0-19.9
		C50.7,44.8,50.6,44.6,50.1,44.7z"/>
</g>
</svg>
