<?xml version="1.0" encoding="utf-8"?>
<!-- Generator: Adobe Illustrator 21.0.0, SVG Export Plug-In . SVG Version: 6.00 Build 0)  -->
<svg version="1.1" id="Layer_1" xmlns="http://www.w3.org/2000/svg" xmlns:xlink="http://www.w3.org/1999/xlink" x="0px" y="0px"
	 viewBox="0 0 109.3 137.2" style="enable-background:new 0 0 109.3 137.2;" xml:space="preserve">
<style type="text/css">
	.st0{fill:#FFFFFF;}
</style>
<title>pin-beastieboys</title>
<g>
	<path class="st0" d="M0.9,54.9l4.9-2.7c1.3-0.7,2.5-1.5,3.9-2.2c0.4-0.2,0.6-0.5,0.5-0.9c0-2.3,0-4.6,0-6.9c0-1.8,0-3.5,0-5.2
		c0-0.6,0.2-0.7,0.7-0.7c6.7,0,13.3,0,20,0c0.2,0,0.3,0,0.5,0c1.9,0.2,3.8-0.3,5.4-1.4c5.9-3.2,11.9-6.4,17.8-9.6
		c0.3-0.2,0.6-0.2,0.9,0c6.2,3.4,12.4,6.8,18.5,10.2c1,0.6,2.2,0.9,3.4,0.9c3.4-0.1,6.8,0,10.2,0c3.8,0,7.6,0,11.4-0.1
		c0.5,0,0.6,0.1,0.6,0.6c0,3.5,0.1,7,0.1,10.5c0,0.3,0,0.7,0,1c-0.2,1.1,0.4,1.6,1.3,2.1c2.6,1.3,5.2,2.8,7.9,4.3l-2.5,1.4
		L80.1,70.9c-8,4.5-16,8.9-23.9,13.4c-0.6,0.4-1.4,0.4-2.1,0C44,78.7,33.8,73,23.7,67.4L8,58.8l-6.5-3.6L0.9,54.9z M99.9,54.1
		c0.1,0.5-0.1,0.6-0.6,0.6c-11.7,0-23.4,0-35.1,0H28.3c-5.6,0-11.2,0-16.8,0c-1.3,0-1.3,0-1.3-1.2c0-0.5-0.2-0.5-0.5-0.3
		c-0.7,0.4-1.4,0.8-2.1,1.2c-0.3,0.2-0.8,0.2-0.8,0.6s0.5,0.4,0.7,0.6c2.7,1.5,5.5,3,8.2,4.6c4.8,2.7,9.6,5.4,14.4,8l13.1,7.2
		l11.1,6.1c0.3,0.2,0.8,0.2,1.1,0c0.6-0.4,1.3-0.8,2-1.1c5.6-3.1,11.3-6.2,17-9.4c5-2.8,10-5.5,14.9-8.3l10.7-6l2.5-1.4
		c0.3-0.2,0.6-0.4,0.1-0.6c-0.8-0.5-1.6-0.9-2.4-1.3c-0.2-0.1-0.3,0-0.3,0.2S99.9,53.9,99.9,54.1z M23.4,45.4
		c0.2-0.1,0.3-0.2,0.5-0.2c2-0.8,2.4-2.6,1.9-4.3c-0.5-1.6-1.8-2-3.3-2.1c-2.7-0.2-5.3-0.1-8-0.1c-0.5,0-0.8,0.2-0.8,0.8
		c0,4.2,0,8.3,0,12.5c0,0.4,0.2,0.6,0.6,0.6c1.1,0,2.2,0,3.4,0c1.7,0,3.4,0.1,5.1-0.1c2.6-0.3,3.8-1.9,3.4-4.4
		c-0.1-0.7-0.6-1.4-1.2-1.8C24.5,45.8,24,45.5,23.4,45.4z M45.8,38.5L45.8,38.5c-0.9,0-1.8,0-2.7,0c-0.5-0.1-0.9,0.2-1,0.7
		c0,0,0,0,0,0.1c-1.1,4.1-2.2,8.2-3.3,12.4c-0.2,0.6-0.1,0.8,0.6,0.8c1.4,0,2.8,0,4.2,0c0.5,0,0.7-0.1,0.7-0.6s0.2-0.7,0.2-1
		s0.3-0.5,0.6-0.5h0.6c1.6,0,1.6,0,1.8,1.5c0.1,0.4,0.2,0.6,0.7,0.6c1.4,0,2.7,0,4.1,0c0.6,0,0.7-0.1,0.6-0.7
		c-1.1-4.2-2.2-8.4-3.2-12.5c0-0.4-0.4-0.7-0.9-0.7c0,0,0,0,0,0L45.8,38.5z M55.8,48.3L55.8,48.3c-0.7,0-1.4,0-2,0
		c-0.5,0-0.7,0.2-0.6,0.7c0,1.5,1,2.8,2.4,3.3c1.8,0.6,3.7,0.8,5.6,0.5c1.3-0.1,2.6-0.7,3.5-1.6c1.2-1.3,1.6-4.6-0.2-6
		c-0.9-0.6-1.8-1-2.8-1.3c-0.9-0.2-1.8-0.5-2.6-1c-0.4-0.3-0.5-0.9-0.3-1.3c0.2-0.4,0.7-0.6,1.1-0.4c0.4,0.1,0.6,0.4,0.6,0.8
		c0.1,0.4,0.2,0.5,0.7,0.5c1.2,0,2.4,0,3.7,0c0.4,0,0.6-0.2,0.5-0.6c-0.1-1.7-1.4-3.2-3.1-3.5c-1.5-0.3-3-0.3-4.4-0.2
		c-1.9,0-3.6,1.3-4.1,3.2c-0.6,2.2-0.1,4.2,2.4,5c1.2,0.4,2.3,0.7,3.5,1.1c0.7,0.2,1.1,1,0.9,1.7c0,0.1-0.1,0.2-0.1,0.3
		C60,49.8,59.6,50,59.3,50c-0.4,0-0.7-0.2-0.8-0.6c-0.1-0.2-0.1-0.4-0.1-0.7c0-0.4-0.2-0.5-0.5-0.5C57.1,48.3,56.5,48.3,55.8,48.3z
		 M27.3,45.4L27.3,45.4c-0.1,2.1-0.1,4.2-0.1,6.2c0,0.5,0.1,0.8,0.7,0.8c3.1,0,6.2,0,9.3,0c0.5,0,0.7-0.2,0.7-0.7c0-0.7,0-1.4,0-2.1
		c0-0.5-0.2-0.6-0.6-0.6c-1.3,0-2.5,0-3.8,0c-0.9,0-0.9,0-0.9-0.9c0-1.2,0.1-1.2,1.3-1.1c1,0.1,2.1,0.1,3.1,0c0.3,0,0.5-0.2,0.5-0.5
		c0-0.7,0-1.4,0-2c0-0.4-0.2-0.6-0.6-0.6c-1.1,0-2.2,0-3.4,0c-0.9,0-1,0-1-1c0-0.1,0-0.2,0-0.2c0-0.5,0.2-0.8,0.8-0.7
		c1.3,0,2.6,0,4,0c0.6,0,0.7-0.2,0.7-0.8c0-0.6,0-1.3,0-1.9c0-0.6-0.2-0.7-0.8-0.7c-3.1,0-6.2,0-9.3,0c-0.5,0-0.7,0.2-0.7,0.7
		C27.3,41.3,27.3,43.3,27.3,45.4z M85.2,45.2c0,2.2-0.1,4.4,0,6.6c0,0.6,0.2,0.7,0.8,0.7c1,0,1.9,0,2.8,0h6.3c0.5,0,0.8-0.1,0.8-0.7
		c0-0.7,0-1.3,0-2c0-0.5-0.2-0.7-0.6-0.7c-1.1,0-2.2,0-3.3,0c-1.4,0-1.4,0-1.4-1.4c0-0.5,0.2-0.6,0.6-0.6c1.2,0,2.5,0,3.7,0
		c0.4,0,0.6-0.1,0.6-0.5c0-0.7,0-1.3,0-2c0-0.4-0.1-0.6-0.6-0.6c-1,0-2.1,0-3.1,0c-1.5,0-1.1,0.1-1.2-1.2c0-0.6,0.2-0.7,0.7-0.7
		c1.4,0,2.7,0,4.1,0c0.5,0,0.6-0.2,0.6-0.6c0-0.7,0-1.4,0-2.1c0-0.5-0.2-0.6-0.6-0.6c-1.3,0-2.7,0-4,0c-1.8,0-3.6,0-5.4,0
		c-0.5,0-0.6,0.2-0.6,0.7C85.2,41.3,85.2,43.3,85.2,45.2L85.2,45.2z M68.7,36.2c-0.1-0.2-0.3-0.3-0.5-0.4c-0.9-0.5-1.9-1.1-2.8-1.6
		c-3.3-1.9-6.6-3.7-9.9-5.6c-0.3-0.2-0.7-0.2-1,0c-0.8,0.4-1.6,0.8-2.4,1.3l-7.2,3.9c-1.2,0.7-2.4,1.4-3.6,2.1
		c-0.1,0.1-0.3,0.2-0.3,0.3s0.2,0.1,0.3,0.1c1.4,0,2.8,0.1,4.2,0.1c5.2,0,10.5,0.1,15.7,0c2.3,0,4.6,0,6.9,0
		C68.3,36.4,68.5,36.3,68.7,36.2L68.7,36.2z M71.8,38.6L71.8,38.6h-5.1c-0.3,0-0.6,0-0.6,0.4c0,0.8,0,1.7,0,2.5
		c0,0.4,0.2,0.5,0.6,0.5c0.6,0,1.2,0,1.8,0s0.7,0.2,0.7,0.7c0,3,0,6-0.1,9c0,0.5,0.2,0.7,0.7,0.7c1.4,0,2.8,0,4.1,0
		c0.4,0,0.5-0.2,0.5-0.6c0-1.6,0-3.1,0-4.7s0-2.9,0-4.4c0-0.7,0.1-0.8,0.8-0.8c0.5,0,1,0,1.6,0s0.6-0.1,0.6-0.6c0-0.7,0-1.5,0-2.2
		c0-0.5-0.1-0.6-0.6-0.6C75.1,38.7,73.4,38.6,71.8,38.6L71.8,38.6z M83.5,45.6c0-2.1,0-4.2,0-6.3c0-0.4-0.1-0.6-0.6-0.7
		c-1.3-0.1-2.6,0-3.8,0c-0.8,0-0.8,0.1-0.8,0.9c0,4.1,0,8.2,0,12.3c0,0.5,0.2,0.7,0.7,0.7c1.3,0,2.6,0,3.9,0c0.5,0,0.7-0.2,0.7-0.7
		C83.5,49.7,83.5,47.6,83.5,45.6L83.5,45.6z"/>
	<path class="st0" d="M55.4,59.6c-0.1,3.8-0.1,7.8-0.1,11.8c0,2.1-0.1,4.2,0,6.2c0.1,0.9-0.6,1.7-1.5,1.8c-0.3,0-0.5,0-0.8-0.1
		c-1.7-0.4-2.9-2-2.7-3.8c0.1-4.5,0-9,0-13.5c0-1.2,0-2.4,0.1-3.6c0-0.7,0.3-1.5,0.7-2.1c0.6-1,2-1.3,3-0.7c0.3,0.2,0.5,0.4,0.7,0.7
		C55.3,57.2,55.4,57.7,55.4,59.6z M53.1,67.1L53.1,67.1c0.1-1.2,0.1-2.4,0.1-3.6c0-1.6,0-3.3,0.1-4.9c0-0.3,0-0.7-0.4-0.7
		s-0.4,0.4-0.4,0.7c0,0.9,0,1.8-0.1,2.7c0,4.7,0,9.3,0,14c0,0.4-0.1,0.9,0.4,0.9s0.3-0.6,0.3-0.8C53.1,72.6,53.1,69.8,53.1,67.1z"/>
	<path class="st0" d="M49.6,60.3c0,0.5,0,1.1,0,1.6c0,0.9-0.3,1.9-1.1,2.5c-0.3,0.2-0.4,0.5,0,0.7c0.7,0.4,1.1,1.2,1.1,2.1
		c0.2,2.7,0.1,5.4-0.3,8.1c-0.2,1-0.8,1.6-1.9,0.9c-0.7-0.5-1.5-1-2.3-1.4c-0.3-0.2-0.5-0.5-0.5-0.8c0-4.8,0-9.6,0-14.4
		c0-1,0-2.1,0-3.1s0.1-1,1-1c0.4,0,0.7,0,1.1,0c1.3-0.2,2.5,0.7,2.7,2c0,0.1,0,0.1,0,0.2c0.1,0.2,0.1,0.5,0.1,0.7
		C49.6,59,49.6,59.7,49.6,60.3L49.6,60.3z M46.8,69.5L46.8,69.5c0,0.8,0,1.7,0,2.6c0,0.2-0.1,0.5,0.2,0.6s0.4-0.2,0.5-0.5
		c0-0.1,0-0.3,0-0.4c0-1.2,0-2.3,0-3.5c0-0.5,0-0.9-0.1-1.4c0-0.2-0.2-0.4-0.4-0.4s-0.2,0.3-0.2,0.5C46.8,67.7,46.8,68.6,46.8,69.5
		L46.8,69.5z M46.8,60.8L46.8,60.8c0,0.7,0,1.4,0,2.1c0,0.2,0,0.4,0.2,0.4s0.4-0.1,0.4-0.3c0-0.2,0.1-0.3,0.1-0.5c0-0.8,0-1.6,0-2.4
		c0-0.5,0-0.9,0-1.4c0-0.3-0.1-0.6-0.4-0.6s-0.3,0.3-0.3,0.5C46.8,59.4,46.8,60.1,46.8,60.8L46.8,60.8z"/>
	<path class="st0" d="M61.5,70.6c0-0.7,0-1.4,0-2.2c0-0.4,0.2-0.5,0.6-0.6c1.4-0.1,1.4-0.1,1.4,1.3c0,0.9,0,1.8,0,2.7
		c0,0.3,0,0.6,0.3,0.7c0.3,0.1,0.5-0.2,0.5-0.6c0.2-1.3,0.1-2.7-0.4-4c-0.7-1.3-1.3-2.7-1.8-4.1c-0.8-2.2-0.8-4.5-0.2-6.7
		c0.2-1,1-1.7,2-1.7c1.1,0,2.1,0.8,2.3,1.9c0.2,0.6,0.2,1.3,0.2,1.9c0,1.1-0.1,2.1-0.1,3.2c0,0.3-0.2,0.5-0.5,0.5
		c-1.3,0.1-1.3,0.1-1.4-1.2c-0.1-0.8,0.1-1.6,0.1-2.4c0-0.3-0.1-0.7-0.1-1c0-0.2-0.2-0.3-0.3-0.3c-0.2,0-0.3,0.1-0.4,0.3
		c-0.1,0.3-0.1,0.7-0.1,1c-0.2,1.5,0.1,3,0.8,4.4c0.7,1.3,1.4,2.7,1.8,4.1c0.4,2,0.6,4.1-0.6,6C64.9,74.5,64,75,63,75
		c-0.5,0-1-0.3-1.2-0.8c-0.1-0.3-0.2-0.7-0.3-1C61.4,72.3,61.4,71.4,61.5,70.6z"/>
	<path class="st0" d="M58.6,61.1c0.2-0.6,0.3-1.1,0.4-1.7c0.2-1,0.3-2.1,0.5-3.2c0-0.3,0.1-0.6,0.4-0.7c0.4-0.1,0.9-0.1,1.3,0.1
		c0.3,0.2,0.2,0.5,0.1,0.7c-0.3,1.6-0.6,3.3-0.8,4.9s-0.5,3.3-0.8,4.9c-0.6,3.5-0.2,7-0.3,10.4c0.1,0.5-0.2,1-0.7,1.1
		c-1.3,0.6-1.3,0.7-1.3-0.8c0-2.7,0-5.5,0-8.2c-0.1-2-0.3-4-0.7-6c-0.3-2.2-0.6-4.4-0.9-6.6c-0.1-0.4,0.1-0.6,0.5-0.6h0.1
		c1.4,0,1.3-0.2,1.5,1.2c0.2,1.2,0.3,2.4,0.5,3.7C58.3,60.7,58.4,60.9,58.6,61.1z"/>
	<path class="st0" d="M18.9,47.9c0-0.1,0-0.2,0-0.3c0.1-0.3-0.2-0.7,0.2-0.9c0.5-0.1,1.1,0.1,1.5,0.5c0.3,0.5,0.3,1,0,1.5
		c-0.4,0.4-0.9,0.6-1.5,0.5C19,49.1,19,49,19,48.8C19,48.5,19,48.2,18.9,47.9L18.9,47.9z"/>
	<path class="st0" d="M18.9,42.7c0,0,0-0.1,0-0.1c0.1-0.3-0.3-0.9,0.4-1c0.6-0.1,1.1,0.2,1.3,0.7c0.2,0.5,0,1.1-0.5,1.3
		c-0.1,0-0.1,0-0.2,0.1h-0.2c-0.8,0.2-0.9,0.1-0.9-0.7C18.9,43,18.9,42.9,18.9,42.7z"/>
	<path class="st0" d="M46,42.3c0.1,0.8,0.3,1.5,0.4,2.3s0.2,1.6,0.3,2.4c0,0.2,0,0.3-0.2,0.4c-0.4,0.1-0.7,0.1-1.1,0
		c-0.4-0.1-0.2-0.4-0.2-0.6c0.2-1.4,0.4-2.8,0.7-4.2c0-0.1,0-0.2,0-0.3L46,42.3z"/>
</g>
</svg>
