<?xml version="1.0" encoding="utf-8"?>
<!-- Generator: Adobe Illustrator 21.0.0, SVG Export Plug-In . SVG Version: 6.00 Build 0)  -->
<svg version="1.1" id="Layer_1" xmlns="http://www.w3.org/2000/svg" xmlns:xlink="http://www.w3.org/1999/xlink" x="0px" y="0px"
	 viewBox="0 0 109.3 137.2" style="enable-background:new 0 0 109.3 137.2;" xml:space="preserve">
<style type="text/css">
	.st0{fill:#FFFFFF;}
</style>
<title>pin-peppers</title>
<g>
	<path class="st0" d="M69.4,50c0.1,0,0.2,0,0.3,0h11.8c0.4,0,0.3,0,0.3,0.3c0,3.9,0,7.8,0,11.8c0,0.2-0.1,0.3-0.3,0.3H70.2
		c-0.1,0-0.2,0-0.3,0c0,0.1,0.1,0.1,0.2,0.2l8.3,8.4c0.2,0.2,0.2,0.2,0,0.5l-8.3,8.3c-0.2,0.2-0.2,0.1-0.4,0l-8.8-8.8
		c-0.1-0.1-0.1-0.1-0.2-0.2l-0.1,0.1V71c0,4.1,0,8.2,0,12.3c0,0.2-0.1,0.3-0.3,0.3H48.7c-0.2,0-0.3-0.1-0.3-0.3c0-3.9,0-7.9,0-11.8
		v-0.3c-0.1,0.1-0.2,0.1-0.3,0.2l-8.5,8.4c-0.1,0.1-0.2,0.2-0.3,0c-2.8-2.8-5.6-5.6-8.4-8.4c-0.2-0.2-0.1-0.2,0-0.4l8.4-8.4
		c0.1-0.1,0.1-0.1,0.2-0.2c-0.1-0.1-0.2-0.1-0.3-0.1H27.4c-0.3,0-0.3,0-0.3-0.3c0-3.9,0-7.9,0-11.8c0-0.3,0-0.3,0.3-0.3H40
		c0-0.1-0.1-0.2-0.2-0.2l-8.4-8.4c-0.2-0.2-0.2-0.2,0-0.4l8.3-8.3c0.2-0.2,0.2-0.2,0.4,0l7.9,8c0.1,0.1,0.1,0.1,0.2,0.2v-0.3
		c0-3.8,0-7.7,0-11.5c0-0.2,0-0.3,0.3-0.3h11.8c0.2,0,0.3,0,0.3,0.3c0,4,0,8,0,12v0.3l0.2-0.2l8.4-8.4c0.2-0.2,0.2-0.2,0.4,0L78,41
		c0.1,0.1,0.1,0.2,0,0.3l-8.5,8.5C69.5,49.9,69.4,49.9,69.4,50z"/>
	<path class="st0" d="M67.7,26.9l-2.4-0.5l-1.4-0.3c-0.1,0-0.2-0.1-0.2-0.2c-0.4-1.4-0.8-2.8-1.3-4.2c-0.1-0.5-0.4-1-0.9-1.2l0,0
		c-0.2-0.1-0.4-0.2-0.6-0.2c-0.2,0.1-0.2,0.4-0.2,0.5c-0.3,1.4-0.6,2.8-0.9,4.2c0,0.2-0.1,0.2-0.2,0.2l-3.4-0.7
		c-0.2,0-0.2-0.1-0.2-0.2c0.8-4,1.6-7.9,2.5-11.9c0-0.2,0.1-0.3,0.3-0.2l4,0.8c1.1,0.2,2.2,0.4,3.3,0.8c0.5,0.1,0.9,0.3,1.4,0.5
		c1,0.6,1.6,1.8,1.5,3c-0.1,0.8-0.4,1.6-0.9,2.2c-0.7,0.7-1.6,1.1-2.6,1.1h-0.3l0.5,0.3c0.3,0.2,0.5,0.5,0.7,0.8
		c0.4,0.8,0.7,1.6,0.9,2.5l0.6,2.1l0.1,0.2l0.2-0.3c2-3.2,4.1-6.3,6.1-9.5c0.1-0.2,0.2-0.2,0.4-0.1l8.3,5.4c0.2,0.1,0.2,0.2,0.1,0.3
		c-0.4,0.6-0.8,1.2-1.2,1.8c-0.1,0.2-0.2,0.2-0.3,0.1L76.4,21c-0.2-0.1-0.2-0.1-0.3,0.1c-0.3,0.4-0.5,0.9-0.8,1.3
		c-0.1,0.2-0.1,0.2,0.1,0.3l4.7,3c0.2,0.1,0.2,0.2,0.1,0.3c-0.4,0.6-0.8,1.2-1.1,1.8c-0.1,0.2-0.2,0.2-0.3,0.1l-4.7-3
		c-0.2-0.1-0.2-0.1-0.3,0.1c-0.4,0.6-0.7,1.2-1.1,1.7c-0.1,0.1-0.1,0.2,0.1,0.3l5.3,3.4c0.2,0.1,0.2,0.2,0.1,0.3
		c-0.4,0.7-0.9,1.3-1.3,2c-0.1,0.1-0.2,0.1-0.3,0l-8.5-5.5C67.7,27.2,67.5,27.1,67.7,26.9z M63.7,18.4h0.2c0.7,0,1.2-0.5,1.2-1.2
		c0-0.1,0-0.2,0-0.3c-0.1-0.4-0.4-0.7-0.8-0.8c-0.8-0.2-1.5-0.4-2.3-0.5c-0.1,0-0.1,0-0.1,0.1l-0.5,2.3c0,0.1,0,0.1,0.1,0.2
		C62.1,18.2,62.9,18.3,63.7,18.4z"/>
	<path class="st0" d="M44,26.1l-3.6,2.3c-0.1,0.1-0.2,0-0.3,0l-3.7-2.1c-0.2-0.1-0.4-0.2-0.7-0.3c-0.5-0.2-1.1-0.1-1.6,0.3
		c-0.1,0.1,0,0.2,0,0.2l1.9,3c0.2,0.3,0.4,0.7,0.6,1c0.1,0.1,0.1,0.2,0,0.2l-3,1.9c-0.2,0.1-0.2,0-0.2-0.1l-3.8-6L27,22.3
		c-0.1-0.1-0.1-0.2,0-0.3l5.9-3.7c0.5-0.3,1.1-0.6,1.6-0.8c1.1-0.4,2.3-0.1,3.1,0.7c1.2,1,1.5,2.8,0.8,4.2c-0.2,0.4-0.4,0.7-0.7,1
		c-0.1,0.1-0.1,0.1-0.2,0.2l0.5-0.1c0.6-0.1,1.2,0,1.7,0.3c0.6,0.2,1.1,0.5,1.6,0.9L44,26.1z M35.4,22.1c0.1-0.7-0.4-1.2-1.1-1.3
		c-0.2,0-0.3,0-0.5,0.1c-0.2,0.1-0.4,0.2-0.6,0.3l-1.6,1c-0.1,0.1-0.1,0.2,0,0.2l1,1.6c0.2,0.3,0.2,0.3,0.6,0.1l0.4-0.3
		c0.5-0.3,1-0.7,1.4-1.1C35.2,22.5,35.4,22.3,35.4,22.1L35.4,22.1z"/>
	<path class="st0" d="M84.9,46.8c-0.1,0-0.1-0.1-0.1-0.2c-0.2-0.8-0.4-1.5-0.6-2.3c-0.1-0.3-0.2-0.7-0.2-1s0-0.3,0.2-0.3l5.8-1.4
		l5.8-1.4c0.3-0.1,0.3-0.1,0.4,0.2c0.3,1.1,0.5,2.2,0.8,3.2c0,0.2,0,0.2-0.2,0.3l-3.9,0.9c-0.1,0-0.2,0.1-0.1,0.2
		c0.3,1.3,0.6,2.5,0.9,3.8c0,0.2,0.1,0.2,0.2,0.1l3.9-0.9c0.2,0,0.2,0,0.3,0.2c0.3,1.1,0.5,2.2,0.8,3.4c0,0.2,0,0.2-0.2,0.3
		l-10.2,2.4c-0.5,0.1-1.1,0.2-1.6,0.4c-0.2,0-0.2,0-0.3-0.2c-0.3-1.1-0.5-2.2-0.8-3.3c0-0.2,0-0.2,0.2-0.3l3.5-0.8l1.1-0.3
		c0.1,0,0.2-0.1,0.1-0.2c-0.3-1.3-0.6-2.5-0.9-3.8c0-0.2-0.1-0.2-0.2-0.1L85,46.8L84.9,46.8z"/>
	<path class="st0" d="M69.3,84.5c0.1,0,0.1,0.1,0.1,0.2l0.9,3l2.5,8.6c0.1,0.3,0.1,0.3-0.2,0.4l-3.2,0.9c-0.2,0.1-0.2,0-0.3-0.1
		c-0.4-1.3-0.7-2.6-1.1-3.8c0-0.2-0.1-0.2-0.2-0.1l-3.7,1.1c-0.2,0.1-0.2,0.1-0.2,0.3c0.4,1.2,0.7,2.5,1.1,3.8
		c0.1,0.2,0,0.2-0.2,0.3c-1.1,0.3-2.2,0.6-3.3,1c-0.2,0.1-0.2,0-0.3-0.2c-1.1-3.9-2.2-7.8-3.4-11.6c-0.1-0.2,0-0.2,0.2-0.3
		c1.1-0.3,2.2-0.6,3.3-1c0.2-0.1,0.2,0.1,0.2,0.2c0.4,1.5,0.9,3,1.3,4.4c0.1,0.2,0.1,0.2,0.3,0.2c1.2-0.4,2.4-0.7,3.6-1
		c0.2-0.1,0.2-0.1,0.2-0.3c-0.4-1.5-0.9-3-1.3-4.4c-0.1-0.2,0-0.2,0.2-0.3l3.3-0.9L69.3,84.5z"/>
	<path class="st0" d="M84.7,40.6c-1.1,0-2.2-0.4-3.1-1.1c-0.6-0.5-1.1-1.1-1.5-1.7c-1-1.4-2.1-2.8-3.1-4.3c-0.1-0.2-0.1-0.2,0-0.3
		l9.8-7.2c0.2-0.1,0.2-0.1,0.3,0c1.1,1.5,2.2,3,3.2,4.5c0.5,0.7,1,1.5,1.2,2.3c0.4,1.4,0.1,2.9-0.7,4c-1.1,1.6-2.7,2.8-4.5,3.5
		C85.8,40.5,85.3,40.6,84.7,40.6z M84,37c0.3,0,0.6-0.1,0.9-0.2c1.1-0.5,2.1-1.2,2.9-2.1c0.6-0.6,0.7-1.6,0.3-2.4
		c-0.3-0.5-0.6-0.9-0.9-1.4c-0.1-0.1-0.2-0.2-0.3,0c-0.8,0.6-1.7,1.2-2.5,1.8l-2.7,2c-0.1,0-0.2,0.1-0.1,0.2
		c0.4,0.6,0.8,1.1,1.3,1.6C83.2,36.8,83.6,37,84,37L84,37z"/>
	<path class="st0" d="M98.4,62.2c0,1.7-0.4,3.3-1.3,4.7c-0.9,1.3-2.3,2.2-3.9,2.3c-1.6,0.2-3.2-0.1-4.7-0.8
		c-1.9-0.8-3.1-2.6-3.2-4.6c-0.2-1.8,0.2-3.6,1.1-5.1c0.9-1.5,2.4-2.5,4.1-2.6c1.8-0.2,3.6,0.2,5.2,1.1c1.5,0.9,2.5,2.4,2.6,4.1
		c0,0.1,0,0.2,0,0.3S98.4,62,98.4,62.2z M91.4,60c-2.3-0.1-3.6,1.4-3.1,3.3c0.2,0.7,0.8,1.3,1.5,1.6c0.9,0.4,1.9,0.6,2.9,0.6
		c0.5,0,1.1-0.1,1.6-0.4c0.8-0.5,1.3-1.4,1.2-2.3c0-0.9-0.5-1.6-1.3-2C93.3,60.3,92.4,60,91.4,60L91.4,60z"/>
	<path class="st0" d="M25.1,27.4l-0.1,0.2c-1.2,1.6-2.4,3.2-3.6,4.8c-0.1,0.2-0.1,0.3,0.1,0.4c0.4,0.3,0.8,0.6,1.2,0.9
		c0.1,0.1,0.2,0.1,0.3,0l3.3-4.5c0.1-0.2,0.2-0.2,0.3,0c0.5,0.4,1.1,0.8,1.7,1.2c0.2,0.1,0.2,0.2,0,0.3c-1.1,1.5-2.2,3-3.3,4.5
		c-0.1,0.2-0.1,0.2,0.1,0.3c0.5,0.4,1.1,0.8,1.6,1.2c0.1,0.1,0.2,0.1,0.3,0l3.7-5c0.1-0.2,0.2-0.2,0.3-0.1c0.6,0.5,1.3,1,2,1.5
		c0.1,0.1,0.1,0.1,0,0.2l-6.1,8.2c-0.1,0.1-0.2,0.1-0.3,0l-9.8-7.3c-0.1-0.1-0.1-0.2,0-0.3l6-8c0.1-0.1,0.2-0.2,0.3,0
		C23.7,26.5,24.4,27,25.1,27.4C25,27.3,25,27.3,25.1,27.4z"/>
	<path class="st0" d="M17,78.7c-0.1,0-0.1-0.1-0.1-0.2l-1.5-3.4c-0.9-1.9-1.7-3.8-2.6-5.7c-0.1-0.2,0-0.2,0.1-0.3
		c0.7-0.3,1.4-0.6,2-0.9c0.2-0.1,0.2,0,0.3,0.1c0.8,1.8,1.7,3.7,2.5,5.5c0.1,0.2,0.2,0.2,0.3,0.1c0.5-0.2,0.9-0.4,1.4-0.6
		c0.2-0.1,0.2-0.2,0.1-0.4c-0.8-1.7-1.5-3.4-2.3-5.1c-0.1-0.2-0.1-0.2,0.1-0.3c0.7-0.3,1.3-0.6,1.9-0.9c0.2-0.1,0.2,0,0.3,0.1
		l2.3,5.1c0.1,0.2,0.1,0.2,0.3,0.1c0.6-0.3,1.2-0.6,1.9-0.8c0.2-0.1,0.2-0.1,0.1-0.3c-0.9-1.9-1.7-3.8-2.6-5.7
		c-0.1-0.2,0-0.3,0.1-0.4c0.7-0.3,1.4-0.6,2.2-1c0.1-0.1,0.2-0.1,0.3,0.1c1.4,3.1,2.8,6.2,4.2,9.3c0.1,0.1,0,0.2-0.1,0.3l-11.1,5
		L17,78.7z"/>
	<path class="st0" d="M46.9,26c-1,0.1-1.9-0.2-2.7-0.7c-0.9-0.6-1.5-1.5-1.8-2.5c0-0.1,0-0.2,0.1-0.2l3.2-0.8c0.1,0,0.2,0,0.2,0.1
		c0.1,0.5,0.4,0.9,0.8,1.2c0.9,0.6,2,0.5,2.8-0.1c0.5-0.4,0.6-1.1,0.2-1.6c-0.1-0.2-0.3-0.3-0.6-0.4c-0.5-0.2-1.1-0.2-1.7-0.2
		c-1,0-2-0.1-3-0.4c-0.6-0.1-1.2-0.4-1.6-0.8c-1.3-1.3-1.4-3.4-0.1-4.7c0,0,0-0.1,0.1-0.1c0.6-0.6,1.4-1,2.2-1.3
		c1.2-0.4,2.5-0.6,3.8-0.5c1.6,0.1,2.9,1.2,3.3,2.7c0,0.1,0,0.1-0.1,0.2l-3.3,0.8c-0.1,0-0.2,0-0.2-0.1c-0.2-0.5-0.6-0.9-1.1-1.1
		c-0.6-0.1-1.1,0-1.6,0.2c-0.2,0.1-0.3,0.2-0.4,0.4c-0.3,0.3-0.2,0.8,0.2,1.1c0.1,0.1,0.2,0.1,0.3,0.1c0.4,0.1,0.8,0.2,1.3,0.1
		c0.9,0,1.9,0.1,2.8,0.2c0.6,0.1,1.2,0.2,1.7,0.5c1.1,0.5,1.8,1.5,1.9,2.7c0.2,1.8-0.8,3.5-2.4,4.3c-1.1,0.5-2.2,0.8-3.4,0.9
		C47.4,25.9,47.2,26,46.9,26z"/>
	<path class="st0" d="M71.5,85c0-1.2,0.5-2.4,1.3-3.3c0.8-0.9,1.9-1.7,3-2.3c1.7-0.8,3.7-0.7,5.2,0.4c1.7,1,2.9,2.6,3.5,4.5
		c0.6,1.6,0.3,3.3-0.7,4.6c-0.9,1.3-2.1,2.3-3.6,3c-1.4,0.6-2.9,0.6-4.3-0.1c-0.2-0.1-0.4-0.2-0.7-0.4c-0.2-0.1-0.1-0.1,0-0.2l2-2.5
		c0.1-0.1,0.2-0.1,0.2,0c0.3,0.2,0.7,0.4,1.2,0.4c1.3,0,2.4-1.1,2.4-2.4c0-0.3,0-0.6-0.1-0.8c-0.3-0.8-0.8-1.6-1.4-2.2
		c-0.2-0.3-0.5-0.6-0.8-0.8C78,82,76.6,82,75.7,82.9c0,0-0.1,0.1-0.1,0.1c-0.6,0.6-0.9,1.5-0.6,2.3c0.1,0.3,0.2,0.6,0.3,0.8
		c0.1,0.1,0.1,0.2-0.1,0.2l-3,1.2c-0.1,0.1-0.2,0-0.2-0.1C71.7,86.7,71.5,85.8,71.5,85z"/>
	<path class="st0" d="M14.9,53.3c1.9-0.2,3.6,1.1,3.9,3c0.2,0.8,0.2,1.7,0.3,2.5c0,0.3,0,0.6,0,0.8s0,0.2,0.2,0.2l4.1-0.3
		c0.4,0,0.4,0,0.4,0.4c0.1,1.1,0.1,2.2,0.2,3.2c0,0.2,0,0.3-0.2,0.3l-4.5,0.3L14.1,64l-2.5,0.2c-0.2,0-0.2,0-0.2-0.2
		c-0.1-1.5-0.2-3.1-0.3-4.6c0-0.6-0.1-1.1-0.1-1.7c-0.1-0.8,0-1.7,0.4-2.5c0.5-1,1.4-1.7,2.4-1.8C14.2,53.3,14.5,53.3,14.9,53.3z
		 M15.2,60L15.2,60l1.2-0.1c0.2,0,0.3,0,0.2-0.2c0-0.1,0-0.3,0-0.4c0-0.5-0.1-1-0.3-1.4c-0.2-0.5-0.8-0.9-1.3-0.8
		c-0.6,0-1.2,0.5-1.2,1.1c-0.1,0.6-0.1,1.2,0,1.8c0,0.1,0.1,0.1,0.2,0.1L15.2,60z"/>
	<path class="st0" d="M21.1,82.8c0-0.8,0.3-1.7,0.9-2.3c0.6-0.7,1.4-1.3,2.2-1.6c1.1-0.3,2.3,0,3.2,0.7c0.7,0.6,1.4,1.2,2,1.9
		c0.1,0.1,0.3,0.2,0.4,0.4s0.2,0.1,0.3,0l2.6-2.5c0.2-0.2,0.3-0.3,0.4-0.4c0.1-0.2,0.2-0.1,0.3,0l2.3,2.4c0.2,0.3,0.2,0.3,0,0.5
		l-8.5,8.4c-0.2,0.2-0.2,0.1-0.4,0l-4.4-4.5c-0.6-0.6-1.1-1.4-1.3-2.2C21.2,83.3,21.1,83.1,21.1,82.8z M24.7,83.8
		c0,0.3,0.1,0.6,0.3,0.8c0.3,0.4,0.7,0.8,1.1,1.2c0.1,0.1,0.1,0.1,0.2,0l1.8-1.8c0.1-0.1,0.1-0.1,0-0.2c-0.4-0.5-0.9-0.9-1.4-1.3
		c-0.7-0.3-1.5-0.1-1.8,0.6C24.8,83.3,24.7,83.5,24.7,83.8z"/>
	<path class="st0" d="M21,43.2c0,0.8-0.2,1.6-0.5,2.4c-0.1,0.5-0.3,0.9-0.4,1.4c-0.1,0.2,0,0.2,0.2,0.3l4.1,1.2
		c0.2,0.1,0.2,0.1,0.2,0.3c-0.3,1.1-0.7,2.2-1,3.3c0,0.2-0.1,0.2-0.3,0.2l-10.4-3.1l-1.3-0.4c-0.1,0-0.2-0.1-0.1-0.2
		c0.6-2.1,1.3-4.3,1.9-6.4c0.2-0.5,0.4-1,0.8-1.5c0.8-1,2-1.5,3.3-1.2c0.6,0.1,1.1,0.3,1.6,0.5C20.3,40.5,21.1,41.8,21,43.2z
		 M18.1,44.7c0-0.3,0-0.6-0.2-0.9c-0.4-0.6-1.2-0.9-1.9-0.5c-0.2,0.1-0.3,0.2-0.4,0.4c-0.3,0.6-0.5,1.2-0.7,1.8c0,0.1,0,0.1,0.1,0.1
		l2.5,0.7c0.1,0,0.1,0,0.2-0.1C17.9,45.8,18,45.3,18.1,44.7z"/>
	<path class="st0" d="M95.5,73.7l-0.1,0.2l-4.6,7.6c-0.4,0.7-0.9,1.4-1.3,2.1c-0.1,0.2-0.2,0.2-0.3,0.1c-0.8-0.5-1.5-0.9-2.3-1.4
		c-0.2-0.1-0.2-0.1-0.1-0.3c0.6-1,1.2-2,1.8-3c0.1-0.2,0.1-0.3-0.1-0.4L80.9,74c-0.2-0.1-0.2-0.2-0.1-0.3c0.6-1,1.2-1.9,1.8-2.9
		c0.1-0.2,0.2-0.2,0.3-0.1l7.7,4.7c0.2,0.1,0.2,0.1,0.3-0.1c0.6-1,1.2-2,1.8-3c0.1-0.2,0.2-0.2,0.3-0.1c0.8,0.5,1.5,0.9,2.3,1.4
		L95.5,73.7z"/>
	<path class="st0" d="M47.6,99.6h-0.1l-3.4-0.9c-0.2,0-0.2-0.1-0.2-0.3c0.8-2.9,1.6-5.8,2.4-8.7c0.1-0.2,0-0.2-0.2-0.3l-5.4-1.5
		c-0.2,0-0.2-0.1-0.2-0.3c0.2-0.8,0.5-1.7,0.7-2.5c0-0.2,0.1-0.2,0.3-0.2l9.2,2.5c0.2,0,0.2,0.1,0.2,0.3c-1.1,3.9-2.2,7.8-3.2,11.7
		C47.7,99.5,47.7,99.6,47.6,99.6z"/>
	<path class="st0" d="M52.5,93.7c0-2,0.1-4,0.1-6c0-0.2,0.1-0.3,0.3-0.3c1.1,0,2.2,0,3.4,0c0.2,0,0.3,0,0.2,0.2
		c-0.1,4-0.1,8-0.2,12.1c0,0.2-0.1,0.3-0.3,0.2h-3.4c-0.2,0-0.2,0-0.2-0.2C52.4,97.8,52.5,95.8,52.5,93.7L52.5,93.7z"/>
	<path class="st0" d="M40.9,84.2l-0.1,0.1l-6.1,10.6c-0.1,0.1-0.1,0.1-0.2,0.1c-1-0.6-2-1.2-3.1-1.8c-0.2-0.1-0.1-0.2,0-0.3l3.8-6.6
		c0.7-1.3,1.5-2.6,2.2-3.8c0.1-0.2,0.2-0.2,0.4-0.1c1,0.6,2,1.1,2.9,1.7C40.8,84.1,40.9,84.1,40.9,84.2z"/>
</g>
</svg>
