<?xml version="1.0" encoding="utf-8"?>
<!-- Generator: Adobe Illustrator 21.0.0, SVG Export Plug-In . SVG Version: 6.00 Build 0)  -->
<svg version="1.1" id="Layer_1" xmlns="http://www.w3.org/2000/svg" xmlns:xlink="http://www.w3.org/1999/xlink" x="0px" y="0px"
	 viewBox="0 0 109.3 137.2" style="enable-background:new 0 0 109.3 137.2;" xml:space="preserve">
<style type="text/css">
	.st0{fill:#FFFFFF;}
</style>
<title>pin-irish</title>
<path class="st0" d="M58.2,69.7c-0.5,1.6-0.7,3.2-0.8,4.9c-0.1,4.1,0.3,8.2,1.2,12.3c0.9,3.7,2.4,7.1,5.3,9.7c0.4,0.3,0.7,0.7,1,1
	c0.8,0.9,1.1,2.1,0.6,3.2c-0.1,0.3-0.3,0.2-0.5,0.2c-1.9-0.3-3.6-1.1-5-2.3c-2.8-2.4-4.4-5.6-5.5-9.1c-1-3.4-1.4-7-1.1-10.6
	c0.1-3.3,0.3-6.6,0.4-9.8c0-0.3-0.1-0.5-0.4-0.4c-1.3,0-2.3,1-2.4,2.3c-0.9,4.1-1.4,8.4-2.3,12.5c-0.6,3.7-2.8,6.9-6.1,8.7
	c-1.3,0.8-2.8,1.2-4.3,1.1c-1.7-0.1-3.4-0.3-5-0.6c-2.1-0.5-3.9-1.6-5.2-3.3c-1.9-2.1-3.4-4.5-4.5-7.1c-0.2-0.5-0.6-1-1-1.4
	c-2.2-1.8-4.1-4-5.6-6.3c-0.5-0.6-0.7-1.4-0.7-2.2c0.2-2.4,0.2-4.8,1.2-7.1c1.7-4.3,5.6-7.4,10.1-8c3.4-0.4,6.9-0.6,10.3-0.6
	c1.6,0,3.2-0.2,4.8-0.4c0.3,0,0.7-0.2,0.9-0.4c0.2-0.2,0.7-0.4,0.7-0.8s-0.5-0.6-1-0.7c-1.1-0.2-2.2-0.4-3.4-0.4
	c-3.8-0.4-7.6-0.6-11.3-1.3c-3.1-0.5-6-1.7-8.6-3.4c-1.2-0.8-2.2-1.9-3-3.1c-0.5-1.1-0.7-2.3-0.7-3.4c-0.2-3.4,1.2-6.7,3.8-8.8
	c1.6-1.5,3.2-2.9,5.1-4.1c0.1-0.1,0.2-0.2,0.3-0.4c1.9-3,4.1-5.7,6.5-8.2c2.1-2.2,4.8-3.7,7.8-4.1c1.9-0.2,3.8,0.2,5.4,1.1
	c4.4,2,6.6,5.6,7.2,10.3s1.2,9.3,1.7,13.9c0.1,0.3,0.1,0.7,0.2,1c0,0.2,0.3,0.4,0.5,0.4c0.3,0,0.4-0.2,0.4-0.4
	c0.2-0.8,0.4-1.7,0.4-2.6c0.2-2.6,0.4-5.2,0.6-7.9c0.2-2.1,0.4-4.2,0.6-6.3c0.1-0.6,0.4-1.2,0.7-1.7c1.7-3.1,4.2-5.7,7.3-7.5
	c4.9-2.9,10.1-2,13.8,2.3c1.3,1.5,2.3,3.2,3.5,4.8c0.9,1.1,1.9,2,3.1,2.8c1.2,0.8,2.5,1.5,3.7,2.4c3,2.2,4.6,5.1,4.1,9
	c-0.2,1.3-0.4,2.6-0.7,3.9c-0.6,2.4-2.1,4.5-4.1,6c-3.6,2.9-8.1,4.7-12.7,5.2c-3,0.3-6.1,0.7-9.1,1.1c-0.2,0-0.3,0.1-0.5,0.1
	c-0.3,0.1-0.6,0.2-0.6,0.6c0,0.4,0.3,0.6,0.7,0.6c0.8,0,1.6,0.1,2.4,0.1c3.2,0,6.4-0.1,9.6-0.1c2.5-0.1,5.1,0.2,7.5,0.7
	c4.1,0.7,7.5,3.6,9,7.4c0.4,1.2,0.5,2.6,0.3,3.9c-0.1,1.1-0.3,2.2-0.4,3.4c-0.3,1.8-1,3.5-2,5.1c-0.1,0.2-0.3,0.3-0.4,0.4
	c-1.5,0.9-2.8,2.1-3.7,3.6c-1.1,1.5-2,3.2-2.8,4.9c-0.8,1.7-1.9,3.2-3.3,4.4c-1,1-2.1,1.8-3.3,2.3c-3.1,1.2-6.7,0.7-9.3-1.4
	c-3-2.2-5.6-5-7.4-8.3c-0.7-1.4-1.1-3-1.3-4.6c-0.6-2.7-1.4-5.4-2.3-8C58.6,70,58.4,69.8,58.2,69.7z"/>
</svg>
