<?xml version="1.0" encoding="utf-8"?>
<!-- Generator: Adobe Illustrator 21.0.0, SVG Export Plug-In . SVG Version: 6.00 Build 0)  -->
<svg version="1.1" id="Layer_1" xmlns="http://www.w3.org/2000/svg" xmlns:xlink="http://www.w3.org/1999/xlink" x="0px" y="0px"
	 viewBox="0 0 109.3 137.2" style="enable-background:new 0 0 109.3 137.2;" xml:space="preserve">
<style type="text/css">
	.st0{fill:#FFFFFF;}
</style>
<title>pin-slayer</title>
<g>
	<path class="st0" d="M98,70.9c-0.2,0-0.2-0.2-0.3-0.3c-0.3-0.9-0.5-1.7-0.7-2.6c-0.8-4.1-1.5-8.2-2.2-12.4
		c-0.2-0.8-0.3-1.7-0.5-2.5c-0.1-0.3-0.2-0.4-0.5-0.3c-2.1,0.5-4.1,1-6.1,1.7c-0.3,0.1-0.6,0.3-0.7,0.7c-1.2,2.8-2.2,5.7-3.3,8.5
		c-0.8,2.1-1.6,4.3-2.6,6.4c-0.6,1.3-0.6,1.3-2,1.1c-0.5-0.1-1.1-0.1-1.6-0.2c-0.3,0-0.4-0.2-0.3-0.5c0.8-2,1.6-4,2.4-6
		c3.9-10.3,7.8-20.6,11.7-30.9c0.2-0.7,0.7-1.2,1.3-1.5c0.7-0.4,1.4-0.9,2.2-1.3s0.9-0.3,1.4,0.3c2.2,3.1,4.3,6.3,6.5,9.4
		c1.4,2.1,2.9,4.2,4.3,6.3c0,0.1,0.1,0.1,0.1,0.2c0.2,0.3,0.2,0.4-0.2,0.6c-2.7,1.1-5.4,2.1-8.1,3.1L98,50.8
		c-0.6,0.2-0.6,0.2-0.5,0.8c0.5,2.7,1,5.3,1.5,8c0.6,3.2,1.2,6.4,1.8,9.7c0.1,0.3,0,0.6-0.3,0.7C99.7,70.5,98.9,70.8,98,70.9z
		 M89.6,49.5l0.4-0.1c2.4-0.7,4.8-1.5,7.1-2.2c1.3-0.4,2.7-0.7,3.9-1.2c0.9-0.4,0.9-0.4,0.4-1.3c-1.8-2.9-3.6-5.7-5.6-8.5
		c-0.2-0.3-0.5-0.7-0.8-1c-0.3-0.3-0.6-0.3-0.8,0.1c-0.1,0.1-0.1,0.3-0.2,0.4c-1.7,4.2-3.2,8.4-4.7,12.6c-0.1,0.3-0.2,0.5-0.2,0.8
		C89.2,49.4,89.3,49.5,89.6,49.5z"/>
	<path class="st0" d="M71.8,52.9h-4.2c-0.2,0-0.3,0-0.4,0.2c-0.8,2.3-1.8,4.5-2.9,6.7c-0.9,2.1-1.9,4.1-2.7,6.3
		c-0.2,0.6-0.2,0.6,0.4,0.8c1.4,0.3,2.8,0.5,4.3,0.6c2.5,0.2,5,0.5,7.6,0.8l1.4,0.2c0.2,0,0.4,0.1,0.3,0.4c-0.2,0.7-0.4,1.4-0.7,2.1
		c-0.2,0.6-0.7,0.7-1.1,0.7c-1,0-2.1,0-3.1-0.2c-2.9-0.3-5.7-0.7-8.6-1c-1.8-0.2-3.6-0.5-5.4-0.7c-0.5-0.1-0.5-0.1-0.3-0.6
		c0.9-2.4,2-4.6,3-6.9c4.2-9.5,8.6-18.9,12.7-28.4c0.1-0.3,0.3-0.5,0.6-0.5l13.9-3.8c0.5-0.1,1-0.2,1.4-0.2c0.4-0.1,0.7,0.2,0.8,0.6
		c0,0,0,0,0,0c0.1,0.9,0.2,1.7,0.3,2.6c0,0.2-0.2,0.2-0.3,0.3l-9.4,2.6c-1.2,0.3-2.5,0.7-3.7,1c-0.8,0.2-1.4,0.7-1.7,1.5
		c-0.7,1.8-1.4,3.5-2.2,5.2c-0.8,1.9-1.7,3.8-2.4,5.7c-0.2,0.6-0.2,0.6,0.4,0.7c1.1,0.1,2.3,0.2,3.5,0.2c1,0,2,0,3.1,0.1
		c0.5,0,0.6,0.1,0.5,0.6c-0.2,0.8-0.3,1.6-0.5,2.4c0,0.3-0.2,0.2-0.4,0.2L71.8,52.9z"/>
	<path class="st0" d="M49.9,44.6c-0.1,5.3-0.2,10.7-0.4,16c0,0.3-0.1,0.4-0.4,0.4c-0.8,0-1.7,0-2.5,0c-0.3,0-0.4-0.1-0.4-0.4
		c0-3.2-0.1-6.5-0.2-9.7c0-0.6,0-0.6-0.6-0.6c-2.9-0.2-5.8-0.4-8.7-0.7c-0.6-0.1-1.2-0.1-1.7-0.2c-0.3,0-0.3,0.1-0.4,0.3l-4.4,7.2
		c-0.4,0.6-0.8,1.2-1.2,1.8c-0.1,0.2-0.2,0.2-0.4,0.2c-0.9-0.1-1.7-0.2-2.6-0.4c-0.5-0.1-0.5-0.1-0.3-0.6c0.8-1.4,1.7-2.8,2.5-4.2
		c0.7-1,1.4-2.1,2-3.2c0.1-0.2,0.2-0.4,0.3-0.6c0.2-0.5,0.2-0.5-0.3-0.7c-0.3-0.1-0.4-0.4-0.3-0.7c0-0.1,0.1-0.3,0.2-0.4
		c0.4-0.6,0.9-1.2,1.4-1.8c0.1-0.3,0.5-0.4,0.8-0.3c0,0,0.1,0,0.1,0.1c0.2,0.2,0.6,0.1,0.7-0.1c0,0,0,0,0,0c0.2-0.3,0.4-0.5,0.6-0.8
		c3.8-5.6,7.6-11.2,11.5-16.8c0.1-0.2,0.3-0.3,0.6-0.3c1.3,0,2.6,0,3.9,0c0.3,0,0.4,0.1,0.4,0.4C49.9,34,49.9,39.3,49.9,44.6z
		 M46.1,33.2c-0.2,0.2-0.3,0.3-0.4,0.4c-1.2,1.6-2.4,3.3-3.5,5c-1.6,2.3-3.2,4.7-4.7,7.1c-0.3,0.4-0.3,0.5,0.3,0.5
		c2.7,0.4,5.5,0.6,8.2,0.6c0.3,0,0.3-0.2,0.3-0.4c0-3.1,0-6.2,0-9.2C46.2,36,46.2,34.7,46.1,33.2z"/>
	<path class="st0" d="M8.7,78.3c-0.6,0-1.2,0-1.9-0.1c-0.6-0.1-0.6-0.1-0.4-0.6c1.8-5.5,3.6-10.9,5.4-16.4c0.8-2.4,1.6-4.8,2.2-7.2
		c0.2-0.6,0.2-0.6-0.5-0.7c-1.2-0.1-2.3-0.1-3.5-0.2c-0.8,0-0.8,0-0.6-0.8l8.1-23.1c0.3-0.9,0.6-1.8,0.9-2.7c0-0.2,0.2-0.3,0.5-0.3
		c1-0.1,2.1-0.1,3.1-0.1c0.7,0.1,0.8,0.1,0.5,0.8c-1.1,3.7-2.4,7.3-3.6,10.9c-1.1,3.3-2.2,6.6-3.3,9.9c-0.2,0.6-0.2,0.6,0.4,0.7
		c1,0.1,1.9,0.1,2.9,0.1s1,0.1,0.8,1.1c-2.6,8.5-5.5,17-8.3,25.4c-0.3,1-0.7,1.9-0.9,2.9c0,0.2-0.2,0.4-0.5,0.4c0,0,0,0,0,0
		C9.8,78.3,9.3,78.3,8.7,78.3z"/>
	<path class="st0" d="M53,44.6c0-5.3,0-10.6,0-15.9c0-0.5,0-0.5,0.5-0.5c0.7,0,1.4,0,2.1,0c0.3,0,0.4,0.1,0.4,0.4c0,3,0,5.9,0,8.8
		c0,3.8,0,7.7,0.1,11.5c0,0.9,0.1,1.8,0.1,2.7c0,0.1,0,0.3,0.1,0.3s0.2-0.1,0.3-0.2c0.2-0.4,0.5-0.8,0.7-1.3
		c2.5-5.1,4.7-10.3,7.1-15.5l0.6-1.3c0.1-0.1,0.1-0.2,0.3-0.2c1,0,2-0.1,2.9-0.1c0.6,0,0.7,0.1,0.4,0.7c-4.9,11-9.9,21.9-14.8,32.9
		c-1.2,2.8-2.5,5.6-3.8,8.4c-0.1,0.2-0.3,0.4-0.6,0.3c-0.9,0-1.9,0-2.8-0.1c-0.4,0-0.4-0.2-0.3-0.5c1.6-3.5,3.3-7,4.9-10.6
		c0.5-1.1,1-2.1,1.5-3.2c0.1-0.2,0.2-0.5,0.2-0.8C53,55.2,53,49.9,53,44.6z"/>
	<path class="st0" d="M38.8,65.4c0,0.3,0,0.7,0,1c0,0.2-0.1,0.4-0.3,0.4c0,0,0,0,0,0L26.2,70l-10.3,2.7c-0.2,0.1-0.5,0.3-0.8,0
		c-0.2-0.3,0-0.5,0.1-0.7c1.9-5.9,4-11.8,6-17.6c2.2-6.5,4.5-13,6.7-19.5c0.1-0.5,0.6-0.9,1.1-0.9c1-0.1,1.9,0,2.9-0.1
		c0.4,0,0.2,0.2,0.1,0.4c-0.7,2.2-1.5,4.4-2.2,6.5C27.3,48.5,24.5,56.2,22,64c-0.2,0.8-0.5,1.6-0.7,2.4c-0.1,0.3,0,0.4,0.3,0.3
		c1-0.1,2.1-0.4,3.1-0.6c4.5-1,8.9-2.2,13.4-3.2c0.3-0.1,0.5,0,0.5,0.3C38.7,63.9,38.8,64.7,38.8,65.4z"/>
</g>
</svg>
