<?xml version="1.0" encoding="utf-8"?>
<!-- Generator: Adobe Illustrator 21.0.0, SVG Export Plug-In . SVG Version: 6.00 Build 0)  -->
<svg version="1.1" id="Layer_1" xmlns="http://www.w3.org/2000/svg" xmlns:xlink="http://www.w3.org/1999/xlink" x="0px" y="0px"
	 viewBox="0 0 109.3 137.2" style="enable-background:new 0 0 109.3 137.2;" xml:space="preserve">
<style type="text/css">
	.st0{fill:#FFFFFF;}
</style>
<title>pin-hip</title>
<g>
	<path class="st0" d="M25.2,58c0.3-0.5,0.8-0.7,1.4-0.7c0.5,0,1-0.1,1.5-0.2c0.7-0.1,1.5-0.4,2.2-0.5c0.7-0.1,1.4-0.4,2.2-0.5
		c0.6-0.1,1.1-0.3,1.7-0.5c0.8-0.2,1.7-0.5,2.4-0.8c1.2-0.4,2.4-0.7,3.6-1.2c1.1-0.5,2.2-0.9,3.3-1.2c0.2,0,0.4,0,0.5-0.3
		C44,52,44.1,52,44.2,52c0.7-0.2,1.5-0.5,2.2-0.8c0.6-0.3,1.2-0.5,1.8-0.7c0.4-0.1,0.8-0.3,1.2-0.6c1.3-0.6,2.7-1.2,4-1.7
		c1.1-0.4,2.2-1,3.3-1.3c0.9-0.3,1.8-0.8,2.6-1.2s1.6-0.7,2.4-1c1-0.5,2.2-0.8,3.2-1.3c0.7-0.3,1.5-0.5,2.2-0.9
		c0.7-0.3,1.5-0.6,2.3-0.9c0.2-0.1,0.3-0.1,0.5-0.2c0.4-0.2,0.8-0.2,1.2-0.4c1.1-0.5,2.2-0.8,3.3-1.2c0.7-0.3,1.4-0.4,2.1-0.7
		s1.2-0.3,1.7-0.5c0.6-0.2,1.1-0.3,1.7-0.5c1.1-0.3,2.2-0.6,3.3-0.8c0.6-0.1,1.3-0.2,1.9-0.3c0.8-0.2,1.7-0.3,2.5-0.4
		s1.8-0.2,2.6-0.3c1.1-0.2,2.1,0,3.2-0.2c0.3-0.1,0.7-0.1,1-0.1c0.2,0,0.4,0,0.3,0.2s0,0.5-0.2,0.5c-0.7-0.1-1.5,0.3-2.2-0.2
		c-0.1-0.1-0.2,0-0.3,0.1c-0.5,0.2-1,0.3-1.5,0.2c-0.2,0-0.2,0.1-0.2,0.2c0,0.1,0,0.2,0.2,0.3c0,0,0,0,0,0c0.3,0.1,0.7,0.2,0.9,0.4
		c1,0.6,1.8,1.4,2.4,2.3c0.5,0.7,0.8,1.5,0.9,2.4c0,0.5-0.1,0.9-0.3,1.3c0,0.1-0.1,0.1-0.1,0.2c-0.2,0.1,0,0.6-0.3,0.5
		s0-0.4-0.1-0.5c-0.1-0.2-0.2-0.5-0.4-0.6c-0.4-0.3-0.7-0.8-0.7-1.3c0-0.2-0.2-0.2-0.3-0.1c-0.2,0.2-0.6,0.1-0.8-0.1c0,0,0,0,0,0
		c-0.2-0.3-0.2-0.6,0-0.9c0.2-0.3,0.2-0.7,0.1-1c-0.1-0.5-0.2-0.9-0.5-1.3c-0.2,0.2-0.1,0.3,0,0.5c0.2,0.5,0.1,1-0.3,1.3
		c-0.1,0.1-0.2,0.2-0.3,0c-0.1-0.3-0.2-0.3-0.5-0.2c-0.3,0-0.6-0.1-0.8-0.3c-0.1-0.1-0.2-0.1-0.2-0.2s0.2-0.1,0.2-0.1
		c0.7-0.1,1-0.4,1-0.9c-0.1-0.5-0.5-1-1-1.2c-0.9-0.2-1.8-0.2-2.8,0c-0.4,0.2-0.9,0.2-1.4,0.1c0,0-0.1,0-0.1,0
		c-0.6,0.5-1.4,0.3-2,0.6c-0.8,0.3-1.7,0.5-2.5,0.7c-0.5,0.1-1,0.5-1.5,0.4c-0.1,0-0.3,0-0.3,0.2c0,0,0,0,0,0c0,0.2,0.2,0.2,0.3,0.1
		c1-0.1,1.9-0.2,2.9-0.1c1.1,0,2.1,0.2,3.1,0.6c0.5,0.2,1.1,0.4,1.7,0.7c0.8,0.4,1.5,0.9,2.2,1.4c0.8,0.4,1.1,1.2,1.8,1.7
		c0.5,0.4,0.8,1,1.1,1.5c0.4,0.8,0.9,1.5,1.3,2.3c0.5,1,0.8,2.1,1.1,3.2c0.3,1,0.5,2.1,0.6,3.2c0,0.7,0,1.4-0.1,2.2
		c-0.1,0.7-0.3,1.4-0.4,2.1c-0.1,0.5-0.3,0.9-0.5,1.4c-0.1,0.2-0.1,0.3-0.2,0.5c-0.3,0.8-0.7,1.5-1.1,2.2c-0.3,0.6-0.7,1.1-1.1,1.6
		c-0.6,0.7-1.2,1.3-1.8,1.9c-0.7,0.6-1.5,1.1-2.3,1.6c-0.5,0.3-1,0.5-1.5,0.7c-0.8,0.4-1.7,0.6-2.5,0.9c-0.5,0.1-1,0.3-1.5,0.3
		c-0.8,0.2-1.5,0.2-2.3,0.2c-0.7,0-1.4,0-2.2-0.1c-0.6-0.2-1.2-0.3-1.8-0.4c-0.3,0-0.6-0.2-0.9-0.3c-0.3-0.1-0.2,0-0.3,0.2
		c-0.1,0.3-0.1,0.6,0,0.9c0.1,0.6-0.2,1.3,0,1.9c0.1,0.4-0.1,0.9-0.1,1.3c0.1,0.8-0.1,1.6,0.1,2.3c0,0.4,0,0.9-0.1,1.3
		c0,0.6,0,1.1,0,1.7c0,0.6,0,1.2,0,1.8c0,0.5,0,1.1,0,1.6c0,0.7,0,1.5,0,2.2c0,0.2-0.1,0.2-0.2,0.3c-0.5,0.4-0.9,0.8-1.3,1.2
		c-0.1,0.1-0.2,0.3-0.2,0.4c-0.1,0.5-0.2,0.9-0.3,1.4c-0.1,0.4,0,0.7,0.2,1.1c0.1,0.3,0.2,0.5,0.3,0.8c0.2,0.3,0,0.4-0.2,0.4
		c-0.5,0-1.1,0-1.6,0c-1.5,0-3.1,0.1-4.6,0c-0.2,0-0.2,0-0.2-0.2c0-0.8,0-1.5,0-2.2c0-0.5,0-1,0-1.5c0-1-0.1-2.1,0-3.1
		c0.1-0.8-0.1-1.6-0.1-2.5c0.1-1.2,0-2.4,0-3.6c0-0.6,0-1.2,0-1.7c0-1.2,0-2.4,0-3.6c0-0.8,0-1.7,0-2.5s0-1.6,0-2.4
		c0-0.6,0-1.1,0-1.7c-0.1-1.4,0-2.7,0-4.1c0-0.9,0-1.9,0-2.9c0.1-1.3,0-2.7,0-4c-0.1-0.5-0.1-1,0-1.5c0.1-0.6,0.1-1.1,0-1.7
		c-0.1-1.1-0.1-2.2,0-3.3c0-0.2,0-0.5,0-0.7c-0.1-0.8,0.1-1.6,0-2.4c-0.1-0.4-0.3-0.4-0.5-0.3c-0.9,0.4-1.9,0.8-2.8,1.2
		c-0.4,0.2-0.9,0.4-1.3,0.5c-0.5,0.2-0.8,0.8-0.7,1.4c0.1,0.8,0.1,1.6,0.1,2.4c0,0.7,0,1.5,0,2.2c0,1,0,2-0.1,3
		c0,0.6,0.1,1.1,0.1,1.7c0,0.8,0,1.6,0,2.3c0,0.6,0,1.2,0,1.8c0,0.9,0,1.9,0,2.8c-0.1,0.4,0,0.8,0.2,1.1c0.1,0.2-0.1,0.3-0.1,0.5
		c0,1.7-0.1,3.5,0,5.2c0.1,1.3-0.1,2.6-0.1,3.9c0.1,1.4-0.1,2.9,0.1,4.3c0,0.7,0,1.4-0.1,2.1c0,0.6,0,1.2,0,1.9
		c-0.1,1.2,0.1,2.4,0,3.6c-0.1,1.2,0,2.4,0,3.5c0,0.4,0,0.6-0.5,0.6c-0.9,0-1.9,0.1-2.8,0c-1.5-0.1-3,0-4.5,0
		c-0.3,0-0.2-0.2-0.2-0.3c0-0.8,0-1.6,0-2.4c0-1.3,0-2.5,0-3.8c0-1.6,0-3.3,0-4.9c0-1.5,0-3-0.1-4.5c0-0.7,0-1.3,0-2
		c0-0.8,0-1.5,0-2.3c0-0.8,0.1-1.7,0-2.6c-0.1-1.1,0-2.1,0-3.2c0-1.1,0.1-2,0.1-3c0-1.8,0-3.5,0-5.3c0-0.7,0-1.5,0-2.2
		c0.1-1.3-0.1-2.6,0-3.9c0-0.3-0.1-0.4-0.4-0.3l-3.5,1.5c-0.3,0.1-0.6,0.2-0.9,0.4c-0.3,0.1-0.5,0.4-0.4,0.7c0,1,0,1.9,0,2.9
		s0,1.6,0,2.5c0,1,0.1,2,0,3c0,0.6,0,1.3,0.1,1.9c0,0.7-0.1,1.4,0,2.2c0.1,1.1,0,2.2,0,3.3c0.1,0.8,0.1,1.6,0,2.4
		c-0.1,1,0,2.1,0,3.1c0,1.4-0.1,2.8,0,4.2c0.1,1,0,2,0,2.9c0.1,1.4,0,2.8,0,4.2c0,0.9,0,1.8,0,2.6c0,0.7-0.1,1.5,0,2.2
		c0,0.2-0.2,0.2-0.4,0.2c-0.7,0.1-1.5,0.1-2.2,0c-1.7,0-3.4,0-5.1,0c-0.3,0-0.4,0-0.4-0.4c0-0.9,0-1.9,0-2.8c0-0.7,0-1.5,0-2.2
		c0-0.9,0-1.9,0-2.8c0-0.9,0.1-2,0-3.1c-0.1-0.8,0-1.6,0-2.4c0-1.1,0-2.3,0-3.4c0-0.4-0.2-0.6-0.6-0.6c-1.5,0-3.1,0-4.6,0
		c-1.1,0-2.2,0.1-3.4,0.1c-1.1,0-2,0-3,0h-1.7c-0.3,0-0.4,0.1-0.4,0.4c-0.1,1.4,0,2.7,0,4.1c0,1.3,0,2.9,0,4.4c0,1.3,0,2.5,0,3.8
		c0,1.5,0,3-0.1,4.5c0,0.3-0.1,0.4-0.5,0.4c-1.1,0-2.1,0-3.2,0c-1.3,0-2.6,0-3.9,0c-0.3,0-0.4-0.1-0.4-0.4c0-0.6-0.1-1.2-0.1-1.8
		c0-1,0-1.9,0-2.9c0-0.7,0-1.5,0-2.2s-0.1-1.5,0-2.3c0-0.5,0-1,0-1.6c0-0.5,0-1,0-1.6c0-0.4,0-0.8,0-1.2c0-1.1,0-2.2,0-3.3
		c0-0.9,0-1.8,0-2.7c0-0.9,0-2,0-3s0-2.1,0-3.2c0-0.6,0-1.2,0-1.8c0-0.4,0-0.9,0-1.4c0-0.8,0-1.5,0-2.3c0-0.2,0.2-0.2,0.3-0.1
		c0.9,0,1.8,0,2.7-0.1c0.5,0,1,0,1.5-0.2c0.2-0.1,0.4,0,0.7,0c0.6-0.1,1.2-0.1,1.8-0.3C25.1,57.6,25.3,57.6,25.2,58z M86.7,54.3
		c-0.1-1.1-0.3-2.1-0.8-3.1c-0.3-0.8-0.8-1.5-1.3-2.1c-0.2-0.2-0.4-0.4-0.6-0.6c-0.3-0.3-0.6-0.6-1-0.8c-0.6-0.3-1.3-0.5-1.9-0.7
		c-0.2-0.1-0.3,0.1-0.6,0c-0.7-0.3-1.5-0.3-2.3-0.1c-0.5,0.1-1,0-1.4,0.4c-0.6-0.2-1.2,0.2-1.8,0.3c-0.3,0.1-0.7,0.2-0.6,0.7
		c0.1,0.4,0.1,0.8,0,1.2c0,0.4,0,0.7,0,1.1c-0.1,1.3-0.1,2.7,0,4c0,0.7,0,1.5,0,2.2c0,0.5,0,1,0,1.5c-0.1,0.9,0,1.8,0,2.7
		c0,0.3,0,0.7,0.4,0.8c0.6,0.1,1.1,0.4,1.7,0.5c0.3,0,0.6,0.1,0.9,0.2c0.8,0.2,1.7,0.2,2.5-0.1c0.5-0.1,0.9-0.2,1.3-0.4
		c0.5-0.1,0.9-0.3,1.3-0.6c0.6-0.4,1.1-0.9,1.6-1.3c0.4-0.5,0.8-0.9,1.2-1.4c0.4-0.7,0.8-1.4,1-2.1c0.1-0.3,0.2-0.7,0.4-1
		C86.7,55.2,86.7,54.7,86.7,54.3z M25.8,63.3c0,0.7,0.1,0.9,0.7,0.9c1.5,0,3,0,4.6,0c1.6,0,3.2,0,4.7,0c1.1,0,2.2,0,3.3,0
		c0.3,0,0.4-0.1,0.5-0.4c0-0.5,0-1.1,0-1.6c0.1-1,0-2,0-3c0-1.4,0-2.8,0-4.2c0-0.4-0.1-0.4-0.4-0.4c-0.2,0-0.3,0.1-0.4,0.1
		c-0.9,0.3-1.8,0.6-2.6,0.9s-1.7,0.4-2.5,0.7s-1.6,0.3-2.4,0.7c-0.6,0.2-1.3,0.3-1.9,0.5c-0.9,0.2-1.9,0.3-2.9,0.5
		c-0.3,0-0.6,0.3-0.5,0.6c0,0,0,0,0,0c0,0.6,0,1.2,0,1.8C25.8,61.4,25.9,62.3,25.8,63.3L25.8,63.3z M93.1,40.2L93.1,40.2
		c-0.2-0.9-0.7-1.6-1.4-2c-0.1-0.1-0.2-0.1-0.2,0c-0.1,0.1-0.1,0.2,0,0.2c0,0,0,0,0,0c0.4,0.6,0.7,1.2,0.8,1.9
		c0.1,0.2,0.2,0.4,0.4,0.3S93.1,40.4,93.1,40.2L93.1,40.2z"/>
	<path class="st0" d="M42.2,22.7c0.4-0.1,1.1,0.1,1.7,0c0.4-0.1,0.8,0.1,1.2,0.1c0.7-0.1,1.4,0,2.2,0c0.2,0,0.4,0.1,0.3,0.3
		c0,0.7,0,1.3,0,2c0,0.2-0.1,0.3-0.3,0.3c-1.3,0-2.6,0-3.8,0c-0.6,0-0.6,0-0.7,0.7s0.1,1.1,0.1,1.6c0,0.1,0,0.2,0.1,0.2
		c0.1,0.1,0.3,0.1,0.4,0.1c0.9-0.1,1.8,0,2.8,0c0.2,0,0.2,0.1,0.3,0.3c0.1,0.7,0,1.4,0.1,2.2c0,0.3-0.4,0.3-0.5,0.3
		c-0.6-0.1-1.1,0.1-1.7,0c-0.3,0-0.6,0.1-1,0c-0.3,0-0.5,0.2-0.5,0.5c0,0,0,0,0,0.1c0.1,0.7,0,1.4,0.1,2.1c0,0.4,0.3,0.4,0.5,0.4
		c1.2-0.1,2.4,0,3.6,0c0.5,0,0.7,0.3,0.6,1.1c-0.1,0.3,0,0.7,0,1s0.2,0.5,0.6,0.4c1.1-0.5,2.2-1,3.4-1.3c0.3-0.1,0.4-0.4,0.8-0.4
		c0.1,0,0.2-0.1,0.3,0s0.2,0.1,0.3,0c0.4-0.6,1.1-0.6,1.7-1c0.9-0.5,1.8-0.8,2.8-1.2c0.6-0.3,1.3-0.6,2-0.9c0.1,0,0.3,0,0.3-0.2
		c0-0.2-0.1-0.3-0.3-0.3c0,0,0,0,0,0c-0.6,0-0.9-0.5-1.1-0.9c-0.1-0.2-0.3-0.3-0.5-0.2c0,0-0.1,0-0.1,0.1c-0.3,0.2-0.6,0.4-0.9,0.6
		c-0.4,0.2-0.9,0.4-1.3,0.5c-0.9,0.2-1.9-0.1-2.5-0.8c-0.3-0.3-0.5-0.7-0.7-1.2c-0.1-0.3-0.6-0.4-0.9-0.4c-1-0.1-1.9-0.8-2.1-1.7
		c-0.1-0.5-0.2-1-0.2-1.5c0-0.5,0.2-0.9,0.5-1.3c0.2-0.3,0.4-0.6,0.7-0.8c0.4-0.5,1-0.3,1.5-0.4c0.6,0,1.2,0.4,1.4,1
		c0.1,0.4,0,0.8-0.3,1.2c-0.3,0.4-0.9,0.4-1.3,0.1c0,0,0,0-0.1-0.1c-0.2-0.3-0.6-0.6-0.2-1c0,0,0-0.1,0-0.2s-0.1,0-0.2,0.1
		c-0.4,0.3-0.6,0.7-0.6,1.1c0,0.8,0.4,1.5,0.9,2c0.3,0.3,0.4,0.2,0.5-0.2c0-0.2,0-0.6,0.3-0.6s0.2,0.4,0.3,0.5
		c0.1,0.8,0.8,1.5,1.7,1.6c0.2,0,0.3,0,0.4-0.2s-0.1-0.2-0.2-0.2c-0.2-0.2-0.3-0.4-0.5-0.7c0-0.1,0-0.2,0-0.2c0.1,0,0.3,0,0.4,0.1
		c0.8,0.6,1.8,0.8,2.8,0.4c0.1,0,0.2-0.1,0.2-0.2s-0.2-0.2-0.2-0.2c-0.3,0-0.6-0.2-0.9-0.4c-0.2-0.2-0.3-0.3-0.2-0.5s0.3,0,0.5,0
		c0.9,0.4,1.9,0.3,2.7-0.1c0.1,0,0.3-0.1,0.3-0.3s-0.2-0.1-0.4-0.2c-0.3-0.1-0.7,0-0.9-0.4c-0.1-0.1-0.3-0.1-0.2-0.3
		c0.1-0.1,0.3-0.2,0.4-0.2c0.3,0.1,0.7,0.2,1.1,0.1c0.8,0.1,1.6,0,2.4-0.3c0.1,0,0.2,0,0.2-0.2s-0.2-0.1-0.3-0.1
		c-0.4,0-0.7-0.1-1-0.3c-0.2-0.1-0.3-0.3-0.2-0.5c0,0,0,0,0,0c0.1-0.3,0.3,0,0.4,0C62,24,63,24.1,64,23.9c0.2,0,0.4,0,0.6,0
		c0.1,0,0.2,0.2,0.4,0c0.1-0.1,0.1-0.3,0.1-0.5c-0.1-0.2-0.3-0.3-0.1-0.5s0.4,0.1,0.6,0.1c0.5,0.2,1.1,0.3,1.6,0.4
		c1.4,0.2,2.7,0.6,3.9,1.3c0.4,0.2,0.7,0.5,0.9,0.8c0.4,0.6,0.7,0.7,1.3,0.4c0.9-0.3,1.8-0.6,2.7-0.9c0.8-0.2,1.5-0.4,2.3-0.8
		c0.3-0.1,0.7-0.2,1-0.2c1.4-0.4,2.9-0.8,4.4-1.1c1.8-0.4,3.7-0.7,5.6-0.9c0.9-0.1,1.8-0.2,2.7-0.2s1.6-0.2,2.4-0.2
		c0.4,0,0.5,0.2,0.4,0.5s-0.3,0.1-0.5,0.1c-1.1,0-2.3,0-3.4,0.2c-0.7,0.1-1.5,0.1-2.2,0.3c-0.7,0.2-1.4,0.2-2.1,0.2
		c-0.4,0-0.8,0.1-1.1,0.2c-0.5,0.2-1.1,0.2-1.6,0.1c-0.1,0-0.2,0-0.2,0.1c-0.4,0.4-0.9,0.3-1.3,0.5c-0.6,0.2-1.2,0.2-1.8,0.4
		c-1,0.3-1.9,0.6-2.9,0.8c-1.4,0.3-2.7,0.9-4.1,1.3c-1.4,0.4-2.7,0.9-4,1.5c-0.6,0.2-1.1,0.4-1.7,0.6c-0.8,0.3-1.6,0.6-2.3,0.9
		c-1.8,0.8-3.6,1.5-5.4,2.3c-1.1,0.5-2.1,0.9-3.1,1.4c-0.7,0.3-1.3,0.6-2,0.8c-0.7,0.3-1.3,0.6-2,0.8s-1.3,0.6-2,0.8
		s-1.2,0.6-1.8,0.8c-0.9,0.4-1.8,0.7-2.7,1.1c-0.4,0.2-0.9,0.3-1.3,0.5c-0.9,0.4-1.9,0.8-2.8,1.1c-0.8,0.3-1.6,0.6-2.4,0.9
		s-1.7,0.5-2.5,0.8s-1.7,0.4-2.5,0.8c-0.5,0.2-0.9,0.3-1.4,0.4c-1.2,0.3-2.4,0.5-3.6,0.9c-1.4,0.3-2.8,0.6-4.3,0.7
		c-0.9,0.1-1.8,0.3-2.7,0.4s-1.5,0.1-2.3,0.2c-0.8,0.1-1.6,0.1-2.4,0.1c-0.3,0-0.4-0.1-0.4-0.3s0.2-0.2,0.4-0.3c0.6,0,1.1,0,1.7,0
		s0.5-0.4,0.5-0.7c0-0.8,0.1-1.6,0-2.3c-0.1-0.7-0.1-1.4,0-2.1c0-0.6-0.1-1.2,0-1.8s0-1.4,0-2.1c0-0.6,0-1.1,0-1.7
		c0-0.5,0.1-0.9,0.1-1.4c0.1-0.6,0.1-1.3,0-1.9c-0.1-0.8,0-1.7,0-2.6c0-0.3,0-0.7,0-1c0.1-0.3-0.2-0.5-0.5-0.5h-1.8
		c-0.3,0-0.6,0-0.5-0.5c0.1-0.4,0.1-0.9,0-1.3c-0.1-0.5,0.2-0.8,0.1-1.2c0-0.2,0.1-0.2,0.2-0.1c0.9,0.1,1.8,0,2.7,0
		c1.3,0.1,2.6-0.1,3.8,0c0.3,0,0.5,0,0.8-0.1c0.6-0.1,0.9,0.1,0.9,0.7s0,1.3,0,2c0,0.4-0.2,0.5-0.5,0.5c-0.6-0.1-1.2,0-1.9,0
		c-0.2,0-0.3,0.1-0.3,0.3c0,1-0.1,2,0,3c0,0.8,0,1.6,0,2.4c0,1.8,0,3.5,0,5.2c0,0.9,0,1.8,0,2.7c-0.1,0.8-0.1,1.6,0,2.5
		c0,0.3,0,0.7-0.1,1c0,0.7,0.2,0.8,0.8,0.7c1-0.1,2-0.4,3-0.5c0.5,0,0.7-0.4,0.7-1.1c0-1.1,0-2.2,0-3.3c0.1-0.7,0.1-1.3,0-2
		c-0.1-0.8,0-1.6,0-2.3c-0.1-1.1,0-2.1,0-3.2s0-1.9,0-2.8s0-1.9,0-2.8c0-0.8,0.1-1.5,0-2.3c0-0.2,0.1-0.3,0.3-0.3c0.5,0,1,0,1.5-0.1
		c0.1,0,0.2,0,0.3,0.1c0.2,0.1,0.3,0.2,0.5,0s0.6,0.2,0.6,0.5c0,0.6,0,1.3,0,1.9c0,0.8,0,1.7,0,2.6c0,0,0,0.1,0,0.1
		c0,0.8,0.1,0.9,0.9,0.9c0.6,0,1.2,0,1.7,0c0.3,0,0.5-0.1,0.5-0.5c-0.1-0.8,0.1-1.6,0.1-2.4c-0.1-0.9-0.1-1.8,0-2.7
		c0.1-0.5,0.2-0.4,0.5-0.4c0.8-0.1,1.6,0,2.3-0.1c0.2-0.1,0.4,0.1,0.5,0.3c0,0.1,0,0.1,0,0.2c0,1.5,0,3,0,4.5c0,1,0,2,0,3.1
		s0,2.3,0,3.5c0,0.9,0,1.8,0,2.8s0,1.9,0,2.8c0,0.3,0.3,0.5,0.6,0.2c0.2-0.1,0.4-0.2,0.6-0.2c0.2,0,0.4-0.2,0.4-0.4c0,0,0-0.1,0-0.1
		c0-0.1,0-0.1,0-0.2c0.1-1,0.1-1,1.4-0.9c0.9,0.1,1.9,0.1,2.8,0c0.4-0.1,0.9-0.3,1.3-0.5c0.5-0.3,1.1-0.6,1.7-0.8
		c0.2,0,0.3,0,0.3-0.2s-0.2-0.2-0.4-0.2c-0.6,0-1.3,0-1.9,0s-1.5-0.1-2.2-0.1s-1.5,0-2.2,0c-0.6,0-0.6,0-0.6-0.6c0-1,0-2.1-0.1-3.1
		c0-0.8,0-1.6,0-2.4c0-1.3,0-2.5,0-3.8c0-1,0.1-2.1,0-3.1c0-0.5,0.2-0.6,0.6-0.6C40.8,22.7,41.4,22.7,42.2,22.7z M31.4,35.3
		c0.1,0.4,0.1,0.8,0,1.2c0,0.5,0,1,0,1.5c0,1.1,0.1,2.1,0,3.2c0,0.4,0.2,0.7,0.6,0.5c0.8-0.3,1.6-0.5,2.4-0.7c0.2,0,0.4-0.3,0.4-0.5
		c0,0,0,0,0,0c-0.1-0.4-0.1-0.7,0-1.1c0.1-0.7,0.1-1.3,0-2c0-1-0.1-1.9,0-2.9c0.1-0.8-0.1-1.6,0-2.4c0-0.2-0.1-0.4-0.3-0.5
		c0,0,0,0,0,0c-0.9,0-1.8,0-2.7,0c-0.2,0-0.2,0.1-0.2,0.2C31.4,33,31.3,34.2,31.4,35.3z M63.1,27c-0.6,0.5-0.5,1.4-1,2
		c-0.1,0.2-0.2,0.5-0.3,0.8c-0.1,0.1-0.1,0.2,0,0.3c0.1,0.1,0.2,0.1,0.3,0.1c0.3-0.2,0.7-0.2,1-0.4c0.7-0.4,1.5-0.7,2.2-1
		c0.8-0.3,1.7-0.6,2.5-0.9c1.1-0.5,2.3-0.8,3.4-1.3c0.3-0.1,0.7-0.1,0.8-0.3s-0.4-0.4-0.6-0.6c-0.7-0.6-1.7-0.7-2.6-0.3
		c-0.8,0.5-1.5,1-2.1,1.7c-0.4,0.5-0.9,0.8-1.5,1C64.4,28.1,63.6,27.7,63.1,27L63.1,27z M66.3,24.2c-0.7,0-1.4,0.3-1.8,0.8
		c-0.3,0.3-0.6,0.6-0.6,1.1c0,0.3,0.3,0.3,0.3,0.5s0.2,0.4,0.4,0.4c0.5,0.2,1.1,0,1.5-0.3c0.3-0.3,0.6-0.7,0.9-0.9
		c0.7-0.5,1.4-0.9,2.2-1.1c0.1,0,0.2,0,0.2-0.1s-0.1-0.1-0.2-0.2c-0.3-0.2-0.7,0-1.1,0c-0.8,0-1.6,0.4-2.2,1.1
		c-0.2,0.2-0.3,0.5-0.5,0.7s-0.2,0.3-0.4,0.1s-0.5-0.2-0.3-0.5c0.1-0.3,0.3-0.5,0.5-0.7C65.6,24.8,65.9,24.5,66.3,24.2L66.3,24.2z
		 M60,29.9c0.7,0.1,0.8-0.6,1.2-0.8c0.1,0,0.1-0.1,0.2-0.2c0.4-1,0.9-1.9,1.3-2.9c0-0.1,0.2-0.2,0.1-0.3c-0.1-0.1-0.2-0.1-0.3,0
		c0,0,0,0,0,0c-0.5,0.6-1.3,1-1.5,1.8c-0.1,0.4-0.3,0.8-0.5,1.2c0,0.1-0.1,0.3-0.3,0.2s-0.3,0-0.3-0.2s-0.2-0.4-0.1-0.6
		s0.1-0.7,0.4-0.9c0.1-0.1,0.1-0.2,0.1-0.3c-0.1-0.1-0.2,0-0.3,0c-0.4,0.2-0.6,0.5-0.6,0.9c0,0.2-0.1,0.4-0.2,0.6
		c-0.2,0.2-0.4,0.5-0.2,0.8S59.4,30,60,29.9z M55,30.5c0.2-0.2,0.2-0.4,0.4-0.5c0.7-0.2,1.4-0.6,2-1.1c0.1-0.1,0.2-0.2,0.2-0.3
		s-0.2,0-0.4,0c-0.5,0.4-1,0.7-1.6,0.8c-0.6,0.2-1.1,0.1-1.7-0.1c-0.1-0.1-0.3-0.1-0.3-0.3S54,29,54.1,29s0.4,0,0.7,0s0.2,0,0.3-0.1
		s-0.1-0.1-0.2-0.2c-0.5-0.2-1.1-0.1-1.6-0.3C53,28.4,53,28.6,53,28.8c0.1,0.3,0.3,0.6,0.6,0.7c0.3,0.2,0.7,0.6,1.1,0.5
		C55,30,55.2,30.1,55,30.5L55,30.5z M50,24.6c-0.4,0.8,0.1,1.6-0.1,2.3c0,0,0,0,0.1,0.1c0.3,0.3,0.6,0.7,1,1c0.2,0.1,0.5,0.1,0.7,0
		c0.1-0.1-0.1-0.3-0.2-0.5c-0.3-0.3-0.6-0.6-0.8-1C50.3,25.9,50.1,25.2,50,24.6L50,24.6z"/>
	<path class="st0" d="M93.7,77.5c0.3-0.1,0.6,0.1,0.9,0.1c0.3,0,0.4,0.4,0.2,0.6c-0.1,0.2-0.2,0.4-0.1,0.5c-0.1,0.5-0.1,0.9-0.2,1.4
		c0,0.4-0.3,0.8-0.6,1c-0.2,0.1-0.1,0.2,0,0.3c0.3,0.1,0.4,0.5,0.7,0.7c0.2,0.2,0.3,0.4,0.3,0.7c0,0.6-0.2,1.3-0.6,1.8
		c-0.2,0.3-0.6,0.4-0.9,0.2c-0.1-0.1-0.2-0.1-0.2-0.2c-0.3-0.3-0.6-0.5-1-0.6c-0.3,0-0.7,0.1-0.9,0.4c-0.3,0.3-0.5,0.8-0.5,1.2
		c0,0.3,0,0.7,0,1c0.1,0.8,0.7,1.4,1.5,1.5c0.5,0.1,1,0.1,1.6,0c0.3-0.1,0.5,0.1,0.6,0.4c0,0,0,0.1,0,0.1c0.1,0.4,0.4,0.6,0.3,1
		c0,0.2-0.2,0.4-0.4,0.4c0,0-0.1,0-0.1,0c-0.7-0.1-1.4-0.2-2.1-0.3c-0.4-0.1-0.9-0.3-1.3-0.5c-0.7-0.4-1.2-1-1.9-1.3
		c-0.4-0.2-1.7-0.1-1.9,0.3c-0.2,0.3-0.3,0.6-0.2,0.9c0.1,0.2,0,0.5-0.3,0.5c-0.8,0.1-1.6-0.2-2.2-0.8c-0.2-0.2-0.1-0.5-0.2-0.7
		s-0.1-0.3-0.2-0.3c-0.2,0-0.1,0.2-0.1,0.3c-0.2,0.5-0.5,0.9-1,1.2c-0.5,0.3-1.1,0.5-1.6,0.7c-0.4,0.1-0.9-0.1-0.8-0.5
		s-0.5-0.7-0.4-1.1c0-0.1-0.2,0-0.2,0c-0.2,0.3-0.5,0.3-0.8,0.4s-0.6,0.3-1,0.4c-0.6,0.2-1-0.1-1.1-0.8c-0.1-0.4,0-0.8,0.2-1.1
		c0.1-0.1,0.1-0.2,0-0.3c-0.1-0.1-0.2-0.1-0.3,0c-0.6,0.2-1.1,0.3-1.7,0.4s-1.2,1.1-1,1.5c0.1,0.2,0.1,0.4,0.4,0.3
		c0.3-0.1,0.5-0.1,0.4-0.4c0-0.1,0-0.2,0-0.4c0.1-0.5,0.4-0.8,0.8-0.7c0.4,0.1,0.6,0.5,0.5,0.9c0,0,0,0,0,0
		c-0.1,0.8-0.8,1.3-1.6,1.2c-0.3,0-0.5-0.2-0.7-0.3c-0.6-0.5-0.9-1.3-0.8-2.1c0.1-0.6,0.3-1.2,0.7-1.7c0.5-0.5,1-0.8,1.7-1
		c0.4-0.1,0.4-0.3,0.2-0.5s-0.4-0.3-0.5-0.6c-0.1-0.3,0-0.5,0.3-0.5c0.7,0,1.3-0.4,1.9-0.4c0.2,0,0.4,0,0.6,0c0.5,0,0.6-0.1,0.6-0.6
		c-0.1-0.3,0-0.7,0.2-1c0.3-0.4,0.5-0.3,0.8-0.1c0.3,0.2,0.7,0.2,1,0.2c0.9,0,1.7,0.4,2.2,1.2c0,0.1,0.1,0.1,0.2,0.1
		c0.1-0.1,0.2-0.1,0.3-0.2c0.2-0.4,0.4-0.8,0.9-0.7c0.4,0,0.8,0.1,1.2,0.3c0.3,0.2,0.4,0,0.4-0.2c0-0.4,0.1-0.8,0.4-1.2l0,0
		c0.8-0.2,0.4-0.8,0.2-1.1c-0.2-0.6-0.3-1.2-0.1-1.9c0-0.5,0-1,0.1-1.5c0.1-0.4,0.2-0.5,0.5-0.5H87c0.1,0,0.2,0,0.2-0.2
		c-0.2-0.7-0.1-1.5,0.3-2.1c0.1-0.3,0.1-0.6,0.2-0.9s0.4-0.4,0.6-0.3c0.2,0.1,0.5,0.2,0.7,0.4c0.3,0.2,0.4,0,0.4-0.2
		c0-0.9,0.4-1.8,1-2.5c0.3-0.4,0.7-0.8,1.2-1.1c0.6-0.4,1.2-0.5,1.9-0.3c0.5,0.2,0.9,0.6,1,1.2c0.1,0.5,0.1,1-0.1,1.5
		c-0.1,0.4-0.9,0.6-1.3,0.3c-0.1-0.1-0.2-0.3-0.3-0.1c-0.2,0.1,0,0.3,0.1,0.4c0.4,0.6,0.4,1.3,0.2,2c0,0.1-0.2,0.3,0,0.4
		c0.2,0.1,0.4,0.1,0.5,0c0.2-0.2,0.6-0.2,0.8,0c0.2,0.1,0.3,0.3,0.2,0.5c0,0,0,0.1-0.1,0.1c-0.2,0.3-0.3,0.7-0.2,1
		c0,0.6-0.2,1.1-0.6,1.6C93.7,77.2,93.6,77.3,93.7,77.5z M89.7,81.7c0-0.9,0.1-1.8-0.7-2.5c-0.1,0-0.1-0.1-0.1-0.2
		c0-0.4-0.4-0.5-0.6-0.7s-0.4-0.2-0.3-0.4c0.1-0.2,0.3-0.1,0.5-0.1c0.5,0.1,0.9,0.4,1.2,0.9c0.1,0.1,0.2,0.2,0.3,0.2
		c0.2,0,0.1-0.2,0.1-0.3c0.2-0.8,0.1-1.7-0.3-2.4c-0.3-0.4-0.5-0.9-0.4-1.4c0.3,0.2,0.5,0.5,0.7,0.7c0.1,0.1,0.4,0.2,0.3,0
		c0-0.5,0.1-1,0.1-1.5c0.1-0.6,0.1-1.2,0.2-1.9c0-0.5,0.4-0.9,0.5-1.4c0-0.1,0.1-0.3,0.3-0.2s0.2,0.1,0.1,0.3
		c-0.3,0.9-0.4,1.8-0.4,2.7c0.1,0.9,0.1,1.7,0,2.6c0,0.1,0,0.2,0.1,0.2c0.1,0.1,0.1,0.1,0.2,0c0,0,0,0,0,0c0.2-0.2,0.5-0.2,0.7-0.5
		c0.2-0.2,0.4-0.2,0.7-0.1c-0.5,0.9-1.4,1.6-1.7,2.6c-0.1,0.4-0.2,0.8-0.2,1.2c0,0.3,0.1,0.3,0.3,0.1c0.2-0.2,0.4-0.3,0.6-0.5
		c0.3-0.3,0.7-0.3,1-0.2c-0.3,0.1-0.3,0.4-0.5,0.5c-0.6,0.5-1.1,1.1-1.5,1.7c-0.1,0.2-0.3,0.5-0.2,0.7s0.4,0,0.7,0s0.4-0.1,0.5,0.2
		c0,0.2-0.2,0.2-0.3,0.3c-0.5,0.2-0.9,0.6-1.3,1c-0.1,0.2-0.2,0.3,0,0.5c0.2,0.2,0.3,0,0.4-0.1c0.2-0.2,0.4-0.3,0.7-0.4
		c0.6-0.3,1.4-0.2,2,0.2c0.1,0.1,0.3,0.4,0.4,0.1c0.1-0.2,0.2-0.5,0.2-0.8c0-0.6-0.6-0.9-1.2-1.2c-0.2-0.1-0.3-0.1-0.4-0.3
		s0.1-0.3,0.2-0.4c0.7-0.4,1.1-1.1,1.1-1.9c0-0.1,0-0.3,0-0.4c0.1-0.4,0-0.5-0.4-0.5c-0.1,0-0.3,0-0.4,0c-0.2,0-0.4,0-0.4-0.2
		c0-0.2,0-0.4,0.2-0.6c0.5-0.5,0.9-1.1,1.2-1.8c0-0.1,0-0.1,0-0.2c-0.4,0-0.1-0.3-0.1-0.4c0-0.1,0.1-0.4-0.1-0.5
		c-0.2-0.1-0.3,0.1-0.5,0.1c-0.2,0-0.1,0.1-0.2,0.1c-0.2,0.1-0.6,0.1-0.7-0.1c-0.3-0.3,0-0.6,0.1-0.8c0.2-1,0.1-2.1-0.3-3.1
		c-0.2-0.4-0.3-0.9,0.1-1.3c0.1-0.1,0.2-0.3,0.1-0.5c-0.2-0.2-0.3,0-0.4,0.1s-0.4,0.5-0.7,0.7c-0.5,0.4-0.6,1-0.9,1.5
		c-0.2,0.5-0.2,1.1,0,1.6c0.1,0.3-0.1,0.6-0.3,0.8c-0.2,0.2-0.4,0.1-0.7,0s-0.4-0.5-0.7-0.7s-0.2-0.1-0.3,0
		c-0.4,0.4-0.3,0.9-0.3,1.3c0,0.4,0.1,0.8,0.4,1.1c0.2,0.3,0.2,0.7,0,1c-0.2,0.2-0.4,0.1-0.6,0.1c-0.8-0.3-0.9-0.3-1,0.6
		c0,0,0,0.1,0,0.1c-0.1,0.5,0,0.9,0.1,1.4c0.2,0.5,0.5,0.9,0.8,1.3c0.2,0.3,0.2,0.5-0.2,0.6c-0.1,0-0.3,0-0.4,0
		c-0.5,0-0.5,0.4-0.7,0.6c0,0,0,0.4,0.3,0.4c0.9-0.1,1.8,0.3,2.2,1.1c0.1,0.1,0.1,0.2,0.2,0.2c0.1-0.1,0.2-0.2,0.1-0.3
		c-0.3-0.5-0.4-1.2-1.2-1.3c-0.1,0-0.2-0.1-0.2-0.2s0.1-0.2,0.2-0.2c0.2,0.1,0.5-0.1,0.8,0.1C89.1,81.1,89.4,81.4,89.7,81.7
		L89.7,81.7z M80.5,86.7c0.3-0.1,0.5,0.1,0.6,0.3s0,0.4-0.1,0.6c-0.2,0.3-0.4,0.6-0.5,0.9c0,0.3,0,0.5,0.2,0.7
		c0.2,0.2,0.3-0.1,0.4,0c0.3,0,0.6-0.2,0.8-0.3c0.6-0.2,1.2-0.5,1.2-1.4c0-0.4,0.4-0.6,0.7-0.6c0.6,0.1,0.8,0.2,0.8,0.7
		c0,0.3,0.1,0.5,0.1,0.8c0.1,0.4,0.5,0.4,0.8,0.5s0.4-0.3,0.4-0.5c-0.1-0.3,0.1-0.5,0.3-0.7l0.6-0.5c0.1-0.1,0.2-0.1,0.1-0.2
		c0-0.1-0.1-0.1-0.2-0.1c-0.2,0-0.4,0-0.5,0.1c-0.4,0.2-0.6,0.5-0.8,0.9c0,0.1-0.1,0.2-0.2,0.2c-0.1,0-0.1-0.2-0.1-0.3
		c0-0.3,0.1-0.6,0.4-0.8c0.3-0.3,0.3-0.5-0.1-0.6c-0.2,0-0.4-0.2-0.6-0.2c-0.3,0-0.5,0-0.8,0.1c-0.7,0.3-1.4,0.7-2,1.3
		c-0.1,0.1-0.2,0.2-0.4,0.1c-0.2-0.1-0.1-0.3,0-0.4c0.3-0.5,0.8-0.8,1.3-1.1c0.1-0.1,0.3,0,0.3-0.2c0-0.1-0.1-0.2-0.2-0.2
		c-0.3-0.1-0.7-0.1-1-0.1c-0.8,0.1-1.6,0.3-2.3,0.7c-0.3,0.2-0.6,0.3-0.9,0.6s-0.5,0.7-1,0.3c-0.1-0.1-0.2,0.1-0.3,0.3
		s-0.3,0.5-0.2,0.8c0,0.1,0.1,0.1,0.2,0.1c0.9,0,1.7-0.4,2.2-1.2C79.8,87,80.1,86.7,80.5,86.7L80.5,86.7z M77.9,83.4h-0.7
		c-0.2,0-0.3,0.1-0.4,0.3c-0.1,0.1,0.1,0.3,0.2,0.3c0.5,0.3,1.2,0.6,1.8,0.6c0.6,0.1,1.3,0.1,1.9,0.2c0.2,0,0.6,0.2,0.6,0.1
		s-0.2-0.4-0.4-0.6c-0.3-0.4-0.8-0.6-1-1.1c0-0.1-0.1-0.2,0-0.3c0.1-0.1,0.2-0.1,0.2,0c0,0,0,0,0,0c0.2,0.2,0.4,0.3,0.6,0.5
		c0.7,0.7,1.6,1.3,2.6,1.6c0.1,0,0.3,0.3,0.5,0s0-0.4-0.1-0.5c-0.2-0.2-0.1-0.5,0.1-0.7c0.2-0.2,0.3,0.1,0.4,0.3
		c0.1,0.1,0.1,0.2,0.1,0.3c0.2,0.3,0.2,0.7,0.5,0.8c0.3,0.1,0.5,0.2,0.7,0.4c0.1,0.1,0.1,0.2,0.2,0.1s0-0.2-0.1-0.2
		c-0.2-0.2-0.4-0.5-0.6-0.7c-0.5-0.5-0.7-1.2-0.5-1.9c0-0.1,0.1-0.3-0.1-0.4s-0.3-0.2-0.4,0c-0.2,0.2-0.5,0.4-0.5,0.8
		c0,0.1-0.1,0.2-0.2,0.2c0,0,0,0,0,0c-0.4,0.1-0.7,0-1-0.3c-0.4-0.5-0.9-0.9-1.5-1.1c-0.5-0.1-1-0.1-1.5-0.2
		c-0.5-0.1-0.6,0.3-0.4,0.7c0.1,0.2,0.2,0.3,0.3,0.4c0.2,0.2,0.3,0.4,0.2,0.7c-0.1,0.2-0.4,0.4-0.6,0.3c-0.1,0-0.3-0.1-0.4-0.2
		C78.4,83.6,78.1,83.5,77.9,83.4L77.9,83.4z M75,86.6c0.4,0,0.9,0,1.3,0c0.2,0,0.4-0.4,0.6,0l0.1-0.1c0.4-0.2,0.7-0.2,0.8,0.2
		s0.2,0.2,0.3,0.1c0.2-0.1,0.3-0.5,0.6-0.5s0.4-0.5,0.7-0.6c0.1,0,0-0.1-0.1-0.2c-0.2-0.2-0.4,0-0.6,0c-0.9,0-1.9,0.1-2.8,0.4
		C75.7,86.1,75.3,86.3,75,86.6L75,86.6z M85.6,82.2c0,0.2,0,0.3-0.1,0.5c-0.1,0.6,0,1.2,0.2,1.8c0.3,0.4,0.6,0.8,1.1,1.1
		c0.1,0.1,0.2,0.1,0.3,0c0.1-0.1,0-0.2,0-0.2c-0.2-0.4-0.4-0.8-0.5-1.2C86.7,83.3,86.3,82.6,85.6,82.2L85.6,82.2z M87.7,83.1
		c0,0.3,0.1,0.5,0.2,0.7c0.1,0.1,0.1,0.2,0.2,0.3c0.2,0.6,0.4,1.1,0.6,1.7c0,0.1,0.1,0.2,0.3,0.2s0.1-0.2,0.1-0.4
		c-0.1-0.2-0.2-0.5-0.2-0.8c-0.1-0.6-0.4-1.2-0.7-1.8c-0.1-0.1-0.2-0.2-0.4-0.2C87.8,82.8,87.8,83,87.7,83.1L87.7,83.1z M92.7,70.8
		c0.1-0.5,0.2-0.9,0.7-0.8c0.1,0,0.5-0.1,0.4-0.4c0-0.1,0.1-0.3-0.1-0.4s-0.5-0.2-0.7-0.1c-0.5,0.4-0.6,1.1-0.3,1.7L92.7,70.8z
		 M91,88.4c-0.3-0.4-0.6-0.7-0.8-1.1c-0.3-0.4-0.4-0.4-0.8,0c0.7,0.3,1.1,0.9,1.8,1.1L91,88.4z M89,87c-0.2-0.1-0.1-0.3-0.2-0.5
		c-0.1,0.1-0.4-0.1-0.5,0.2c0,0.1-0.1,0.1-0.1,0.1c-0.3-0.3-0.6,0.2-1,0.1c-0.1,0-0.2,0.1-0.1,0.2s0.1,0.1,0.2,0.1
		c0.4-0.2,0.9-0.2,1.3,0c0.1,0.1,0.2,0.2,0.3,0.2c0.1-0.1,0.2-0.2,0.2-0.3L89,87z M93.2,89.3c0.2,0,0.5,0.1,0.5-0.2
		c0-0.3-0.2-0.3-0.4-0.2c-0.2,0-0.5-0.1-0.5,0.2c0,0.3,0.4,0.1,0.5,0.1L93.2,89.3z M76.7,84.9c0,0.2,0,0.4,0.2,0.3s0.4,0,0.4-0.2
		s-0.3-0.3-0.5-0.4C76.6,84.6,76.8,84.7,76.7,84.9L76.7,84.9z M93.8,71c0.2,0,0.3-0.2,0.3-0.4c0-0.1-0.1-0.3-0.2-0.2s-0.4,0-0.4,0.2
		S93.8,70.8,93.8,71L93.8,71z M89.9,86.1c0.2-0.1,0.1-0.2,0.1-0.4c0-0.1-0.1-0.3-0.2-0.3c-0.1,0-0.1,0-0.2,0.1
		c-0.1,0.2,0,0.2,0.1,0.4L89.9,86.1z"/>
	<path class="st0" d="M28.3,52.7c0,0.9,0,1.8,0,2.7c0,0.2,0,0.3-0.3,0.4c-0.6,0.1-1.2,0.3-1.8,0.3c-0.4,0.1-0.5-0.1-0.4-0.3
		c0.1-0.7-0.1-1.4,0-2.2c0-0.9,0-1.8,0-2.8c0-0.7,0-1.3,0-2s0-1.2,0-1.8c0-0.4,0-0.9,0-1.3c0-0.2,0-0.5,0.2-0.5
		c0.3-0.1,0.6-0.2,0.9-0.2c0.5,0,0.9-0.1,1.3-0.3c0.3-0.1,0.6-0.2,0.9-0.1c0.5,0.2,1-0.3,1.5-0.2c0.7,0,1.3,0.2,1.9,0.5
		c0.7,0.5,0.7,1.2,1,1.8c0.1,0.2,0,0.4-0.1,0.6c-0.1,1-0.5,2-1.1,2.8c-0.2,0.3-0.5,0.5-0.8,0.7c-0.3,0.2-0.3,0.4,0,0.6
		c0.6,0.6,1.3,1.3,1.9,1.9c0.4,0.4,0.3,1.4-0.3,1.6c-0.5,0.2-1.1,0.3-1.7,0.2c-0.4-0.1-0.6-0.4-0.8-0.7c-0.6-0.6-1.1-1.2-1.6-1.9
		c-0.1-0.1-0.2-0.3-0.3-0.2s-0.1,0.3-0.1,0.4C28.4,52.6,28.4,52.7,28.3,52.7L28.3,52.7z M29.6,46.4h-0.3c-0.9,0.1-1,0.3-1,1
		s0,1.3,0,2c0,0.2,0.1,0.3,0.3,0.3c0.4,0.1,0.9,0,1.2-0.3c0.5-0.6,1-1.2,0.8-2.2C30.4,46.9,30.4,46.5,29.6,46.4L29.6,46.4z"/>
	<path class="st0" d="M42.7,51.2c0.1,0.2-0.1,0.3-0.2,0.3c-0.7,0.3-1.4,0.6-2.1,0.8c-0.3,0-0.4,0-0.4-0.3c-0.1-0.4-0.2-0.8-0.3-1.2
		c-0.2-0.5-0.5-0.2-0.8-0.2c-0.4,0.1-0.8,0.5-1.3,0.4c-0.1,0-0.1,0.2-0.2,0.2c-0.2,0.7-0.4,1.3-0.5,2c0,0.2-0.2,0.4-0.4,0.4
		l-2.2,0.7c-0.2,0.1-0.2,0-0.2-0.2c0.1-0.4,0.2-0.8,0.3-1.2c0.1-0.8,0.3-1.5,0.6-2.3c0.1-0.3,0.2-0.7,0.2-1c0.2-0.7,0.4-1.5,0.6-2.2
		c0.3-1.3,0.6-2.6,1-3.9c0.1-0.2,0.1-0.5,0.1-0.7c0-0.6,0.4-0.7,0.8-0.8c0.5-0.1,1.1-0.3,1.6-0.5c0.4-0.2,0.5,0.3,0.5,0.4
		c0.1,0.5,0.4,1,0.5,1.5c0.2,0.7,0.4,1.3,0.6,1.9c0.3,1.1,0.6,2.1,1.1,3.1c0.1,0.3,0.1,0.6,0.2,0.9c0.2,0.5,0.3,1,0.5,1.5
		C42.7,50.9,42.7,51,42.7,51.2z M37.6,48.2c0,0.5,0.1,0.6,0.7,0.4l0.4-0.2c0.5-0.2,0.6-0.4,0.3-0.8c0-0.1-0.1-0.1-0.1-0.2
		c0-0.6-0.4-1-0.4-1.6c0-0.1-0.1-0.2-0.2-0.2c-0.2,0-0.2,0.1-0.2,0.2c-0.2,0.5-0.3,0.9-0.3,1.4C37.8,47.5,37.6,47.8,37.6,48.2
		L37.6,48.2z"/>
	<path class="st0" d="M48.1,46.3c0.1-0.8,0.1-1.5,0-2.3c0-0.2,0-0.2,0.2-0.3c0.6-0.3,1.3-0.5,1.9-0.8c0.2-0.1,0.3-0.1,0.3,0.2
		c0.1,1,0.1,2.1,0.1,3.1c0,0.5,0,0.9,0,1.4c0,0.2-0.1,0.4-0.3,0.6c-1,0.7-2,1.3-3.1,1.8c-0.8,0.4-1.8,0.5-2.7,0.2
		c-0.6-0.3-1.1-0.7-1.4-1.4c-0.5-1-0.7-2.2-0.6-3.3c0-0.6,0.2-1.3,0.3-1.9c0.3-0.7,0.6-1.4,0.8-2.1c0-0.3,0.3-0.3,0.4-0.5
		c0.8-1.3,2.1-2.2,3.5-2.7c0.7-0.2,1.5-0.4,2.2-0.4c0.3,0,0.5,0.1,0.7,0.1s0.2,0.2,0.2,0.3c-0.2,0.5-0.5,1-0.8,1.5
		c-0.1,0.2-0.2,0.1-0.4,0.1c-0.7,0.1-1.4,0.3-2.1,0.5c-0.6,0.2-1,0.6-1.3,1.2c-0.5,0.9-0.8,1.9-0.9,2.9c-0.1,0.5-0.1,1,0.1,1.5
		c0.1,0.4,0.2,0.9,0.4,1.3c0.4,0.7,0.7,0.9,1.5,0.5c0.2-0.1,0.3,0,0.5-0.1C48,47.2,48.1,47.2,48.1,46.3z"/>
	<path class="st0" d="M65.1,41.9c-0.2-0.1-0.1-0.2-0.1-0.3c0.3-0.7,0.5-1.4,0.5-2.2c0-0.1,0-0.3,0.2-0.3s0.1-0.1,0.1-0.2
		c-0.4-0.2-0.1-0.4,0-0.5c0.3-0.6,0.2-1.3,0.4-1.9c0.2-0.6,0.4-1.2,0.5-1.8c0-0.1,0.2-0.1,0.2-0.2s0.4-0.3,0.1-0.6s0-0.5,0.1-0.8
		c0.2-0.9,0.5-1.7,0.7-2.5c0-0.1,0-0.2,0-0.2c-0.1-0.3,0.1-0.7,0.4-0.8c0.7-0.2,1.3-0.5,2-0.8c0.2-0.1,0.3,0,0.4,0.2
		c0.3,0.8,0.6,1.6,0.8,2.5c0.3,1,0.6,2,0.9,3c0.2,0.9,0.5,1.8,0.9,2.7c0.1,0.4,0.2,0.9,0.4,1.3c0.1,0.2-0.1,0.3-0.2,0.3
		c-0.7,0.2-1.4,0.4-2.1,0.7c-0.1,0-0.3,0-0.3-0.2c0-0.4-0.3-0.7-0.3-1.1c-0.1-0.6-0.3-0.7-0.9-0.5c-0.4,0.2-0.8,0.3-1.2,0.5
		c-0.2,0.1-0.3,0.3-0.4,0.5c-0.2,0.7-0.4,1.3-0.4,2c-0.1,0.2-0.2,0.3-0.4,0.3c-0.7,0.2-1.4,0.5-2.1,0.8L65.1,41.9z M70.1,35.2
		c-0.2-0.6-0.3-1.4-0.6-2.1c0-0.1-0.2-0.2-0.2,0c-0.2,0.2-0.3,0.4-0.3,0.7c-0.1,0.7-0.2,1.4-0.4,2.1c-0.1,0.4,0.1,0.5,0.4,0.4
		c0.2,0,0.4-0.2,0.6-0.2C70,35.9,70.1,35.7,70.1,35.2L70.1,35.2z"/>
	<path class="st0" d="M62.7,33.9c-0.4-0.1-0.6,0.1-0.9,0.3s-0.9,0.1-1.1,0.5s-0.7,0.7-0.8,1.1c-0.2,0.5-0.4,1-0.5,1.5
		c-0.2,1.3-0.4,2.7,0.3,4c0.3,0.4,0.8,0.6,1.3,0.5c0.7-0.2,1.2-0.5,1.7-1c0.2-0.2,0.5-0.2,0.6-0.5s0.1-0.1,0.2,0
		c0.3,0.2,0.5,0.5,0.7,0.7c0.3,0.4,0.2,0.8-0.3,1.1c-0.5,0.4-1.1,0.8-1.6,1.2c-0.5,0.3-1.1,0.6-1.7,0.7c-0.6,0.2-1.2,0.2-1.8,0.1
		c-0.5-0.1-1-0.4-1.3-0.9c-0.5-0.8-0.7-1.6-0.8-2.5c-0.1-0.6-0.1-1.2,0-1.8c0.1-0.6,0.2-1.2,0.4-1.7c0.1-0.1,0.3-0.2,0.4-0.3
		s0.3-0.2,0.1-0.3c-0.4-0.3-0.1-0.7,0-0.9c0.6-1.1,1.4-2.1,2.4-2.9c0.8-0.6,1.7-0.9,2.7-1c0.3-0.1,0.7-0.1,1-0.2
		c0.4,0,0.5,0.2,0.3,0.5c-0.1,0.4-0.3,0.9-0.5,1.3C63.2,33.7,63,33.9,62.7,33.9z"/>
	<path class="st0" d="M90.7,34.9c-0.3,0-0.7,0-1,0.1c-0.4,0.1-0.5-0.1-0.4-0.5c0.1-0.4,0.1-0.8,0-1.2c0.1-0.8,0.1-1.7-0.1-2.5
		c-0.1-0.4-0.2-0.8-0.4-1.2c-0.5-1-0.8-2-1.3-2.9c-0.3-0.6-0.5-1.2-0.8-1.8s-0.2-0.6,0.3-0.6c0.5,0,1.1-0.1,1.6-0.2
		c0.6-0.1,0.6,0,0.8,0.5c0.3,0.9,0.6,1.9,0.9,2.8c0.1,0.2-0.1,0.6,0.2,0.6s0-0.3,0.2-0.5c0.3-0.5,0.5-1,0.6-1.5l0.4-1.3
		c0,0,0.1-0.1,0.1-0.1c0.1-0.3-0.1-0.7,0.3-0.8c0.3-0.1,0.6-0.1,0.9-0.1c0.4,0,0.8,0,1.2-0.1c0.3,0,0.4,0,0.3,0.4
		c-0.5,1.3-1,2.6-1.6,3.9c-0.3,0.8-0.7,1.7-1,2.5c-0.1,0.5-0.2,1-0.1,1.5c0.1,0.8-0.1,1.6,0,2.4c0,0.2-0.1,0.4-0.3,0.4
		c0,0-0.1,0-0.1,0C91.2,34.9,90.9,34.9,90.7,34.9z"/>
	<path class="st0" d="M22.3,49.2c0.1,0.8,0,1.6,0,2.5c0.1,1.2,0.1,2.4,0,3.5c0,0.3,0.1,0.7,0,1.1c0,0.2-0.1,0.4-0.4,0.5
		c0,0,0,0-0.1,0c-0.6,0.1-1.2,0.1-1.9,0.2c-0.2,0-0.2-0.1-0.2-0.2c0-0.2,0-0.4,0-0.7c0.1-0.5-0.1-0.9,0-1.4s-0.1-1,0-1.6
		c0-0.1,0-0.2,0-0.3c0.3-0.1,0.3-0.2,0-0.3c-0.1,0,0.1-0.3-0.1-0.5c0.2-0.3-0.2-0.6,0.2-0.9c0.1-0.1-0.1-0.2-0.1-0.2
		s-0.2-0.5,0.1-0.7c0.1-0.1,0.1-0.2,0-0.2c-0.3-0.3-0.2-0.6-0.1-0.8s-0.2-0.6-0.1-1c0-0.1-0.2-0.2-0.3-0.2c-0.4,0-0.8,0-1.2,0
		c-0.2,0-0.5,0.2-0.5-0.4c0.1-0.5,0.1-1,0-1.5c0-0.2,0-0.2,0.2-0.2c1.1,0,2.1,0,3.2-0.2s2.1-0.2,3.1-0.4c0.1,0,0.2,0,0.3,0.1
		c0.1,0.5,0.1,1.1,0,1.6c-0.1,0.5-0.4,0.7-1,0.6c-0.3,0-0.6,0-0.8,0.1c-0.2,0-0.3,0.2-0.3,0.5S22.3,48.9,22.3,49.2z"/>
	<path class="st0" d="M80.5,35.8c0,0.2,0,0.3,0,0.5s-0.1,0.4-0.4,0.5c-0.9,0.2-1.9,0.5-2.8,0.8c-0.7,0.2-1.3,0.4-1.9,0.6
		c-0.4,0.1-0.6,0-0.6-0.4c0-0.7,0-1.3,0-2c0-1.5,0.1-2.9,0-4.4c0-0.6,0-1.2,0-1.8c0-0.5,0-1,0-1.5c0-0.7,0.1-0.9,0.7-1
		c0.5-0.1,0.9-0.2,1.3-0.4c0.2-0.1,0.4-0.1,0.4,0.2c0.1,0.7,0.1,1.5,0.1,2.2c0,0.5,0,1,0,1.6c0,0.5,0,1,0,1.4c0,0.9,0,1.8,0,2.8
		c0,0.3,0.1,0.6,0.6,0.4c0.7-0.2,1.5-0.4,2.2-0.7c0.2-0.1,0.3,0,0.3,0.2C80.5,35.1,80.5,35.5,80.5,35.8z"/>
	<path class="st0" d="M81.6,35.2c0.1-1.2,0-2.4,0.1-3.6c0-1.4,0-2.8,0-4.2c0-0.6,0-1.3,0-1.9c0-0.1,0.1-0.1,0.2-0.2
		c0.6-0.1,1.3-0.3,1.9-0.4c0.2-0.1,0.4,0,0.4,0.2c0.1,0.6,0.1,1.2,0,1.8c0,0,0,0.1,0,0.1c0.1,0.9,0.1,1.8,0,2.7
		c0.1,1.1,0.1,2.2,0,3.3c0,0.6,0.4,1,0.9,0.7s1-0.1,1.4-0.3c0.2,0,0.3-0.1,0.5-0.1c0.2-0.1,0.5-0.1,0.4,0.4s0,0.9,0,1.3
		c0,0.3-0.1,0.3-0.4,0.4c-1.1,0.2-2.2,0.3-3.2,0.6c-0.6,0.1-1.2,0.3-1.8,0.3c-0.2,0-0.2-0.1-0.2-0.2S81.6,35.5,81.6,35.2z"/>
	<path class="st0" d="M52.4,47.2c-0.1-0.8-0.1-1.6-0.1-2.5c0-0.6,0-1.2,0-1.8s0-1.3,0-2c0-0.8,0.1-1.7,0-2.5c0-0.5,0-1.1,0-1.6
		s0.5-0.7,0.8-0.8c0.4-0.1,0.7-0.3,1-0.5c0.2-0.1,0.5-0.2,0.6-0.1c0.2,0.1,0.3,0.4,0.2,0.6c0,0.8,0,1.5-0.1,2.3c0,0.2,0,0.4,0.1,0.5
		c0.1,0.1,0.1,0.2,0.1,0.3c-0.2,1-0.2,2-0.1,3c0,0.4,0,0.8-0.1,1.2c0,0.5,0,1.1,0,1.6s-0.1,0.8,0,1.2c0,0.1,0,0.2-0.1,0.2
		C54,46.8,53.2,47,52.4,47.2z"/>
	<path class="st0" d="M80.8,73.1c0.7-0.6,0.6-0.5,1.3-0.1c0.7,0.5,0.7,1,0.8,1.6c0.1,0.3-0.1,0.3-0.3,0.4c-0.2,0.1-0.4-0.1-0.4-0.2
		c0,0,0,0,0-0.1c0-0.3-0.3-0.5-0.3-0.8c0-0.2-0.2-0.3-0.4-0.3c0,0,0,0,0,0c-0.2,0-0.1,0.2-0.1,0.4c0,0.1,0.1,0.3-0.2,0.4
		c-0.2,0.1-0.4,0-0.5-0.2c-0.3-0.2-0.4-0.6-0.4-0.9c0.1-0.4-0.3-0.5-0.5-0.6c-0.3-0.1-0.3,0.2-0.4,0.3s-0.5,0.3-0.7,0
		s-0.5-0.5-0.8-0.8c-0.2-0.2-0.4-0.3-0.7-0.2c-0.2,0.1-0.2,0.4-0.2,0.6c0.1,0.4,0.3,0.7,0.6,1c0.1,0.1,0.2,0.3,0.3,0.5
		c0.1,0.2,0,0.5-0.3,0.4c-0.5,0-0.4,0.2-0.2,0.4c0.3,0.4,0.6,0.7,1.1,0.9c0.1,0,0.2,0.1,0.3,0.1c0.2,0.1,0.2,0.3,0.3,0.4
		c0,0.1-0.2,0.1-0.3,0.1c-0.2,0.1-0.4,0.2-0.7,0.2c-0.2,0-0.2,0.2-0.1,0.3c0.2,0.3,0.5,0.5,0.9,0.6c0.2,0,0.3,0.1,0.2,0.3
		s-0.1,0.3-0.3,0.3c-0.9-0.1-1.7-0.8-1.8-1.7c0-0.1,0-0.2,0.2-0.2s0.2,0,0.3-0.1s-0.1-0.2-0.2-0.3c-0.4-0.3-0.6-0.8-0.8-1.2
		s-0.1-0.5,0.2-0.6s0.3-0.3,0.2-0.4c-0.4-0.4-0.3-0.9-0.4-1.3c-0.2-0.6,0.2-1.3,0.7-1.1c0.5,0.1,1,0.2,1.4,0.5
		c0.3,0.2,0.6,0.4,0.9-0.1c0.1-0.2,0.2-0.2,0.4,0C80.2,72.1,80.6,72.6,80.8,73.1z"/>
	<path class="st0" d="M80,77.6c0.3,0.1,0.6-0.3,0.9-0.2c0.2,0,0.1-0.1,0-0.2c-0.3-0.3-0.4-0.8-0.8-1c-0.1-0.1-0.2-0.2-0.2-0.4
		c-0.1-0.3-0.3-0.6-0.6-0.8c-0.1-0.1-0.3-0.2-0.1-0.4c0.1-0.1,0.2,0,0.3,0.1c0.5,0.4,1,0.8,1.5,1.3c0.1,0.2,0.3,0.3,0.5,0.4
		c0.2,0.1,0.4,0,0.4-0.2c0-0.2,0-0.4,0.2-0.5c0.2,0,0.1,0.3,0.1,0.4c0.3,0.6,0.6,1.3,0.9,2c0.3,0.7,0.8,1.3,1.3,1.8
		c0.1,0.1,0.3,0.2,0.1,0.4c-0.2,0.2-0.2-0.1-0.3-0.1c-0.4-0.3-0.8-0.8-1.2-1c-0.4-0.2-1.2-0.6-1.8-0.9C80.8,78.1,80.4,77.8,80,77.6z
		"/>
	<path class="st0" d="M83.7,74.9c0.3,0.1,0.6,0.2,0.9,0.2c0.2,0,0.3,0.2,0.2,0.3c0,0,0,0.1,0,0.1c-0.2,0.4-0.3,0.8-0.2,1.2
		c0,0.4-0.2,0.9,0.2,1.2c0.1,0.1,0,0.4,0.1,0.7c0.1,0.4,0.3,0.8,0.5,1.1c0.1,0.1,0.2,0.2,0.1,0.4s0,0.3-0.2,0
		c-0.2-0.3-0.6-0.8-0.8-1.1c-0.3-0.5-0.5-1-0.6-1.5c-0.1-0.3-0.4-0.5-0.1-0.9c0-0.2-0.1-0.4-0.2-0.6c-0.2-0.3,0.2-0.7,0-1.1
		C83.3,74.9,83.5,75,83.7,74.9z"/>
	<path class="st0" d="M80.3,80.1h-0.6c-0.2,0-0.3-0.1-0.3-0.2c0,0,0,0,0,0c0-0.3-0.1-0.5-0.3-0.7c-0.2-0.3-0.1-0.3,0.2-0.3
		c0.7,0,1.5,0.1,2.1,0.4c0.5,0.2,1,0.4,1.4,0.6c0.5,0.2,0.7,0.7,1.2,0.8c0.2,0,0.1,0.2,0,0.2c-0.2,0.1-0.4,0.1-0.6-0.1
		C82.6,80.3,81.4,80,80.3,80.1z"/>
	<path class="st0" d="M85.5,74.4c-0.4,0-0.8-0.3-0.9-0.7c0-0.3,0.5-0.7,1-0.7c0.2,0,0.6,0.5,0.6,0.7C86.2,74,85.9,74.3,85.5,74.4z"
		/>
	<path class="st0" d="M73.2,24.1c-0.3,0-0.8-0.4-0.8-0.7c0-0.4,0.3-0.6,1-0.6c0.3,0.1,0.5,0.3,0.6,0.6
		C73.9,23.8,73.6,24.1,73.2,24.1z"/>
	<path class="st0" d="M55.8,24.8c0,0.3-0.3,0.6-0.6,0.6c0,0-0.1,0-0.1,0c-0.3-0.1-0.6-0.3-0.6-0.7c0-0.4,0.3-0.6,0.8-0.6
		S55.9,24.4,55.8,24.8z"/>
	<path class="st0" d="M78.1,80.3c-0.1,0.3-0.4,0.6-0.8,0.6c-0.3-0.1-0.5-0.3-0.6-0.6c0.1-0.4,0.4-0.7,0.8-0.8
		C77.9,79.7,78.1,80,78.1,80.3z"/>
</g>
</svg>
