<?xml version="1.0" encoding="utf-8"?>
<!-- Generator: Adobe Illustrator 21.0.0, SVG Export Plug-In . SVG Version: 6.00 Build 0)  -->
<svg version="1.1" id="Layer_1" xmlns="http://www.w3.org/2000/svg" xmlns:xlink="http://www.w3.org/1999/xlink" x="0px" y="0px"
	 viewBox="0 0 109.3 137.2" style="enable-background:new 0 0 109.3 137.2;" xml:space="preserve">
<style type="text/css">
	.st0{fill:#FFFFFF;}
</style>
<title>pin-dead</title>
<g>
	<path class="st0" d="M98.8,52.2c0.1,0.8,0.1,1.7,0.1,2.5c0,1.8-0.1,3.7-0.4,5.5c-0.8,6.3-2.9,12.4-6.3,17.8
		c-1.3,2.1-2.8,4.1-4.4,5.9c-1.1,1.3-2.3,2.5-3.6,3.6c-4.6,4.1-10,7.3-15.9,9.1c-2,0.6-4,1.1-6,1.4c-1.4,0.2-2.8,0.4-4.2,0.5
		c-1.8,0.1-3.5,0.1-5.3,0.1c-1.8-0.1-3.5-0.3-5.3-0.6c-2.4-0.4-4.7-1-7-1.8c-2.3-0.8-4.5-1.8-6.7-3c-1.9-1.1-3.7-2.3-5.4-3.6
		c-0.9-0.7-1.8-1.5-2.7-2.3c-0.6-0.6-1.2-1.1-1.8-1.7c-2.3-2.4-4.3-5.1-6.1-7.9c-1.4-2.3-2.6-4.7-3.5-7.2c-0.9-2.3-1.5-4.6-2-6.9
		c-0.3-1.4-0.5-2.8-0.6-4.2c-0.2-1.9-0.3-3.8-0.2-5.8c0.1-1.4,0.2-2.8,0.3-4.3c0.2-1.8,0.6-3.6,1-5.4c0.6-2.5,1.4-4.8,2.5-7.2
		c1.2-2.6,2.6-5.1,4.2-7.5c1-1.5,2.2-2.9,3.4-4.2c0.8-0.9,1.6-1.7,2.4-2.5c1.6-1.5,3.2-2.8,5-4c4.7-3.3,9.9-5.6,15.5-6.9
		c3.4-0.7,6.9-1.1,10.4-1c1.7,0.1,3.4,0.2,5.2,0.5c2.7,0.4,5.4,1,8,1.9c3.7,1.3,7.1,3,10.3,5.2c1.3,0.9,2.5,1.8,3.7,2.8
		c1.2,1,2.3,2.1,3.4,3.2c3.4,3.5,6.1,7.6,8.1,12c1.2,2.7,2.2,5.5,2.8,8.5c0.3,1.3,0.5,2.6,0.7,3.9c0.1,0.7,0.2,1.5,0.2,2.2
		C98.8,51.3,98.8,51.8,98.8,52.2z M68.9,67.2c0.2,0.1,0.3,0,0.5-0.1c0.9-0.4,1.3-1.4,1.2-2.3c-0.2-1.6,0-3.3,0.5-4.9
		c0.6-2,1.5-3.8,2.2-5.6c0.7-1.7,1-3.5,1-5.3c0.1-0.9,0-1.9-0.1-2.8c-0.2-1.4-0.5-2.7-0.8-4.1c-0.7-2.3-1.8-4.4-3.4-6.2
		c-1-1.2-2.1-2.3-3.3-3.3c-1.6-1.3-3.4-2.2-5.3-2.9c-1.2-0.4-2.5-0.7-3.9-0.8c-1.2-0.2-2.5-0.3-3.7-0.1c-0.8,0.2-1.7,0.2-2.5,0.4
		c-1.3,0.2-2.6,0.7-3.8,1.2c-2.6,1.2-4.9,3-6.7,5.3c-1.7,2-3,4.2-3.8,6.7c-0.5,1.9-0.8,3.9-0.9,5.9c0,0.8,0,1.6,0.1,2.3
		c0.1,1.4,0.3,2.7,0.8,4c0.6,1.7,1.3,3.3,2.1,4.8c0.6,1.2,0.8,2.5,0.6,3.8c-0.2,0.9-0.1,1.9,0.2,2.7c0.3,0.8,1,1.4,1.8,1.6l-1.2-1.3
		c-0.6-0.6-0.9-1.4-0.8-2.3c0.1-0.6,0.3-1.1,0.4-1.6c0.2-0.5,0.3-1,0.2-1.6c-0.2-0.9-0.6-1.7-1.1-2.5c-1-1.4-1.7-3.1-2.1-4.8
		c-0.1-0.4-0.2-0.8-0.1-1.2c0.2,0.1,0.2,0.2,0.2,0.2c0.4,1.3,0.8,2.5,1.4,3.7c0.5,0.9,1.1,1.8,1.7,2.7c0.7,1,1,2.2,0.8,3.4
		c-0.1,0.5-0.3,0.9-0.5,1.4c-0.3,0.8,0.1,1.8,1,2.1c0.1,0,0.2,0.1,0.3,0.1l-0.1-0.1c-0.6-0.4-0.9-1.2-0.8-1.9
		c0.1-0.4,0.2-0.8,0.3-1.2c0.6-1.2,0.4-2.7-0.5-3.7c-1.8-2.5-3-5.5-3.3-8.5c-0.2-1.8-0.2-3.5,0.1-5.3c0.3-2.2,1.1-4.3,2.2-6.3
		c1.5-2.5,3.6-4.5,6-6.1c2.4-1.6,5.1-2.5,7.9-2.8c1.5-0.1,2.9-0.1,4.4,0.1c2.5,0.4,5,1.3,7.1,2.7c1.2,0.8,2.3,1.7,3.4,2.8
		c0.6,0.6,1.1,1.3,1.6,2c1.1,1.4,1.9,3,2.4,4.8c0.4,1.4,0.7,2.9,0.8,4.4c0.1,1.2,0.1,2.5-0.1,3.7c-0.2,1.6-0.6,3.2-1.1,4.7
		c-0.7,1.9-1.8,3.7-3.2,5.2c-0.8,0.8-1.6,1.6-2.5,2.3c-1.4,1.1-2.9,2-4.6,2.6c-1.6,0.6-3.2,0.9-4.9,1.1c-0.9,0-1.6,0.7-1.6,1.6
		c0,0.2,0,0.3-0.2,0.4s-0.1-0.2-0.1-0.3c-0.3-1.3-0.6-1.5-2-1.8c-1.1-0.2-2.1-0.4-3.2-0.7c-2.7-0.9-5.1-2.4-7.1-4.4
		c-0.1-0.2-0.3-0.3-0.5-0.4c-0.2-0.1-0.2-0.4-0.5-0.4c0.3,0.9,0.3,1.8,0.1,2.7c-0.2,0.6-0.1,1.3,0.3,1.8c0.5,0.7,1.2,1.2,2,1.5
		c0.3,0.2,0.6,0.3,1,0.2c1.2-0.2,2.3-0.2,3.5,0c1.7,0.3,3.4,1,4.8,2c0.2,0.1,0.3,0.3,0.3,0.6c-0.1,0.5-0.2,1.1-0.2,1.7
		c0,0.2-0.3,0.2-0.4,0.2s-0.1-0.2-0.1-0.3c0-0.5,0-0.9-0.2-1.4c-0.1-0.3-0.3-0.2-0.4-0.1c-0.4,0.2-0.9,0.3-1.4,0.3
		c-1.1,0-2.1,0-3.2,0.1c-0.2,0-0.3,0.1-0.4,0.2c-0.1,0.1-0.1,0.3,0.1,0.3c0,0,0,0,0,0c0.1,0.1,0.2,0.1,0.2,0.3s-0.2,0.1-0.3,0.1
		c-0.4-0.1-0.7,0.1-0.9,0.4c-0.3,0.5-0.2,1.2,0.2,1.6c0.2,0.4,0.6,0.6,1,0.6c0.3,0,0.6,0.1,0.8,0.3c0.4,0.5,1.1,0.7,1.7,0.6
		c0.5-0.1,0.6,0,0.7,0.5c0.2,1,0.4,1.9,0.9,2.8c0.1,0.2,0.3,0.3,0.5,0.2c0.1-0.1,0.3-0.1,0.4-0.2c0.3-0.3,0.8-0.3,1.1,0
		c0.2,0.1,0.3,0.3,0.5,0.2c0.4-0.1,0.6,0.1,0.8,0.4c0.1,0.2,0.2,0.2,0.4,0.1c0.7-0.6,0.8-0.6,1.5-0.1c0.1,0.1,0.2,0.2,0.3,0
		c0.3-0.3,0.6-0.7,1.2-0.5c0.1,0,0.2-0.1,0.2-0.1c0.4-0.3,0.7-0.7,1-1.1c0.1-0.1,0.1-0.4,0.3-0.3c0.2,0,0.2,0.2,0.2,0.4s0.1,0,0.1,0
		c0.2-0.3,0.4-0.6,0.5-0.9c0.2-0.5,0-0.8-0.5-0.9c-0.3-0.1-0.6-0.1-0.9,0c-0.1,0-0.2,0-0.2-0.1s0.1-0.2,0.2-0.2
		c0.4-0.2,0.8-0.4,1.2-0.6c0.6-0.5,1.4-0.6,2.1-0.4c1,0.3,2-0.1,2.5-1c0.3-0.7,0.4-1.4,0.5-2.1c0.1-0.2-0.2-0.3-0.3-0.4
		c-0.2-0.1-0.7-0.1-0.6-0.4s0.5-0.2,0.8-0.3c0,0,0.1,0,0.1,0c0.5-0.1,0.9-0.2,1.3-0.4c-0.3,0-0.6,0-0.9,0c-0.5,0-1,0.1-1.5,0.2
		c-1,0.1-1.9,0.2-2.8,0.4c-0.9,0.2-1.7,0-2.5,0.1c-0.3,0.1-0.7,0-1.1,0c-0.9,0.1-1.2-0.1-1.1-0.9c0.1-0.2,0.2-0.4,0.3-0.6
		c0.4-0.4,0.9-0.8,1.5-1c2.1-0.9,4.5-1,6.6-0.2c0.6,0.2,1.3,0.6,2,0.1c0.5-0.3,1-0.8,1.2-1.4c0.2-0.8,0.3-1.6,0.3-2.4
		c0.3-1.4,0.9-2.8,1.8-3.9c0,0.4-0.2,0.8-0.4,1.2c-0.6,1.1-0.9,2.4-0.8,3.7c0.2,1-0.2,2-1,2.7c0,0-0.1,0.1-0.1,0.2
		c0.6-0.1,1-0.5,1.3-1c0.2-0.7,0.2-1.4,0.1-2.1c-0.1-0.5,0-1,0.2-1.5c0-0.1,0.1-0.2,0.2-0.1s0.1,0.1,0.1,0.2c-0.1,0.7,0,1.5,0.2,2.2
		c0,0.3,0,0.5,0,0.8C70.2,65.9,69.7,66.7,68.9,67.2L68.9,67.2z M55.8,44.5c-0.9,0.7-1.9,1.3-2.8,2c-1.8,1.4-3.6,2.7-5.4,4.1
		c-0.1,0-0.2,0.1-0.1,0.2s0.1,0.1,0.2,0.1c0.1,0,0.3,0,0.4,0c0.6-0.1,1.2-0.2,1.8-0.2l2.2-0.3c0.1,0,0.3-0.1,0.4,0.1
		s-0.1,0.2-0.2,0.3c-1,1-2.1,1.8-3.2,2.7c-0.7,0.6-1.4,1.3-2.1,2c1.3,0,2.4-0.2,3.7-0.3c-1.3,2.6-3.1,4.8-3.9,7.6
		c1.6-0.7,3.1-1.3,4.7-1.8l-1.1-0.5c-0.1-0.1-0.3-0.1-0.3-0.2s0.2-0.2,0.3-0.2c0.8-0.3,1.7-0.7,2.5-1c0.8-0.3,1.5-0.7,2.2-1.1
		c-0.9-0.2-1.7-0.4-2.6-0.7c2.6-1.4,5.3-2.5,7.9-4l-5.3-0.2c0.5-0.5,1-0.8,1.6-1.2c1.9-1.2,3.8-2.3,5.6-3.6c0.2-0.1,0.5-0.2,0.4-0.4
		s-0.4-0.1-0.7-0.1c-0.9,0-1.8,0-2.8,0.1c-0.5,0-1,0-1.5,0.1c-0.5,0.1-1,0-1.4-0.1c2.7-1.7,5.2-3.5,7.8-5.2
		c-1.9-0.1-3.7-0.4-5.6-0.7c1.9-1.6,3.8-3,5.6-4.7l-3.1,0.7c-0.1,0-0.2,0.1-0.3,0s0-0.2,0.1-0.3c0.4-0.7,0.8-1.4,1.1-2.2l1-2.1
		c-1.3,0.5-2.5,1-3.7,1.8l1.7,0.3c0.1,0,0.2,0,0.2,0.1s-0.1,0.2-0.2,0.2c-1.2,0.5-2.4,1-3.6,1.6c-1,0.5-2,0.9-2.9,1.4
		c-0.1,0-0.2,0.1-0.2,0.2c0,0.1,0.1,0.1,0.2,0.1c0.5,0,0.9,0.1,1.3,0.2c1,0.2,2.1,0.3,3.1,0.5c-3,1.5-5.9,3.1-8.7,5
		C52.3,44.4,54,44.3,55.8,44.5z M77.4,72.3c-0.1,0.2,0,0.4,0.1,0.6c0.3,0.6,0.4,1.3,1,1.5c1,0.4,2,0.6,3,0.6c0.7,0,1.4,0,2.1-0.1
		c1-0.1,2-0.3,3-0.4c0.7-0.1,1.4-0.3,2.2-0.4c0.2,0,0.5-0.1,0.5,0.2c0,0.3-0.1,0.7-0.2,1c-0.5,1.1-1.1,2.2-1.8,3.2
		c-0.3,0.3-0.5,0.7-0.6,1.1c0,0.1-0.1,0.2,0.1,0.3s0.2-0.1,0.2-0.2c1.4-1.8,2.7-3.8,3.8-5.8c0.9-1.6,1.6-3.2,2.1-4.9
		c0.2-0.4,0.1-0.8-0.2-1.1c-0.3-0.3-0.7-0.2-1.1-0.1c-0.3,0.1-0.6,0.1-0.8,0.1c-2.3-0.5-4.6-1.5-6.6-2.7C83.6,65,83,64.7,82.8,64
		c-0.1-0.3-0.5-0.5-0.8-0.4c-0.4,0.1-0.7,0.3-0.9,0.7c-0.7,2-1.7,3.9-2.9,5.7C77.7,70.6,77.4,71.4,77.4,72.3z M28.4,48.4
		c0.1-0.6-0.1-1.2-0.5-1.7c-0.2-0.3-0.6-0.5-1-0.5c-0.4,0-0.3,0.4-0.5,0.7c0,0,0,0.1,0,0.2c-0.2,0.4-0.4,0.5-0.9,0.4
		c-1.1-0.2-1.8-1.3-1.5-2.4c0.2-0.9,0.6-1.2,1.5-0.8c0.3,0.1,0.6,0.3,0.9,0.6c0.4,0.4,1,0.7,1.5,0.8c0.3,0.1,0.6,0,0.9-0.2
		c0.6-0.6,0.9-1.4,0.9-2.2c0-0.7-0.1-0.9-0.8-1.2c-0.2-0.1-0.4-0.1-0.6-0.1c-0.7-0.1-1.5-0.2-2.2-0.3s-0.7-0.2-0.5-0.9
		c0-0.2,0.1-0.3,0-0.4c-0.7-0.6-1.7-0.9-2.6-0.7c-0.4,0.1-0.7,0.3-1,0.7c-0.2,0.2-0.3,0.2-0.5,0.1c-1-0.4-2-0.6-3.1-0.5
		c-0.4,0-0.8,0.2-1,0.6c-0.4,0.9-0.7,1.8-0.9,2.8c-0.4,1.1-0.6,2.2-0.6,3.4c0,0.3,0.1,0.5,0.4,0.6c0.3,0.1,0.6,0,0.7-0.3
		c0.1-0.2,0.2-0.4,0.3-0.6s0.3-0.3,0.6-0.1c0.8,0.6,1.6,1.4,2.3,2.2c0.6,0.6,1.3,1.1,2.1,1.5c1,0.5,2.1,0.9,3.3,1.1
		c1.3,0.1,2.5-0.6,2.9-1.8C28.4,48.9,28.4,48.7,28.4,48.4L28.4,48.4z M19.2,70.2c-0.1,0-0.2,0-0.2,0c-0.5-0.1-0.6,0.1-0.6,0.6
		c0,0.5,0.1,0.9,0.2,1.4c0.4,1.1,0.9,2.1,1.6,3c0.2,0.5,0.4,1,0.7,1.4c0.5,0.6,0.9,1.2,1.4,1.8c0.6,0.9,1.3,1.7,2,2.5
		c0.1,0.1,0.3,0.2,0.5,0.1c0.2-0.1,0-0.3,0-0.4c-0.3-0.6-0.7-1.3-1.1-1.8c-0.7-0.8-1.1-1.7-1.3-2.7c0-0.2,0-0.3,0.2-0.3
		c1.2,0,2.4-0.2,3.5-0.4c1.5-0.2,3-0.7,4.4-1.4c1.1-0.6,1.9-1.5,2.3-2.7c0.1-0.2,0.1-0.4,0-0.6c-0.4-1-0.9-2-1.5-3
		c-0.7-1.2-1.3-2.5-1.9-3.8c-0.1-0.2-0.2-0.4-0.5-0.4c-0.4,0-0.8,0-1.2,0c-1.1,0.3-2.1,0.8-3,1.6c-1,0.8-1.9,1.6-2.7,2.6
		c-0.2,0.3-0.4,0.6-0.5,1c-0.1,0.2,0,0.4,0.2,0.5c1.2,0.8,2.7,1,4,0.5c0.2,0,0.4-0.1,0.4-0.3c0-0.2-0.1-0.4-0.3-0.5
		c-0.6-0.3-0.5-0.8,0-1.2c0.7-0.5,1.6-0.6,2.3-0.2c0.4,0.2,0.7,0.6,0.6,1.1c-0.2,0.9-0.7,1.7-1.4,2.4c-0.8,0.8-1.9,1.4-3.1,1.6
		c-1,0.3-2.1,0.3-3.1,0c-0.4-0.1-0.7-0.4-0.9-0.8c-0.2-0.4,0-0.5,0.3-0.5c0.2,0,0.4,0,0.6-0.1c0.2-0.1,0.3-0.2,0.3-0.3
		c0-0.2-0.2-0.2-0.3-0.3C20.6,70.3,19.9,70.2,19.2,70.2L19.2,70.2z M79.8,41.7c1.2,0,2.4-0.5,3.1-1.5c0.9-1.2,1.6-2.6,2.1-4.1
		c0.6-1.9,1.1-3.9,1.3-5.9c0.1-0.9-0.1-1.8-0.7-2.5c-0.6-0.8-1.3-1.5-2.2-2.1c-0.4-0.3-0.6-0.3-0.9,0.1c-0.4,0.7-0.9,1.4-1.5,2
		c-0.9,0.8-1.7,1.7-2.6,2.6c-0.2,0.2-0.4,0.2-0.5,0.4c-0.4,0.5-0.9,0.9-1.5,1.2c-0.9,0.5-1.9,0.9-2.9,1.3c-0.2,0.1-0.3,0.2-0.2,0.5
		c0.3,0.7,0.7,1.3,1.2,1.9c0.9,0.8,1.8,1.8,2.5,2.8c0.4,0.8,0.9,1.5,1.4,2.2C78.8,41.2,79.1,41.9,79.8,41.7z M95.6,55
		c0-0.1,0-0.2,0-0.2c0-0.3-0.1-0.6-0.4-0.7s-0.6,0.2-0.7,0.5c-0.3,0.8-0.3,0.8-1.1,0.5c-0.1,0-0.2-0.1-0.3-0.2
		c-0.9-0.4-1.8-1-2.7-1.5c-1.8-0.9-3.8-1.1-5.7-0.7c-1.1,0-2,0.9-2.1,2c-0.3,1.3,0.5,2.5,1.8,2.8c0.6,0.1,0.7,0,0.8-0.6
		c0-0.6,0.5-1,1.1-1c0.1,0,0.1,0,0.2,0c0.3,0.1,0.5,0.2,0.7,0.4c0.6,0.4,1,1.1,1,1.9c0,0.9-1,1.4-2,1c-0.8-0.3-1.5-0.7-2.3-1
		s-0.9-0.1-1.2,0.5c-0.3,0.8-0.5,1.7-0.5,2.6c0,0.2,0.1,0.3,0.3,0.3c0.9,0.1,1.9,0.1,2.8-0.1c0.6-0.1,1.2,0,1.8,0.3
		c0.2,0.1,0.3,0.2,0.2,0.4s0.1,0.7,0.5,0.8c0.6,0.1,1.2,0.1,1.7,0c0.5-0.1,1-0.4,1.2-0.9c0.1-0.2,0.3-0.3,0.5-0.3
		c0.5,0,0.9,0,1.4-0.1c0.7-0.1,1.4-0.3,1.9-0.6c0.4-0.2,0.7-0.6,0.7-1c0.1-0.5,0.2-1,0.2-1.5C95.4,57.4,95.5,56.2,95.6,55L95.6,55z
		 M21.7,57.2c0.1-0.3,0.2-0.4,0.2-0.6c0.3-0.7,0.4-1.5,0.2-2.3c-0.2-0.6-0.8-1-1.5-0.9c-1.2,0.4-2.2,1.1-3.1,2
		c-0.7,0.7-1.3,1.6-1.8,2.5c-0.5,0.7-0.7,1.6-0.6,2.5c0.3,0.9,0.4,1.8,0.5,2.8c0,0.2,0,0.4,0.1,0.6c0.1,0.3,0.4,0.5,0.7,0.5
		c0.1,0,0.1,0,0.1-0.1l1.2-0.4c2.2-0.9,4.5-1.5,6.9-1.8c0.8-0.1,1.7-0.1,2.5,0c0.6,0.1,0.9,0,0.9-0.7c0-1-0.2-1.9-0.6-2.8
		c-0.1-0.2-0.2-0.2-0.4-0.2c-0.8,0.2-1.7,0.5-2.4,0.9c-0.7,0.4-1.6,0.6-2.4,0.5c-0.3-0.1-0.2-0.2-0.1-0.3c0.1-0.1,0.2-0.2,0.2-0.2
		c1-0.8,2.1-1.4,3.1-2.1c1.3-0.7,2-2.1,2-3.5c-0.1-1.2-0.4-1.3-1.3-1.5c-0.3-0.1-0.6,0-0.9,0.1c-0.8,0.1-1.3,0.8-1.2,1.6
		c0,0.1,0,0.2,0.1,0.3c0.1,0.2,0.1,0.4,0,0.7C23.9,55.8,22.9,56.8,21.7,57.2z M56.9,26.5h1c0.6,0,0.6-0.1,0.5-0.6
		c-0.3-1.2-0.6-2.4-0.7-3.7c-0.1-1.3-0.1-2.6-0.1-3.9c0-0.7,0.1-1.4,0.3-2c0.2-0.6,0.4-1.3,0.4-1.9c0-0.2-0.1-0.3-0.3-0.4
		c-0.8-0.2-1.7-0.3-2.6-0.2c-1.2,0.1-1.3,0.4-0.7,1.5c0.2,0.2,0.3,0.5,0.3,0.8c0.2,1.6,0.3,3.2,0.2,4.8c-0.1,0.8-0.3,1.6-0.8,2.3
		c-0.5,0.6-1.3,0.7-1.9,0.3c-0.8-0.6-1.2-1.6-1.1-2.5c0.1-1,0.4-1.9,0.9-2.8c0.6-1,0.8-2.2,0.8-3.4c0-0.2-0.1-0.4-0.2-0.5
		c-1.2-0.6-2.5-0.5-3.6,0.2c-0.3,0.2-0.4,0.6-0.3,1c0.1,0.4,0.5,0.3,0.8,0.3c0.2,0,0.3,0,0.5-0.1c0.3,0,0.7-0.2,0.8,0.2
		c0.3,0.3,0.3,0.8,0,1.1c-0.8,0.9-1.4,2-1.9,3.1c-0.6,1.3-0.8,2.8-0.5,4.2c0.4,1.8,2.3,2.9,4.1,2.5c0,0,0.1,0,0.1,0
		c0.4-0.1,0.8-0.3,1.1-0.5c0.3-0.3,0.7-0.5,1.1-0.7c0.2-0.1,0.3,0,0.3,0.2s-0.1,0.5,0.1,0.7c0.2,0,0.5,0,0.7,0L56.9,26.5z
		 M37.9,28.5c0.1,0.4,0,0.7-0.3,1c-0.6,0.7-1.7,1-2.6,0.7c-0.6-0.2-0.9-0.7-0.7-1.3c0,0,0,0,0-0.1c0.1-0.6,0.6-0.4,0.9-0.5
		c0.2,0,0.4-0.1,0.5-0.3c0.3-0.6,0.4-1.2,0.2-1.9c-0.1-0.4-0.3-0.9-0.8-1.1c-0.2-0.1-0.2-0.1-0.3,0.1c-0.2,0.7-0.9,1.1-1.6,0.9
		c-0.2-0.1-0.4-0.2-0.5-0.3c-0.5-0.3-0.8-0.9-0.8-1.5c0.1-0.5,0.5-1,1-1.1c0.4-0.2,0.7,0.1,1,0.3s0.7,0.3,0.8-0.1
		c0.4-0.9,0.3-1.9-0.1-2.7c-0.3-0.4-0.9-0.6-1.3-0.3c-0.6,0.4-1.2,0.8-1.8,1.3c-1.5,1-2.7,2.2-3.8,3.6c-0.4,0.5-0.3,0.7,0.2,1
		c0.2,0.1,0.3,0.2,0.5,0.2c0.3,0.1,0.6,0.2,0.8,0.4c0.7,0.7,1.5,1.5,2.1,2.2c0.6,0.7,1.2,1.5,1.7,2.3c0.5,1,1.1,2,1.7,3
		c0.2,0.3,0.5,0.4,0.9,0.3c0,0,0,0,0.1,0c0.6-0.3,1.1-0.8,1.6-1.3c1.1-1,2.3-1.9,3.5-2.7c0.3-0.2,0.5-0.6,0.3-0.9
		c-0.1-0.6-0.4-1.1-0.8-1.6c-0.5-0.7-1.3-1.1-2.1-1.2c-0.5,0-0.6,0.1-0.4,0.6C37.8,27.9,37.9,28.2,37.9,28.5L37.9,28.5z M84,51.1
		c1.3,0,2.5-0.7,3-1.9c0.3-0.6,0.3-0.6-0.3-0.7c-0.3-0.1-0.6-0.2-0.9-0.3c-0.7-0.3-1.1-0.9-1-1.7c0-0.8,0.6-1.5,1.3-1.7
		c0.4-0.1,1.2,0.3,1.2,0.5c-0.1,0.3-0.1,0.6,0,0.9c0.2,1.1,1.1,1.8,2.2,1.6c0.1,0,0.2,0,0.3-0.1c0.3-0.1,0.6-0.1,0.2-0.5
		c-0.2-0.3-0.4-0.7-0.5-1c-0.2-0.5-0.2-1.2,0.2-1.7c0.6-0.6,1.5-0.7,2.2-0.2c0.7,0.5,0.8,1.4,0.4,2.1c0,0.1-0.1,0.1-0.2,0.2
		c-0.1,0.2-0.3,0.3-0.5,0.5c-0.3,0.2-0.2,0.4,0.1,0.6c0.7,0.5,1.6,0.8,2.4,0.6c0.2,0,0.5,0,0.6-0.3c0.1-0.3,0.1-0.7,0.1-1
		c-0.2-1.2-0.5-2.4-0.9-3.5c-0.1-0.3-0.2-0.7-0.2-1.1c0-0.7-0.2-1.4-0.6-1.9c-0.2-0.3-0.4-0.5-0.8-0.3c-1.2,0.5-2.5,1-3.7,1.6
		c-2.1,0.9-4.4,1.4-6.7,1.5c-0.5,0.1-1,0.5-0.9,1.1c0,0,0,0.1,0,0.1c0.1,0.5,0.3,0.9,0.4,1.3c0.5,1.4,0.9,2.8,1.2,4.3
		c0.2,1,0.3,1,1.3,1L84,51.1z M26.3,28.4c0.1-0.6-0.2-1.2-0.8-1.6c-0.2-0.2-0.2-0.2-0.4,0c-0.8,1.4-1.7,2.7-2.8,3.8
		c-0.9,1-1.6,2.1-2.2,3.2c-0.3,0.5-0.4,1.2-0.1,1.7c0.3,0.9,0.9,1.6,1.6,2.2c0.2,0.2,0.5,0.2,0.7-0.1c0,0,0,0,0,0
		c0.3-0.4,0.4-0.8,0.4-1.3c0-0.6,0.1-1.3,0.4-1.8c0.3-0.4,0.5-0.4,0.8,0c0.7,1.1,1.2,2.2,1.7,3.4c0.6,1,1.5,1.8,2.5,2.3
		c0.7,0.4,1.6,0.6,2.5,0.5c0.3,0,0.5-0.1,0.6-0.4c0.2-0.4,0.5-0.8,0.8-1.2c0.6-0.6,1-1.3,1.4-2c0.2-0.3,0.6-0.8,0.3-1
		s-0.8,0-1.2,0.2c-0.9,0.5-1.8,0.6-2.8,0.5c-1.3-0.2-2.5-0.8-3.3-1.8c-0.4-0.5-0.8-1.1-1.2-1.7c-0.2-0.3-0.3-0.7-0.2-1
		c0.1-0.5,0.2-0.9,0.4-1.3C26.1,30.3,26.3,29.3,26.3,28.4z M69.2,25.7c0-0.4,0-0.7-0.1-1.1c-0.1-0.9-0.4-1.7-1.1-2.3
		c-0.2-0.2-0.5-0.3-0.7-0.2s-0.1,0.4-0.1,0.6c0.1,0.7,0.1,1.5-0.2,2.2c-0.2,0.6-0.7,0.9-1.3,0.9c-0.4,0-0.7-0.4-0.9-0.8
		c-0.4-0.9-0.4-1.8,0-2.7c0.5-1.7,1.2-3.4,2-4.9c0.1-0.2,0.2-0.5,0.3-0.8c0.1-0.4,0-1-0.3-1c-0.8-0.2-1.5-0.5-2.2-0.6
		s-1.1,0.2-1.1,1c0,0.8,0,1.4,0,2c0,0.1,0,0.3,0,0.4c-0.6,2.2-1.3,4.3-2.3,6.3C61.2,24.8,61.1,25,61,25c-0.3,0.3-0.7,0.5-0.7,1
		c-0.1,0.8,0.4,1.2,1.2,1.4c0.5,0,0.9,0.1,1.4,0.1c1.2,0.3,2.3,0.7,3.3,1.3c0.5,0.3,1,0.4,1.6,0.5c0.4,0.1,0.8-0.1,0.9-0.5
		C69,27.8,69.2,26.7,69.2,25.7z M46.7,16.2c0.2-1-0.8-1.4-1.5-1.2c-1.4,0.3-2.8,0.7-4.2,1.2c-0.8,0.3-1.6,0.7-2.3,1.2
		c-0.3,0.2-0.5,0.6-0.3,0.9c0,0,0,0,0,0.1c0.2,0.6,0.5,1.1,0.9,1.7c1,1.3,1.7,2.7,2.3,4.2c0.5,1.4,0.6,2.9,1,4.3
		c0.1,0.5,0.3,0.6,0.7,0.5c0.8-0.1,1.6-0.4,2.3-0.9c0.4-0.3,0.7-0.8,0.5-1.1c-0.3-0.4-0.6-0.9-0.9-1.2c-0.7-0.7-1.2-1.5-1.4-2.4
		c-0.2-0.7,0-1,0.7-1.1c1-0.1,1.8-1,1.8-2c0-0.2-0.1-0.4-0.1-0.6c-0.1-0.3-0.2-0.3-0.3-0.2c-0.5,0.3-1,0.4-1.6,0.5
		c-0.7,0.2-1.4-0.3-1.6-1c0-0.1,0-0.3,0-0.4c0-0.6,0.3-1.1,0.8-1.3c0.6-0.3,1,0.1,1.3,0.5c0.1,0.1,0.1,0.1,0.2,0.2
		c0.1,0.2,0.3,0.2,0.5,0.1C46.2,17.8,46.7,17.1,46.7,16.2z M53.1,78.9c0-0.2,0-0.4,0-0.6c0.1-0.3-0.1-0.5-0.3-0.6c0,0,0,0,0,0
		c-0.3-0.1-0.4,0.1-0.6,0.4c-0.3,0.6-0.4,1.3-0.2,1.9c0.1,0.3,0.2,0.5,0.5,0.6s0.5-0.2,0.6-0.5C53.1,79.6,53.2,79.3,53.1,78.9z
		 M55.4,79.4c0,0.1,0,0.1,0,0.2c0,0.4,0.1,0.8,0.5,0.9c0.4,0.1,0.7-0.2,0.8-0.6c0.1-0.6,0-1.2-0.4-1.7c-0.3-0.2-0.5-0.2-0.6,0.1
		C55.5,78.6,55.4,79,55.4,79.4L55.4,79.4z M41.3,68.2L41,68.1c-1.3-0.4-2.2-1.6-2.2-3c0.1-1.1,0-2.2,0.1-3.3c0-0.8-0.3-1.6-0.7-2.3
		c0,0.3,0.1,0.5,0.2,0.8c0.5,1.4,0.6,2.9,0.2,4.3c-0.1,0.2-0.1,0.4-0.1,0.6c0,1.1,0.6,2,1.5,2.6C40.3,68.1,40.8,68.2,41.3,68.2z
		 M50.2,76.6c0-0.7-0.1-1.3-0.4-1.9c-0.1-0.1-0.2-0.2-0.3-0.2s-0.1,0.2-0.1,0.2c0.4,0.5,0,0.9-0.2,1.4c-0.3,0.6-0.3,1.3-0.1,1.9
		c0,0.2,0.2,0.3,0.3,0.3c0.2,0,0.3-0.1,0.3-0.3c0.1-0.2,0.1-0.5,0-0.8c-0.1-0.4-0.1-0.8-0.1-1.2c0-0.1,0-0.2,0.1-0.2
		s0.2,0.1,0.2,0.2C49.9,76.1,49.8,76.4,50.2,76.6L50.2,76.6z M59.8,76.8c-0.2,0.1-0.2,0.1-0.3,0.2c-0.1,0-0.1,0.1-0.1,0.1
		c-0.5,0.7-0.6,1.6-0.3,2.5c0.1,0.1,0.1,0.4,0.3,0.4c0.2,0,0.2-0.2,0.3-0.4C59.8,78.7,59.9,77.8,59.8,76.8z M54.7,79.4
		c0-0.2,0-0.5,0-0.7s-0.2-0.4-0.4-0.5c-0.1-0.1-0.2-0.1-0.3,0c-0.4,0.6-0.4,1.4,0,2c0.1,0.1,0.3,0.2,0.5,0.1
		c0.2-0.1,0.2-0.3,0.2-0.4C54.7,79.8,54.7,79.6,54.7,79.4z M51.2,80c0.6-0.9,0.1-1.8-0.1-2.7c0-0.1-0.1-0.3-0.2-0.3
		c-0.2,0-0.2,0.2-0.2,0.3c-0.1,0.7-0.1,1.4,0.2,2.1C50.8,79.6,51,79.8,51.2,80z M58.4,79.4c0-0.4-0.1-0.8-0.3-1.1
		c-0.1-0.2-0.3-0.3-0.4,0c-0.2,0.4-0.3,0.9-0.3,1.3c0.1,0.3,0.2,0.8,0.6,0.7c0.4,0,0.4-0.4,0.4-0.8C58.4,79.5,58.4,79.4,58.4,79.4
		L58.4,79.4z M67.7,69.8c0-0.2,0.1-0.4-0.2-0.4s-0.3,0.2-0.4,0.4c-0.1,0.7-0.2,1.4-0.3,2c0,0.2,0,0.4,0.2,0.5s0.3-0.2,0.4-0.4
		C67.5,71.2,67.6,70.5,67.7,69.8z M65.7,72.9c0.3-0.2,0.5-0.5,0.7-0.8c0.2-0.5,0.1-1,0.3-1.5c0.1-0.2,0.1-0.5-0.1-0.6
		c-0.2-0.1-0.3,0.2-0.3,0.4C65.9,71.2,65.7,72,65.7,72.9L65.7,72.9z M60.8,76.1c-0.3,0.6-0.5,1.3-0.5,2.1c0,0.2,0.1,0.3,0.3,0.1
		C61.2,77.7,61.3,77.1,60.8,76.1z M43.3,72.5c-0.2-0.3-0.3-0.5-0.4-0.8c-0.1-0.3-0.1-0.6-0.2-0.8s0-0.4-0.3-0.4s-0.3,0.3-0.3,0.4
		C42.3,71.6,42.7,72.2,43.3,72.5z M48.1,74.2c0.1,0.7-0.2,1.3,0.3,1.9C48.7,74.9,48.6,74.5,48.1,74.2z M61.6,75.4
		c0.2-0.4,0.4-0.7,0.5-1c0-0.1,0.2-0.2,0-0.3s-0.4-0.1-0.4,0.2C61.7,74.5,61.4,74.9,61.6,75.4z M45.5,72.3c-0.2-0.4-0.2-0.8-0.1-1.2
		c0-0.2-0.1-0.3-0.3-0.3s-0.2,0.2-0.2,0.3C45,71.5,45.2,71.9,45.5,72.3L45.5,72.3z M44.5,72.4c-0.3-0.5-0.5-1.1-0.5-1.7
		C43.7,71.2,43.9,72,44.5,72.4L44.5,72.4z M12.8,52.7L12.8,52.7l-0.1,4c0,0,0.1-0.1,0.1-0.1C12.8,55.3,12.8,54,12.8,52.7z
		 M46.5,69.7c-0.1-0.1,0.1-0.4-0.2-0.4c-0.2,0-0.4,0.2-0.4,0.4c0,0.2,0.1,0.3,0.3,0.3S46.5,69.8,46.5,69.7L46.5,69.7z M11.7,56.2
		L11.7,56.2v-3l0,0V56.2z M43.3,69c0-0.2-0.1-0.2-0.3-0.2c-0.2,0-0.3,0.1-0.3,0.3c0,0.1,0.1,0.2,0.3,0.2c0,0,0,0,0,0
		C43.1,69.3,43.3,69.2,43.3,69z M44.5,69.3c0-0.1-0.2-0.2-0.2-0.2c-0.1,0-0.3,0.1-0.3,0.3s0.1,0.2,0.2,0.2S44.5,69.6,44.5,69.3
		L44.5,69.3z M45.5,69.4c0-0.1,0-0.2-0.2-0.2c-0.2,0-0.3,0.2-0.3,0.4c0,0.1,0.1,0.2,0.2,0.2C45.7,69.9,45.4,69.5,45.5,69.4
		L45.5,69.4z"/>
	<path class="st0" d="M53.8,71.1c0.9,0.6,1.1,2.8,0.4,4c-0.8-0.5-1.1-1.4-0.8-2.3C53.6,72.3,53.7,71.7,53.8,71.1z"/>
	<path class="st0" d="M56,71.2c-0.1,1,0.1,2.1,0.6,3c0.1,0.3,0,0.4-0.2,0.5s-0.4,0.4-0.7,0.3s-0.3-0.5-0.3-0.8
		c-0.1-0.7-0.1-1.4,0.2-2.1C55.5,71.7,55.7,71.4,56,71.2z"/>
	<path class="st0" d="M87,72.4c-1.3,0.1-2.6-0.2-3.8-0.7c-0.5-0.2-0.9-0.5-1.2-0.9c-0.5-0.7-0.3-1.7,0.4-2.2c0,0,0,0,0,0
		c0.7-0.3,1.5-0.4,2.2-0.1c1.7,0.4,3.3,1.1,4.7,2.2c0.3,0.2,0.5,0.6,0.4,1c-0.1,0.4-0.4,0.6-0.8,0.7C88.2,72.4,87.6,72.4,87,72.4z"
		/>
	<path class="st0" d="M21.1,46.2c-1.2-0.1-2.2-1-2.4-2.1c-0.1-0.6,0.6-1.3,1.3-1.2c0.3,0,0.6,0.1,0.8,0.3c0.2,0.1,0.4,0.4,0.4,0.7
		c0,0.6,0.1,1.3,0.2,1.9C21.5,46.1,21.4,46.2,21.1,46.2z"/>
	<path class="st0" d="M84.4,30.1c-0.1,1-0.4,1.9-0.8,2.8c-0.4,1.1-1,2-1.7,2.8c-0.2,0.2-0.4,0.4-0.7,0.5c-0.9,0.4-2,0.1-2.4-0.8
		c0,0,0,0,0,0c-0.3-0.9,0-1.9,0.6-2.6c1.1-1.5,2.4-2.8,4-3.7c0.5-0.3,0.9-0.3,1,0.6C84.4,29.8,84.4,29.9,84.4,30.1z"/>
	<path class="st0" d="M92,59.3c-0.2,0-0.5,0-0.7-0.1c-0.4,0-0.7-0.4-0.7-0.8c0,0,0,0,0-0.1c-0.1-0.7-0.3-1.3-0.5-1.9
		c-0.1-0.4,0-0.6,0.4-0.5c1.1,0.1,2,0.7,2.5,1.7C93.7,58.7,93.2,59.3,92,59.3z"/>
	<path class="st0" d="M17.7,60.7c-0.3,0-0.5-0.1-0.8-0.1c-0.3-0.1-0.5-0.6-0.2-1c0.6-1,1.8-1.6,3-1.5c0.4,0,0.7,0.4,0.6,0.7
		c0,0.1,0,0.1,0,0.2c-0.3,0.9-1.1,1.5-2,1.6C18.2,60.6,18,60.6,17.7,60.7z"/>
</g>
</svg>
