<?xml version="1.0" encoding="utf-8"?>
<!-- Generator: Adobe Illustrator 21.0.0, SVG Export Plug-In . SVG Version: 6.00 Build 0)  -->
<svg version="1.1" id="Layer_1" xmlns="http://www.w3.org/2000/svg" xmlns:xlink="http://www.w3.org/1999/xlink" x="0px" y="0px"
	 viewBox="0 0 109.3 137.2" style="enable-background:new 0 0 109.3 137.2;" xml:space="preserve">
<style type="text/css">
	.st0{fill:#FFFFFF;}
</style>
<title>pin-pumpkins</title>
<g>
	<path class="st0" d="M62.9,30.7c1.5-1.8,2.9-3.5,4.4-5.1c1.8-2.2,4.1-4,6.6-5.4c4.7-2.5,10.6-0.9,13.4,3.6c0.8,1.4,1.2,2.9,1.1,4.5
		c0,3.1-0.7,6.1-2,8.8c-1.8,4.4-4.7,8.1-7.5,11.8c-6.1,8-12.2,16-18.4,23.9c-4.4,5.8-7.9,12.3-10.3,19.2c-2.2,5.8-3.1,12-2.6,18.2
		c0.1,2.2,1,4.3,2.4,6c0.4,0.4,0.8,1,1.4,0.3c0.2-0.2,0.3,0,0.4,0.1s0.4,0.3,0.1,0.6c-0.4,0.5-1.2,0.6-1.8,0.3
		c-1.1-0.7-1.7-1.9-2.4-3.2c0.1,1.6,0.3,2.9,0.4,4.3c0.1,1.1,0.7,2.1,1.7,2.7c0.4,0.2,0.2,0.4,0.1,0.6s-0.3,0.3-0.6,0.1
		c-1.1-0.6-1.9-1.7-2.1-3c-0.4-2.6-0.6-5.2-0.7-7.8c-0.2-1.6-0.6-3.1-1.1-4.6c-3.9-15.3-7.9-30.6-12-45.9c-1.7-6.3-3.1-12.8-4-19.2
		c-0.9-4.8-1-9.7-0.4-14.5c0.5-3.8,2.2-7.4,5-10.1c2.3-2.1,5.3-3.4,8.4-3.6c3.9-0.5,7.8,0.4,11.1,2.6c4.8,3.4,8.1,8.6,9,14.4
		C62.8,30.5,62.8,30.6,62.9,30.7z M46.5,106.5c0.2-2.1,0.2-4.3,0.6-6.4c1.2-6.1,3.3-12,6.1-17.5c2.4-4.5,5.2-8.7,8.4-12.7
		c6.7-8.8,13.7-17.4,20.1-26.4c2.7-3.6,4.5-7.7,5.5-12c0.5-2,0.5-4.1-0.2-6.1c-1.9-4.3-6.7-6.6-11.2-5.1c-2.4,0.9-4.6,2.4-6.4,4.2
		c-2.3,2.2-4.2,4.8-6.3,7.2c-0.2,0.2-0.3,0.6-0.3,0.9c0.1,2.6,0,5.2-0.2,7.8c-0.1,0.6,0.1,0.8,0.7,0.9c2.3,0.4,4,2.3,4,4.7
		c0.2,2.1-0.1,4.1-0.7,6.1C64.8,58,62,63.6,58.3,68.6c-1.1,1.6-2.6,3-4.2,3.9c-0.4,0.2-0.7,0.5-0.8,0.9c-2.5,7.6-5,15.3-7.5,22.9
		c-0.1,0.3,0,0.7-0.6,0.5s-0.3-0.5-0.2-0.8c4.7-14.3,9.2-28.6,13.9-42.8c1.9-5.7,3.3-11.5,3.3-17.6c0-0.8,0-1.6,0-2.4
		c-1,0.9-1.9,1.9-2.7,2.9c-0.2,0.2-0.4,0.4-0.7,0.1s-0.2-0.5,0-0.7c1-1.1,1.9-2.2,2.9-3.3c0.3-0.3,0.4-0.7,0.3-1.1
		c-0.1-1.4-0.4-2.7-0.8-4c-1.1-3.1-2.9-6-5.2-8.3c-1.5-1.6-3.4-2.8-5.5-3.6c-3.1-1.2-6.5-1.4-9.8-0.6c-3.5,0.8-6.4,3-8.2,6.2
		c-1.7,3.1-2.6,6.7-2.6,10.2c-0.1,3.3,0.1,6.5,0.6,9.8c1,6.9,2.5,13.8,4.3,20.5c3.1,11.6,6.2,23.1,9.2,34.7
		C44.7,99.6,45.6,103.1,46.5,106.5z M54,71.5c1.4-1,2.6-2.2,3.6-3.5c3.3-4.4,5.9-9.3,7.7-14.5c1-2.4,1.4-4.9,1.2-7.4
		c-0.1-1.9-1.4-3.5-3.3-3.8c-0.5-0.1-0.6-0.1-0.7,0.5c-0.2,2.1-0.7,4.2-1.4,6.2c-2.3,7.2-4.7,14.5-7,21.7
		C53.9,70.9,53.9,71.2,54,71.5z"/>
	<path class="st0" d="M48.1,22.8c-0.1,1.3,0,2.7,0.3,4c0.7,4.3,1.5,8.7,2,13c0.5,4.7,0.9,9.5,1,14.3c0.2,4.7,0,9.4-0.5,14.1
		c-0.2,1.5-0.5,3.1-1,4.5c-0.2,0.8-0.8,1.5-1.6,1.9c-0.8,0.4-1.8,0.3-2.5-0.3c-1.9-1.3-3.3-3.1-4.1-5.3c-1.7-4.1-1.2-8.7,1.4-12.3
		c1.2-1.6,2.7-3,4.4-4.2c0.2-0.2,0.5-0.2,0.7,0s0,0.5-0.2,0.7c-1.1,0.9-2.2,1.9-3.2,2.9c-1.8,1.9-2.8,4.3-3,6.8
		c-0.4,3.7,0.9,7.3,3.6,9.8c0.2,0.2,0.4,0.4,0.6,0.5c1.6,1.3,2.6,0.5,3.2-1.1c0.5-1.7,0.9-3.4,1-5.1c0.6-6.4,0.6-12.8,0.1-19.2
		c-0.4-7.7-1.9-15.2-2.9-22.8c-0.1-0.8-0.2-1.7-0.3-2.6c0-0.4,0-0.8,0.4-1s0.7,0.1,1,0.3c0.7,0.8,1.3,1.7,1.7,2.8
		c1.5,3.2,2.5,6.6,3.1,10.2c0.1,0.7,0.1,1.5,0,2.2c-0.1,0.6-0.5,1.2-1.1,1.5c-0.3,0.2-0.4-0.1-0.5-0.3s-0.3-0.3,0-0.5
		c0.8-0.3,0.7-1,0.7-1.7c-0.1-1.9-0.5-3.8-1.1-5.5c-0.7-2.3-1.6-4.6-2.8-6.8C48.4,23.3,48.2,23,48.1,22.8z"/>
</g>
</svg>
