<?xml version="1.0" encoding="utf-8"?>
<!-- Generator: Adobe Illustrator 21.0.0, SVG Export Plug-In . SVG Version: 6.00 Build 0)  -->
<svg version="1.1" id="Layer_1" xmlns="http://www.w3.org/2000/svg" xmlns:xlink="http://www.w3.org/1999/xlink" x="0px" y="0px"
	 viewBox="0 0 109.3 137.2" style="enable-background:new 0 0 109.3 137.2;" xml:space="preserve">
<style type="text/css">
	.st0{fill:#FFFFFF;}
</style>
<title>pin-pearljam</title>
<g>
	<path class="st0" d="M102.6,66.6h-0.3h-3.7c-0.2,0-0.3,0-0.3-0.3c0-3.5,0-7.1,0-10.6c0-0.4,0-0.9,0-1.3c-0.1,0.4-0.2,0.8-0.2,1.2
		c-0.4,2.7-0.8,5.3-1.1,8c-0.1,0.9-0.2,1.8-0.3,2.6c0,0.2-0.1,0.3-0.3,0.3c-0.8,0.1-1.6,0.1-2.3,0c-0.2,0-0.2-0.1-0.3-0.3
		c-0.2-1.7-0.4-3.4-0.7-5.1c-0.2-1.8-0.5-3.7-0.8-5.5c-0.1-0.4-0.1-0.8-0.2-1.2h-0.1c0,0.4,0,0.7,0,1.1c0,3.6,0,7.2,0,10.7
		c0,0.4,0.1,0.3-0.4,0.3h-3.7c-0.2,0-0.2-0.1-0.2-0.2c0-6.1,0-12.2,0-18.3c0-0.2,0.1-0.2,0.2-0.2h5.7c0.2,0,0.2,0,0.3,0.2
		c0.3,2.5,0.7,5,1.1,7.4c0.1,0.3,0.1,0.6,0.2,1c0.2-0.5,0.3-1,0.3-1.6c0.3-2.2,0.6-4.5,0.9-6.7c0-0.3,0.1-0.3,0.4-0.3
		c2,0,3.9,0,5.9,0L102.6,66.6z"/>
	<path class="st0" d="M42.1,47.8c0.1,0,0.2,0,0.3,0c1.8,0.1,3.7,0.1,5.5,0.2c0.5,0,0.9,0.1,1.4,0.2c1.3,0.2,2.4,1.2,2.6,2.6
		c0.2,0.9,0.3,1.8,0.2,2.7c0,0.6,0,1.1-0.2,1.7c-0.1,0.7-0.6,1.2-1.3,1.4l-1,0.3c0.3,0.1,0.5,0.3,0.8,0.4c1,0.3,1.6,1.3,1.6,2.3
		c0.2,1.9,0.1,3.8,0.2,5.8c0,0.4,0,0.7,0,1.1c0,0.1,0,0.2-0.2,0.2H48c-0.2,0-0.2-0.1-0.2-0.2c0-1.4,0-2.8,0-4.2c0-0.9,0-1.9-0.1-2.8
		c0-0.2-0.1-0.4-0.1-0.6c-0.1-0.3-0.3-0.5-0.6-0.5c-0.2,0-0.4,0-0.6,0s-0.2,0-0.2,0.2c0,0.8,0,1.6,0,2.4c0,1.8,0,3.7,0,5.5
		c0,0.2-0.1,0.2-0.2,0.2c-1.4,0-2.9,0-4.3,0c-0.2,0-0.3-0.1-0.3-0.3c0-6.1,0-12.2,0-18.2c0-0.1,0-0.2,0-0.3L42.1,47.8z M46.1,53.2
		v1.6c0,0.6,0,0.6,0.6,0.5s0.9-0.3,1-0.9c0.1-0.8,0.1-1.7,0-2.5c-0.1-0.7-0.4-0.9-1.1-0.9c-0.1,0-0.2,0-0.3,0c-0.2,0-0.2,0-0.2,0.2
		C46.2,51.9,46.2,52.5,46.1,53.2L46.1,53.2z"/>
	<path class="st0" d="M7.3,47.8c1.6,0,3.3,0,4.9,0.1c1.1,0,2.1,0.1,3.2,0.4c1.3,0.2,2.3,1.3,2.4,2.6c0.3,1.9,0.3,3.7,0,5.6
		c-0.1,1.1-0.9,2-2,2.3c-0.8,0.2-1.6,0.4-2.4,0.4c-0.3,0-0.7,0.1-1,0.1s-0.3,0.1-0.3,0.3c0,2.3,0,4.6,0,6.8c0,0.4,0,0.3-0.3,0.3H7.7
		H7.4L7.3,47.8z M12.2,53.4c0,0.7,0,1.5,0,2.2c0,0.2,0,0.3,0.2,0.2c0.1,0,0.3,0,0.4,0c0.5,0,1-0.4,1.1-0.9c0.1-0.8,0.1-1.7,0.1-2.6
		c0-0.2,0-0.5-0.1-0.7c-0.1-0.4-0.4-0.6-0.8-0.6c-0.2,0-0.4,0-0.7,0s-0.2,0.1-0.2,0.2C12.2,52,12.2,52.7,12.2,53.4L12.2,53.4z"/>
	<path class="st0" d="M34.2,47.8h3.2c0.2,0,0.2,0,0.3,0.2c0.4,2.6,0.8,5.2,1.2,7.8c0.4,2.6,0.8,5.2,1.2,7.8c0.1,0.9,0.3,1.8,0.4,2.7
		c0,0.1,0,0.2-0.1,0.2l-4.5-0.1c-0.2,0-0.2-0.1-0.2-0.2c-0.1-0.8-0.1-1.6-0.2-2.4c0-0.1,0-0.2,0-0.4c0-0.3,0-0.3-0.4-0.3h-1.4
		c-0.1,0-0.2,0-0.2,0.2c-0.1,0.9-0.2,1.9-0.2,2.8c0,0.2-0.1,0.3-0.3,0.3c-1.5,0-3,0-4.5,0.1c-0.2,0-0.2-0.1-0.2-0.2
		c0.2-1.4,0.4-2.8,0.5-4.2l0.7-5.3l0.7-5.3c0.2-1.2,0.3-2.3,0.5-3.5c0-0.2,0.1-0.2,0.2-0.2L34.2,47.8L34.2,47.8z M34.5,52.2
		L34.5,52.2c-0.2,0.3-0.2,0.7-0.2,1.1c-0.3,2.1-0.4,4.1-0.7,6.2c0,0.2,0,0.3,0.2,0.3c0.4,0,0.8,0,1.2,0c0.2,0,0.3-0.1,0.2-0.3
		c-0.3-1.9-0.4-3.8-0.6-5.7C34.7,53.3,34.5,52.8,34.5,52.2z"/>
	<path class="st0" d="M84.1,66.6h-2c-0.2,0-0.2,0-0.2-0.2c0-1,0-2-0.2-2.9c0-0.2-0.1-0.3-0.3-0.3c-0.5,0-1,0-1.4,0
		c-0.2,0-0.2,0-0.2,0.2c-0.1,0.9-0.2,1.9-0.2,2.8c0,0.2-0.1,0.3-0.3,0.3c-1.4,0-2.9,0.1-4.3,0c-0.4,0-0.4,0-0.3-0.4
		c0.3-2,0.5-4.1,0.8-6.1s0.6-4.2,0.8-6.3c0.2-1.9,0.5-3.7,0.7-5.6c0-0.1,0-0.2,0.2-0.2c2.1,0,4.2-0.1,6.3,0h0.1
		c0.4,0,0.5,0.1,0.6,0.5c0.4,2.6,0.8,5.2,1.2,7.9s0.8,5,1.2,7.6c0.1,0.8,0.3,1.6,0.4,2.4c0,0.2,0,0.3-0.2,0.3
		c-0.4,0-0.9,0.1-1.3,0.1L84.1,66.6L84.1,66.6z M80.6,52.1c-0.1,0.1-0.1,0.2-0.1,0.3c-0.1,1.1-0.2,2.2-0.4,3.4
		c-0.1,1.3-0.3,2.6-0.4,3.8c0,0.2,0,0.2,0.2,0.2c0.4,0,0.9,0,1.4,0c0.2,0,0.2-0.1,0.2-0.2c-0.1-0.3-0.1-0.7-0.1-1
		c-0.2-2-0.3-4-0.6-6C80.7,52.4,80.7,52.3,80.6,52.1z"/>
	<path class="st0" d="M19.3,57.2c0-3,0-6.1,0-9.1c0-0.2,0.1-0.3,0.3-0.3h7.5c0.2,0,0.2,0,0.2,0.2c0,1.1,0,2.2,0,3.3
		c0,0.2,0,0.2-0.2,0.2h-2.8c-0.2,0-0.2,0.1-0.2,0.2c0,1,0,2.1,0,3.1c0,0.2,0.1,0.2,0.2,0.2H27c0.2,0,0.2,0.1,0.2,0.2
		c0,1,0,2.1,0,3.1c0,0.2,0,0.2-0.2,0.2h-2.6c-0.2,0-0.2,0-0.2,0.2c0,1.2,0,2.4,0,3.7c0,0.2,0.1,0.2,0.2,0.2h3.1c0.2,0,0.2,0,0.2,0.2
		c0,1.1,0,2.2,0,3.3c0,0.2-0.1,0.2-0.2,0.2h-8c-0.2,0-0.2-0.1-0.2-0.2C19.3,63.3,19.3,60.3,19.3,57.2z"/>
	<path class="st0" d="M54.2,57.2c0-3,0-6.1,0-9.1c0-0.2,0-0.3,0.3-0.3c1.4,0,2.9,0,4.3,0c0.2,0,0.3,0.1,0.3,0.3c0,4.8,0,9.6,0,14.4
		c0,0.4,0,0.3,0.3,0.3h2.5c0.2,0,0.2,0.1,0.2,0.2c0,1.1,0,2.2,0,3.3c0,0.2-0.1,0.2-0.3,0.2h-7.4c-0.2,0-0.2-0.1-0.2-0.2
		C54.2,63.3,54.2,60.3,54.2,57.2z"/>
	<path class="st0" d="M73.6,54.6c0,3.1,0,5.4-0.1,7.8c0,0.7-0.1,1.3-0.2,2c-0.2,1-1,1.8-2,2c-0.8,0.1-1.7,0.2-2.6,0.2L67,66.7
		c-0.2,0-0.2,0-0.2-0.2c0-1,0-1.9,0-2.9c0-0.2,0.1-0.2,0.2-0.2s0.6,0,0.9,0c0.3,0,0.6-0.2,0.6-0.5c0.1-0.4,0.2-0.8,0.2-1.2
		c0.1-1.3,0.1-2.6,0.1-3.9c0-3.2,0-6.5,0-9.7c0-0.2,0-0.3,0.3-0.3c1.4,0,2.9,0,4.3,0c0.2,0,0.3,0,0.3,0.2
		C73.6,50.5,73.6,52.9,73.6,54.6z"/>
</g>
</svg>
