<?xml version="1.0" encoding="utf-8"?>
<!-- Generator: Adobe Illustrator 21.0.0, SVG Export Plug-In . SVG Version: 6.00 Build 0)  -->
<svg version="1.1" id="Layer_1" xmlns="http://www.w3.org/2000/svg" xmlns:xlink="http://www.w3.org/1999/xlink" x="0px" y="0px"
	 viewBox="0 0 109.3 137.2" style="enable-background:new 0 0 109.3 137.2;" xml:space="preserve">
<style type="text/css">
	.st0{fill:#FFFFFF;}
</style>
<title>pin-zappa</title>
<g>
	<path class="st0" d="M56,47.2c-7,0-14,0-21,0c-3.6,0-7,1.6-9.3,4.3c-1.7,1.8-2.7,4.1-3.1,6.6c-0.1,0.5-0.1,1.1-0.2,1.6
		c0,1.3,0,2.6,0,3.8c0,0.3-0.1,0.4-0.4,0.4c-2.6,0-5.1,0-7.7,0c-0.3,0-0.4-0.1-0.4-0.4c0-1.2,0-2.4,0-3.7
		c0.4-14.5,10.9-26.7,25.2-29.2c1.6-0.3,3.2-0.4,4.8-0.4c8,0,16.1,0,24.1,0c4.1,0,8.1,0.9,11.8,2.5C90.4,37.4,97.4,47.6,98,59
		c0.1,1.5,0,3,0.1,4.6c0,0.3-0.1,0.4-0.4,0.4c-2.6,0-5.2,0-7.8,0c-0.3,0-0.4-0.1-0.4-0.4c0-1.1,0-2.2,0-3.3
		c0-6.4-4.5-11.9-10.8-12.9c-0.8-0.1-1.6-0.2-2.5-0.2L56,47.2L56,47.2z"/>
	<path class="st0" d="M47.6,70.3c0-2,0-3.9,0-5.9c0-0.1,0-0.2,0-0.2s0-0.2,0.1-0.2c0.1,0,0.1,0,0.2,0.1c0.4,0.3,0.8,0.7,1.1,1
		c1.2,1,2.6,1.8,4,2.4c2.1,0.9,4.6,0.8,6.7-0.2c1.6-0.8,3.1-1.8,4.5-3l0.2-0.1c0.1,0,0.1-0.1,0.2-0.1c0.1,0,0.1,0.1,0.1,0.2
		c0,0.1,0,0.1,0,0.2c0,3.9,0,7.8,0,11.7c0,0.3-0.1,0.6-0.3,0.8c-1.4,1.3-3,2.3-4.8,3.1c-2.3,1.1-5,1-7.2-0.2
		c-1.6-0.8-3.1-1.9-4.4-3.1c-0.1-0.1-0.2-0.3-0.2-0.5C47.6,74.2,47.6,72.3,47.6,70.3z"/>
</g>
</svg>
