<?xml version="1.0" encoding="utf-8"?>
<!-- Generator: Adobe Illustrator 21.0.0, SVG Export Plug-In . SVG Version: 6.00 Build 0)  -->
<svg version="1.1" id="Layer_1" xmlns="http://www.w3.org/2000/svg" xmlns:xlink="http://www.w3.org/1999/xlink" x="0px" y="0px"
	 viewBox="0 0 109.3 137.2" style="enable-background:new 0 0 109.3 137.2;" xml:space="preserve">
<style type="text/css">
	.st0{fill:#FFFFFF;}
</style>
<title>pin-sinatra</title>
<path class="st0" d="M54.7,86.4c-9.1,0-18.2-1.8-26.6-5.4c-4.6-1.8-8.7-4.5-12.3-7.9c-1.7-1.6-3-3.6-3.8-5.9
	c-0.9-2.7-0.3-5.6,1.4-7.9c1.7-2.2,3.9-4,6.3-5.3c1.9-1.1,4-2.1,6.1-2.8c0.7-0.2,1.2-0.8,1.2-1.5c0.4-3.8,0.7-7.6,1.5-11.3
	c0.3-1.7,0.8-3.3,1.5-4.8c0.5-1.2,1.6-1.9,2.8-1.8c4,0.1,7.9-0.8,11.9-1.7c3.1-0.8,6.3-1.3,9.5-1.8c6.6-0.9,13.1,1.8,17.1,7.2
	c3.2,4.3,5.8,9.2,7.6,14.3c0.4,1.1,0.8,2.2,1.2,3.2c0.1,0.2,0,0.8,0.6,0.4c0.2-0.1,0.6,0.5,0.8,0.9c0.3,0.7,0.9,1.3,1.7,1.5
	c4,1.9,7.7,4.3,11.1,7.2c1.3,1.2,2.4,2.6,3.2,4.2c1.3,2.5,0.9,5.6-1,7.6c-1.6,1.8-3.5,3.2-5.6,4.3c-4.7,2.4-9.8,4.1-15,5.1
	C69,85.8,61.8,86.4,54.7,86.4z M81,55.5c-1.2,1.3-2.7,2.4-4.3,3.1c-5.8,2.5-12.1,3.9-18.4,4.2c-4.4,0.4-8.9,0.3-13.3-0.5
	c-6.5-1.2-13.1-2.1-18.8-5.7c-0.4-0.3-0.6-0.2-0.7,0.3c-0.3,1.4-0.5,2.9-0.7,4.4c-0.2,1.3,0.4,2.7,1.6,3.3c1.8,1.2,3.7,2.2,5.7,2.9
	c2,0.7,4,1.1,6.1,1.4c7.5,1,15.1,1.1,22.7,0.5c4.5-0.3,9-1.3,13.3-2.9c2.1-0.8,4-1.9,5.6-3.4c0.4-0.3,0.7-0.7,0.9-1.2
	c0.5-1.6,0.7-3.2,0.7-4.9C81.3,56.5,81.2,56,81,55.5L81,55.5z"/>
</svg>
