<svg xmlns="http://www.w3.org/2000/svg" viewBox="0 0 28.8 9.06"><defs><style>.a { fill: #fff; }</style></defs><title>ledep</title><path class="a" d="M13.18 7.28a1.38 1.38 0 0 1-.71.18h-4c-.09 0-.06 0 0-.08L11.25.1c0-.08 0-.08-.05-.08H8.5v.83h.05a1.49 1.49 0 0 1 .7-.17h.86c.1 0 .1 0 .06.09L7.32 8.05c0 .09 0 .09.07.09h5.73c.09 0 .09 0 .09-.09v-.7-.07zM27.88 8.96l-.05.1h1a1.4 1.4 0 0 1-.14-.77V.5a1 1 0 0 1 .11-.43V.01h-.85-.06a1.14 1.14 0 0 1 .13.62v3.39h-.05l-.81-2.2a.32.32 0 0 1 0-.11V.25a.48.48 0 0 1 0-.14c0-.07 0-.07-.05-.07h-1a1.28 1.28 0 0 1 .13.73v6.85a1.12 1.12 0 0 1-.13.6h.92a1.28 1.28 0 0 1-.11-.64V3.25l1 3a.71.71 0 0 1 0 .24v2a1 1 0 0 1-.04.47zM19.58.14a1.07 1.07 0 0 0-.47-.11h-2a1.3 1.3 0 0 1 .14.72v6.61a1.34 1.34 0 0 1-.15.76h.89c.05 0 0 0 0-.05a1.1 1.1 0 0 1-.11-.5v-5.7c0-.08 0-.08.08-.08h1.16a.81.81 0 0 0 .77-.48 1 1 0 0 0 .07-.68.65.65 0 0 0-.38-.49zm-.17.82c0 .18-.05.22-.24.22h-1.16c-.07 0-.07 0-.07-.07V.75s0-.06.06-.06h1.26a.18.18 0 0 1 .15.2zM16.25.08a1.08 1.08 0 0 0-.41-.08h-1.93s-.08 0 0 0a1 1 0 0 1 .12.54v6.84a1.18 1.18 0 0 1-.12.64h.85s.06 0 0-.06a1 1 0 0 1-.11-.48V1.84c0-.07 0-.07.07-.07h1.1a.83.83 0 0 0 .83-.64 1.22 1.22 0 0 0 0-.52.67.67 0 0 0-.4-.53zm-.12.87c0 .2-.05.24-.26.24h-1.13c-.06 0-.06 0-.06-.06V.75c0-.06 0-.06.06-.06h1.24a.18.18 0 0 1 .15.2zM22.6 1.25h-1.45c-.06 0-.08-.08-.08-.08V.89c0-.15 0-.15.14-.15a1.15 1.15 0 0 1 .84.17v-.8c0-.07 0-.08-.08-.08h-1.76a1 1 0 0 1 .13.55v6.88a1.32 1.32 0 0 1-.14.76h2.34v-.87a.79.79 0 0 0-.16.11.68.68 0 0 1-.36.11h-1c-.06 0-.06 0-.06-.07V2.02c0-.06 0-.07.07-.07h.94a1 1 0 0 1 .54.15h.08v-.79c.1-.04.09-.06.01-.06zM3.32 7.38a1.38 1.38 0 0 1-.69.15H.95c-.11 0-.11 0-.11-.11V.75A1.38 1.38 0 0 1 1 .11V.04H0a1.11 1.11 0 0 1 .14.63v7a1.06 1.06 0 0 1-.11.51v.06h3.29c.07 0 .07 0 .07-.07v-.75c-.02-.06-.07-.07-.07-.04zM7.5 1.2a1.11 1.11 0 0 0-.67-1 2.19 2.19 0 0 0-.91-.18h-2a2.2 2.2 0 0 1 .14.92v6.34a2.47 2.47 0 0 1-.13.92h.53a1 1 0 0 0 .44-.11 1.41 1.41 0 0 0 .55-.52 5.77 5.77 0 0 0 .53-1.12c.23-.61.41-1.24.61-1.86s.48-1.42.68-2.14A3.92 3.92 0 0 0 7.5 1.2zm-.78.21a6.09 6.09 0 0 1-.19 1c-.29 1.1-.66 2.17-1 3.25a8.7 8.7 0 0 1-.44 1.17 1.59 1.59 0 0 1-.28.41V.85c0-.1 0-.1.1-.1h1.07a1.35 1.35 0 0 1 .28 0h.06a.53.53 0 0 1 .41.67z"/><path class="a" d="M3.72 1.22H2.44c-.07 0-.07 0-.07-.07v-.4c0-.07 0-.07.07-.07h.22a1 1 0 0 1 .58.17h.08v-.8c0-.07 0-.07-.08-.07H1.51a1 1 0 0 1 .14.57v5.52a1.08 1.08 0 0 1-.12.6h1.79c.06 0 .06 0 .06-.07v-.76c0-.06 0-.07-.07 0a.92.92 0 0 1-.36.15h-.52c-.07 0-.07 0-.07-.08V2c0-.06 0-.08.07-.08h.79a.85.85 0 0 1 .46.13l.11.06v-.84c0-.05-.04-.05-.07-.05zM13.58 1.25h-1.26c-.08 0-.08 0-.08-.09V.82c0-.05 0-.07.07-.07h.28a.92.92 0 0 1 .5.15h.08V.1c0-.06 0-.08-.08-.08h-1.6-.07a1.11 1.11 0 0 1 .14.64v5.35a1.22 1.22 0 0 1-.13.64h1.78c.05 0 .05 0 .05-.06v-.78s0-.07 0 0l-.14.08a.75.75 0 0 1-.41.12h-.39c-.06 0-.07 0-.07-.07V2c0-.07 0-.07.08-.07H13a1 1 0 0 1 .62.17v-.72c.06-.11.04-.13-.04-.13zM25.47 7.38a1.4 1.4 0 0 1-.69.17h-1c-.11 0-.11 0-.11-.11V.72a1.37 1.37 0 0 1 .15-.64.08.08 0 0 0 0-.07h-1a1.28 1.28 0 0 1 .14.73V7.63a1.08 1.08 0 0 1-.14.6h2.58c.06 0 .06 0 .06-.07v-.77-.05zM8.18 4.94l.3-.81c0-.07 0-.07-.05-.07h-1a.07.07 0 0 0-.08.06l-.3.81V5h1a.072.072 0 0 0 .13-.06z"/><path class="a" d="M24.58 4.9V6a1.11 1.11 0 0 1-.11.57v.06h.87a1.48 1.48 0 0 1-.02-.78V.67a1.28 1.28 0 0 1 .11-.61h-.93a1.19 1.19 0 0 1 .15.69z"/></svg>