<?xml version="1.0" encoding="utf-8"?>
<!-- Generator: Adobe Illustrator 21.0.0, SVG Export Plug-In . SVG Version: 6.00 Build 0)  -->
<svg version="1.1" id="Layer_1" xmlns="http://www.w3.org/2000/svg" xmlns:xlink="http://www.w3.org/1999/xlink" x="0px" y="0px"
	 viewBox="0 0 109.3 137.2" style="enable-background:new 0 0 109.3 137.2;" xml:space="preserve">
<style type="text/css">
	.st0{fill:#FFFFFF;}
</style>
<title>pin-templar</title>
<path class="st0" d="M93.5,44.3V70c-2.9-1.5-5.9-2.8-8.9-3.9c-7.4-2.4-15-3.9-22.8-4.5c-2.1-0.2-2.5,0.5-2.3,2.4
	c1,10.9,3,21.5,8.3,31.4H42.1c1.4-2.8,2.7-5.7,3.8-8.6c2.5-7.5,4-15.3,4.5-23.2c0.1-1.7-0.4-2.2-2-2.1c-11,0.9-21.8,2.9-31.9,8.3
	V44.2c9.8,5.3,20.4,7.3,31.3,8.3c2.2,0.2,2.9-0.3,2.6-2.6c-1-10.7-2.9-21.2-8.1-30.8c-0.1-0.1,0-0.3,0-0.6h25.5
	c-1.4,2.8-2.7,5.6-3.8,8.6c-2.5,7.5-4,15.3-4.6,23.2c-0.2,1.7,0.3,2.4,2.1,2.2c10.9-1,21.5-2.8,31.2-8.2
	C93.1,44.4,93.3,44.3,93.5,44.3z"/>
</svg>
