<?xml version="1.0" encoding="utf-8"?>
<!-- Generator: Adobe Illustrator 21.0.0, SVG Export Plug-In . SVG Version: 6.00 Build 0)  -->
<svg version="1.1" id="Layer_1" xmlns="http://www.w3.org/2000/svg" xmlns:xlink="http://www.w3.org/1999/xlink" x="0px" y="0px"
	 viewBox="0 0 109.3 137.2" style="enable-background:new 0 0 109.3 137.2;" xml:space="preserve">
<style type="text/css">
	.st0{fill:#FFFFFF;}
</style>
<title>pin-kitchen</title>
<g>
	<path class="st0" d="M57.1,79.6c-6,0-12.1,0-18.1,0c-1.3,0.1-2.4,0.1-2.4-1.8c0-1.4-1.6-2-2.2-3.2c-0.9-1.8-2.2-0.5-3.2-0.3
		c-2,0.4-4,0.1-5.8-0.9c-5.1-2.4-8.4-7.4-8.6-13c-0.4-6.1,4.4-9.8,10-7.7c2,0.7,2.5,0.3,2.5-1.6c0-2.3,1.1-2.9,3.4-2.9
		c16.1,0.1,32.2,0.1,48.3,0c2.3,0,3.1,0.8,3.5,2.9C86,59.7,84,68.5,79,75.5c-0.4,0.6-1.1,1.1-1.1,1.6c0.2,3.1-1.9,2.5-3.8,2.5
		L57.1,79.6z M20.3,61.4c0,4.7,4.5,9.5,8.6,9.2c1.7-0.1,2.9-0.5,1.9-2.7c-1.1-2.7-1.7-5.5-1.7-8.4c0-2-1-2.8-2.7-3.2
		C23,55.4,20.3,57.6,20.3,61.4z"/>
	<path class="st0" d="M56.2,81.9h26.2c0.7,0,1.3,0,2,0c1.4,0.1,2.2,0.7,2.2,2.1c0.1,1-0.7,1.9-1.7,1.9c-0.1,0-0.3,0-0.4,0
		c-1.9-0.3-3.8,0.6-4.7,2.2c-1.1,1.6-3.1,2.1-5.1,2.1c-12.3,0-24.6,0-36.9,0c-2.2,0.1-4.3-0.9-5.5-2.8c-0.7-1.2-2-1.8-3.3-1.6
		c-1.5,0.1-3-0.2-2.9-2.2c0.1-1.8,1.4-2,2.8-2L56.2,81.9z"/>
	<path class="st0" d="M61.4,14.2c0,0.4-0.1,0.7-0.2,1.1c-2.2,4.1-1.3,8,1.1,11.7c1.5,2.3,3.2,4.4,4.2,7s0.9,5.3-1.2,7.6
		c-0.5,0.6-1.2,1.2-1.9,0.9c-1-0.4,0-1.1,0-1.7c0.1-2.2-1.1-3.7-2.5-5.2c-1.9-2-4-4-5.2-6.5c-2-4.1-2.2-8.1,0.7-11.9
		C57.5,15.5,59.4,14.4,61.4,14.2z"/>
</g>
</svg>
