<svg xmlns="http://www.w3.org/2000/svg" viewBox="0 0 109.29 137.25">
    <title>pin-slayer</title>
    <path d="M98 70.88c-.2 0-.25-.17-.31-.34a17.09 17.09 0 0 1-.67-2.62q-1.13-6.18-2.24-12.37c-.15-.85-.34-1.69-.49-2.54-.06-.3-.19-.38-.49-.32q-3.11.68-6.14 1.65a1.07 1.07 0 0 0-.72.67c-1.18 2.81-2.21 5.68-3.32 8.52-.83 2.14-1.61 4.3-2.55 6.39-.59 1.3-.6 1.29-2 1.11-.54-.07-1.08-.14-1.62-.2-.35 0-.4-.19-.27-.5.8-2 1.63-4 2.38-6q5.81-15.47 11.71-30.91a2.64 2.64 0 0 1 1.27-1.53c.74-.39 1.41-.89 2.17-1.26s.92-.33 1.4.33c2.23 3.09 4.33 6.27 6.48 9.41 1.44 2.1 2.92 4.18 4.26 6.35a2.38 2.38 0 0 0 .13.2c.21.28.17.42-.18.56-2.67 1.07-5.35 2.11-8.07 3.07l-.75.26c-.56.21-.57.21-.46.8q.72 4 1.46 8c.6 3.22 1.22 6.44 1.77 9.67a.64.64 0 0 1-.29.71 5.42 5.42 0 0 1-2.46.89zM89.55 49.5l.39-.09c2.4-.68 4.76-1.48 7.13-2.22 1.32-.41 2.66-.71 3.94-1.24.91-.37.93-.44.43-1.27-1.75-2.9-3.64-5.7-5.59-8.47a11.12 11.12 0 0 0-.75-1c-.3-.34-.6-.28-.79.13-.06.13-.12.27-.17.4-1.68 4.17-3.22 8.39-4.67 12.64a5.86 5.86 0 0 0-.2.77c-.04.24.04.37.28.35zM71.8 52.92h-4.15c-.2 0-.35 0-.42.25a57 57 0 0 1-2.9 6.71c-.93 2.08-1.88 4.15-2.68 6.29-.22.59-.21.62.42.76a36.24 36.24 0 0 0 4.26.57c2.52.24 5 .5 7.56.84l1.42.22c.25 0 .38.14.29.42-.23.71-.43 1.42-.65 2.13-.18.56-.65.66-1.14.68a19.46 19.46 0 0 1-3.1-.19q-4.29-.49-8.58-1c-1.82-.22-3.63-.48-5.44-.73-.5-.07-.51-.09-.33-.57.89-2.36 2-4.64 3-6.94 4.2-9.49 8.56-18.91 12.69-28.44a.86.86 0 0 1 .64-.55l13.92-3.83a5 5 0 0 1 1.45-.22.71.71 0 0 1 .8.62 20.39 20.39 0 0 1 .27 2.61c0 .22-.15.22-.28.26l-9.4 2.56c-1.24.34-2.48.69-3.73 1a2.18 2.18 0 0 0-1.66 1.49c-.66 1.76-1.42 3.49-2.17 5.22-.82 1.89-1.66 3.76-2.4 5.68-.23.59-.22.61.39.7a23.44 23.44 0 0 0 3.46.15c1 0 2 0 3.07.08.51 0 .59.11.5.61-.15.81-.34 1.61-.49 2.42 0 .26-.22.25-.41.25zM49.93 44.62c-.06 5.35-.22 10.7-.41 16 0 .29-.09.39-.39.38h-2.51c-.31 0-.37-.1-.38-.38q-.07-4.86-.17-9.72c0-.58 0-.56-.59-.6-2.9-.2-5.8-.41-8.69-.69-.58-.06-1.17-.09-1.74-.17-.27 0-.34.13-.45.3l-4.38 7.17c-.37.61-.77 1.21-1.15 1.82a.36.36 0 0 1-.42.2c-.87-.11-1.74-.21-2.6-.38-.51-.1-.51-.11-.28-.56.76-1.43 1.65-2.78 2.5-4.16.68-1.04 1.38-2.13 1.97-3.24a6.36 6.36 0 0 0 .29-.61c.19-.46.17-.48-.3-.67a.55.55 0 0 1-.34-.65 1 1 0 0 1 .17-.4c.44-.61.9-1.22 1.35-1.83a.57.57 0 0 1 .85-.21.53.53 0 0 0 .77-.15c.22-.27.43-.54.63-.82 3.78-5.62 7.64-11.17 11.46-16.77a.58.58 0 0 1 .56-.28h3.86c.34 0 .41.11.41.43q-.02 8-.02 15.99zm-3.85-11.37c-.17.19-.27.3-.37.42-1.23 1.61-2.39 3.28-3.54 5-1.61 2.34-3.24 4.66-4.73 7.08-.27.44-.26.46.26.54a64.75 64.75 0 0 0 8.25.61c.33 0 .29-.19.28-.39v-9.23c-.03-1.33-.01-2.58-.15-4.03zM8.65 78.32a14.8 14.8 0 0 1-1.86-.08c-.57-.07-.59-.08-.42-.62q2.7-8.2 5.4-16.39c.78-2.38 1.57-4.76 2.25-7.17.17-.61.16-.62-.49-.69-1.15-.13-2.31-.08-3.46-.15-.82 0-.83 0-.57-.8l8.15-23.07c.31-.89.63-1.77.93-2.66a.42.42 0 0 1 .45-.33 27.83 27.83 0 0 1 3.14-.08c.72.06.76.13.55.81-1.12 3.65-2.36 7.26-3.57 10.88q-1.64 4.92-3.28 9.85c-.19.56-.17.57.43.65 1 .13 1.91.06 2.86.14s1 .09.75 1.05c-2.62 8.53-5.47 17-8.27 25.45-.32 1-.65 1.91-.94 2.87a.42.42 0 0 1-.51.35c-.44-.02-.88-.01-1.54-.01z" />
    <path d="M53.02 44.62v-15.9c0-.51 0-.51.52-.51h2.07c.34 0 .45.07.45.43v8.84c0 3.84 0 7.68.1 11.51 0 .9.09 1.8.14 2.7 0 .11 0 .28.1.31s.22-.13.28-.24c.24-.41.47-.83.68-1.26 2.48-5.11 4.74-10.31 7.1-15.47l.58-1.33c.05-.12.1-.24.27-.24 1 0 2-.14 2.94-.1.62 0 .66.1.41.65-4.86 11-9.91 21.89-14.79 32.86-1.22 2.83-2.48 5.64-3.84 8.4a.52.52 0 0 1-.57.35c-.94 0-1.88 0-2.83-.07-.38 0-.4-.17-.26-.48 1.6-3.54 3.29-7 4.95-10.55.5-1.07 1-2.13 1.52-3.2a1.77 1.77 0 0 0 .18-.8v-15.9zM38.76 65.41v1a.39.39 0 0 1-.34.44l-12.25 3.18-10.28 2.67c-.25.06-.54.26-.75 0s0-.48.1-.71c1.91-5.9 4-11.75 6-17.62 2.24-6.51 4.5-13 6.74-19.51a1.13 1.13 0 0 1 1.09-.87c1-.07 1.94-.05 2.91-.06.39 0 .18.23.14.37-.74 2.2-1.47 4.4-2.23 6.51C27.26 48.54 24.51 56.23 22 64c-.25.78-.46 1.58-.7 2.36-.1.31 0 .38.29.34 1.05-.15 2.09-.38 3.12-.62 4.48-1 8.93-2.23 13.41-3.24.35-.08.47 0 .51.35a20.9 20.9 0 0 1 .13 2.22z" />
</svg>
