<svg xmlns="http://www.w3.org/2000/svg" viewBox="0 0 109.29 137.25">
    <title>pin-peppers</title>
    <path d="M69.37 49.99a.48.48 0 0 0 .29 0h11.83c.38 0 .32 0 .32.31v11.76c0 .23-.05.29-.29.29H70.18a.5.5 0 0 0-.27 0c0 .1.11.14.17.21l8.35 8.35c.24.24.24.24 0 .47l-8.29 8.32c-.16.16-.23.14-.38 0l-8.83-8.84a1.48 1.48 0 0 1-.15-.22l-.13.06v12.57c0 .22-.06.27-.28.27H48.65c-.24 0-.28-.08-.28-.29v-12.1a.77.77 0 0 0-.26.21l-8.46 8.42c-.14.14-.2.15-.35 0q-4.19-4.21-8.4-8.4c-.16-.16-.14-.24 0-.39l8.39-8.37a2.56 2.56 0 0 1 .23-.18.43.43 0 0 0-.32-.07H27.4c-.31 0-.31 0-.31-.31V50.23c0-.29 0-.29.29-.29h12.63a.42.42 0 0 0-.16-.24l-8.41-8.41c-.21-.21-.21-.21 0-.41l8.3-8.3c.21-.21.21-.21.43 0l7.95 8a.5.5 0 0 0 .24.18v-.27V29c0-.21 0-.3.28-.3h11.78c.22 0 .28 0 .28.27v12.31l.21-.19 8.42-8.39c.15-.15.22-.15.37 0L78 41c.14.14.14.21 0 .35l-8.46 8.46c-.07.04-.14.09-.17.18zM67.71 26.93l-2.41-.5-1.41-.28a.27.27 0 0 1-.23-.23q-.63-2.12-1.28-4.22a1.7 1.7 0 0 0-.92-1.21 1 1 0 0 0-.63-.15c-.22.06-.15.36-.19.55-.3 1.39-.59 2.79-.87 4.19 0 .15-.07.21-.23.17l-3.43-.71c-.15 0-.18-.08-.15-.23q1.24-5.93 2.46-11.85c0-.24.14-.26.34-.22l4 .84c1.12.24 2.25.43 3.35.75a6.12 6.12 0 0 1 1.37.55 3.1 3.1 0 0 1 1.49 3 3.79 3.79 0 0 1-.88 2.18 3.5 3.5 0 0 1-2.57 1.14h-.35l.46.31a2.4 2.4 0 0 1 .7.76 9.64 9.64 0 0 1 .93 2.51l.59 2.1.06.17.18-.26q3.07-4.75 6.14-9.51c.12-.19.2-.19.38-.08l8.3 5.36c.16.11.19.17.08.34-.41.61-.81 1.23-1.2 1.85-.1.15-.15.19-.32.08l-5.08-3.29c-.16-.1-.23-.09-.33.07-.26.44-.54.86-.83 1.28-.11.16-.11.23.07.34l4.69 3c.16.1.2.17.08.34-.39.58-.77 1.17-1.14 1.76-.1.16-.18.16-.33.06l-4.68-3c-.15-.1-.23-.12-.35.06-.36.58-.73 1.15-1.11 1.72-.09.14-.07.19.07.28l5.3 3.42c.15.09.16.15.06.29q-.67 1-1.32 2c-.09.14-.15.14-.28.05l-8.51-5.5c-.13 0-.27-.08-.07-.28zm-4.06-8.58h.19a1.2 1.2 0 0 0 1.2-1.48 1.12 1.12 0 0 0-.8-.85 19.13 19.13 0 0 0-2.34-.55c-.1 0-.12 0-.14.1l-.47 2.27c0 .09 0 .14.1.16a11.51 11.51 0 0 0 2.26.35zM44.02 26.08l-3.6 2.29c-.11.07-.18 0-.26 0l-3.72-2.07a4.73 4.73 0 0 0-.66-.31 1.64 1.64 0 0 0-1.56.3c-.13.09 0 .16 0 .23l1.91 3c.21.33.41.66.62 1 .07.1.06.15 0 .21l-3 1.92c-.16.1-.19 0-.25-.09l-3.8-6-2.7-4.27c-.07-.1-.12-.17 0-.27l5.94-3.73a7.26 7.26 0 0 1 1.62-.77 3 3 0 0 1 3.09.68 3.52 3.52 0 0 1 .84 4.18 4.22 4.22 0 0 1-.69 1 .45.45 0 0 0-.15.21l.49-.09a3.06 3.06 0 0 1 1.7.29 9.92 9.92 0 0 1 1.62.87zm-8.64-4a1.2 1.2 0 0 0-1.59-1.24 2.82 2.82 0 0 0-.58.27l-1.58 1c-.13.08-.1.15 0 .25l1.02 1.61c.22.34.22.34.55.13l.44-.28a6.34 6.34 0 0 0 1.41-1.12 1.07 1.07 0 0 0 .33-.67zM84.86 46.81c-.13 0-.11-.1-.12-.17-.19-.77-.37-1.55-.55-2.32-.08-.34-.15-.68-.25-1s0-.27.2-.32l5.82-1.38 5.84-1.39c.31-.07.31-.07.38.22.26 1.08.51 2.17.78 3.25 0 .18 0 .24-.17.29l-3.87.91c-.12 0-.17.07-.14.21q.46 1.89.9 3.79c0 .16.1.18.25.14l3.85-.93c.17 0 .24 0 .28.16.26 1.12.53 2.24.8 3.36 0 .16 0 .22-.16.26l-10.23 2.43c-.52.12-1.05.24-1.57.38-.18 0-.25 0-.29-.17q-.39-1.67-.79-3.34c0-.18 0-.23.17-.27l3.5-.83 1.08-.26c.14 0 .15-.08.12-.2q-.45-1.89-.9-3.79c0-.16-.1-.18-.25-.14L85 46.78zM69.3 84.53c.11 0 .1.1.12.17l.86 3 2.49 8.61c.1.33.14.28-.22.39l-3.23.94c-.17.05-.22 0-.26-.15-.36-1.28-.74-2.55-1.1-3.83 0-.16-.1-.18-.25-.14l-3.65 1.06c-.21.06-.23.14-.17.33.37 1.25.73 2.51 1.1 3.76.05.18 0 .23-.16.27q-1.66.47-3.32 1c-.17.05-.22 0-.26-.15q-1.68-5.83-3.37-11.65c-.05-.18 0-.24.16-.3q1.68-.47 3.34-1c.2-.06.2.06.23.17.43 1.48.86 3 1.28 4.44.06.2.12.24.32.18q1.8-.54 3.6-1c.19-.05.23-.1.18-.3-.44-1.48-.86-3-1.29-4.43-.05-.18 0-.24.16-.29l3.3-.95zM84.74 40.59a4.53 4.53 0 0 1-3.09-1.13 10.27 10.27 0 0 1-1.54-1.67q-1.55-2.14-3.12-4.27c-.11-.15-.12-.21 0-.33l9.78-7.15c.15-.11.22-.1.33.05 1.08 1.49 2.16 3 3.25 4.45a7.14 7.14 0 0 1 1.21 2.3 4.57 4.57 0 0 1-.72 4 9.8 9.8 0 0 1-4.47 3.46 4.76 4.76 0 0 1-1.63.29zm-.71-3.61a2.08 2.08 0 0 0 .88-.18 8.7 8.7 0 0 0 2.87-2.1 2 2 0 0 0 .29-2.41 11.18 11.18 0 0 0-.9-1.37c-.09-.14-.15-.16-.3-.05-.83.62-1.66 1.22-2.5 1.83l-2.72 2c-.07 0-.2.08-.09.22a12 12 0 0 0 1.29 1.59 1.6 1.6 0 0 0 1.17.47zM98.39 62.2a8.53 8.53 0 0 1-1.31 4.67 5.16 5.16 0 0 1-3.92 2.32 8.89 8.89 0 0 1-4.68-.8 5.18 5.18 0 0 1-3.19-4.58 8.66 8.66 0 0 1 1.13-5.11 5.16 5.16 0 0 1 4.12-2.59 8.21 8.21 0 0 1 5.21 1.09 5.28 5.28 0 0 1 2.61 4.14v.32s.03.37.03.54zm-7-2.24c-2.29-.09-3.56 1.42-3.1 3.26a2.26 2.26 0 0 0 1.49 1.57 8.07 8.07 0 0 0 2.88.58 2.76 2.76 0 0 0 1.55-.38 2.51 2.51 0 0 0 1.2-2.29 2.22 2.22 0 0 0-1.3-2 6.66 6.66 0 0 0-2.68-.73zM25.05 27.39l-.12.16q-1.79 2.41-3.59 4.82c-.13.18-.12.26.06.38.42.29.82.6 1.22.91.13.1.2.09.3 0l3.35-4.52c.11-.15.18-.17.33 0 .55.43 1.11.85 1.68 1.25.17.12.16.19 0 .35-1.12 1.49-2.22 3-3.34 4.47-.13.17-.09.24.06.35q.82.59 1.62 1.21c.14.11.2.09.3 0l3.73-5c.11-.15.17-.18.33-.06.64.49 1.3 1 2 1.46.11.08.12.13 0 .24l-6.12 8.22c-.09.12-.15.12-.27 0l-9.77-7.28c-.13-.09-.14-.15 0-.28l6-8c.1-.14.16-.15.3 0 .61.47 1.23.92 1.84 1.38.02-.17.08-.15.09-.06zM17.03 78.7c-.1 0-.1-.1-.12-.16l-1.53-3.4q-1.28-2.84-2.56-5.69c-.08-.17-.05-.24.12-.31.69-.3 1.37-.6 2.05-.92.17-.08.21 0 .27.11.82 1.84 1.65 3.68 2.47 5.52.09.19.16.21.34.13.45-.22.91-.43 1.37-.61.21-.08.2-.17.12-.35-.76-1.69-1.52-3.38-2.28-5.06-.08-.18-.08-.25.12-.33q1-.41 1.91-.86c.18-.08.24 0 .31.12L21.9 72c.07.16.13.21.31.12.62-.29 1.24-.57 1.87-.84.16-.07.17-.13.1-.29-.86-1.89-1.7-3.79-2.56-5.68-.09-.21-.05-.28.14-.36.72-.31 1.44-.64 2.16-1 .14-.07.2-.05.27.1q2.08 4.65 4.18 9.3c.07.15.05.21-.11.28l-11.1 5zM46.92 25.98a4.36 4.36 0 0 1-2.74-.69 4.88 4.88 0 0 1-1.78-2.53c0-.13 0-.19.12-.22l3.25-.84c.14 0 .17 0 .21.12a2.51 2.51 0 0 0 .79 1.18 2.35 2.35 0 0 0 2.77-.13 1.15 1.15 0 0 0-.4-2 5.37 5.37 0 0 0-1.66-.23 12.75 12.75 0 0 1-3-.37 3.94 3.94 0 0 1-1.64-.85 3.32 3.32 0 0 1 0-4.77 5.16 5.16 0 0 1 2.18-1.27 9.86 9.86 0 0 1 3.85-.53 3.62 3.62 0 0 1 3.32 2.71c0 .1 0 .13-.08.16l-3.28.85c-.13 0-.17 0-.21-.13a1.63 1.63 0 0 0-1.14-1.06 2.35 2.35 0 0 0-1.63.24 1 1 0 0 0-.37.36.76.76 0 0 0 .42 1.19 4.22 4.22 0 0 0 1.26.14 23.06 23.06 0 0 1 2.79.19 5.76 5.76 0 0 1 1.74.49 3.39 3.39 0 0 1 1.9 2.71 4.17 4.17 0 0 1-2.45 4.27 10.45 10.45 0 0 1-3.43.91 6.83 6.83 0 0 1-.79.1zM71.53 84.96a4.73 4.73 0 0 1 1.28-3.26 9.93 9.93 0 0 1 3-2.29 5.14 5.14 0 0 1 5.21.38 8.31 8.31 0 0 1 3.53 4.48 5 5 0 0 1-.67 4.62 8.62 8.62 0 0 1-3.56 3 4.73 4.73 0 0 1-4.26-.15c-.23-.11-.45-.25-.68-.37s-.13-.08 0-.18l2-2.54c.09-.11.15-.06.23 0a2.2 2.2 0 0 0 1.17.4 2.41 2.41 0 0 0 2.3-3.21 6.79 6.79 0 0 0-1.43-2.2 6.57 6.57 0 0 0-.82-.79 2.2 2.2 0 0 0-3.19.14 2.15 2.15 0 0 0-.6 2.31 4.72 4.72 0 0 0 .31.83c.06.12.05.18-.08.23l-3 1.2c-.13.05-.17 0-.22-.09a6.22 6.22 0 0 1-.52-2.51zM14.92 53.29a3.61 3.61 0 0 1 3.89 3 16.12 16.12 0 0 1 .27 2.49v.82s0 .17.18.16l4.09-.29c.41 0 .4 0 .43.36l.22 3.23c0 .19 0 .27-.24.29l-4.48.3-5.14.35-2.48.16c-.16 0-.2 0-.21-.19-.1-1.54-.2-3.08-.31-4.61 0-.55-.08-1.11-.11-1.66a5 5 0 0 1 .36-2.48 3.22 3.22 0 0 1 2.41-1.82 7 7 0 0 1 1.12-.11zm.25 6.76l1.23-.07c.17 0 .26 0 .22-.24a3.35 3.35 0 0 1 0-.41 4.47 4.47 0 0 0-.26-1.45 1.27 1.27 0 0 0-1.34-.8 1.29 1.29 0 0 0-1.23 1.13 9 9 0 0 0 0 1.81c0 .11.06.11.15.11zM21.14 82.84a3.49 3.49 0 0 1 .91-2.28 4.59 4.59 0 0 1 2.25-1.57 3.63 3.63 0 0 1 3.2.68 16.68 16.68 0 0 1 2 1.91c.13.13.26.25.38.39s.18.13.3 0l2.58-2.54c.15-.15.31-.29.45-.45s.17-.11.28 0l2.33 2.38c.25.26.25.26 0 .52l-8.52 8.36c-.16.16-.23.14-.38 0l-4.4-4.54a4.69 4.69 0 0 1-1.31-2.23 2.7 2.7 0 0 1-.07-.63zm3.59.92a1.34 1.34 0 0 0 .29.82 11.39 11.39 0 0 0 1.12 1.22c.07.07.11.07.18 0l1.84-1.8c.06-.06.08-.1 0-.17a6.82 6.82 0 0 0-1.44-1.28 1.36 1.36 0 0 0-1.99 1.21zM21.02 43.2a8.26 8.26 0 0 1-.45 2.39c-.14.47-.26.93-.41 1.4-.06.17 0 .22.15.27l4.06 1.18c.18.05.2.11.15.28-.33 1.1-.65 2.19-1 3.3-.05.19-.12.2-.29.15l-10.35-3.06-1.29-.41c-.11 0-.16-.05-.12-.19.63-2.14 1.26-4.28 1.9-6.41a4.64 4.64 0 0 1 .76-1.49 3.23 3.23 0 0 1 3.29-1.24 5.25 5.25 0 0 1 1.62.52 3.43 3.43 0 0 1 1.98 3.31zm-2.92 1.5a1.52 1.52 0 0 0-.15-.86 1.36 1.36 0 0 0-2.3-.08 7.69 7.69 0 0 0-.65 1.81c0 .08 0 .12.1.14l2.46.72c.1 0 .14 0 .16-.09a8.42 8.42 0 0 0 .38-1.64zM95.48 73.7l-.11.19-4.6 7.63c-.43.71-.86 1.41-1.28 2.13-.09.15-.15.16-.29.07q-1.13-.7-2.28-1.37c-.15-.09-.17-.14-.08-.29.61-1 1.2-2 1.82-3 .12-.2.08-.26-.1-.37l-7.71-4.64c-.16-.1-.17-.16-.07-.32q.9-1.45 1.76-2.93c.11-.18.18-.17.34-.08l7.7 4.65c.17.1.24.09.34-.08.59-1 1.21-2 1.8-3 .09-.15.15-.18.31-.08.76.47 1.53.93 2.3 1.39zM47.55 99.6h-.12l-3.36-.92c-.18 0-.2-.12-.15-.28l2.4-8.68c.05-.18 0-.25-.17-.31l-5.4-1.48c-.17 0-.22-.09-.16-.27.24-.84.47-1.69.7-2.54 0-.16.08-.22.27-.17l9.19 2.54c.17 0 .19.1.15.26q-1.62 5.85-3.24 11.71c-.01.02-.01.12-.11.14zM52.49 93.7c0-2 .05-4 .07-6 0-.22.05-.28.28-.28h3.37c.19 0 .26 0 .25.25q-.09 6-.16 12.08c0 .22-.07.26-.27.25h-3.4c-.18 0-.23 0-.22-.23 0-2 .05-4 .08-6zM40.92 84.24l-.07.13-6.12 10.55c-.07.12-.11.14-.24.07-1-.6-2-1.19-3.07-1.78-.19-.11-.08-.19 0-.28l3.83-6.61c.74-1.28 1.49-2.56 2.22-3.84.11-.2.19-.2.37-.09 1 .58 2 1.15 2.95 1.72.04.02.11.04.13.13z" />
</svg>
