<svg xmlns="http://www.w3.org/2000/svg" viewBox="0 0 109.29 137.25">
  <title>pin-beastieboys</title>
  <path d="M.89 54.85l4.91-2.74c1.29-.72 2.55-1.47 3.86-2.16a.88.88 0 0 0 .52-.92v-6.87-5.24c0-.57.2-.65.69-.65h20a3.74 3.74 0 0 1 .52 0 8.41 8.41 0 0 0 5.38-1.37c5.94-3.2 11.88-6.39 17.76-9.6a.79.79 0 0 1 .86 0c6.17 3.41 12.36 6.78 18.51 10.23a6.43 6.43 0 0 0 3.4.86c3.4-.06 6.8 0 10.19 0q5.72 0 11.43-.09c.51 0 .64.13.64.64 0 3.51.08 7 .14 10.53a5 5 0 0 1 0 1c-.22 1.11.35 1.64 1.28 2.11 2.61 1.35 5.18 2.8 7.86 4.27l-2.46 1.39-26.3 14.67c-8 4.46-16 8.9-23.94 13.39a1.79 1.79 0 0 1-2.06 0q-15.19-8.46-30.43-16.85L7.99 58.78l-6.52-3.59zm99-.76c.12.46-.06.63-.63.62H11.43c-1.26 0-1.28 0-1.28-1.25 0-.52-.19-.5-.55-.3-.71.4-1.43.78-2.12 1.19-.28.17-.78.21-.77.6s.46.42.74.58c2.73 1.54 5.49 3 8.21 4.6 4.77 2.73 9.59 5.38 14.4 8l13.1 7.25 11.12 6.14a1 1 0 0 0 1.14 0c.63-.41 1.31-.75 2-1.11q8.47-4.68 16.95-9.36 7.47-4.15 14.92-8.33l10.69-6 2.48-1.39c.27-.16.56-.39.14-.64-.78-.47-1.6-.87-2.4-1.29-.19-.1-.29 0-.29.18s-.02.29-.02.51zm-76.47-8.74c.22-.1.34-.17.47-.21 2-.75 2.43-2.57 1.9-4.35-.47-1.56-1.82-2-3.28-2.14-2.67-.23-5.35-.09-8-.12-.53 0-.76.2-.76.76v12.5c0 .43.21.58.61.58h3.38c1.69 0 3.37.08 5.06-.09 2.57-.26 3.85-1.9 3.41-4.43a2.54 2.54 0 0 0-1.2-1.77 9.14 9.14 0 0 0-1.59-.73zm22.42-6.82H43.1a.85.85 0 0 0-1 .74c-1.1 4.13-2.23 8.25-3.34 12.38-.17.63-.07.76.59.76h4.19c.46 0 .67-.13.7-.61s.15-.68.19-1 .26-.49.59-.49h.63c1.57 0 1.58 0 1.85 1.53.08.44.25.63.72.62h4.08c.6 0 .7-.13.56-.69-1.11-4.23-2.21-8.38-3.21-12.54a.78.78 0 0 0-.87-.7zm9.91 9.76h-2c-.5 0-.65.21-.63.67a3.66 3.66 0 0 0 2.4 3.33 11.73 11.73 0 0 0 5.56.46 5.47 5.47 0 0 0 3.5-1.62c1.24-1.29 1.58-4.61-.22-6a9.3 9.3 0 0 0-2.78-1.27 9.22 9.22 0 0 1-2.63-1 1.08 1.08 0 0 1-.3-1.35.92.92 0 0 1 1.11-.41.85.85 0 0 1 .62.83c.06.42.25.55.65.54h3.67c.45 0 .56-.17.54-.58a3.83 3.83 0 0 0-3.14-3.49 15.71 15.71 0 0 0-4.45-.2 4.29 4.29 0 0 0-4.13 3.18c-.59 2.24-.11 4.16 2.39 5 1.15.41 2.32.74 3.48 1.13a1.36 1.36 0 0 1 .76 2 .92.92 0 0 1-.88.47.82.82 0 0 1-.79-.58 2 2 0 0 1-.12-.68c0-.36-.16-.47-.5-.47-.72.05-1.41.04-2.11.04zm-28.43-2.91h-.1v6.22c0 .52.13.77.73.76h9.32c.52 0 .68-.19.66-.68v-2.09c0-.47-.18-.61-.62-.6h-3.79c-.93 0-.93 0-.93-.9 0-1.2.05-1.23 1.3-1.14a27.65 27.65 0 0 0 3.13 0c.35 0 .47-.16.47-.5v-2c0-.43-.16-.58-.57-.58h-3.38c-.95 0-1 0-1-1v-.23c0-.49.17-.75.76-.72 1.32.05 2.64 0 4 0 .59 0 .74-.22.71-.75a16.52 16.52 0 0 1 0-1.92c0-.58-.22-.74-.75-.74H28c-.53 0-.72.18-.72.71.05 2.05.04 4.11.04 6.16zm57.87-.18c0 2.18-.12 4.37 0 6.56 0 .58.24.73.77.72h9.14c.51 0 .8-.14.76-.74a16.93 16.93 0 0 1 0-2c0-.49-.18-.66-.64-.65H91.9c-1.42 0-1.39 0-1.42-1.44 0-.51.2-.63.64-.63h3.72c.39 0 .57-.09.55-.51v-2c0-.43-.15-.58-.58-.57h-3.14c-1.49 0-1.12.09-1.2-1.21 0-.59.2-.73.73-.72h4.07c.46 0 .62-.17.6-.61v-2.09c0-.5-.18-.63-.64-.63h-4c-1.8 0-3.6-.05-5.4 0-.54 0-.64.24-.63.7-.01 1.94-.02 3.88-.02 5.82zm-16.52-9c-.13-.24-.35-.3-.53-.4-.94-.54-1.89-1.06-2.83-1.59q-5-2.79-9.9-5.59a1 1 0 0 0-1 0c-.8.43-1.61.84-2.41 1.27l-7.2 3.88q-1.84 1-3.62 2.08c-.13.08-.32.15-.26.34s.23.09.35.09c1.4 0 2.79.06 4.19.06 5.24 0 10.47.08 15.71 0 2.31-.05 4.61 0 6.92 0a1 1 0 0 0 .56-.1zm3.1 2.39h-5.12c-.3 0-.61 0-.62.43v2.49c0 .4.21.53.59.51h1.8s.73.15.73.73c0 3 0 6-.06 9 0 .54.17.71.69.7h4.13c.42 0 .46-.24.46-.56v-4.65-4.36c0-.73.07-.78.81-.79h1.57s.63-.12.61-.59v-2.21c0-.45-.14-.61-.6-.61-1.63-.03-3.32-.05-5-.05zm11.75 7v-6.28c0-.42-.1-.62-.58-.65-1.28-.08-2.56 0-3.84 0-.78 0-.85.06-.85.87V51.8c0 .54.24.67.69.66h3.9c.54 0 .7-.19.69-.71-.04-2.05-.03-4.12-.03-6.15z"/>
  <path d="M55.37 59.57c-.13 3.78-.08 7.77-.11 11.76 0 2.07-.06 4.15 0 6.22a1.66 1.66 0 0 1-2.29 1.67 3.6 3.6 0 0 1-2.74-3.8c.06-4.49 0-9 0-13.49 0-1.2 0-2.4.1-3.6a3.94 3.94 0 0 1 .69-2.07 2.14 2.14 0 0 1 3.61 0c.66.95.76 1.44.74 3.31zm-2.26 7.52h.1v-3.61c0-1.63 0-3.26.06-4.89 0-.28 0-.66-.4-.66s-.39.37-.39.66c0 .89 0 1.78-.05 2.67v14c0 .36-.09.88.4.88s.31-.55.31-.83c-.02-2.71-.03-5.47-.03-8.22zM49.55 60.32v1.63a3.06 3.06 0 0 1-1.06 2.47c-.3.25-.39.52 0 .74a2.35 2.35 0 0 1 1.08 2.07 37.52 37.52 0 0 1-.26 8.1c-.18 1-.84 1.61-1.86.88-.74-.53-1.53-1-2.31-1.44a.9.9 0 0 1-.49-.85V59.54 56.4s.09-1 1-1h1.11a2.37 2.37 0 0 1 2.69 2.2 4.26 4.26 0 0 1 .12.74v2zm-2.77 9.14v2.56c0 .2-.08.5.19.55s.4-.25.47-.49a1.44 1.44 0 0 0 0-.4v-3.49a11.41 11.41 0 0 0-.08-1.39c0-.2-.16-.44-.41-.41s-.23.28-.23.46c.06.85.06 1.73.06 2.6zm0-8.65v2.08c0 .16 0 .37.2.42s.36-.13.41-.32a1.81 1.81 0 0 0 .07-.51v-2.37-1.39c0-.27-.09-.56-.37-.58s-.27.35-.28.53c-.02.7 0 1.41 0 2.13zM61.45 70.57v-2.15c0-.41.2-.53.57-.55 1.38-.1 1.39-.1 1.4 1.27v2.73c0 .27 0 .62.31.67s.51-.25.54-.56a7.5 7.5 0 0 0-.43-4 41.83 41.83 0 0 1-1.81-4.15 10.87 10.87 0 0 1-.17-6.74 2.16 2.16 0 0 1 2-1.71 2.39 2.39 0 0 1 2.35 1.87 6.07 6.07 0 0 1 .2 1.89c0 1.07-.06 2.13-.08 3.19 0 .34-.15.47-.49.5-1.33.11-1.32.11-1.44-1.17-.08-.82.11-1.62.05-2.43 0-.33-.06-.65-.1-1a.34.34 0 0 0-.35-.32.41.41 0 0 0-.39.28 3 3 0 0 0-.11 1 8 8 0 0 0 .76 4.39 21.42 21.42 0 0 1 1.81 4.12c.44 2 .59 4.12-.58 6a3.06 3.06 0 0 1-2.53 1.32 1.17 1.17 0 0 1-1.15-.82 5.39 5.39 0 0 1-.3-1 12.08 12.08 0 0 1-.06-2.63zM58.58 61.14a8.24 8.24 0 0 0 .38-1.73c.19-1 .34-2.1.51-3.16 0-.29.06-.64.41-.7a1.82 1.82 0 0 1 1.3.1c.26.16.16.47.13.7-.26 1.64-.55 3.27-.82 4.91s-.51 3.28-.8 4.92c-.6 3.46-.23 7-.33 10.43a1.1 1.1 0 0 1-.7 1.15c-1.33.62-1.32.65-1.32-.82v-8.19a52.19 52.19 0 0 0-.69-6.05c-.28-2.19-.62-4.37-.94-6.56-.06-.4.08-.6.49-.59h.12c1.44 0 1.33-.18 1.51 1.23.15 1.23.34 2.45.51 3.68a1.18 1.18 0 0 0 .24.68zM18.92 47.91a1.75 1.75 0 0 1 0-.35c.06-.29-.2-.69.23-.87a1.65 1.65 0 0 1 1.47.48 1.39 1.39 0 0 1 0 1.48 1.78 1.78 0 0 1-1.46.53c-.21-.05-.21-.2-.21-.35v-.93zM18.92 42.7a.4.4 0 0 1 0-.12c.11-.33-.27-.88.4-1a1.12 1.12 0 0 1 1.34.72 1 1 0 0 1-.65 1.4h-.17c-.82.21-.92.13-.92-.69v-.31zM45.99 42.28c.13.78.27 1.55.38 2.33s.2 1.61.32 2.41c0 .22 0 .33-.23.37a2.81 2.81 0 0 1-1.1 0c-.37-.06-.23-.4-.2-.62.21-1.39.44-2.78.66-4.18v-.34z"/>
</svg>