<svg xmlns="http://www.w3.org/2000/svg" viewBox="0 0 109.29 137.25">
    <title>pin-sinatra</title>
    <path d="M54.65 86.39a67.34 67.34 0 0 1-26.57-5.36 37.94 37.94 0 0 1-12.27-7.87 14.49 14.49 0 0 1-3.79-5.89 8.43 8.43 0 0 1 1.44-7.85 19.72 19.72 0 0 1 6.33-5.28 39.56 39.56 0 0 1 6.09-2.82 1.67 1.67 0 0 0 1.22-1.53c.44-3.77.72-7.57 1.53-11.29a19.93 19.93 0 0 1 1.54-4.8 2.79 2.79 0 0 1 2.84-1.76c4 .09 7.95-.84 11.86-1.72a87.54 87.54 0 0 1 9.46-1.76 18 18 0 0 1 17.08 7.16 53.24 53.24 0 0 1 7.6 14.29c.41 1.07.76 2.17 1.16 3.24.08.22 0 .79.62.41.21-.12.63.5.75.86a2.88 2.88 0 0 0 1.69 1.54 47.46 47.46 0 0 1 11.07 7.21 14.27 14.27 0 0 1 3.25 4.15 6.58 6.58 0 0 1-1 7.64 18.36 18.36 0 0 1-5.57 4.28 54.65 54.65 0 0 1-15 5.11 104 104 0 0 1-21.33 2.04zm26.31-30.92a12.29 12.29 0 0 1-4.31 3.11 52.82 52.82 0 0 1-18.42 4.24 53 53 0 0 1-13.33-.46c-6.52-1.17-13.06-2.07-18.83-5.66-.43-.27-.59-.19-.69.3a42.13 42.13 0 0 0-.65 4.37 3.22 3.22 0 0 0 1.58 3.33 24.67 24.67 0 0 0 5.72 2.94 34.81 34.81 0 0 0 6.11 1.41 104.83 104.83 0 0 0 22.66.47 46.52 46.52 0 0 0 13.25-2.92 16.65 16.65 0 0 0 5.6-3.42 2.72 2.72 0 0 0 .89-1.19 17.49 17.49 0 0 0 .72-4.88 4.39 4.39 0 0 0-.29-1.64z" />
</svg>
