<svg xmlns="http://www.w3.org/2000/svg" viewBox="0 0 109.29 137.25">
    <title>pin-crosby</title>
    <path d="M94.44 38.26a5.66 5.66 0 0 1-.83 1.16.4.4 0 0 1-.47.18 1.57 1.57 0 0 0-1.13.15 54 54 0 0 0-13.23 6.6c-3.48 2.41-6.76 5.08-10 7.74-2.8 2.27-5.57 4.59-8.41 6.81-3.39 2.65-6.84 5.22-10.26 7.82-.25.19-.46.38-.27.7.52.93 0 1.78-.24 2.61a15.05 15.05 0 0 1-4.95 6.32 33.39 33.39 0 0 1-3.63 2.35 23.29 23.29 0 0 1-6.37 2.43 16.87 16.87 0 0 1-5.27.32 17.3 17.3 0 0 1-3.73-.67 19.11 19.11 0 0 1-2.9-1.13 5.1 5.1 0 0 1-2.73-3.55 38.67 38.67 0 0 1-.84-6.86c-.1-2-.21-4.07-.23-6.11 0-2.39-.06-4.79 0-7.18V55.5a2.27 2.27 0 0 1 .9-2 18.28 18.28 0 0 1 6-3.11 26.5 26.5 0 0 1 5-1.21 12.38 12.38 0 0 1 4.76 0 2.21 2.21 0 0 1 1.36.95c1 1.45 1.89 2.91 2.86 4.35s1.93 3.05 2.85 4.6c.47.79.65.83 1.4.45q5.12-2.6 10.09-5.45c3.33-1.91 6.62-3.9 9.91-5.87a105.91 105.91 0 0 1 18-8.85c2.34-.86 4.71-1.61 7.06-2.41a8.55 8.55 0 0 0 1.5-.68 1.74 1.74 0 0 1 1.67.2 8.46 8.46 0 0 1 2.06 1.58z" />
</svg>
