<svg xmlns="http://www.w3.org/2000/svg" viewBox="0 0 109.29 137.25">
    <title>pin-templar</title>
    <path d="M93.48 44.34v25.68a70.79 70.79 0 0 0-8.94-3.93 98.84 98.84 0 0 0-22.76-4.47c-2.08-.19-2.5.53-2.33 2.44 1 10.87 3 21.46 8.29 31.45H42.1a76.06 76.06 0 0 0 3.75-8.64 95.63 95.63 0 0 0 4.53-23.17c.14-1.66-.36-2.2-2-2.05-11 .94-21.78 2.95-31.88 8.34V44.21c9.82 5.29 20.4 7.31 31.26 8.31 2.18.2 2.86-.31 2.64-2.57-1-10.71-2.9-21.18-8.08-30.8-.06-.11 0-.29 0-.57h25.5a82.37 82.37 0 0 0-3.75 8.56 96.48 96.48 0 0 0-4.57 23.2c-.15 1.71.26 2.39 2.11 2.22 10.88-1 21.51-2.82 31.25-8.15a2 2 0 0 1 .62-.07z" />
</svg>
