<svg xmlns="http://www.w3.org/2000/svg" viewBox="0 0 109.29 137.25">
    <title>pin-stones</title>
    <path d="M60.08 23.54c.66-.56 1.41-1.14 2.09-1.78a15.17 15.17 0 0 1 8.74-4.5c2.66-.3 5.25-.08 7.42 1.75a11.54 11.54 0 0 1 3.16 5c1 2.57 1.65 5.24 2.6 7.81a24.09 24.09 0 0 0 8.5 11.42 21.32 21.32 0 0 0 2.8 1.69c1.59.82 1.82 1.78.86 3.29a11.22 11.22 0 0 1-3.11 2.75 35.9 35.9 0 0 0-9.4 10.85 126.77 126.77 0 0 0-6.46 13.88 52.44 52.44 0 0 1-4.73 9.09 18.55 18.55 0 0 1-11.57 8.15 3 3 0 0 0-2 1.4 33.36 33.36 0 0 1-6.34 7.1 18.11 18.11 0 0 1-12 4.16 23.45 23.45 0 0 1-13.2-3.78c-5.26-3.52-8.17-8.54-9.44-14.65a25.25 25.25 0 0 1 .9-13 57.63 57.63 0 0 1 7-15 3.71 3.71 0 0 1 .54-.74 1.88 1.88 0 0 0 .33-2.54 37.93 37.93 0 0 0-5.54-9c-1.63-1.88-1.36-3.13.91-4.14A26.05 26.05 0 0 0 33 33.2c1.89-2.75 3.48-5.69 5.11-8.6 2.84-5.11 7.32-7.72 13-8.49 4.78-.65 7.48 2.06 8.66 6.14.11.54.24 1.03.31 1.29zm-2.6 18.16a5.73 5.73 0 0 0 2.38 3.2c3.19 1.91 8.21.91 10.68-2.14l.48-.57c.17.34.29.59.42.84a4.71 4.71 0 0 0 7.21 1.77c.67-.48.66-.48 0-1-.15-.12-.29-.26-.43-.4a41.91 41.91 0 0 1-3.57-4.42 9.76 9.76 0 0 0-5.9-3.93 10.8 10.8 0 0 0-5.23.36c-1.71.52-3.31 1.34-5 2a5.72 5.72 0 0 1-5.87-.62c-.93-.69-1.87-1.36-2.85-2a7.27 7.27 0 0 0-6.13-1 24.42 24.42 0 0 0-5.9 2.91c-.34.2-.24.45-.15.73A4.76 4.76 0 0 0 44.2 40c.41-.19.52-.14.65.28a5.34 5.34 0 0 0 3.66 3.86 8.6 8.6 0 0 0 6.72-.64 12.09 12.09 0 0 0 2.25-1.8zm-7.42 52a2.59 2.59 0 0 0 1.54-.47 6.88 6.88 0 0 0 2.3-2.71 70.83 70.83 0 0 0 4.31-11.21c.75-2.51 1.25-5.08 2-7.57a45.67 45.67 0 0 1 6.47-12.34 54.31 54.31 0 0 1 3.86-4.95.9.9 0 0 0 .22-1 .77.77 0 0 0-.67-.55 1.7 1.7 0 0 0-1 .27 19.15 19.15 0 0 0-4.84 3.75c-4 4.22-6.61 9.27-8.71 14.63-1.3 3.31-2.68 6.58-4.23 9.78-1.26 2.61-2.62 5.17-4.06 7.69a3.32 3.32 0 0 0 2.81 4.68zM25.32 78.92a7.79 7.79 0 0 0 .56 3.3 1.74 1.74 0 0 0 1.9 1.08 2.32 2.32 0 0 0 1.65-1.36 8.59 8.59 0 0 0 .82-2.54 43.8 43.8 0 0 1 2.4-8.7 54.7 54.7 0 0 1 8.52-15c.75-.93 1.56-1.82 2.32-2.74.24-.29.48-.63.23-1s-.62-.21-1-.12a4.25 4.25 0 0 0-.61.24 19.46 19.46 0 0 0-6.17 4.76A42.66 42.66 0 0 0 26.77 72a28.16 28.16 0 0 0-1.45 6.92zM57.2 22.7a2.73 2.73 0 0 0-.46-1.48c-1.65-2.71-4.75-3.46-7.69-1.77a6.64 6.64 0 0 0-3.51 3.94c-.26 1 .19 1.5 1.19 1.33a9.75 9.75 0 0 0 1.76-.47 2.62 2.62 0 0 1 2.2.17 17.89 17.89 0 0 0 2.37 1.09 3.21 3.21 0 0 0 4.14-2.81zm15.83-2.82a8.62 8.62 0 0 0-2.43.49 7.81 7.81 0 0 0-3.5 2.2 1.55 1.55 0 0 0-.25 1.88 1.62 1.62 0 0 0 1.8.76 5.51 5.51 0 0 0 1.25-.37 2.35 2.35 0 0 1 3 .65 1.71 1.71 0 0 0 .19.17 3.28 3.28 0 0 0 4.18-.16 2.66 2.66 0 0 0-.1-3.77 5.73 5.73 0 0 0-4.14-1.89z" />
</svg>
