<svg xmlns="http://www.w3.org/2000/svg" viewBox="0 0 109.29 137.25">
    <title>pin-pumpkins</title>
    <path d="M62.88 30.7c1.49-1.75 2.89-3.46 4.36-5.11a22.72 22.72 0 0 1 6.6-5.36 10.2 10.2 0 0 1 13.44 3.62 8.42 8.42 0 0 1 1.14 4.51 22.08 22.08 0 0 1-2 8.84c-1.82 4.39-4.68 8.11-7.52 11.84q-9.15 12-18.37 23.9A70.43 70.43 0 0 0 50.2 92.11a41.9 41.9 0 0 0-2.55 18.18 10.45 10.45 0 0 0 2.4 6c.38.44.79 1 1.43.3.18-.19.32 0 .4.12s.4.31.12.61a1.38 1.38 0 0 1-1.79.28c-1.13-.72-1.65-1.9-2.41-3.17.07 1.57.27 2.93.44 4.3a3.36 3.36 0 0 0 1.73 2.66c.37.22.21.38.1.64s-.35.27-.58.12a4.27 4.27 0 0 1-2.07-3 75.2 75.2 0 0 1-.69-7.77 24.42 24.42 0 0 0-1.08-4.56q-5.84-23-12-45.87a164.69 164.69 0 0 1-4-19.25 47.25 47.25 0 0 1-.36-14.53 17 17 0 0 1 5-10.1 14.48 14.48 0 0 1 8.36-3.64 16.11 16.11 0 0 1 11.1 2.58 21.57 21.57 0 0 1 9 14.41 1.26 1.26 0 0 0 .13.28zm-16.35 75.84c.18-2.13.24-4.27.61-6.37a65 65 0 0 1 6.12-17.47 78 78 0 0 1 8.39-12.69c6.71-8.78 13.66-17.39 20.12-26.37a31 31 0 0 0 5.49-12 10.9 10.9 0 0 0-.19-6.11 9.18 9.18 0 0 0-11.22-5.14 17.57 17.57 0 0 0-6.4 4.22c-2.29 2.21-4.16 4.78-6.26 7.15a1.17 1.17 0 0 0-.27.88 67.28 67.28 0 0 1-.21 7.8c-.06.59.07.77.65.92a4.79 4.79 0 0 1 4 4.66 15.17 15.17 0 0 1-.7 6.11 55 55 0 0 1-8.41 16.44A12.67 12.67 0 0 1 54 72.48a1.4 1.4 0 0 0-.77.89q-3.72 11.45-7.47 22.88c-.09.28 0 .73-.62.54s-.31-.51-.21-.8C49.6 81.7 54.09 67.43 58.81 53.2c1.9-5.73 3.33-11.5 3.27-17.58v-2.37a29.61 29.61 0 0 0-2.74 2.87c-.22.25-.36.4-.69.11s-.17-.47 0-.71c1-1.09 1.89-2.2 2.86-3.27a1.28 1.28 0 0 0 .35-1.06 18.36 18.36 0 0 0-.83-4 21.14 21.14 0 0 0-5.23-8.27 15.69 15.69 0 0 0-5.48-3.64 15.9 15.9 0 0 0-9.76-.58 12.79 12.79 0 0 0-8.19 6.15 21.25 21.25 0 0 0-2.61 10.25 55.83 55.83 0 0 0 .64 9.77 169.34 169.34 0 0 0 4.31 20.53c3.1 11.57 6.19 23.14 9.15 34.74q1.32 5.2 2.67 10.4zm7.42-35.07a15.19 15.19 0 0 0 3.6-3.53 56.21 56.21 0 0 0 7.72-14.51A16.23 16.23 0 0 0 66.44 46a4.06 4.06 0 0 0-3.29-3.83c-.48-.13-.64-.06-.7.46a31 31 0 0 1-1.36 6.25q-3.5 10.86-7 21.71a1.22 1.22 0 0 0-.14.88z" />
    <path d="M48.08 22.76a15 15 0 0 0 .31 4c.65 4.35 1.47 8.67 2 13q.81 7.1 1 14.26a86.43 86.43 0 0 1-.51 14.05 20.28 20.28 0 0 1-1 4.53 3.22 3.22 0 0 1-1.56 1.95 2.4 2.4 0 0 1-2.49-.28 10.8 10.8 0 0 1-4.08-5.29 12.61 12.61 0 0 1 1.37-12.28 19.1 19.1 0 0 1 4.43-4.19c.24-.18.5-.25.71 0s0 .5-.21.68a41.9 41.9 0 0 0-3.25 2.88 11 11 0 0 0-3 6.85 11.89 11.89 0 0 0 3.57 9.83 5.7 5.7 0 0 0 .62.52c1.63 1.27 2.61.51 3.2-1.13a22.32 22.32 0 0 0 1-5.13 113.92 113.92 0 0 0 .06-19.21c-.42-7.67-1.87-15.2-2.93-22.79-.12-.85-.21-1.71-.26-2.56 0-.38 0-.82.42-1s.71.08 1 .34a8.21 8.21 0 0 1 1.65 2.76 38.69 38.69 0 0 1 3.1 10.15 11.32 11.32 0 0 1 0 2.21 1.84 1.84 0 0 1-1.12 1.45c-.31.18-.37-.12-.48-.28s-.26-.34 0-.47c.75-.35.74-1 .73-1.7a19.18 19.18 0 0 0-1.11-5.54 42.63 42.63 0 0 0-2.75-6.82c-.09-.26-.26-.52-.42-.79z" />
</svg>
