<svg xmlns="http://www.w3.org/2000/svg" viewBox="0 0 109.29 137.25">
    <title>pin-lightfoot</title>
    <path d="M105.07 27.87c-.09.59.4 1.18-.54 1.26-.26 0-.39.38-.69.48s-.84.35-1.12-.33c.25.68-.12 1-.61 1.1a23.64 23.64 0 0 0-3.73 1.65c-2.39 1.13-4.82 2.17-7.22 3.26q-6 2.74-11.91 5.7c-2.62 1.31-5.22 2.67-7.77 4.13a.75.75 0 0 0-.43.85 25.17 25.17 0 0 1-.4 8.23 10.47 10.47 0 0 1-.59 1.77 2.13 2.13 0 0 0-.26.89c0 .59.16.66.69.4a20.27 20.27 0 0 0 2.39-1.18 1.1 1.1 0 0 0 .59-1.15 4 4 0 0 1 .39-2.27 1.44 1.44 0 0 1 1.09-.79c.35-.06.86-.09.74.59-.07.38.11.44.47.37.52-.11.66.08.48.63a6.45 6.45 0 0 1-1.21 1.9.62.62 0 0 0-.09.78c.15.25.37.32.51.06.83-1.45 2.44-2.12 3.41-3.43a2.17 2.17 0 0 0 .37-.91 5.06 5.06 0 0 1 2.77-3.54c.23-.12.51-.25.74 0s.15.41.1.7c-.09.46-.54.87-.17 1.43.23.35.4.66.88.67s.46-.38.61-.69a10.59 10.59 0 0 0 .55-6.79c-.23-1.1-.65-2.17-1-3.26-.12-.43-.56-.95.12-1.28s1.06 0 1.35.79a24.85 24.85 0 0 1 1.51 8.81 2.44 2.44 0 0 0 .19 1.09 3.62 3.62 0 0 1 0 2.48c-.17.61-1.09.68-1.53.14-.21-.26-.37-.55-.56-.84-.08.19-.12.46-.36.49-.6.09-.8.56-1.05 1a2.3 2.3 0 0 1-3.31.82.41.41 0 0 0-.62.05 9.46 9.46 0 0 1-2.14 1.77c-.16.09-.17.22-.23.37a2.07 2.07 0 0 1-3.15.93.64.64 0 0 0-.79-.07c-.93.57-2 .87-3.1 1.43.82 0 .83.52 1 1 .54 2.16 1.48 4.19 2 6.35a38.55 38.55 0 0 1 .82 6 .61.61 0 0 1-.39.64c-.26.12-.57.26-.82.06a3.58 3.58 0 0 1-1.27-1.48 51.64 51.64 0 0 1-2.28-8.15c-.24-1.21-.55-2.41-.86-3.78-.42.52-.72.92-1.05 1.29a2.64 2.64 0 0 1-2.05 1.08c-.28 0-.59 0-.64-.35s.23-.34.45-.41a2.77 2.77 0 0 0 1.3-1.11 16.74 16.74 0 0 0 1.45-2.47 1.07 1.07 0 0 0 .05-.72c-.47-2.61-.95-5.21-1.4-7.82-.08-.45-.17-.57-.62-.31-1 .59-2.07 1.13-3.11 1.69-.23.12-.56.2-.21.55.07.07.1.18 0 .23-.52.33-.3.84-.31 1.28a48.31 48.31 0 0 1-.57 6.58 15.36 15.36 0 0 1-.33 2.9c-.15.42.31.57.66.67h.26c.29.06.77-.27.83.22s-.47.49-.81.59a1.46 1.46 0 0 1-.92 0c-.67-.26-.9.14-1.13.63a6.25 6.25 0 0 1-1.4 2.25 6.92 6.92 0 0 1-3.44 1.31c-.19 0-.4 0-.6.1.12.49.53.79.78 1.2a8.86 8.86 0 0 1 .4 8.51 6.83 6.83 0 0 1-1.58 2.33 3 3 0 0 1-.77.63c-1.23.55-2.12.47-2.21-1.12a21.18 21.18 0 0 1 .51-4.64c.27-1.65.8-3.24 1.2-4.85 0 0 .07 0 .17-.11a5 5 0 0 1 .33 2.72c-.21 1.7-.43 3.4-.63 5.1a10.33 10.33 0 0 0 0 1.27c0 .15 0 .35.16.39s.27-.12.36-.24a8.79 8.79 0 0 0 1.58-4.33 7.27 7.27 0 0 0-1.18-5.15c-.23-.34-.46-.5-.87-.33a1.28 1.28 0 0 1-1 .1c-1.07-.49-2 .15-3 .25a.42.42 0 0 0-.39.39c-.6 2.76-3.93 4.47-7.2 3.27l-.24-.11c-.53-.29-.6 0-.51.42a23.23 23.23 0 0 1 .65 5 3.34 3.34 0 0 1-.48 1.84 1.89 1.89 0 0 1-3.2 0 24.21 24.21 0 0 1-2-5.5c-.44-1.5-.71-3-1.07-4.54-.28-1.15-.88-2.19-1.2-3.34a30.26 30.26 0 0 1-.9-8.47 76.3 76.3 0 0 1 1.74-16.1 3.85 3.85 0 0 1 .49-1.24.92.92 0 0 1 1.06-.49c.32.08.45.21.33.57a32.19 32.19 0 0 0-1.52 8.59 70.93 70.93 0 0 0 1.57 20 65.24 65.24 0 0 0 2.06 7.66c.23.69.58 1.35.87 2 .06.14.12.34.29.32s.2-.28.22-.43a15.38 15.38 0 0 0-.39-4.64c-.2-1-.39-2.1-.6-3.15-.08-.4-.11-.78.31-1a1.15 1.15 0 0 1 1.27 0c.32.24.6.53.91.78 1.32 1 2.74 1.6 4.39.84a3.3 3.3 0 0 0 1.79-2.59.53.53 0 0 0-.24-.57c-.24-.19-.77-.28-.46-.77a.93.93 0 0 1 1.3-.09 2.09 2.09 0 0 0 2.07.19.44.44 0 0 0 .32-.39 2.06 2.06 0 0 1 1.36-1.66c.26-.13.32-.25.2-.51a14 14 0 0 1-.89-7.67 40 40 0 0 1 4.34-14.82 20.77 20.77 0 0 1 2.21-3.48 2.44 2.44 0 0 1 1.35-.82 1.77 1.77 0 0 1 2.16 1.3 18.51 18.51 0 0 1 1.22 6.59v1.74c0 .35.07.53.45.32 1-.58 2-1.16 3.08-1.72.28-.15.28-.34.26-.61-.15-1.48-.3-3-.42-4.45a8 8 0 0 1 .19-2.39 1.43 1.43 0 0 1 2.24-.94 2.35 2.35 0 0 1 .91 1 16.81 16.81 0 0 1 1.36 4.18c.13.57.31.54.74.31 4.33-2.37 8.74-4.59 13.21-6.7 2.73-1.29 5.49-2.52 8.23-3.77a5.11 5.11 0 0 0 1.6-1c.82-.82 2-1 3-1.46 1.45-.63 2.93-1.22 4.42-1.78a3.53 3.53 0 0 1 1.3-.42.54.54 0 0 0 .44-.26c.15-.19.17-.17.35 0s.93.01 1.22-.47zm-44 19.16v-1.6a16.6 16.6 0 0 0-1-5.48c-.34-.8-.53-.84-1.06-.17a23.12 23.12 0 0 0-2.52 4.07 36.83 36.83 0 0 0-3.08 9.27 27 27 0 0 0-.6 8.35 8 8 0 0 0 1 3.43 2.28 2.28 0 0 0 1.84 1.19c.38 0 .66-.06.71-.5s.28-.61.57-.52c.63.2.89-.2 1.2-.57a12.62 12.62 0 0 0 1.52-2.28.73.73 0 0 0 0-.81 5 5 0 0 1-.67-1.71c-.22-1-.08-1.24 1-1.35.41 0 .54-.2.6-.61.26-1.81.36-3.63.44-5.45 0-.47-.11-.6-.57-.41a2.13 2.13 0 0 1-1.8.14 1 1 0 0 1-.66-.78c-.06-.41.28-.58.58-.73a18.06 18.06 0 0 1 1.75-.81 1 1 0 0 0 .79-1.17 11.93 11.93 0 0 1-.01-1.51zm6.31-5.6a33.69 33.69 0 0 0 .32 3.65c0 .38.16.47.5.27 1.58-.94 1.38-.43 1.05-2.14 0-.11 0-.22-.06-.33A14.35 14.35 0 0 0 68 39.36c-.07-.13-.14-.31-.33-.26s-.13.21-.16.34a8.23 8.23 0 0 0-.1 1.99zm1.78 11.87h.12c.06-.23.14-.46.19-.7a21.86 21.86 0 0 0 .32-5c-.08-1.67.09-1.53-1.37-.7-.27.15-.41.3-.35.62q.58 2.87 1.12 5.78zm12-.78c.06.37.15.68.47.81s.55-.1.73-.33a2.89 2.89 0 0 0 .35-.56c.21-.45-.24-.61-.42-.88-.08-.12-.21-.32-.36-.19a2.07 2.07 0 0 0-.77 1.15zm-9.87 10.7a18.73 18.73 0 0 0 1.21 4.64 17.61 17.61 0 0 0-1.22-4.65z" />
    <path d="M31.15 55.13a4.86 4.86 0 0 0-.72 2.67 6.59 6.59 0 0 1-1.28 4.2 2.28 2.28 0 0 1-1.9 1.06c-1.16 0-1.63-.3-1.72-1.46a10 10 0 0 1 1.61-6.09 3.19 3.19 0 0 1 2.51-1.38 7.07 7.07 0 0 0 1.8-.43c1-.36 1.4-.06 1.42.93v1.07c0 .2 0 .45.16.55s.34-.15.46-.29a23.54 23.54 0 0 0 3.16-4.52c.25-.45.47-.91.72-1.35.1-.17.2-.42.36-.47.87-.27.84-1 1-1.7q.68-3.06 1.39-6.12a3.55 3.55 0 0 1 .48-1.24.81.81 0 0 1 1-.42c.5.19.39.62.3 1-.27 1.08-.56 2.15-.86 3.22a33.63 33.63 0 0 0-.68 5.22 11.76 11.76 0 0 1-.71 3.29 2.51 2.51 0 0 0-.06 1.38c.06.43.28.51.64.22a12.48 12.48 0 0 0 1.78-2.07 2.74 2.74 0 0 1 .19-.28 4.61 4.61 0 0 0 1.32-3.93c-.07-.88.69-1.41 1.06-2.1a1.12 1.12 0 0 1 .26-.31c1.41-1.22 2.82-2.44 4.24-3.64a2.72 2.72 0 0 1 1.42-.54 1 1 0 0 1 1.19.92c0 .33.06.51.48.51s.76.35.92.83a15.05 15.05 0 0 0 1.46 3.28 3.39 3.39 0 0 0 3.1 1.87c.19 0 .46 0 .45.26s-.27.4-.51.45a4.06 4.06 0 0 1-3.94-1.1 7 7 0 0 1-1.25-1.8c-.08-.15-.13-.38-.34-.37s-.2.26-.25.42c-.14.47-.26.94-.41 1.41a1.79 1.79 0 0 1-.29.59 1.16 1.16 0 0 1-1.36.41c-.57-.18-.61-.63-.58-1.07a32.22 32.22 0 0 1 .57-3.89c.07-.35.11-.7.16-1.06 0-.1.05-.23-.07-.3s-.21 0-.29.1a17.2 17.2 0 0 0-2.43 2.47.36.36 0 0 0 0 .58 1.47 1.47 0 0 1 .45 1c.1.68.22 1.36.3 2a2.19 2.19 0 0 1-3 2.46c-.59-.18-.81 0-1.12.42a19.53 19.53 0 0 1-2.25 2.81 2.88 2.88 0 0 1-3.14.67.94.94 0 0 0-.93.11 2.26 2.26 0 0 1-2 .33c-.34-.12-.48.11-.67.3a3.43 3.43 0 0 1-1.83 1.26c-1.23.2-1.77-.21-1.81-1.45.03-.32.04-.58.04-.89zm-3.92 5.57a4.31 4.31 0 0 0 .06.66c0 .16 0 .4.24.43s.28-.19.36-.33a5.74 5.74 0 0 0 .58-1.4c.11-.4 0-.46-.42-.43-.74.07-.83.49-.82 1.07zm19-12.06a3.12 3.12 0 0 0-.86 1.22.65.65 0 0 0 .49.87c.42.14.62-.19.65-.55a3.52 3.52 0 0 0-.3-1.53zm-8.41 4.13a2.73 2.73 0 0 0-1.26 1.76c0 .11-.06.24.07.29a.27.27 0 0 0 .24-.06c.47-.54 1.08-1.06.93-1.98zM27.65 58.7c.34-.76 1.3-1.31.8-2.47a5.53 5.53 0 0 0-.8 2.47z" />
    <path d="M27.4 29.04c.86 0 1 .17.67 1-.52 1.37-1.12 2.71-1.7 4.05-1.58 3.65-3.06 7.35-4.49 11.06-.82 2.12-1.66 4.22-2.37 6.38-.4 1.22.35 2.18 1.58 1.89a8.5 8.5 0 0 0 4.34-2.83 6.66 6.66 0 0 1 1.69-1.5c.21-.12.45-.19.67-.29a.62.62 0 0 1 .77.24c.2.27-.12.42-.29.58a16.64 16.64 0 0 0-3 3.45 14.67 14.67 0 0 0-2.2 10.86c.51 2.55-.46 4.16-2.5 5.39a11.41 11.41 0 0 1-3.12 1.48c-.28.07-.65.19-.8-.1s.17-.55.42-.73a4.75 4.75 0 0 1 2-1 3.33 3.33 0 0 0 2.35-3.43 17.86 17.86 0 0 1 .21-8 20.59 20.59 0 0 1 1.21-3.1c.08-.17.27-.37.08-.54s-.33 0-.49.09a5.36 5.36 0 0 1-3.41.2c-.47-.15-.56.18-.66.45q-.52 1.4-1 2.83-.83 2.56-1.63 5.14c-.7 2.27-1.37 4.55-2.09 6.82-.5 1.56-1 3.13-1.6 4.66a21.45 21.45 0 0 1-1.06 3.22c-.84 1.45-1.16 3.12-1.9 4.62a4.64 4.64 0 0 1-1.41 2c-.16.11-.32.33-.52.16s.07-.31.14-.44a33.52 33.52 0 0 0 2.36-5.44q2.29-6 4.12-12.13t3.88-12.54a1.3 1.3 0 0 0 .1-.72 11.31 11.31 0 0 1 .34-5.54 60.5 60.5 0 0 1 5.41-13.83 18.14 18.14 0 0 1 2.46-3.64 1.92 1.92 0 0 1 1.44-.77zm-7.75 18.3c2-4.88 3.9-9.76 5.84-14.64a49.84 49.84 0 0 0-5.84 14.64zm-4.7 16.64a4.42 4.42 0 0 0 .7-2.19zM48.07 60.26a1.56 1.56 0 0 1-1.25-.92c-.16-.27.14-.34.34-.3a9 9 0 0 1 1.09.33c.3.11.65.29.57.63s-.51.15-.75.26z" />
</svg>
