<svg xmlns="http://www.w3.org/2000/svg" viewBox="0 0 109.29 137.25">
  <title>pin-bowie</title>
  <path d="M87.65 21.05a7.8 7.8 0 0 1-.88 1.22q-3.87 5.06-7.76 10.1c-1.92 2.5-3.82 5-5.74 7.5s-3.7 4.75-5.55 7.13c-1.1 1.42-2.17 2.85-3.26 4.27-.62.81-1.26 1.6-1.88 2.4-.07.09-.21.19-.13.31s.23 0 .34 0l7.28-1.28 7.76-1.41.91-.19c.11 0 .26-.09.33.06s-.07.19-.14.27l-2 2.18c-1.3 1.4-2.58 2.83-3.9 4.21-2.17 2.28-4.31 4.59-6.45 6.89s-4.13 4.38-6.19 6.58l-8.54 9.17-5 5.38-7.69 8.24-4 4.24-3.51 3.67c-.11.12-.19.27-.38.32-.1-.16 0-.29.08-.4.49-1 1-2 1.36-3 .53-1.32 1.11-2.62 1.68-3.93l3.11-7.28 3.88-9 3.46-8 3-7c0-.1.13-.21.05-.3s-.23 0-.34 0c-1.48.27-2.92.71-4.39 1.05-1.72.4-3.42.84-5.13 1.26-1.29.32-2.58.63-3.87.93-.51.12-.56 0-.39-.44.45-1.22.91-2.44 1.35-3.66 1.07-3 2.12-5.92 3.19-8.88l4.71-13 2.72-7.54 2.38-6.54 1.84-5.09a2.79 2.79 0 0 0 .08-.4z"/>
</svg>