<svg xmlns="http://www.w3.org/2000/svg" viewBox="0 0 109.29 137.25">
    <title>pin-irish</title>
    <path d="M58.24 69.7a19 19 0 0 0-.79 4.89 51.86 51.86 0 0 0 1.2 12.27c.91 3.67 2.36 7.08 5.29 9.68.36.32.68.69 1 1a3 3 0 0 1 .63 3.22c-.09.34-.29.24-.5.21a9.55 9.55 0 0 1-5-2.31c-2.84-2.43-4.36-5.64-5.51-9.08A29.09 29.09 0 0 1 53.48 79c.14-3.28.29-6.55.44-9.83 0-.34-.05-.46-.45-.39a2.53 2.53 0 0 0-2.42 2.28c-.93 4.13-1.43 8.35-2.32 12.49a12.2 12.2 0 0 1-6.08 8.73 8.46 8.46 0 0 1-4.34 1.14 31.12 31.12 0 0 1-5-.59 9.07 9.07 0 0 1-5.18-3.33 27 27 0 0 1-4.54-7.1 3.33 3.33 0 0 0-1-1.36 28.42 28.42 0 0 1-5.63-6.34 3.28 3.28 0 0 1-.67-2.16c.19-2.4.18-4.85 1.16-7.09a12.79 12.79 0 0 1 10.12-8 85.12 85.12 0 0 1 10.32-.57 35.79 35.79 0 0 0 4.76-.41 1.65 1.65 0 0 0 .92-.39c.25-.25.72-.44.65-.8s-.54-.64-1-.74a26.71 26.71 0 0 0-3.36-.45c-3.79-.37-7.58-.64-11.34-1.31a22.18 22.18 0 0 1-8.6-3.41 10.21 10.21 0 0 1-3-3.13 7 7 0 0 1-.67-3.44 10.72 10.72 0 0 1 3.81-8.84 33.46 33.46 0 0 1 5.06-4.07 1.16 1.16 0 0 0 .31-.39 48.87 48.87 0 0 1 6.55-8.25 13.32 13.32 0 0 1 7.78-4.11 9.85 9.85 0 0 1 5.44 1.13c4.45 2 6.63 5.58 7.17 10.32s1.15 9.27 1.74 13.9a8.49 8.49 0 0 0 .24 1 .46.46 0 0 0 .53.37c.27 0 .36-.17.44-.4a10.92 10.92 0 0 0 .39-2.57c.24-2.62.4-5.24.62-7.86.18-2.09.38-4.17.59-6.26a4.57 4.57 0 0 1 .73-1.73 19.41 19.41 0 0 1 7.27-7.48c4.91-2.87 10.07-2 13.85 2.32 1.3 1.49 2.32 3.2 3.54 4.75a12.23 12.23 0 0 0 3.1 2.79c1.24.78 2.51 1.55 3.69 2.42 3 2.22 4.59 5.11 4.05 9a36.45 36.45 0 0 1-.7 3.9 10.76 10.76 0 0 1-4.13 6 24.32 24.32 0 0 1-12.71 5.23c-3 .27-6.07.72-9.11 1.09a2.2 2.2 0 0 0-.49.11c-.3.11-.61.24-.55.64a.68.68 0 0 0 .68.63c.79 0 1.59.13 2.38.12 3.21 0 6.42-.13 9.62-.09a34 34 0 0 1 7.54.69 11.91 11.91 0 0 1 9 7.43 8.9 8.9 0 0 1 .32 3.86c-.06 1.13-.27 2.25-.39 3.37a12.24 12.24 0 0 1-2 5.05 1 1 0 0 1-.43.37 11.13 11.13 0 0 0-3.71 3.59 32.46 32.46 0 0 0-2.85 4.86 14.47 14.47 0 0 1-3.27 4.44A10.89 10.89 0 0 1 79 92.44a9.58 9.58 0 0 1-9.3-1.38 26.3 26.3 0 0 1-7.42-8.3 14.75 14.75 0 0 1-1.33-4.55 76.34 76.34 0 0 0-2.32-8 .71.71 0 0 0-.39-.51z" />
</svg>