<svg xmlns="http://www.w3.org/2000/svg" viewBox="0 0 109.29 137.25">
    
    <title>pin-hip</title>
    <path d="M25.21 57.98a1.6 1.6 0 0 1 1.36-.71 14 14 0 0 0 1.52-.2c.73-.14 1.45-.43 2.18-.52s1.42-.43 2.18-.52a12.43 12.43 0 0 0 1.66-.47c.83-.22 1.65-.49 2.45-.76 1.19-.41 2.42-.74 3.59-1.24a17.77 17.77 0 0 1 3.32-1.17c.17 0 .38 0 .46-.26a.31.31 0 0 1 .27-.17 17.55 17.55 0 0 0 2.17-.81 16.24 16.24 0 0 1 1.79-.68 6.74 6.74 0 0 0 1.16-.56c1.35-.55 2.66-1.21 4-1.72 1.12-.42 2.19-1 3.33-1.35.91-.3 1.75-.81 2.63-1.2s1.6-.67 2.39-1c1-.47 2.17-.75 3.18-1.26.71-.35 1.46-.54 2.17-.89a15 15 0 0 1 2.31-.86 2 2 0 0 0 .5-.23c.36-.23.8-.18 1.16-.37 1.06-.54 2.23-.76 3.33-1.21.67-.27 1.4-.4 2.08-.67s1.17-.31 1.74-.54a15.92 15.92 0 0 1 1.71-.45c1.1-.3 2.21-.57 3.32-.8.63-.13 1.29-.21 1.91-.34.83-.18 1.67-.3 2.5-.43s1.76-.16 2.62-.32c1.06-.2 2.12 0 3.17-.15a6.26 6.26 0 0 1 1-.13c.16 0 .36 0 .32.21s0 .51-.25.48c-.73-.08-1.49.31-2.18-.15-.12-.08-.21 0-.3.07a2.31 2.31 0 0 1-1.51.18c-.15 0-.19.1-.22.2a.22.22 0 0 0 .19.28 2.91 2.91 0 0 1 .95.37 6.8 6.8 0 0 1 2.44 2.33 5.25 5.25 0 0 1 .87 2.41 4 4 0 0 1-.33 1.33.36.36 0 0 1-.11.2c-.2.13 0 .56-.28.5s0-.37-.08-.55a1.09 1.09 0 0 0-.39-.63 1.43 1.43 0 0 1-.68-1.27c0-.21-.21-.24-.35-.13a.57.57 0 0 1-.81-.12.75.75 0 0 1 0-.88 1.32 1.32 0 0 0 .07-1 2.74 2.74 0 0 0-.53-1.31c-.15.15-.1.3 0 .47a1.16 1.16 0 0 1-.35 1.35c-.1.07-.23.15-.26 0-.05-.34-.25-.26-.46-.23a.86.86 0 0 1-.76-.26c-.08-.08-.19-.12-.15-.25s.15-.1.24-.12c.7-.12 1-.41 1-.89a1.53 1.53 0 0 0-1-1.16 7.39 7.39 0 0 0-2.76 0 2.68 2.68 0 0 1-1.39.1.1.1 0 0 0-.09 0c-.59.52-1.39.31-2 .57a20.53 20.53 0 0 1-2.53.65c-.49.13-1 .48-1.53.37a.25.25 0 0 0-.32.21c0 .21.23.16.33.14a13.11 13.11 0 0 1 2.88-.08 8 8 0 0 1 3.11.57c.54.24 1.12.42 1.67.66a22.28 22.28 0 0 1 2.19 1.41c.75.43 1.14 1.16 1.78 1.67a4.89 4.89 0 0 1 1.1 1.54c.42.78.95 1.51 1.33 2.32a20 20 0 0 1 1.1 3.15 25.46 25.46 0 0 1 .6 3.16 8.89 8.89 0 0 1-.13 2.16c-.07.72-.31 1.42-.43 2.14a6.64 6.64 0 0 1-.46 1.39c-.07.17-.13.35-.19.53a15.31 15.31 0 0 1-1.12 2.17 7.34 7.34 0 0 1-1.14 1.64 21 21 0 0 1-1.8 1.95 19.39 19.39 0 0 1-2.29 1.64c-.46.27-1 .48-1.48.72-.81.39-1.67.59-2.49.92a13.23 13.23 0 0 1-1.49.34 8.66 8.66 0 0 1-2.29.19 14.34 14.34 0 0 1-2.17-.08 8.34 8.34 0 0 0-1.79-.37c-.26 0-.57-.22-.88-.27s-.25 0-.32.19a1.77 1.77 0 0 0 0 .95c.12.64-.2 1.26 0 1.91.14.39-.11.87-.05 1.33.09.78-.06 1.57.09 2.35a12.35 12.35 0 0 1-.08 1.34v1.67a11.33 11.33 0 0 1 0 1.76 15.13 15.13 0 0 0 0 1.61v2.18c0 .17-.14.19-.22.27a7.59 7.59 0 0 0-1.28 1.23 1.3 1.3 0 0 0-.19.42 13.18 13.18 0 0 1-.32 1.37 1.45 1.45 0 0 0 .15 1.07 7.83 7.83 0 0 0 .31.77c.15.26 0 .39-.23.4H71c-1.53 0-3.06.06-4.59 0-.18 0-.21 0-.21-.19v-2.25-1.52c0-1-.06-2.08 0-3.13.05-.82-.1-1.65-.06-2.47.07-1.22 0-2.44 0-3.65v-1.72-3.61-2.51-2.42-1.68c-.06-1.37 0-2.74 0-4.11v-2.87c.06-1.33 0-2.67 0-4a7.11 7.11 0 0 1 0-1.51 7.33 7.33 0 0 0 0-1.68 25.45 25.45 0 0 1 0-3.34 5 5 0 0 0 0-.73c-.07-.79.1-1.57 0-2.36-.05-.43-.28-.4-.49-.3-.91.44-1.86.78-2.79 1.15-.45.18-.88.37-1.34.54a1.19 1.19 0 0 0-.66 1.42 12.8 12.8 0 0 1 .06 2.38v2.18a25.82 25.82 0 0 1-.05 3c0 .55.08 1.1.07 1.66v7.01a2.09 2.09 0 0 0 .15 1.1c.12.21-.09.34-.09.53 0 1.74-.08 3.48 0 5.22.06 1.29-.11 2.59-.05 3.88.07 1.45-.05 2.9.09 4.34a18.25 18.25 0 0 1-.06 2.12v1.87c-.05 1.21.1 2.42 0 3.63s0 2.36 0 3.54c0 .4 0 .57-.54.55-.93 0-1.87.08-2.8 0-1.5-.07-3 0-4.49 0-.26 0-.18-.17-.17-.29v-2.38-3.81-4.91c0-1.49 0-3-.06-4.47a15.63 15.63 0 0 1 0-2 20.78 20.78 0 0 0 0-2.28c0-.85.07-1.7 0-2.56-.11-1.06 0-2.14 0-3.21s.07-2 .06-3v-5.26-2.18c.06-1.3-.08-2.59 0-3.88 0-.35-.12-.41-.38-.3l-3.54 1.53a6.62 6.62 0 0 0-.94.37.73.73 0 0 0-.43.73v5.32c0 1 .1 2 0 3a13.58 13.58 0 0 0 .07 1.94c0 .73-.11 1.44 0 2.17.11 1.11 0 2.22 0 3.34a18.53 18.53 0 0 1 0 2.44c-.11 1 0 2.1 0 3.14 0 1.42-.09 2.84 0 4.25.06 1 0 2 0 2.94.07 1.41 0 2.82 0 4.23v2.64c0 .73-.08 1.47 0 2.21 0 .25-.24.19-.39.22a11.41 11.41 0 0 1-2.18 0h-5.06c-.28 0-.42 0-.41-.39v-2.84-2.19-2.78s.1-2 0-3.06c-.08-.78 0-1.58 0-2.37v-3.4c0-.45-.17-.59-.63-.58h-4.62c-1.12 0-2.24.07-3.36.06s-2 0-3 0h-1.73c-.28 0-.39.14-.42.44-.1 1.36 0 2.71 0 4.06v8.15c0 1.49 0 3-.07 4.49 0 .29-.13.45-.47.43h-7.08c-.29 0-.39-.07-.4-.4 0-.58-.08-1.19-.06-1.76 0-1-.05-1.92 0-2.88.05-.73-.05-1.47 0-2.19s-.06-1.52 0-2.28v-1.55a10.74 10.74 0 0 1 0-1.55 9.5 9.5 0 0 0 0-1.23v-3.28V70v-3-3.17a12.72 12.72 0 0 1 .05-1.79c.05-.44-.05-.9 0-1.36v-2.29c0-.21.17-.16.27-.14a14.19 14.19 0 0 0 2.73-.12 3.68 3.68 0 0 0 1.45-.21c.22-.11.43 0 .65 0a14.47 14.47 0 0 0 1.85-.27c.21-.08.42-.09.33.33zm61.44-3.72a7.85 7.85 0 0 0-.83-3.08 8.41 8.41 0 0 0-1.34-2.14 8.43 8.43 0 0 1-.64-.6 2.88 2.88 0 0 0-1-.79 12.47 12.47 0 0 0-1.93-.74c-.23-.08-.34.14-.56 0a4 4 0 0 0-2.3-.1c-.46.06-1 0-1.37.43-.64-.16-1.18.2-1.75.34-.34.09-.71.18-.64.73a3.51 3.51 0 0 1 0 1.25 7.1 7.1 0 0 0 0 1.11 31.51 31.51 0 0 0 0 4 17.36 17.36 0 0 1 0 2.21v1.54c-.07.88 0 1.79 0 2.69 0 .34 0 .69.43.75.6.08 1.11.44 1.72.53a3.28 3.28 0 0 1 .91.15 4.29 4.29 0 0 0 2.48-.07 6.23 6.23 0 0 0 1.33-.36 3.61 3.61 0 0 0 1.28-.62 19.74 19.74 0 0 0 1.62-1.34c.38-.46.81-.89 1.15-1.38a10 10 0 0 0 1-2.11c.13-.34.25-.7.38-1a4.11 4.11 0 0 0 .06-1.4zm-60.82 9c0 .74.1.89.66.88h12.6c.33 0 .45-.14.46-.44v-1.58c.06-1 0-2 0-3v-4.16c0-.39-.12-.43-.42-.36a4.45 4.45 0 0 0-.45.14c-.87.3-1.75.55-2.62.87s-1.7.38-2.51.72-1.64.35-2.43.65a18.23 18.23 0 0 1-1.94.46c-.94.23-1.9.34-2.86.49a.58.58 0 0 0-.53.64v1.82c.03.98.11 1.93.08 2.89zm67.31-23.07v-.09a3.17 3.17 0 0 0-1.37-1.93.15.15 0 0 0-.21 0 .16.16 0 0 0 0 .25 5 5 0 0 1 .84 1.89c.08.24.2.37.42.33s.31-.24.36-.43zM42.25 22.7c.41-.09 1.07.07 1.74 0 .37-.06.78.11 1.19.08.72-.06 1.44 0 2.16 0 .21 0 .36.06.34.28a16.8 16.8 0 0 0 0 2c0 .2-.07.26-.28.26-1.28 0-2.57 0-3.85.05-.64 0-.62 0-.66.65s.14 1.06.06 1.59a.22.22 0 0 0 .14.23.65.65 0 0 0 .4.08c.92-.1 1.83 0 2.75 0 .22 0 .24.08.26.27.07.72 0 1.44.07 2.17 0 .33-.41.3-.54.27-.56-.11-1.11.09-1.65 0-.33 0-.64.08-1 0a.5.5 0 0 0-.54.53c.11.7 0 1.4.07 2.1 0 .38.31.39.53.37 1.19-.11 2.38 0 3.57 0 .52 0 .72.35.6 1.09-.06.34 0 .67 0 1s.25.53.61.36a20.51 20.51 0 0 1 3.43-1.33c.28-.08.42-.41.78-.41.12 0 .22-.08.35 0s.21.1.29 0c.4-.62 1.13-.64 1.69-1 .88-.49 1.85-.8 2.76-1.23a15.42 15.42 0 0 1 2-.86c.12 0 .32 0 .34-.18a.29.29 0 0 0-.31-.3c-.6 0-.86-.45-1.14-.89a.4.4 0 0 0-.62-.16c-.3.21-.62.39-.93.6a6.14 6.14 0 0 1-1.31.51 2.45 2.45 0 0 1-2.48-.84 4.92 4.92 0 0 1-.72-1.15c-.12-.31-.55-.39-.86-.39a2.37 2.37 0 0 1-2.13-1.75 5.82 5.82 0 0 1-.25-1.48 2.3 2.3 0 0 1 .54-1.28 5.5 5.5 0 0 1 .68-.82c.45-.46 1-.32 1.49-.36a1.51 1.51 0 0 1 1.39 1 1.3 1.3 0 0 1-.26 1.17.9.9 0 0 1-1.34 0c-.21-.28-.63-.57-.21-1v-.16s-.12 0-.17.08a1.43 1.43 0 0 0-.58 1.15 2.71 2.71 0 0 0 .95 2c.31.27.43.2.51-.18 0-.22 0-.57.31-.58s.23.36.28.55a1.87 1.87 0 0 0 1.7 1.56c.15 0 .33 0 .38-.17s-.14-.17-.23-.24a2.65 2.65 0 0 1-.47-.65v-.2a.55.55 0 0 1 .44.07 2.76 2.76 0 0 0 2.75.39c.1 0 .23-.06.22-.21s-.15-.15-.25-.18a1.89 1.89 0 0 1-.86-.37c-.18-.17-.34-.33-.24-.53s.33 0 .46 0a3.39 3.39 0 0 0 2.73-.08c.13 0 .33-.14.32-.31s-.25-.13-.38-.17c-.31-.11-.7 0-.92-.36-.06-.1-.33-.1-.24-.27a.47.47 0 0 1 .43-.16 2.8 2.8 0 0 0 1.06.13 4.86 4.86 0 0 0 2.35-.34c.08 0 .22 0 .2-.16s-.16-.09-.27-.08a2.17 2.17 0 0 1-1-.32.36.36 0 0 1-.16-.49c.09-.27.26 0 .37 0a4.75 4.75 0 0 0 2.87.21 1.83 1.83 0 0 1 .56 0c.13 0 .24.17.37 0a.5.5 0 0 0 .08-.48c-.05-.16-.32-.34-.14-.48s.4.06.6.12a14.47 14.47 0 0 0 1.61.38 11.07 11.07 0 0 1 3.91 1.3 2.86 2.86 0 0 1 .91.85c.4.61.66.66 1.35.44.91-.3 1.83-.59 2.74-.9a14.53 14.53 0 0 0 2.27-.76 5.76 5.76 0 0 1 1-.2 44.48 44.48 0 0 1 4.36-1.1c1.85-.39 3.72-.66 5.59-.88.91-.11 1.81-.16 2.73-.2s1.6-.16 2.4-.17c.4 0 .54.21.37.53s-.3.14-.46.14a23.07 23.07 0 0 0-3.39.15c-.74.11-1.49.08-2.24.26a9.31 9.31 0 0 1-2.07.24 5.08 5.08 0 0 0-1.14.22 2.61 2.61 0 0 1-1.58.12.23.23 0 0 0-.25.08c-.37.37-.88.31-1.32.46-.6.21-1.23.23-1.83.43-1 .31-1.91.64-2.88.85-1.4.31-2.71.86-4.06 1.28a42.81 42.81 0 0 0-4 1.51c-.55.24-1.13.41-1.69.62-.78.3-1.56.6-2.33.92-1.8.75-3.6 1.48-5.38 2.26-1.05.46-2.11.91-3.14 1.43a21.1 21.1 0 0 1-2 .78c-.67.26-1.32.58-2 .85s-1.34.56-2 .81-1.21.57-1.83.84c-.88.37-1.76.73-2.65 1.09-.43.17-.88.29-1.29.49a27.42 27.42 0 0 1-2.81 1.1c-.8.3-1.61.58-2.42.87s-1.71.49-2.52.83-1.68.43-2.47.81a7.9 7.9 0 0 1-1.39.37c-1.19.33-2.42.52-3.6.87a31.27 31.27 0 0 1-4.28.71c-.89.14-1.78.31-2.67.39s-1.55.09-2.3.19a19.7 19.7 0 0 1-2.43.13c-.27 0-.42-.1-.43-.34s.24-.25.41-.26h1.68s.5-.44.49-.67c0-.78.1-1.56 0-2.35a10.49 10.49 0 0 1 0-2.07c.05-.62-.07-1.23 0-1.84s0-1.38 0-2.08a11.65 11.65 0 0 1 0-1.7 13.34 13.34 0 0 0 .06-1.4 11.85 11.85 0 0 0 0-1.91c-.08-.85 0-1.7 0-2.56a3.57 3.57 0 0 1 0-1c.08-.33-.15-.49-.46-.5h-1.75c-.32 0-.58 0-.45-.5a2.71 2.71 0 0 0 0-1.29c-.11-.45.18-.82.09-1.24 0-.15.06-.16.21-.14.91.12 1.82 0 2.73 0 1.28.11 2.57-.13 3.85 0a2.39 2.39 0 0 0 .78-.08c.64-.13.91.07.93.71s0 1.33.05 2c0 .39-.21.53-.53.48-.62-.11-1.24 0-1.86 0-.2 0-.27.12-.28.3 0 1-.1 2-.05 3V39.25a12.55 12.55 0 0 0-.01 2.45 6 6 0 0 1-.06 1c0 .66.18.81.82.71 1-.14 2-.44 3-.54.5 0 .68-.36.65-1.11v-3.3a10.38 10.38 0 0 0 0-2c-.12-.79 0-1.56 0-2.34-.1-1.07 0-2.13 0-3.2v-2.84-2.85c0-.77.07-1.55 0-2.31 0-.24.1-.3.27-.27a5.17 5.17 0 0 0 1.48-.08.65.65 0 0 1 .32.06c.19.07.32.19.53 0s.63.17.62.51v4.63c0 .85.09.9.95.87h1.73c.33 0 .54-.13.51-.46-.08-.79.09-1.57.06-2.37a21.4 21.4 0 0 1 0-2.66c.05-.55.24-.39.52-.41.77-.07 1.55 0 2.33-.12a.38.38 0 0 1 .48.42v16.63c0 .35.27.45.64.23a1.19 1.19 0 0 1 .57-.25.39.39 0 0 0 .33-.52.49.49 0 0 1 0-.19c.06-1 .06-1 1.37-.94a21 21 0 0 0 2.8 0 6 6 0 0 0 1.29-.45 9.46 9.46 0 0 1 1.73-.76c.16 0 .35 0 .35-.21s-.24-.18-.36-.18h-1.86s-1.5-.06-2.25-.07-1.46 0-2.19 0c-.56 0-.61-.05-.62-.61 0-1 0-2.07-.05-3.11v-2.36-3.77c0-1 .06-2.08 0-3.12 0-.47.19-.63.6-.64.57-.02 1.15-.02 1.98-.02zM31.4 35.3a4.61 4.61 0 0 1 0 1.25 8.87 8.87 0 0 0 0 1.55c0 1.06.05 2.14 0 3.21 0 .4.24.67.58.53.78-.32 1.6-.45 2.39-.69a.45.45 0 0 0 .36-.56 3.43 3.43 0 0 1 0-1.11 11.32 11.32 0 0 0 0-2c0-1-.08-1.91 0-2.87.08-.79-.09-1.6 0-2.4a.41.41 0 0 0-.35-.48h-2.74c-.18 0-.2.11-.19.25-.01 1.07-.14 2.19-.05 3.32zM63.1 27c-.58.55-.5 1.39-1 2-.14.18-.18.54-.34.78a.27.27 0 0 0 0 .34.22.22 0 0 0 .3.06c.32-.17.71-.22 1-.38a23.46 23.46 0 0 1 2.23-1c.82-.34 1.69-.6 2.51-.93 1.12-.45 2.28-.81 3.37-1.33.26-.12.71-.1.77-.34s-.39-.38-.59-.58a2.49 2.49 0 0 0-2.55-.33 9.13 9.13 0 0 0-2.09 1.67 3.27 3.27 0 0 1-1.47 1 2.08 2.08 0 0 1-2.13-.96zm3.18-2.78a2.24 2.24 0 0 0-1.82.79 1.59 1.59 0 0 0-.62 1.06c0 .3.31.3.26.54s.16.36.38.42a1.49 1.49 0 0 0 1.5-.33c.34-.27.56-.65.92-.9a6.7 6.7 0 0 1 2.23-1.1c.09 0 .2 0 .2-.14s-.11-.12-.19-.16c-.35-.18-.7 0-1.05 0a2.86 2.86 0 0 0-2.17 1.06c-.18.21-.31.46-.49.66s-.16.34-.36.14-.5-.18-.3-.54a2.22 2.22 0 0 1 .5-.67c.32-.3.66-.56 1.02-.83zm-6.33 5.67c.72.06.83-.57 1.21-.83a.35.35 0 0 0 .16-.2c.36-1 .93-1.94 1.33-2.94 0-.1.22-.19.08-.32a.22.22 0 0 0-.33.05c-.47.62-1.27 1-1.47 1.82a5.56 5.56 0 0 1-.51 1.15c0 .1-.1.27-.26.22s-.31 0-.35-.18-.18-.4-.11-.64.09-.68.38-.93a.22.22 0 0 0 .05-.3c-.09-.12-.2 0-.29 0a1 1 0 0 0-.63.93.85.85 0 0 1-.2.56c-.16.21-.37.52-.18.76s.56.95 1.12.85zm-4.91.62c.25-.2.24-.44.45-.46a4.82 4.82 0 0 0 2-1.07c.11-.07.23-.19.16-.3s-.25 0-.36 0a4.18 4.18 0 0 1-1.61.8 2.44 2.44 0 0 1-1.67-.1c-.12-.07-.31-.09-.27-.27s.21-.1.33-.1h.66s.24 0 .27-.11-.13-.13-.22-.16c-.52-.17-1.07-.12-1.6-.28-.22-.07-.23.13-.19.31a1.23 1.23 0 0 0 .59.72c.35.23.65.58 1.12.52.33-.01.46.07.35.5zm-5-5.94c-.42.84.05 1.57-.12 2.28l.05.07c.33.33.64.68 1 1a.56.56 0 0 0 .65 0c.13-.12-.05-.32-.24-.47a2.67 2.67 0 0 1-.8-1 7.07 7.07 0 0 1-.58-1.88z" />
    <path d="M93.65 77.48c.3-.1.57.09.87.08s.42.42.25.6a.73.73 0 0 0-.12.54 14.3 14.3 0 0 1-.25 1.41 1.42 1.42 0 0 1-.58 1c-.16.14-.13.21 0 .26.32.14.45.47.71.67a.78.78 0 0 1 .29.69 2.58 2.58 0 0 1-.57 1.78.65.65 0 0 1-1.11-.05 1.65 1.65 0 0 0-1-.55 1.06 1.06 0 0 0-.87.39 2.11 2.11 0 0 0-.52 1.25 5.6 5.6 0 0 0 0 1 1.87 1.87 0 0 0 1.47 1.54 4.51 4.51 0 0 0 1.56 0 .48.48 0 0 1 .59.45c.05.36.37.62.28 1a.41.41 0 0 1-.52.38c-.7-.09-1.41-.2-2.1-.3a4.74 4.74 0 0 1-1.26-.5c-.71-.35-1.21-1-1.94-1.31-.41-.18-1.73-.08-1.94.29a1.11 1.11 0 0 0-.17.92c.08.25 0 .47-.29.47a2.83 2.83 0 0 1-2.18-.81c-.22-.23-.11-.47-.18-.7s-.07-.28-.22-.26-.07.18-.1.27a2 2 0 0 1-1 1.19 12.2 12.2 0 0 1-1.61.74c-.43.14-.88-.08-.84-.53s-.48-.66-.43-1.1c0-.06-.16 0-.19 0-.17.34-.52.34-.81.41s-.63.34-1 .44c-.62.17-1-.09-1.07-.75a1.5 1.5 0 0 1 .21-1.12c.06-.09.14-.18 0-.29a.29.29 0 0 0-.3 0c-.55.16-1.09.33-1.65.45s-1.18 1.1-1 1.49c.09.16.12.37.39.28s.49-.07.45-.42a1.47 1.47 0 0 1 0-.37c.07-.48.38-.76.77-.68a.73.73 0 0 1 .54.9 1.42 1.42 0 0 1-2.33.86 2.32 2.32 0 0 1-.81-2.13 3.38 3.38 0 0 1 .66-1.65 3.6 3.6 0 0 1 1.69-1c.38-.14.36-.27.16-.51s-.39-.31-.46-.57 0-.49.26-.49c.68 0 1.26-.41 1.94-.42h.55c.49 0 .63-.1.57-.58a1.42 1.42 0 0 1 .21-1c.26-.4.51-.34.85-.12a1.93 1.93 0 0 0 1 .23 2.5 2.5 0 0 1 2.19 1.2c0 .07.07.15.15.06s.24-.07.31-.2c.19-.36.36-.78.87-.74a2.75 2.75 0 0 1 1.15.26c.3.16.36 0 .36-.23a1.79 1.79 0 0 1 .37-1.18c.76-.25.37-.78.2-1.14a3.63 3.63 0 0 1-.14-1.85 11.88 11.88 0 0 1 .06-1.47c.07-.37.19-.46.5-.47h.51c.12 0 .25 0 .18-.19a2.38 2.38 0 0 1 .28-2.08c.13-.29.12-.61.25-.91s.37-.37.64-.28a2.64 2.64 0 0 1 .66.35c.35.25.45 0 .42-.24a3.93 3.93 0 0 1 1-2.51 4.75 4.75 0 0 1 1.19-1.07 2.2 2.2 0 0 1 1.88-.28 1.53 1.53 0 0 1 1 1.16 2.76 2.76 0 0 1-.07 1.46c-.13.45-.91.62-1.35.31-.09-.06-.15-.26-.3-.14s0 .27.08.37a2.36 2.36 0 0 1 .18 2c0 .13-.16.27 0 .39a.46.46 0 0 0 .53 0 .72.72 0 0 1 .83 0 .39.39 0 0 1 .15.63 1.42 1.42 0 0 0-.22 1 2.1 2.1 0 0 1-.61 1.56.59.59 0 0 0-.1.46zm-4 4.19c0-.94.11-1.84-.68-2.5a.25.25 0 0 1-.1-.16c0-.43-.39-.54-.64-.74s-.39-.17-.29-.38.35-.11.52-.07a1.82 1.82 0 0 1 1.19.88.31.31 0 0 0 .31.17c.16 0 .12-.17.13-.26a3.47 3.47 0 0 0-.32-2.44 1.67 1.67 0 0 1-.36-1.39 3 3 0 0 1 .68.74c.1.12.36.21.35 0 0-.53.12-1 .13-1.54a15.13 15.13 0 0 0 .15-1.86c0-.47.38-.87.48-1.35 0-.1.1-.27.26-.18s.17.11.11.32a7.78 7.78 0 0 0-.41 2.68 12.83 12.83 0 0 1 0 2.6.2.2 0 0 0 .08.21.14.14 0 0 0 .21 0c.2-.23.53-.25.73-.46a.56.56 0 0 1 .67-.11c-.53.92-1.37 1.58-1.67 2.62a6.16 6.16 0 0 0-.21 1.16c0 .26.12.31.32.15s.41-.35.6-.53a.92.92 0 0 1 1-.17c-.27.14-.34.39-.51.53a5.76 5.76 0 0 0-1.46 1.73c-.14.24-.31.51-.15.73s.44 0 .66 0 .41-.06.46.15-.2.21-.34.28a2.82 2.82 0 0 0-1.26 1c-.09.17-.18.34 0 .51s.35 0 .44-.11a1.43 1.43 0 0 1 .65-.4 1.9 1.9 0 0 1 2 .19c.06.05.29.36.45.09a1.48 1.48 0 0 0 .24-.75c0-.6-.56-.94-1.23-1.15-.2-.07-.32-.13-.36-.35s.07-.3.24-.39a2 2 0 0 0 1.1-1.88 1.3 1.3 0 0 1 0-.45c.14-.39 0-.54-.43-.54a2.54 2.54 0 0 1-.41 0c-.18 0-.39 0-.4-.22a.61.61 0 0 1 .16-.56 6.48 6.48 0 0 0 1.22-1.77.21.21 0 0 0 0-.16c-.42 0-.12-.27-.12-.41s.11-.4-.06-.53-.31.09-.47.12-.12.11-.18.14a.58.58 0 0 1-.74-.14c-.31-.34 0-.56.07-.84a5.06 5.06 0 0 0-.3-3.13c-.17-.43-.32-.87.12-1.28a.35.35 0 0 0 .05-.47c-.15-.16-.31 0-.41.09s-.43.5-.67.71c-.47.41-.56 1-.88 1.53a2 2 0 0 0 0 1.62c.1.33-.12.6-.35.84s-.42.09-.66 0-.4-.51-.69-.68-.2-.1-.35 0c-.43.38-.26.89-.31 1.33a1.42 1.42 0 0 0 .38 1.11.8.8 0 0 1 0 1c-.17.23-.44.13-.64.05-.85-.33-.87-.33-1 .58v.13a4.54 4.54 0 0 0 .07 1.41 4 4 0 0 0 .82 1.29c.24.26.15.52-.19.59a1.43 1.43 0 0 1-.42 0c-.46 0-.46.39-.65.62 0 0 0 .45.31.39a2.21 2.21 0 0 1 2.2 1.11c.07.09.11.2.25.15s.15-.19.09-.31c-.29-.54-.41-1.23-1.19-1.33-.11 0-.22-.06-.23-.2s.08-.23.15-.2c.25.12.49-.06.77.06a7.45 7.45 0 0 1 .99.81zm-9.19 5c.34-.13.5.11.62.31s0 .45-.14.64a2.25 2.25 0 0 0-.48.89.93.93 0 0 0 .22.73c.15.24.3-.05.43 0 .34 0 .58-.2.84-.31.59-.24 1.22-.53 1.19-1.38a.68.68 0 0 1 .74-.6c.56.05.76.25.79.71a4.14 4.14 0 0 0 .14.78c.11.39.51.4.79.46s.4-.31.36-.46c-.09-.35.12-.49.32-.66l.57-.49c.07-.06.15-.12.11-.23a.2.2 0 0 0-.22-.13 1.37 1.37 0 0 0-.53.09 1.74 1.74 0 0 0-.81.86c0 .09-.09.23-.23.19s-.11-.17-.13-.28a.93.93 0 0 1 .36-.76c.34-.35.34-.49-.14-.6-.21 0-.41-.16-.63-.19a1.57 1.57 0 0 0-.78.05 6 6 0 0 0-2 1.26c-.1.09-.21.25-.36.13s-.07-.29 0-.43a3 3 0 0 1 1.35-1.06c.1-.06.27 0 .27-.2a.2.2 0 0 0-.18-.19 4.3 4.3 0 0 0-1-.08 5.08 5.08 0 0 0-2.35.74c-.29.19-.59.35-.88.57s-.49.72-1 .34c-.09-.07-.23.14-.26.28s-.35.47-.23.78c0 .08.12.09.2.09a2.39 2.39 0 0 0 2.17-1.18 1.29 1.29 0 0 1 .95-.71zm-2.55-3.23h-.74a.45.45 0 0 0-.39.3c-.08.15.09.26.2.33a4.36 4.36 0 0 0 1.8.63 16.2 16.2 0 0 0 1.9.15c.22 0 .6.19.64.08s-.24-.41-.37-.62c-.27-.43-.8-.63-1-1.12 0-.09-.09-.17 0-.26a.17.17 0 0 1 .26 0c.2.17.45.28.63.46a6.56 6.56 0 0 0 2.61 1.56c.14 0 .28.33.47 0s0-.37-.12-.53a.48.48 0 0 1 .05-.67c.19-.17.33.1.44.27a3.32 3.32 0 0 1 .14.34c.15.3.24.69.53.84a3.62 3.62 0 0 1 .72.41c.07.06.14.16.24.06s0-.17-.06-.25c-.18-.25-.38-.49-.56-.74a2.12 2.12 0 0 1-.51-1.88c0-.15.05-.32-.14-.4s-.27-.18-.45 0-.54.38-.53.77a.2.2 0 0 1-.2.22 1 1 0 0 1-1-.29 3 3 0 0 0-1.5-1.09c-.48-.14-1-.07-1.46-.16s-.55.33-.37.68a1.19 1.19 0 0 0 .31.41.57.57 0 0 1 .2.66.5.5 0 0 1-.63.26 1.49 1.49 0 0 1-.37-.16c-.25-.12-.52-.23-.67-.3zm-2.9 3.17a7.62 7.62 0 0 0 1.3 0c.16 0 .45-.45.63 0l.11-.07c.4-.23.66-.16.77.25s.18.19.35.12.35-.5.62-.53.41-.49.74-.6c.11 0 0-.14-.07-.21-.2-.23-.39 0-.58 0a10.4 10.4 0 0 0-2.8.4 2 2 0 0 0-1 .6zm10.62-4.41c0 .16 0 .32-.07.47a2.62 2.62 0 0 0 .24 1.79 3.89 3.89 0 0 0 1.07 1.06.25.25 0 0 0 .29 0c.12-.06 0-.16 0-.24a4.93 4.93 0 0 1-.46-1.25 2.48 2.48 0 0 0-1-1.87zm2.08.91a1.53 1.53 0 0 0 .25.7c.05.09.14.15.16.27a11 11 0 0 0 .61 1.68c0 .13.13.25.27.19s.14-.25.07-.36a1.85 1.85 0 0 1-.2-.76 4.92 4.92 0 0 0-.7-1.75.53.53 0 0 0-.36-.18c-.04-.06-.03.08-.03.17zm5-12.35c.07-.46.17-.85.74-.82.09 0 .49-.09.42-.44 0-.13.1-.29-.14-.38s-.46-.21-.65-.11a1.35 1.35 0 0 0-.26 1.69zm-1.72 17.68c-.29-.37-.58-.72-.85-1.1s-.43-.37-.79 0c.69.26 1.05.86 1.75 1.06zm-2-1.43c-.19-.1-.12-.3-.17-.46-.14.09-.39-.13-.46.16 0 .07-.1.11-.14.07-.35-.29-.62.18-1 .1-.1 0-.17.09-.14.19s.12.13.22.09a1.85 1.85 0 0 1 1.29 0 .267.267 0 0 0 .5-.19zm4.18 2.26c.22 0 .48.13.5-.17s-.24-.28-.39-.24-.53-.11-.52.23.38.15.51.14zm-16.52-4.4c0 .16 0 .4.21.35s.42 0 .4-.25-.26-.34-.47-.37-.02.1-.05.23zm17.14-13.9a.42.42 0 0 0 .31-.38c0-.14-.08-.26-.22-.23s-.38 0-.39.25.26.23.39.32zm-3.85 15.1c.15-.1.12-.24.11-.35a.35.35 0 0 0-.23-.32.23.23 0 0 0-.2.07c-.1.15 0 .25.12.36zM28.29 52.7v2.65c0 .23 0 .28-.3.37a14.27 14.27 0 0 1-1.82.33c-.43.1-.46-.07-.44-.34.06-.72-.07-1.43-.05-2.15V50.8v-2-1.78a5.8 5.8 0 0 0-.03-1.32c0-.19 0-.48.25-.54a8.34 8.34 0 0 1 .88-.25 5.86 5.86 0 0 0 1.35-.29 1.31 1.31 0 0 1 .86-.12c.52.16.95-.29 1.45-.21a4.45 4.45 0 0 1 1.88.53c.71.46.73 1.17 1 1.8.08.2 0 .4-.05.59a5.42 5.42 0 0 1-1.13 2.76 2.92 2.92 0 0 1-.76.69c-.31.2-.27.36 0 .59.64.63 1.26 1.26 1.9 1.9.44.44.28 1.45-.31 1.55a4.86 4.86 0 0 1-1.67.24c-.39-.07-.58-.45-.83-.71-.58-.59-1.11-1.24-1.64-1.87-.1-.12-.17-.32-.34-.25s-.12.29-.12.45a1.2 1.2 0 0 0 0 .19zm1.27-6.28h-.28c-.86.09-1 .28-1 1v2a.33.33 0 0 0 .28.33 1.29 1.29 0 0 0 1.17-.3c.47-.62 1-1.23.79-2.17-.13-.42-.14-.83-.96-.81zM42.65 51.16c.06.2-.13.29-.22.32a16 16 0 0 1-2.14.75c-.3 0-.41 0-.45-.34a5.83 5.83 0 0 0-.3-1.19c-.17-.46-.54-.23-.83-.18-.45.09-.82.46-1.32.39-.14 0-.13.15-.17.24a18 18 0 0 0-.49 2 .54.54 0 0 1-.36.42l-2.23.71c-.21.07-.19 0-.19-.18a4.77 4.77 0 0 1 .35-1.23 14.06 14.06 0 0 1 .59-2.29 2.82 2.82 0 0 0 .23-1 21.7 21.7 0 0 1 .59-2.16c.28-1.31.6-2.61 1-3.89a2.86 2.86 0 0 0 .14-.72c0-.56.41-.67.84-.8a7.88 7.88 0 0 0 1.57-.5c.4-.21.46.27.48.37.09.52.41 1 .48 1.47a13.89 13.89 0 0 0 .63 1.93 18.38 18.38 0 0 0 1.07 3.12 5.35 5.35 0 0 1 .17.91c.15.51.33 1 .5 1.52.06.09.06.21.06.33zm-5.09-2.95c0 .54.13.64.65.44l.42-.18c.49-.18.56-.37.29-.85a.39.39 0 0 1-.08-.21c0-.57-.38-1.05-.39-1.62a.21.21 0 0 0-.16-.21c-.15 0-.16.13-.19.22a5.22 5.22 0 0 0-.29 1.41c.02.34-.26.63-.23 1zM48.13 46.26a9.47 9.47 0 0 0 0-2.27c0-.15 0-.25.25-.35.62-.3 1.3-.46 1.91-.78.19-.1.26-.08.29.16a20.57 20.57 0 0 1 .07 3.08 7.9 7.9 0 0 1 0 1.37.86.86 0 0 1-.33.59 15.74 15.74 0 0 1-3.13 1.79 3.48 3.48 0 0 1-2.67.21 2.77 2.77 0 0 1-1.44-1.36 5.87 5.87 0 0 1-.6-3.34 8.74 8.74 0 0 1 .35-1.88 11.34 11.34 0 0 0 .76-2.08c0-.29.29-.34.42-.53a6.76 6.76 0 0 1 3.49-2.73 12.69 12.69 0 0 1 2.21-.44c.26 0 .48.11.73.07s.23.19.16.33c-.25.52-.53 1-.79 1.53-.09.17-.25.12-.37.13a10.2 10.2 0 0 0-2.14.49 2.45 2.45 0 0 0-1.31 1.15 9.49 9.49 0 0 0-.94 2.92 4.13 4.13 0 0 0 .06 1.53 3.81 3.81 0 0 0 .45 1.27c.41.69.74.86 1.49.5.16-.08.31.05.49-.06.48-.31.52-.35.59-1.3zM65.09 41.9c-.21-.06-.12-.25-.08-.34a9 9 0 0 0 .54-2.16c0-.14 0-.34.24-.32s.14-.13.1-.15c-.37-.15-.09-.39 0-.52.27-.61.18-1.29.41-1.88a8.4 8.4 0 0 0 .49-1.77c0-.14.19-.08.25-.19s.37-.33.05-.58 0-.55.1-.8c.19-.86.49-1.7.74-2.55a.7.7 0 0 0 0-.23.69.69 0 0 1 .43-.78 19.15 19.15 0 0 0 2-.83c.16-.1.34 0 .42.24.26.82.56 1.63.83 2.45.32 1 .62 2 .93 3.05a28.18 28.18 0 0 0 .87 2.69 7.66 7.66 0 0 0 .39 1.28c.11.17-.1.28-.25.31a19.23 19.23 0 0 0-2.12.71c-.14.05-.29.05-.32-.15 0-.39-.27-.72-.34-1.11-.12-.62-.3-.72-.88-.47-.41.17-.83.32-1.25.48-.24.09-.31.26-.39.48a11.71 11.71 0 0 0-.45 2 .51.51 0 0 1-.41.35c-.72.18-1.39.52-2.08.76zm5-6.74c-.15-.6-.35-1.36-.55-2.11 0-.1-.15-.16-.22-.05a1.74 1.74 0 0 0-.32.66 10.24 10.24 0 0 1-.42 2.06c-.11.36.08.51.44.42.2-.05.38-.2.56-.21.43-.02.54-.23.5-.77zM62.65 33.92c-.39-.08-.64.14-.92.27s-.86.13-1.1.54-.66.66-.82 1.13a9.08 9.08 0 0 0-.54 1.45c-.18 1.33-.44 2.68.3 4a1.27 1.27 0 0 0 1.32.53 3.52 3.52 0 0 0 1.71-1c.2-.16.47-.23.63-.46s.14-.06.2 0a9.37 9.37 0 0 1 .73.71c.3.36.2.77-.32 1.13a19.11 19.11 0 0 1-1.61 1.18 5.67 5.67 0 0 1-1.73.72 4.25 4.25 0 0 1-1.85.1 2.32 2.32 0 0 1-1.32-.89 5.39 5.39 0 0 1-.77-2.5 5.54 5.54 0 0 1 0-1.83 6.88 6.88 0 0 1 .45-1.74c.07-.14.3-.2.45-.3s.29-.16.14-.27c-.42-.32-.14-.68 0-.91a9.43 9.43 0 0 1 2.35-2.88 5.53 5.53 0 0 1 2.7-1.05 9.52 9.52 0 0 1 1-.15c.38 0 .47.17.3.51a7.61 7.61 0 0 1-.54 1.28 1 1 0 0 1-.76.43zM90.65 34.87a7.74 7.74 0 0 0-1 .1c-.38.06-.52-.1-.41-.46a4.11 4.11 0 0 0 0-1.19 9 9 0 0 0-.08-2.55 7.35 7.35 0 0 0-.42-1.22c-.47-1-.83-2-1.29-2.91-.29-.59-.48-1.21-.8-1.78s-.19-.57.33-.6a15.23 15.23 0 0 0 1.61-.2c.55-.09.61 0 .82.54.34.93.56 1.9.93 2.81.09.21-.1.58.18.6s0-.34.16-.51a5.1 5.1 0 0 0 .59-1.54l.38-1.26s.07-.07.08-.11c.07-.27-.1-.7.27-.76a2.76 2.76 0 0 1 .9-.08 7.46 7.46 0 0 0 1.24-.07c.27 0 .45 0 .3.42-.54 1.3-1 2.61-1.56 3.92-.34.85-.7 1.69-1 2.55a3.37 3.37 0 0 0-.08 1.52c.08.81-.07 1.6 0 2.39a.35.35 0 0 1-.39.41 5.42 5.42 0 0 1-.76-.02zM22.33 49.17c.07.82 0 1.64 0 2.47a25.37 25.37 0 0 1 0 3.53c0 .33.07.69.05 1.06a.43.43 0 0 1-.44.48c-.62.07-1.25.11-1.87.17-.18 0-.21-.1-.23-.23a2.53 2.53 0 0 1 0-.65c.08-.47-.06-.94 0-1.41s-.11-1 0-1.56v-.27c.29-.14.34-.19 0-.27-.1 0 .13-.35-.09-.48.25-.26-.16-.64.17-.9.09-.07-.06-.16-.08-.24s-.2-.48.07-.67c.08-.06.09-.15 0-.2-.31-.26-.19-.57-.08-.84s-.17-.63-.09-1c0-.09-.15-.19-.29-.19h-1.23c-.19 0-.54.17-.46-.4a4.72 4.72 0 0 0 0-1.5c0-.2 0-.21.18-.22 1.06-.05 2.12 0 3.16-.18s2.09-.16 3.12-.36c.12 0 .25 0 .26.1a6.81 6.81 0 0 1 0 1.59c-.09.53-.43.72-1 .63a2.43 2.43 0 0 0-.83.07c-.25 0-.35.25-.35.49s.03.67.03.98zM80.45 35.8v.52s-.11.4-.36.46c-.94.25-1.87.5-2.8.78-.65.19-1.28.42-1.92.63-.39.13-.63 0-.58-.41a14.65 14.65 0 0 0 0-2c0-1.46.05-2.92 0-4.39a12.56 12.56 0 0 1 0-1.84v-1.53c0-.71.07-.87.72-1a4.6 4.6 0 0 0 1.32-.43c.24-.14.37-.06.4.23a16.7 16.7 0 0 1 .07 2.22 14.18 14.18 0 0 0 0 1.57v4.22c0 .34.12.59.59.43.74-.25 1.5-.42 2.24-.66.24-.08.28 0 .31.19a4.89 4.89 0 0 1 .01 1.01zM81.57 35.21c.13-1.21 0-2.42.05-3.64v-4.2a15.08 15.08 0 0 0 0-1.94c0-.13.06-.13.17-.16a14.92 14.92 0 0 0 1.89-.44c.16-.07.38 0 .38.21a5.68 5.68 0 0 1 0 1.75.25.25 0 0 0 0 .14 10 10 0 0 1 0 2.72 28.84 28.84 0 0 1 0 3.28c0 .59.36 1 .86.66s1-.11 1.4-.31a4.21 4.21 0 0 1 .49-.08c.21-.06.51-.12.45.37s0 .89 0 1.33c0 .27-.11.35-.38.41-1.07.25-2.17.27-3.22.62a15.83 15.83 0 0 1-1.81.34c-.23 0-.24-.08-.24-.22s-.04-.56-.04-.84zM52.37 47.23a24 24 0 0 1-.05-2.46v-1.84-2c0-.84.07-1.67 0-2.51v-1.63s.47-.68.81-.78a4.34 4.34 0 0 0 1-.48c.2-.12.47-.23.6-.14a.7.7 0 0 1 .25.61c0 .77 0 1.55-.07 2.32a.57.57 0 0 0 .14.52.23.23 0 0 1 .05.26 7.88 7.88 0 0 0-.07 3 7.23 7.23 0 0 1-.06 1.25v1.6s-.06.81 0 1.21a.22.22 0 0 1-.14.23 12.08 12.08 0 0 1-2.46.84zM80.85 73.1c.66-.59.63-.54 1.35-.05s.65 1 .85 1.59c.09.27-.14.35-.33.41a.35.35 0 0 1-.44-.31c0-.31-.31-.5-.33-.81a.33.33 0 0 0-.39-.26c-.17 0-.12.22-.13.35s.11.34-.15.43a.43.43 0 0 1-.53-.16 1.2 1.2 0 0 1-.39-.91c.06-.42-.27-.49-.53-.61s-.33.16-.44.3-.5.33-.71 0-.54-.46-.75-.75a.58.58 0 0 0-.68-.18c-.24.09-.2.39-.16.62a2.11 2.11 0 0 0 .59 1 1.66 1.66 0 0 1 .31.5c.11.25 0 .46-.29.44-.48 0-.39.24-.24.44a2.7 2.7 0 0 0 1.08.91 3.05 3.05 0 0 0 .31.1c.2.06.24.26.26.41s-.18.11-.29.15a2.21 2.21 0 0 1-.66.2c-.21 0-.2.17-.1.34a1.24 1.24 0 0 0 .86.55c.15 0 .3.07.23.27s-.06.3-.32.3A2 2 0 0 1 77 76.7c0-.14 0-.17.15-.16s.23 0 .26-.14-.07-.21-.17-.26c-.45-.28-.55-.8-.83-1.19s-.07-.48.18-.63.35-.3.18-.45c-.41-.37-.28-.9-.45-1.33-.24-.6.19-1.26.68-1.14a4 4 0 0 1 1.44.49c.33.24.62.37.88-.1.09-.17.23-.16.43 0a3.32 3.32 0 0 1 1.1 1.31z" />
    <path d="M79.98 77.58c.34.06.58-.27.92-.21.16 0 .12-.15 0-.23-.32-.3-.43-.76-.82-1a.61.61 0 0 1-.2-.36 1.18 1.18 0 0 0-.56-.77c-.14-.07-.26-.24-.13-.39s.21 0 .3.11a10.92 10.92 0 0 1 1.5 1.31 1 1 0 0 0 .49.35c.2.06.39 0 .41-.23s0-.45.19-.46.07.29.14.41a18.17 18.17 0 0 1 .89 2 6.8 6.8 0 0 0 1.29 1.82c.09.09.28.24.11.39s-.21-.07-.32-.14c-.45-.3-.76-.76-1.21-1s-1.17-.63-1.75-.95a5.49 5.49 0 0 1-1.25-.65zM83.65 74.94a2.18 2.18 0 0 0 .86.25.28.28 0 0 1 .2.41 2 2 0 0 0-.23 1.17c0 .41-.17.86.21 1.25.11.11 0 .44.05.69a3.16 3.16 0 0 0 .5 1.12c.06.1.23.22.07.36s0 .32-.25 0-.55-.76-.81-1.13a6.31 6.31 0 0 1-.61-1.47c-.11-.27-.42-.54-.14-.91a2.37 2.37 0 0 0-.18-.63c-.15-.35.18-.68 0-1.05-.06-.13.2.03.33-.06zM80.33 80.09h-.58a.28.28 0 0 1-.32-.28 1.13 1.13 0 0 0-.31-.67c-.22-.26-.1-.29.16-.32a5.61 5.61 0 0 1 2.14.41 8.83 8.83 0 0 1 1.45.6c.46.22.7.73 1.24.82.15 0 .09.18 0 .24a.57.57 0 0 1-.57-.05 6 6 0 0 0-3.21-.75zM85.49 74.36a.91.91 0 0 1-.9-.7c0-.3.51-.7 1-.73.18 0 .58.48.58.71a.76.76 0 0 1-.68.72zM73.19 24.1c-.33 0-.78-.39-.77-.65 0-.43.33-.64 1-.62a1.28 1.28 0 0 1 .59.61.8.8 0 0 1-.82.66zM55.78 24.81a.58.58 0 0 1-.66.58.78.78 0 0 1-.64-.68c0-.38.32-.64.85-.6s.56.29.45.7zM78.12 80.31a.82.82 0 0 1-.77.6.77.77 0 0 1-.59-.61 1 1 0 0 1 .83-.75 1.07 1.07 0 0 1 .53.76z" />
</svg>
