<svg xmlns="http://www.w3.org/2000/svg" viewBox="0 0 109.29 137.25">
    <title>pin-ramones</title>
    <path d="M90.99 61.58h-2.72c-.49 0-.69-.13-.67-.65v-3.38c0-.53.2-.66.68-.64h2.14c.44 0 .65-.09.64-.59v-2.88c0-.44-.16-.58-.58-.56h-2.22c-.43 0-.67-.09-.65-.58v-2.88c0-.44.16-.58.58-.57h2.39c.59 0 .76-.19.73-.76v-2.72c0-.63-.2-.79-.8-.78h-7.58c-.63 0-.84.15-.83.82v19.61c0 .36-.13.77.52.77h8.49c.44 0 .57-.16.56-.58v-3c.03-.51-.21-.64-.68-.63zM101.31 53.26a20 20 0 0 1-2.36-1.5 3 3 0 0 1-.87-3.34.88.88 0 0 1 1-.61.74.74 0 0 1 .69.79c0 .6.06 1.21 0 1.81 0 .44.1.66.59.65h4c.49 0 .6-.21.58-.64 0-.82 0-1.64-.14-2.47a3.47 3.47 0 0 0-2.18-3 9 9 0 0 0-7-.24 3.93 3.93 0 0 0-2.7 3.34 14.3 14.3 0 0 0-.09 3.12 5.1 5.1 0 0 0 2.24 4c1.33.92 2.67 1.83 4 2.8a3.86 3.86 0 0 1 .89 4.06 1 1 0 0 1-1.08.57.84.84 0 0 1-.73-.86c0-.36 0-.71-.06-1.07 0-.79.33-1.81-.14-2.31s-1.56-.08-2.23-.19-1.45 0-2.11 0c-.44 0-.67.1-.64.59.05 1 0 1.92.11 2.88a4.44 4.44 0 0 0 3.34 4.13 9 9 0 0 0 5.59 0 4.39 4.39 0 0 0 3.34-4.07c.3-3.65-.56-6.63-4.04-8.44zM78.93 44.64a23 23 0 0 1-2.8 0c-.67 0-.9.16-.89.86v7.33c0 .26.1.53-.08.78-.18-.06-.15-.22-.19-.34-.86-2.63-1.73-5.27-2.56-7.91-.17-.53-.38-.76-1-.73a30.53 30.53 0 0 1-3.13 0c-.65 0-.77.21-.76.8V65.13c0 .52.11.73.68.71h3.3c.51 0 .66-.16.65-.66v-4.12-4.34a1.15 1.15 0 0 1 .36.74c.77 2.58 1.55 5.15 2.3 7.73.14.47.33.67.84.65h3.63c.43 0 .61-.14.57-.56a4 4 0 0 1 0-.41V45.59c.05-.78-.2-1-.92-.95zM17.78 52.7a11.89 11.89 0 0 0-.07-4.75 3.72 3.72 0 0 0-3.4-3.09 76.12 76.12 0 0 0-8.15-.16c-.48 0-.51.26-.51.63v19.94c0 .46.14.62.61.61h4.2c.57 0 .75-.15.74-.73v-8c0-.27-.25-.75.27-.8s1 0 1.21.62a5.7 5.7 0 0 1 .18 1.73v6.51c0 .47.09.69.63.68h3.87c.44 0 .63-.1.63-.59v-7.17A3 3 0 0 0 15.65 55l-.36-.15a1.06 1.06 0 0 1 .64-.25 2.22 2.22 0 0 0 1.85-1.9zm-5-.7a.93.93 0 0 1-.63.87c-.76.26-1 .13-1-.68v-1.56-1.48c0-.29-.23-.74.24-.83a1.07 1.07 0 0 1 1.25.57 1.36 1.36 0 0 1 .13.47 13.52 13.52 0 0 1 .02 2.64zM65.45 55.24v-5.6a5.81 5.81 0 0 0-.09-.82 4.94 4.94 0 0 0-3.12-4 8 8 0 0 0-4.45-.47c-3.08.49-4.69 2.19-4.9 5.27-.24 3.68-.15 7.36 0 11a6.2 6.2 0 0 0 .29 2.08c.91 2.33 2.76 3.29 5.11 3.54 4.47.47 7.11-1.84 7.19-6.32v-4.7zm-5.46 5.63a7.75 7.75 0 0 1-.13 1.23.67.67 0 0 1-.77.59.67.67 0 0 1-.71-.66c0-.63-.08-1.26-.08-1.89V49.18a3.14 3.14 0 0 1 .13-.89.69.69 0 0 1 .78-.47.62.62 0 0 1 .63.54 6.51 6.51 0 0 1 .12 1.06q.05 5.72.03 11.45zM29.72 45.3c-.08-.56-.31-.66-.8-.65H22.4c-.57 0-.81.13-.88.74-.36 3-.77 5.94-1.17 8.91-.47 3.6-.94 7.19-1.43 10.78-.07.53 0 .79.61.77h4.45c.42 0 .59-.12.6-.55 0-.66.09-1.32.16-2 .18-1.62 0-1.2 1.42-1.29.54 0 .72.16.72.69 0 .82.13 1.64.15 2.47 0 .49.18.67.68.66h4.2c.68 0 .81-.17.72-.83q-1.48-9.83-2.91-19.7zm-4.1 13c-.7 0-.82-.22-.75-.83.3-2.44.57-4.89.85-7.33h.17l.65 6.85v.25c.11 1.03.11.98-.89 1.04zM50.06 44.65h-5.85c-.52 0-.77.15-.77.68a5.21 5.21 0 0 1-.08.65l-1 8a1.88 1.88 0 0 1-.27-.79c-.35-2.47-.73-4.95-1-7.43-.1-.78-.32-1.12-1.2-1.08-1.73.08-3.46.06-5.19 0-.74 0-1 .16-1 .94v19.46c0 .66.2.84.84.81 1.07-.05 2.14 0 3.21 0 .64 0 .84-.15.83-.81V53.95a1.41 1.41 0 0 1 .14-.89c.52 3.57 1 7 1.52 10.52.31 2.3.28 2.3 2.56 2.3a2.56 2.56 0 0 1 .41 0c.63.1.83-.16.91-.79.51-4.06 1.07-8.1 1.62-12.16h.18v12.18c0 .57.09.84.76.81 1.15-.06 2.31 0 3.46 0 .45 0 .63-.12.63-.6V45.37c-.03-.59-.22-.73-.71-.72z" />
</svg>
