<svg xmlns="http://www.w3.org/2000/svg" viewBox="0 0 109.29 137.25">
    <title>pin-who</title>
    <path d="M47.98 36.2c2-1.56 3.6-2.65 5.85-2.37 3.76.48 5.61 2.32 5.62 6.11v29.58a8 8 0 0 1 5.84-1.71c3.3.15 5.52 2.11 5.57 5.43.11 6 0 12 0 18.05 0 1.12-.44 1.47-1.54 1.54-5 .32-5 .35-5-4.59V74.97c0-1.71-.56-2.87-2.43-2.88s-2.52 1.16-2.53 2.84c0 5.22-.06 10.44 0 15.66 0 1.64-.37 2.28-2.16 2.26-4.44-.07-4.44 0-4.44-4.4v-45a13.1 13.1 0 0 0-.15-2.6c-.27-1.34-.9-2.61-2.49-2.55s-2 1.34-2.26 2.57a10.87 10.87 0 0 0-.16 2.38c0 4.42-.07 8.85 0 13.27 0 1.53-.47 2-2 2-4.55 0-4.55.07-4.55-4.36V30.67c0-1.71-.46-2.37-2.2-2.2a19 19 0 0 1-3.91 0c-1.82-.2-2.16.63-2.15 2.25.06 8.48 0 17 .06 25.45 0 1.69-.44 2.26-2.19 2.24-5 0-5 0-5-5 0-7.47-.1-14.94.06-22.4.05-2.31-.7-3-2.81-2.67a15 15 0 0 1-2.17 0c-2.85 0-3.58-1-2.9-3.79.23-.92.84-.87 1.48-.87h26.75c1.42 0 1.68.62 1.66 1.85.11 3.35.15 6.75.15 10.67z" />
    <path d="M34.98 79.82c-1.06 3.27-2.08 6.54-3.18 9.8-1.25 3.73-.27 3.09-4.41 3.26s-4.12.1-4.93-3.86c-1.27-6.17-2.47-12.32-3.81-18.52-.32-1.51-.05-2 1.61-2 4.42 0 4.41 0 5.33 4.24.65 3 1.32 6.07 2 9.1 0 0 .12 0 .42.15 1.2-3.74 2.49-7.46 3.56-11.24.43-1.51 1.06-2 2.66-2 5.08.09 5.06 0 6.23 4.88a79.48 79.48 0 0 0 2.66 9.19c.83-3.49 1.65-7 2.51-10.48.27-1.1 0-2.77 1.09-3.11a14.44 14.44 0 0 1 4.73-.17c.9 0 .69.77.56 1.32-1.67 7.12-3.36 14.23-5 21.35-.18.77-.5 1.16-1.28 1.14h-.65c-6 .19-6 .19-7.52-5.57-.67-2.47-1.36-4.94-2-7.41zM83.49 31.7c0 1-.1 1.61-.1 2.25v38.5c0 1.36.21 2.22 1.67 2.8a4.78 4.78 0 0 1 3 4.23 52.5 52.5 0 0 1 0 9.34 4.62 4.62 0 0 1-3 4.15 9.84 9.84 0 0 1-7.23.1 4.62 4.62 0 0 1-3.21-4.48c-.06-3-.05-6.09 0-9.13a4.73 4.73 0 0 1 3.26-4.45 1.63 1.63 0 0 0 1.22-1.75V31.68c-1.8.89-2.74 2.51-4.42 3.53-.37-2.35-.65-4.41 1.36-6.17a53.65 53.65 0 0 0 4.34-4.57c.69-.77 1.21-.79 1.92 0a34.27 34.27 0 0 0 3.91 4.07c2.24 1.82 2.43 4.05 1.91 6.81-1.88-.89-2.77-2.59-4.63-3.65zm-.42 52.7v-4.55c0-1.2-.61-2.17-1.94-2.16a1.89 1.89 0 0 0-1.86 2c-.09 3-.09 5.92 0 8.88a1.87 1.87 0 0 0 1.85 2c1.29 0 1.94-.87 2-2.12s-.05-2.75-.06-4.07z" />
    <path d="M75.4 47.7a9.52 9.52 0 0 0 0 1.3c.21 1.5-.37 2.1-1.91 1.94a15.41 15.41 0 0 0-3.25.06c-.94.11-2.34-.63-2.73.5a6.92 6.92 0 0 0 0 4.27 1.4 1.4 0 0 0 1.6.86A1.69 1.69 0 0 0 70.84 55c.15-2.79 2.25-1.74 3.54-1.67 1.74.1.71 1.66.89 2.58a1.39 1.39 0 0 1-.1.64c-.73 2.27-3.74 3.47-7.47 3-3.28-.44-5-2-5.09-4.59-.06-3-.08-6.08 0-9.12a5.07 5.07 0 0 1 5.28-5.16h.22c5.77-.16 7.29 1.32 7.29 7.02zm-4.63-1.54c0-1.33-.07-2.63-1.64-2.62-1.83 0-1.69 1.53-1.81 2.84s.58 1.58 1.78 1.63c1.55.07 1.85-.68 1.67-1.85z" />
</svg>
