<svg xmlns="http://www.w3.org/2000/svg" viewBox="0 0 109.29 137.25">
    <title>pin-zappa</title>
    <path d="M56.04 47.2h-21a12.3 12.3 0 0 0-9.28 4.34 12.65 12.65 0 0 0-3.11 6.58 10.65 10.65 0 0 0-.16 1.58v3.84c0 .29-.09.38-.38.38h-7.72c-.31 0-.39-.1-.39-.4v-3.65A30.42 30.42 0 0 1 39.18 30.7a28.48 28.48 0 0 1 4.82-.44h24.1a29.25 29.25 0 0 1 11.79 2.54 30.37 30.37 0 0 1 18.15 26.22c.08 1.52 0 3 .05 4.57 0 .28-.1.36-.37.36h-7.75c-.3 0-.37-.12-.37-.39v-3.31a13 13 0 0 0-10.84-12.92 14.07 14.07 0 0 0-2.48-.17H56.04zM47.59 70.29v-5.86-.25s0-.16.08-.19.11 0 .16.08c.38.33.75.67 1.14 1a16.05 16.05 0 0 0 4 2.4 7.9 7.9 0 0 0 6.68-.22 18.44 18.44 0 0 0 4.47-3l.16-.15c.05 0 .1-.12.18-.09s.06.12.07.19 0 .13 0 .19V76.1a.91.91 0 0 1-.34.76A19.52 19.52 0 0 1 59.43 80a8 8 0 0 1-7.19-.2 18.38 18.38 0 0 1-4.44-3.1.65.65 0 0 1-.21-.53q.01-2.92 0-5.88z" />
</svg>
