<svg xmlns="http://www.w3.org/2000/svg" viewBox="0 0 109.29 137.25">
    <title>pin-pearljam</title>
    <path d="M102.57 66.58H98.55c-.21 0-.28 0-.28-.27V55.69v-1.31a5.37 5.37 0 0 0-.24 1.16c-.41 2.67-.77 5.35-1.13 8q-.18 1.32-.32 2.64c0 .19-.1.27-.27.29a10.05 10.05 0 0 1-2.35 0c-.2 0-.25-.14-.28-.34q-.32-2.54-.67-5.07c-.25-1.83-.53-3.66-.79-5.48-.06-.41-.13-.83-.19-1.24h-.08v11.84c0 .4.05.35-.36.35H87.9c-.2 0-.25-.05-.25-.25V48c0-.2.06-.25.25-.25h5.74c.17 0 .24 0 .26.23.32 2.49.72 5 1.13 7.43.05.31.12.62.19 1a7.49 7.49 0 0 0 .32-1.59q.47-3.37.91-6.74c0-.26.12-.33.38-.32h5.86zM42.14 47.77a.79.79 0 0 0 .33 0c1.83.05 3.66.09 5.49.2a10.89 10.89 0 0 1 1.39.16 3.14 3.14 0 0 1 2.59 2.57 10.49 10.49 0 0 1 .2 2.74 8.67 8.67 0 0 1-.15 1.68 1.8 1.8 0 0 1-1.26 1.45l-1 .35c.29.14.53.29.79.39a2.39 2.39 0 0 1 1.57 2.27c.15 1.92.12 3.85.18 5.78v1.07c0 .15 0 .19-.19.19h-4.09c-.18 0-.2-.07-.2-.23v-4.24c0-.94 0-1.89-.08-2.83a3.3 3.3 0 0 0-.11-.61.62.62 0 0 0-.62-.5h-.57s-.24 0-.24.23V66.37c0 .2-.06.25-.25.25h-4.31c-.23 0-.29-.06-.29-.29V48.09v-.31zm4 5.42v1.62c0 .56 0 .56.55.53s.92-.27 1-.89a9.12 9.12 0 0 0 0-2.51c-.1-.65-.39-.88-1.05-.88a2.62 2.62 0 0 1-.29 0c-.15 0-.19 0-.18.19.01.64.01 1.29.01 1.94zM7.33 47.82c1.64 0 3.28 0 4.92.05a15.69 15.69 0 0 1 3.16.36 2.93 2.93 0 0 1 2.4 2.57 18 18 0 0 1 .05 5.61 2.69 2.69 0 0 1-2 2.26 9.73 9.73 0 0 1-2.41.39c-.33 0-.66.06-1 .06s-.29.08-.29.31v6.83c0 .39 0 .35-.34.35H7.37zm4.84 5.62v2.19c0 .18 0 .27.23.24a3.72 3.72 0 0 1 .4 0 1 1 0 0 0 1.06-.9 12 12 0 0 0 .07-2.56 2.82 2.82 0 0 0-.12-.73.79.79 0 0 0-.78-.62h-.67s-.2.05-.2.2c.01.72 0 1.44 0 2.18zM34.21 47.82h3.24c.18 0 .25 0 .28.23q.58 3.93 1.17 7.85t1.22 7.85q.21 1.35.43 2.7c0 .13 0 .17-.14.16l-4.52-.09c-.17 0-.19-.08-.21-.21l-.21-2.39v-.38c0-.34 0-.34-.38-.34h-1.44c-.14 0-.21 0-.22.19-.08.95-.17 1.9-.24 2.84 0 .21-.08.29-.31.29q-2.23 0-4.45.09c-.2 0-.22-.05-.2-.23.19-1.41.37-2.83.55-4.24l.69-5.28.69-5.26c.15-1.16.31-2.31.45-3.47 0-.17.07-.23.24-.23h3.31zm.28 4.4h-.06a5.56 5.56 0 0 0-.19 1.07c-.26 2.06-.42 4.13-.71 6.19 0 .2 0 .3.25.32h1.21c.22 0 .27-.05.24-.27-.26-1.9-.38-3.82-.57-5.73-.01-.51-.12-1.04-.17-1.58zM84.09 66.6h-2c-.17 0-.25 0-.25-.23a16.87 16.87 0 0 0-.18-2.92c0-.18-.07-.27-.29-.26h-1.43c-.17 0-.23 0-.24.22-.07.94-.17 1.88-.24 2.82 0 .22-.08.29-.31.29-1.43 0-2.86.1-4.28 0-.37 0-.37 0-.32-.38.26-2 .52-4.07.79-6.11l.84-6.34q.37-2.78.73-5.57c0-.13 0-.22.2-.22 2.09 0 4.19-.08 6.28 0h.1c.44 0 .48.06.55.5.39 2.62.77 5.24 1.17 7.86s.78 5 1.17 7.57q.19 1.21.39 2.42c0 .2 0 .3-.23.33a9.58 9.58 0 0 1-1.28.05h-1.1zM80.6 52.13c-.08.08-.07.18-.08.27-.12 1.12-.24 2.24-.37 3.36q-.22 1.93-.45 3.85c0 .16 0 .21.18.21h1.36c.18 0 .21-.07.19-.22-.05-.34-.1-.67-.13-1-.2-2-.35-4-.58-6a.83.83 0 0 0-.12-.47zM19.32 57.22V48.1c0-.24.07-.28.29-.28h7.52c.2 0 .25 0 .25.25v3.31c0 .17 0 .21-.21.21h-2.79c-.2 0-.24.06-.23.24v3.09c0 .2.06.25.25.25h2.57c.18 0 .23.05.22.23v3.14c0 .17 0 .21-.21.21h-2.59c-.18 0-.24 0-.24.24v3.67c0 .18.06.23.23.23h3.12c.18 0 .25 0 .24.24v3.28c0 .19-.06.24-.24.24h-8c-.2 0-.23-.07-.23-.25q.06-4.61.05-9.18zM54.23 57.22V48.1c0-.21 0-.28.27-.28h4.28c.23 0 .29.06.29.29v14.4c0 .39 0 .34.34.34h2.48c.18 0 .23.05.22.23v3.28c0 .21-.06.25-.26.25h-7.38c-.2 0-.25-.06-.25-.25q.01-4.57.01-9.14zM73.56 54.6c0 3.09 0 5.43-.1 7.76 0 .66-.09 1.31-.17 2a2.38 2.38 0 0 1-2 2 19.54 19.54 0 0 1-2.56.23l-1.78.08c-.16 0-.2 0-.2-.19V63.6c0-.17.06-.2.21-.19s.59 0 .88 0a.6.6 0 0 0 .64-.49 4.53 4.53 0 0 0 .17-1.22c.08-1.31.06-2.62.07-3.93v-9.69c0-.23 0-.31.29-.31h4.29c.2 0 .27 0 .27.25-.01 2.49-.01 4.91-.01 6.58z" />
</svg>
