<svg xmlns="http://www.w3.org/2000/svg" viewBox="0 0 109.29 137.25">
    <title>pin-sam</title>
    <path d="M13.52 52.61a5.3 5.3 0 0 0 5-5.29 5 5 0 0 0-3.44-4.82c-.65-.22-1.33-.39-2-.59a9.41 9.41 0 0 1-2-.81 2.5 2.5 0 0 1-1.32-2.25 3.22 3.22 0 0 1 6.31-1c.27.85.27.85 1.13.85h.28c.6 0 .65-.08.57-.66a3 3 0 0 0-.08-.37 4.65 4.65 0 0 0-3.76-3.68 5 5 0 0 0-5.37 1.94 4.58 4.58 0 0 0 2 7c.56.21 1.14.36 1.71.53a9.87 9.87 0 0 1 2.62 1 3.16 3.16 0 0 1 1.61 3.24 3.76 3.76 0 0 1-2.68 3.11 3.65 3.65 0 0 1-4.64-2.74c-.22-.81-.22-.81-1-.81h-.38c-.62 0-.63 0-.55.66a5.32 5.32 0 0 0 5.99 4.69zM23.92 46.91a1 1 0 0 1 1-.71h7.09a1 1 0 0 1 1 .73c.53 1.31 1.11 2.61 1.66 3.91.67 1.57.67 1.57 2.46 1.43a2.85 2.85 0 0 0-.35-1l-6.86-16c-.56-1.3-.2-1-1.71-1.1a.94.94 0 0 0-1.06.67c-2.37 5.6-4.78 11.18-7.17 16.77-.09.21-.3.42-.08.72a4.69 4.69 0 0 1 .73 0c.67.1 1-.19 1.25-.82.68-1.55 1.4-3.06 2.04-4.6zm4.61-10.94c1.1 3 2.39 5.74 3.49 8.58h-7.06c1.17-2.85 2.42-5.56 3.57-8.58zM57.87 51.31V36.17c0-.62.27-1.42-.12-1.83s-1.26-.1-1.9-.18-.82.19-1 .7c-1.9 4.81-4 9.54-5.78 14.39-.05.14-.06.32-.35.38-.2-.53-.39-1.08-.61-1.62q-2.44-6-4.89-12c-.25-.6-.3-1.43-.84-1.74s-1.36-.07-2-.1h-.09c-.36 0-.52.14-.51.5v17.32c0 .13.06.28.19.29a2.49 2.49 0 0 0 1.39 0c.3-.15.15-.58.14-.88V36.92c0-.2-.1-.43.16-.66.08.18.17.34.23.51.7 2 1.52 3.94 2.31 5.9q1.8 4.47 3.62 8.94c.1.25.12.64.41.7a3.74 3.74 0 0 0 1.22 0c.39 0 .39-.46.5-.73 2-4.95 4-9.85 5.93-14.84.07-.19.06-.46.39-.47v.47c-.16 4.83 0 9.65-.08 14.48v.76s.06.33.26.33h1.23c.19 0 .26-.15.27-.32s-.08-.46-.08-.68zM102.29 65.16A5.57 5.57 0 0 0 98.85 63a11.62 11.62 0 0 1-2.08-.62 2 2 0 0 1-1.17-1.16 2.55 2.55 0 0 1 1.49-3.26 2.36 2.36 0 0 1 3.15 1.59c.25.72.25.72 1 .72h.76c1.07 0 1.09 0 .86-1.05a4.92 4.92 0 0 0-6.32-3.81 5.08 5.08 0 0 0-3.76 4.89 4.7 4.7 0 0 0 3.4 4.88c.39.13.78.24 1.18.34a9.48 9.48 0 0 1 2 .65 2.36 2.36 0 0 1 1.39 2.1 3 3 0 0 1-2.49 3.19 2.85 2.85 0 0 1-3.4-2.14 2.71 2.71 0 0 1-.12-.46c0-.37-.27-.45-.59-.44h-1.51s-.55.12-.51.56a5.56 5.56 0 0 0 4 4.92 5.69 5.69 0 0 0 6.21-8.74zM15.75 66.7a5 5 0 0 0 3.9-4 6.38 6.38 0 0 0-.13-3.18 4.88 4.88 0 0 0-3.11-3.43 8.2 8.2 0 0 0-3-.53H8.89c-1 0-1 0-1 1v16.66s.13.47.45.46h1.23c.88 0 .9 0 .9-.87v-6.62a1.76 1.76 0 0 1 .06-.88c.28.06.34.26.44.41l5.3 7.49c.14.2.22.48.53.48h3l-5-6.69c.1-.09.12-.12.15-.13zm-5-1.7c-.31 0-.33-.22-.33-.46v-2.93-2.84c0-.46.09-.69.62-.67a29.28 29.28 0 0 1 3.3.12 3.29 3.29 0 0 1 2.88 4.17 3 3 0 0 1-1.89 2.08 11.53 11.53 0 0 1-4.54.51zM90.98 55.59h-6.53c-1.83 0-1.83 0-1.74 1.83 0 .66 0 .67.72.69s1.33 0 2 0c.42 0 .57.15.54.55V73.04s0 .71.75.72h1.14c.71 0 .72 0 .72-.75v-7.09-6.34c0-1.45 0-1.43 1.43-1.45 1.95 0 1.73.32 1.73-1.77-.02-.76-.09-.77-.76-.77zM77.14 66.88l.73-.18a5.07 5.07 0 0 0 3.66-3 5.62 5.62 0 0 0-4.34-8 50.94 50.94 0 0 0-6.71-.16c-.26 0-.42.1-.42.38v17.32s.14.45.46.44h1.51s.64-.21.63-.67v-6.72a2.5 2.5 0 0 1 0-1c.36.09.44.39.59.61l5.19 7.34c.16.23.31.47.66.47h2.92l-5-6.71c.02-.04.06-.1.12-.12zm-4.09-1.89c-.36 0-.39-.24-.39-.51v-2.93-2.93c0-.33.07-.54.46-.53a23 23 0 0 1 3.49.12 3.28 3.28 0 0 1 2.77 4.38 3.07 3.07 0 0 1-1.94 1.92 11.91 11.91 0 0 1-4.39.48zM61.02 65.75h4.35c2 0 2 0 1.77-2v-.09c0-.28-.17-.39-.42-.4h-5.68c-.42 0-.64-.08-.63-.57v-4.07c0-.5.23-.56.64-.56h5.6c.39 0 .58-.16.56-.57s0-.76 0-1.14c0-.78 0-.79-.77-.8h-7.88c-.76 0-.77 0-.77.8v16.57c0 .77 0 .78.79.78h7c1.59 0 1.59 0 1.57-1.61 0-.87 0-.88-.9-.88h-5.21c-.5 0-.65-.16-.64-.65V66.3c.01-.42.18-.6.62-.55zM31.04 55.21a9.45 9.45 0 1 0 9.47 9.49 9.43 9.43 0 0 0-9.47-9.49zm0 16.29a6.85 6.85 0 1 1 6.89-6.67A6.75 6.75 0 0 1 31 71.51zM52.84 64.53l-.66-.5c0-.28.25-.39.4-.55a4.13 4.13 0 0 0 1-4.38 5 5 0 0 0-4.93-3.5h-4.54c-.71 0-.72 0-.72.75v16.48c0 .91 0 .92.94.92h4.83a6.22 6.22 0 0 0 1.78-.24 5.07 5.07 0 0 0 3.79-4.06 4.63 4.63 0 0 0-1.89-4.92zm-6.44-6.44a17.06 17.06 0 0 1 2.73.09 2.48 2.48 0 0 1 2 2 2.34 2.34 0 0 1-1.85 2.76 13.58 13.58 0 0 1-2.92.13c-.29 0-.37-.17-.37-.43v-2.08-2c.01-.26.07-.48.42-.47zm3.25 13.1c-1.06.11-2.14 0-3.21.06-.36 0-.4-.22-.4-.5V68.3v-2.36c0-.42.16-.55.56-.54h2.83a3 3 0 0 1 2.87 2.85 2.85 2.85 0 0 1-2.65 2.94z" />
</svg>
