<svg xmlns="http://www.w3.org/2000/svg" viewBox="0 0 109.29 137.25">
    <title>pin-dead </title>
    <path d="M98.77 52.22a19.08 19.08 0 0 1 .12 2.48c0 1.83-.15 3.65-.37 5.47a43.62 43.62 0 0 1-6.27 17.8 47.81 47.81 0 0 1-4.39 5.91 40.72 40.72 0 0 1-3.55 3.61 43.83 43.83 0 0 1-15.95 9.14 41.61 41.61 0 0 1-6 1.43c-1.41.22-2.82.38-4.25.49a47.28 47.28 0 0 1-5.32.05 37.71 37.71 0 0 1-5.27-.61 44.13 44.13 0 0 1-7-1.82 45.17 45.17 0 0 1-6.65-3 42.66 42.66 0 0 1-5.42-3.58 32.37 32.37 0 0 1-2.7-2.28c-.58-.56-1.2-1.09-1.75-1.67a46.47 46.47 0 0 1-6.07-7.94 45.17 45.17 0 0 1-3.54-7.17 43.13 43.13 0 0 1-2-6.95 41.52 41.52 0 0 1-.63-4.23 40.29 40.29 0 0 1-.25-5.77c.06-1.42.15-2.85.34-4.27a47.42 47.42 0 0 1 1-5.38 44.1 44.1 0 0 1 2.46-7.16 43.6 43.6 0 0 1 4.21-7.46 44.26 44.26 0 0 1 3.41-4.25q1.17-1.29 2.42-2.48a43.78 43.78 0 0 1 5-4 42.91 42.91 0 0 1 15.51-6.88 46.5 46.5 0 0 1 10.44-1 47.66 47.66 0 0 1 5.16.45 44 44 0 0 1 8 1.93 43.69 43.69 0 0 1 10.32 5.22 46.16 46.16 0 0 1 3.68 2.82 45.46 45.46 0 0 1 3.37 3.2 43.35 43.35 0 0 1 8.1 12 41.54 41.54 0 0 1 2.84 8.45c.28 1.28.51 2.57.73 3.86a20.18 20.18 0 0 1 .2 2.2 4.56 4.56 0 0 1 .07 1.39zm-29.85 15a.47.47 0 0 0 .47-.05 2.2 2.2 0 0 0 1.17-2.33 12 12 0 0 1 .49-4.89c.55-2 1.48-3.76 2.2-5.64a14.25 14.25 0 0 0 1-5.29 17.24 17.24 0 0 0-.08-2.82 37 37 0 0 0-.79-4.06 17.15 17.15 0 0 0-3.39-6.18 21.35 21.35 0 0 0-3.34-3.26 18.12 18.12 0 0 0-5.29-2.92 16.83 16.83 0 0 0-3.86-.83 13.43 13.43 0 0 0-3.74-.12c-.83.15-1.68.21-2.52.37a16.18 16.18 0 0 0-3.85 1.23 20 20 0 0 0-6.74 5.27 19.33 19.33 0 0 0-3.78 6.71 27.41 27.41 0 0 0-.92 5.94 17.78 17.78 0 0 0 .11 2.35 15.49 15.49 0 0 0 .75 4 36.9 36.9 0 0 0 2.08 4.83 6 6 0 0 1 .62 3.85 4.45 4.45 0 0 0 .22 2.72 2.76 2.76 0 0 0 1.83 1.6l-1.21-1.35a2.84 2.84 0 0 1-.85-2.3c.08-.55.31-1.08.4-1.64a3.89 3.89 0 0 0 .22-1.57 7.81 7.81 0 0 0-1.07-2.48 12.64 12.64 0 0 1-2.07-4.81 3.51 3.51 0 0 1-.13-1.23c.17.06.16.16.19.25a23.49 23.49 0 0 0 1.39 3.73 24 24 0 0 0 1.74 2.67 4.47 4.47 0 0 1 .75 3.38 7.34 7.34 0 0 1-.49 1.35 1.62 1.62 0 0 0 1.27 2.14l-.13-.14a2.16 2.16 0 0 1-.84-1.9 4.4 4.4 0 0 1 .33-1.17 3.51 3.51 0 0 0-.5-3.71 18.49 18.49 0 0 1-3.35-8.54 19.85 19.85 0 0 1 .07-5.3 16.84 16.84 0 0 1 2.24-6.26 19.38 19.38 0 0 1 6-6.1 17.59 17.59 0 0 1 7.87-2.82 16.8 16.8 0 0 1 4.4.13 17.68 17.68 0 0 1 7.13 2.67 19.77 19.77 0 0 1 3.36 2.76 17.39 17.39 0 0 1 1.61 2 16.46 16.46 0 0 1 2.45 4.75 20.31 20.31 0 0 1 .84 4.38 17.78 17.78 0 0 1-.06 3.69A20.09 20.09 0 0 1 72 54.93a16 16 0 0 1-3.2 5.22 21.82 21.82 0 0 1-2.49 2.31 17.67 17.67 0 0 1-4.58 2.65 22.15 22.15 0 0 1-4.9 1.14 1.7 1.7 0 0 0-1.61 1.62c0 .16 0 .31-.22.36s-.08-.18-.1-.27c-.3-1.26-.63-1.48-2-1.78-1.05-.24-2.13-.39-3.15-.73a17.33 17.33 0 0 1-7.1-4.37 1.89 1.89 0 0 0-.48-.45c-.21-.1-.2-.44-.49-.41a4.13 4.13 0 0 1 .06 2.68 1.83 1.83 0 0 0 .28 1.8 5.44 5.44 0 0 0 2 1.51 1.57 1.57 0 0 0 1 .24 9.48 9.48 0 0 1 3.48 0 11.54 11.54 0 0 1 4.85 2 .62.62 0 0 1 .31.59 11.71 11.71 0 0 0-.17 1.66c0 .25-.27.21-.45.21s-.14-.15-.12-.29a3.55 3.55 0 0 0-.2-1.39c-.06-.26-.26-.25-.45-.13a2.61 2.61 0 0 1-1.41.29 27.21 27.21 0 0 0-3.19.07.5.5 0 0 0-.42.25.25.25 0 0 0 .09.37c.1.06.2.12.15.26s-.2.09-.29.08a.87.87 0 0 0-.89.43 1.55 1.55 0 0 0 .15 1.63 1.13 1.13 0 0 0 1 .61 1 1 0 0 1 .76.29 1.88 1.88 0 0 0 1.74.57c.54-.12.62 0 .66.54a10 10 0 0 0 .88 2.81c.1.25.3.31.54.17a2.81 2.81 0 0 0 .42-.21.83.83 0 0 1 1.08 0c.16.1.33.28.51.23.43-.12.64.09.82.43.09.17.22.22.42.05.67-.56.79-.56 1.51-.1.11.07.18.22.34 0 .3-.33.62-.67 1.15-.51.06 0 .18-.06.25-.13a7.27 7.27 0 0 0 1-1.08c.08-.14.14-.38.34-.34s.16.25.22.39.05 0 .07 0a2.34 2.34 0 0 0 .49-.91c.18-.51 0-.78-.53-.86a2.47 2.47 0 0 0-.87 0c-.08 0-.21 0-.24-.09s.05-.17.15-.2a5.42 5.42 0 0 0 1.19-.65 2.46 2.46 0 0 1 2.11-.43 2.14 2.14 0 0 0 2.54-1 8.3 8.3 0 0 0 .47-2.14c.05-.21-.15-.32-.32-.41s-.65-.08-.6-.41.49-.22.75-.34h.14a4.76 4.76 0 0 0 1.33-.4 3.77 3.77 0 0 0-.87 0c-.5 0-1 .11-1.5.17-1 .12-1.91.22-2.85.37s-1.65 0-2.47.13c-.33.06-.7 0-1.07 0-.9.1-1.21-.13-1.11-.86a1.1 1.1 0 0 1 .33-.56 3.86 3.86 0 0 1 1.48-1 8.66 8.66 0 0 1 6.62-.2c.63.24 1.29.64 2 .11a2.67 2.67 0 0 0 1.2-1.38 13.25 13.25 0 0 0 .33-2.37 9.43 9.43 0 0 1 1.84-3.93 2.19 2.19 0 0 1-.41 1.18 6.63 6.63 0 0 0-.85 3.66 2.71 2.71 0 0 1-1 2.66s-.13.09-.08.19a1.88 1.88 0 0 0 1.28-.99 4.16 4.16 0 0 0 .05-2.08 2.81 2.81 0 0 1 .17-1.48c0-.1.1-.17.21-.14s.07.12.06.2a7 7 0 0 0 .18 2.18 2.53 2.53 0 0 1 0 .8 3.33 3.33 0 0 1-1.4 2.15zM55.77 44.46c-.93.67-1.86 1.32-2.77 2-1.81 1.35-3.61 2.72-5.42 4.08-.06 0-.16.06-.12.16s.12.1.2.09a1.17 1.17 0 0 0 .38 0 7.38 7.38 0 0 1 1.77-.22l2.24-.28c.14 0 .31-.09.39.06s-.09.22-.18.3c-1 1-2.1 1.81-3.15 2.71a16.41 16.41 0 0 0-2.06 2c1.28 0 2.45-.23 3.71-.29-1.27 2.55-3.09 4.77-3.89 7.6 1.58-.71 3.1-1.28 4.7-1.84l-1.09-.54c-.11-.06-.27-.11-.28-.23s.19-.19.3-.24c.84-.35 1.7-.66 2.53-1a16.6 16.6 0 0 0 2.21-1.12 25.29 25.29 0 0 1-2.59-.68c2.6-1.41 5.29-2.46 7.87-4l-5.3-.17a7.43 7.43 0 0 1 1.6-1.15c1.89-1.17 3.81-2.3 5.61-3.62.16-.12.52-.21.44-.41s-.43-.13-.66-.12c-.92 0-1.84 0-2.75.13-.51.05-1 0-1.54.07a2.67 2.67 0 0 1-1.43-.13c2.69-1.65 5.18-3.45 7.83-5.19a47.09 47.09 0 0 1-5.57-.7c1.86-1.6 3.76-3 5.57-4.7l-3.06.67c-.09 0-.2.07-.27 0s0-.21.06-.3c.43-.7.78-1.44 1.14-2.18l1-2.07a19.1 19.1 0 0 0-3.68 1.75l1.69.35c.09 0 .21 0 .24.11s-.1.18-.2.22c-1.19.53-2.39 1-3.57 1.58-1 .45-2 .92-2.95 1.39-.07 0-.21.07-.17.19a.22.22 0 0 0 .22.14 7.29 7.29 0 0 1 1.35.2c1 .15 2.07.33 3.11.49a77 77 0 0 0-8.65 5 29.47 29.47 0 0 1 5.19-.11zm21.6 27.84a.75.75 0 0 0 .08.6c.28.56.38 1.27 1 1.54a8.07 8.07 0 0 0 3 .62 18 18 0 0 0 2.13-.07c1-.1 2-.27 3-.45.72-.13 1.44-.29 2.16-.41.19 0 .52-.05.46.22a3.87 3.87 0 0 1-.15 1 27 27 0 0 1-1.81 3.23 3 3 0 0 0-.59 1.12c0 .1-.06.25.06.3s.17-.08.24-.17a61.19 61.19 0 0 0 3.84-5.76 25.31 25.31 0 0 0 2.07-4.9 1 1 0 0 0-.23-1.12c-.3-.27-.71-.16-1.08-.06a1.58 1.58 0 0 1-.83.06 21 21 0 0 1-6.58-2.74c-.52-.33-1.11-.62-1.36-1.28a.66.66 0 0 0-.82-.4 1.1 1.1 0 0 0-.87.68 24 24 0 0 1-2.87 5.67 3.48 3.48 0 0 0-.85 2.32zm-49-23.91a2.24 2.24 0 0 0-.47-1.69 1 1 0 0 0-1-.48c-.37 0-.34.43-.5.66 0 0 0 .12-.05.18-.17.38-.44.47-.86.42a2 2 0 0 1-1.54-2.36c.21-.88.57-1.21 1.48-.8a4.55 4.55 0 0 1 .92.56 4.42 4.42 0 0 0 1.5.83.78.78 0 0 0 .86-.21 3.43 3.43 0 0 0 .93-2.2c.05-.73-.09-.9-.77-1.15a3.23 3.23 0 0 0-.64-.14c-.73-.1-1.46-.17-2.18-.3s-.72-.25-.55-.92c0-.16.1-.34-.05-.43a3 3 0 0 0-2.65-.66 2 2 0 0 0-1 .67c-.16.21-.31.21-.55.1a6.56 6.56 0 0 0-3.07-.54 1 1 0 0 0-1 .63 14.65 14.65 0 0 0-.88 2.76 10.08 10.08 0 0 0-.56 3.38c0 .27.07.5.36.59a.56.56 0 0 0 .68-.3c.12-.18.21-.39.33-.57s.27-.32.57-.12a17.69 17.69 0 0 1 2.33 2.16 7.65 7.65 0 0 0 2.1 1.49 10.3 10.3 0 0 0 3.28 1.06 2.86 2.86 0 0 0 2.94-1.83 4.82 4.82 0 0 0 .03-.79zm-9.22 21.8a1.6 1.6 0 0 1-.24 0c-.46-.07-.61.12-.59.58a5.94 5.94 0 0 0 .23 1.39 13.64 13.64 0 0 0 1.59 3 8.93 8.93 0 0 0 .74 1.45c.48.58.94 1.17 1.38 1.78a18.73 18.73 0 0 0 2 2.51c.14.14.3.23.45.11s0-.26-.05-.38a10.75 10.75 0 0 0-1.12-1.83 5.58 5.58 0 0 1-1.3-2.71c0-.23 0-.28.21-.28a24.89 24.89 0 0 0 3.51-.38 12.13 12.13 0 0 0 4.37-1.44 5.17 5.17 0 0 0 2.29-2.67.73.73 0 0 0 0-.58 31.23 31.23 0 0 0-1.46-3 32.54 32.54 0 0 1-1.86-3.79c-.08-.22-.2-.41-.45-.41a6.51 6.51 0 0 0-1.23 0 7.5 7.5 0 0 0-2.97 1.6 15.16 15.16 0 0 0-2.68 2.63 2.63 2.63 0 0 0-.46 1 .4.4 0 0 0 .16.53 4.71 4.71 0 0 0 4 .54c.16 0 .42-.07.43-.3a.62.62 0 0 0-.34-.54c-.56-.34-.54-.76 0-1.16a2.22 2.22 0 0 1 2.34-.2 1.1 1.1 0 0 1 .63 1.06 5.11 5.11 0 0 1-1.41 2.4 6 6 0 0 1-3.11 1.64 4.86 4.86 0 0 1-3.08 0 1.54 1.54 0 0 1-.92-.81c-.15-.36 0-.47.31-.51a2.92 2.92 0 0 0 .6-.09c.18-.06.32-.16.34-.35s-.15-.22-.27-.29a4 4 0 0 0-2.05-.5zM79.79 41.7a3.85 3.85 0 0 0 3.12-1.49 13.59 13.59 0 0 0 2.08-4.13 27.56 27.56 0 0 0 1.28-5.9 3.22 3.22 0 0 0-.73-2.51 10.23 10.23 0 0 0-2.16-2.06c-.39-.28-.62-.28-.87.14a8 8 0 0 1-1.49 2c-.91.8-1.71 1.74-2.56 2.61-.15.16-.38.25-.49.43a4.15 4.15 0 0 1-1.52 1.22c-.93.52-1.94.87-2.9 1.31-.24.11-.32.2-.21.49a5.63 5.63 0 0 0 1.25 1.86 18.4 18.4 0 0 1 2.52 2.81 26.56 26.56 0 0 0 1.38 2.22c.36.49.59 1.18 1.3 1zm15.78 13.25v-.24c0-.35-.07-.63-.44-.73s-.57.22-.7.53c-.32.8-.31.81-1.12.51-.12 0-.23-.11-.34-.16-.93-.41-1.75-1-2.65-1.5a8.27 8.27 0 0 0-5.67-.66 2.2 2.2 0 0 0-2.1 2 2.38 2.38 0 0 0 1.76 2.79c.58.11.72 0 .79-.62a1.07 1.07 0 0 1 1.29-1 1.85 1.85 0 0 1 .74.4 2.44 2.44 0 0 1 1 1.9c0 .87-1 1.36-2 1-.76-.33-1.5-.71-2.26-1s-.9-.11-1.16.51a8 8 0 0 0-.48 2.57c0 .22.07.28.28.33a8.5 8.5 0 0 0 2.82-.07 3.56 3.56 0 0 1 1.77.29c.2.08.29.16.2.42s.06.67.46.76a3.64 3.64 0 0 0 1.72 0 1.62 1.62 0 0 0 1.25-.88.48.48 0 0 1 .46-.27c.47 0 .94 0 1.41-.09a4.75 4.75 0 0 0 1.95-.6 1.42 1.42 0 0 0 .74-1 14.41 14.41 0 0 0 .19-1.54 35.69 35.69 0 0 1 .09-3.64zm-73.85 2.29c.09-.26.16-.43.21-.61a4.17 4.17 0 0 0 .22-2.31 1.29 1.29 0 0 0-1.5-.9 8.64 8.64 0 0 0-3.1 2 11.29 11.29 0 0 0-1.83 2.49 3.5 3.5 0 0 0-.6 2.46 9.76 9.76 0 0 1 .46 2.77 1.46 1.46 0 0 0 .07.56.61.61 0 0 0 .88.4l1.25-.4a34 34 0 0 1 6.87-1.84 8.41 8.41 0 0 1 2.55 0c.64.13.88 0 .93-.66a6.19 6.19 0 0 0-.6-2.77c-.07-.18-.15-.22-.39-.18a11.7 11.7 0 0 0-2.44.94 3.72 3.72 0 0 1-2.39.46c-.33-.08-.21-.18-.1-.32a1.42 1.42 0 0 1 .24-.23c1-.8 2.07-1.4 3.09-2.12a3.89 3.89 0 0 0 2-3.52c-.07-1.22-.4-1.29-1.26-1.54a1.8 1.8 0 0 0-.93.08 1.42 1.42 0 0 0-1.14 1.89 1.27 1.27 0 0 1 0 .65 4.11 4.11 0 0 1-2.49 2.7zm35.22-30.7h1c.55 0 .62-.09.48-.61a27.14 27.14 0 0 1-.7-3.68 29.08 29.08 0 0 1-.07-3.89 6.45 6.45 0 0 1 .33-2 6.1 6.1 0 0 0 .43-1.92c0-.22-.06-.32-.31-.38a8.12 8.12 0 0 0-2.59-.17c-1.16.1-1.28.44-.68 1.47a1.74 1.74 0 0 1 .31.83 28.74 28.74 0 0 1 .21 4.85 4.49 4.49 0 0 1-.83 2.29 1.41 1.41 0 0 1-1.95.3 2.74 2.74 0 0 1-1.1-2.55 7.76 7.76 0 0 1 .87-2.8 7.06 7.06 0 0 0 .82-3.39.57.57 0 0 0-.25-.52 3.58 3.58 0 0 0-3.61.2 1 1 0 0 0-.33 1c.1.36.46.31.76.31a4.44 4.44 0 0 0 .46-.07c.29 0 .66-.16.85.2a.9.9 0 0 1 0 1.13 13.77 13.77 0 0 0-1.89 3.06 6.68 6.68 0 0 0-.5 4.22 3.4 3.4 0 0 0 4.25 2.47 2.54 2.54 0 0 0 1.11-.52 4.8 4.8 0 0 1 1.1-.7c.24-.1.31 0 .35.18s-.13.53.1.66a1.72 1.72 0 0 0 .7 0zm-19.08 2a1.2 1.2 0 0 1-.27 1 2.39 2.39 0 0 1-2.6.66 1.06 1.06 0 0 1-.72-1.36c.09-.56.57-.42.93-.46a.56.56 0 0 0 .48-.32 2.32 2.32 0 0 0 .17-1.86c-.14-.44-.3-.93-.85-1.1-.19-.06-.2-.07-.28.12a1.3 1.3 0 0 1-2.13.63 1.65 1.65 0 0 1-.78-1.52 1.39 1.39 0 0 1 1-1.13c.43-.19.72.07 1 .3s.71.29.85-.06a3.1 3.1 0 0 0-.14-2.74 1 1 0 0 0-1.35-.27c-.6.41-1.21.83-1.8 1.27a17.21 17.21 0 0 0-3.83 3.6c-.39.53-.35.74.25 1.05a1.79 1.79 0 0 0 .52.21 1.38 1.38 0 0 1 .8.44c.72.73 1.45 1.46 2.13 2.23a13.3 13.3 0 0 1 1.66 2.27 33.87 33.87 0 0 0 1.73 3 .64.64 0 0 0 .93.24 5.5 5.5 0 0 0 1.58-1.29 25.57 25.57 0 0 1 3.51-2.75.77.77 0 0 0 .35-.91 3.52 3.52 0 0 0-.77-1.58 3 3 0 0 0-2.13-1.16c-.51 0-.6.12-.41.58a1.59 1.59 0 0 1 .17.92zm46.12 22.59a3.21 3.21 0 0 0 3-1.88c.27-.57.27-.55-.33-.71-.31-.08-.61-.22-.92-.34a1.58 1.58 0 0 1-1-1.65 1.79 1.79 0 0 1 1.34-1.68c.4-.12 1.25.27 1.17.54a1.69 1.69 0 0 0 0 .87 1.93 1.93 0 0 0 2.54 1.53c.32-.1.55-.11.21-.51a2.71 2.71 0 0 1-.51-1.05 1.71 1.71 0 0 1 .17-1.65 1.58 1.58 0 0 1 2.2-.15 1.52 1.52 0 0 1 .2 2.31 4 4 0 0 1-.47.47c-.35.25-.18.44.05.62a3.13 3.13 0 0 0 2.45.61c.21 0 .54 0 .62-.33a2.68 2.68 0 0 0 .1-1 15.94 15.94 0 0 0-.91-3.53 3.77 3.77 0 0 1-.25-1.09 3.36 3.36 0 0 0-.62-1.93c-.21-.26-.44-.48-.84-.3-1.23.53-2.47 1-3.71 1.56a19.36 19.36 0 0 1-6.69 1.52 1 1 0 0 0-.88 1.21c.13.45.29.89.43 1.33a36.22 36.22 0 0 1 1.19 4.28c.18 1 .29 1 1.27 1zM26.34 28.36a1.7 1.7 0 0 0-.75-1.59c-.17-.15-.24-.2-.37.05a19.8 19.8 0 0 1-2.78 3.83 17.67 17.67 0 0 0-2.24 3.23 1.65 1.65 0 0 0-.08 1.71 4.71 4.71 0 0 0 1.63 2.18.51.51 0 0 0 .74-.08 2 2 0 0 0 .42-1.3 4 4 0 0 1 .37-1.82c.26-.42.5-.44.76 0a24.73 24.73 0 0 1 1.7 3.41 5.41 5.41 0 0 0 2.52 2.31 4.27 4.27 0 0 0 2.46.53.65.65 0 0 0 .63-.39 6.24 6.24 0 0 1 .77-1.18 10.3 10.3 0 0 0 1.44-2c.15-.34.58-.78.32-1s-.81 0-1.18.19a4.8 4.8 0 0 1-2.8.52 5.46 5.46 0 0 1-3.32-1.77 13.06 13.06 0 0 1-1.17-1.69 1.28 1.28 0 0 1-.19-1 7.8 7.8 0 0 1 .38-1.35 6.33 6.33 0 0 0 .74-2.79zm42.84-2.71a4.88 4.88 0 0 0-.13-1.06 3.55 3.55 0 0 0-1.07-2.33c-.2-.17-.47-.33-.67-.25s-.11.41-.06.61a4 4 0 0 1-.22 2.17 1.32 1.32 0 0 1-1.27.94c-.44 0-.69-.43-.9-.81a3.3 3.3 0 0 1 0-2.68 26.9 26.9 0 0 1 2-4.94 2.22 2.22 0 0 0 .26-.75c.06-.38 0-1-.3-1-.75-.16-1.46-.48-2.21-.61s-1.1.22-1.1 1v2a1.47 1.47 0 0 1 0 .42 40 40 0 0 1-2.26 6.34 1.07 1.07 0 0 1-.26.35c-.29.27-.68.49-.71 1-.06.78.37 1.24 1.24 1.42a11.63 11.63 0 0 1 1.36.12 14 14 0 0 1 3.31 1.27 4 4 0 0 0 1.58.48.73.73 0 0 0 .89-.48 9.93 9.93 0 0 0 .52-3.21zm-22.53-9.44c.18-1-.76-1.37-1.48-1.2a31.07 31.07 0 0 0-4.18 1.2 10.29 10.29 0 0 0-2.26 1.2.7.7 0 0 0-.28 1 11 11 0 0 0 .88 1.65 18.15 18.15 0 0 1 2.32 4.22c.48 1.39.6 2.87 1 4.28.13.46.26.6.72.47a6.46 6.46 0 0 0 2.28-.87c.39-.3.66-.84.48-1.1a14.06 14.06 0 0 0-.92-1.25 5.58 5.58 0 0 1-1.42-2.39c-.17-.73 0-1 .7-1.07a1.9 1.9 0 0 0 1.67-2.57c-.08-.27-.16-.26-.35-.15a4.51 4.51 0 0 1-1.61.48 1.33 1.33 0 0 1-1.65-1.41 1.42 1.42 0 0 1 .82-1.32c.6-.26 1 .07 1.33.48.05.06.12.11.17.17a.4.4 0 0 0 .53.12 2 2 0 0 0 1.25-1.94zm6.48 62.67a4.71 4.71 0 0 1 0-.63.48.48 0 0 0-.38-.6c-.3-.08-.45.14-.56.35a2.84 2.84 0 0 0-.23 1.93c.06.3.18.53.48.55s.47-.24.56-.49a2.7 2.7 0 0 0 .13-1.11zm2.29.5v.18c0 .43.13.81.54.89a.73.73 0 0 0 .83-.57 1.92 1.92 0 0 0-.43-1.71c-.28-.21-.46-.18-.64.14a1.92 1.92 0 0 0-.3 1.08zM41.26 68.23l-.29-.12a3.22 3.22 0 0 1-2.21-3c.06-1.09 0-2.17.06-3.26a4.55 4.55 0 0 0-.71-2.35 7.47 7.47 0 0 0 .18.81 6.58 6.58 0 0 1 .17 4.29 1.54 1.54 0 0 0-.09.6 3.2 3.2 0 0 0 1.51 2.57 2.09 2.09 0 0 0 1.38.46zm8.91 8.38a3.68 3.68 0 0 0-.43-1.9c-.08-.13-.19-.24-.35-.18s-.11.18-.06.25c.39.54 0 .93-.24 1.37a2.22 2.22 0 0 0-.1 1.87.34.34 0 0 0 .34.27.36.36 0 0 0 .32-.3 1.56 1.56 0 0 0 0-.75c-.08-.4-.1-.81-.14-1.22 0-.1 0-.21.1-.24s.17.1.22.19.02.46.34.65zm9.61.24c-.15.08-.24.11-.31.16a.44.44 0 0 0-.13.14 2.55 2.55 0 0 0-.3 2.46c.06.15.1.39.3.37s.22-.24.27-.4a6.93 6.93 0 0 0 .17-2.73zm-5.13 2.56v-.71s-.19-.36-.36-.46a.27.27 0 0 0-.31 0 1.69 1.69 0 0 0 0 2c.13.1.29.23.48.15a.43.43 0 0 0 .2-.44c-.01-.13-.01-.33-.01-.54zm-3.48.55c.59-.92.12-1.81-.06-2.7 0-.1-.05-.28-.22-.26s-.2.18-.23.32a4.33 4.33 0 0 0 .15 2.09.8.8 0 0 0 .36.55zm7.19-.59a2.28 2.28 0 0 0-.3-1.11c-.11-.2-.28-.27-.4 0a2.34 2.34 0 0 0-.31 1.34c.05.33.19.75.59.73s.38-.44.42-.75a1.41 1.41 0 0 0 0-.2zm9.29-9.58c0-.16.06-.37-.2-.4s-.33.19-.36.36c-.11.68-.2 1.36-.29 2 0 .17 0 .43.15.46s.29-.19.36-.36a8.5 8.5 0 0 0 .34-2.06zm-2 3.11a1.64 1.64 0 0 0 .65-.85c.19-.48.06-1 .32-1.47.12-.21.12-.53-.09-.62s-.28.23-.35.42a9.67 9.67 0 0 0-.53 2.51zm-4.82 3.2a4.38 4.38 0 0 0-.5 2.06c0 .19.1.31.33.1.56-.56.64-1.13.17-2.16zm-17.48-3.62a3.78 3.78 0 0 1-.36-.83c-.05-.28-.11-.55-.15-.83s0-.43-.28-.4-.26.26-.29.44a1.84 1.84 0 0 0 1.08 1.62zm4.74 1.73c.07.66-.2 1.32.28 1.92.28-1.21.21-1.59-.28-1.92zm13.5 1.16c.19-.37.36-.7.52-1 0-.1.16-.25 0-.31s-.4-.07-.41.17-.29.69-.11 1.14zm-16.1-3.11a2.17 2.17 0 0 1-.12-1.21c0-.2-.08-.32-.26-.32s-.22.22-.17.35a2.62 2.62 0 0 0 .55 1.17zm-.94.16a3.78 3.78 0 0 1-.52-1.65c-.38.45-.13 1.19.52 1.64zM12.77 52.7h-.07v4a.14.14 0 0 0 .07-.12V52.7zm33.77 17c-.07-.12.12-.39-.17-.38a.41.41 0 0 0-.36.42c0 .2.06.32.29.32s.24-.23.24-.41zM11.65 56.23v-3zm31.63 12.76c0-.16-.14-.21-.29-.2s-.32.11-.32.28a.25.25 0 0 0 .3.23c.14-.03.31-.08.31-.31zm1.26.32c0-.15-.17-.21-.23-.2s-.33.08-.34.31.08.2.23.2.33-.06.35-.31zm1 .14c0-.12 0-.23-.15-.19a.38.38 0 0 0-.31.35c0 .13.05.2.18.22.39.03.17-.29.32-.38z" />
    <path d="M53.84 71.12c.86.62 1.08 2.8.41 4a1.89 1.89 0 0 1-.82-2.27c.15-.58.22-1.15.41-1.73zM56 71.18a6 6 0 0 0 .55 3c.13.28 0 .43-.25.54s-.43.44-.73.28-.28-.52-.35-.83a4.44 4.44 0 0 1 .18-2.12 1.87 1.87 0 0 1 .6-.87zM86.96 72.38a8.85 8.85 0 0 1-3.85-.67 2.91 2.91 0 0 1-1.25-.89 1.6 1.6 0 0 1 .49-2.25 2.85 2.85 0 0 1 2.19-.14 11.48 11.48 0 0 1 4.66 2.18 1 1 0 0 1 .44 1c-.07.44-.43.59-.8.7a7.31 7.31 0 0 1-1.88.07zM21.08 46.17a2.63 2.63 0 0 1-2.43-2.14c-.14-.6.64-1.27 1.34-1.17a2.09 2.09 0 0 1 .84.28.73.73 0 0 1 .38.65 10.61 10.61 0 0 0 .19 1.91c.09.41.04.52-.32.47zM84.4 30.06a8.71 8.71 0 0 1-.8 2.82 7.56 7.56 0 0 1-1.73 2.82 4.5 4.5 0 0 1-.65.54 1.8 1.8 0 0 1-2.44-.85 2.64 2.64 0 0 1 .59-2.56 13.21 13.21 0 0 1 4-3.7c.51-.32.93-.29 1 .58.04.09.03.22.03.35zM91.97 59.32a3.43 3.43 0 0 1-.7-.08.75.75 0 0 1-.68-.88 8.31 8.31 0 0 0-.52-1.94c-.11-.44 0-.59.41-.52A3.29 3.29 0 0 1 93 57.57c.65 1.13.24 1.75-1.03 1.75zM17.73 60.7a7.39 7.39 0 0 1-.77-.13c-.35-.09-.45-.57-.21-1a3.14 3.14 0 0 1 3-1.53.69.69 0 0 1 .59.92 2.45 2.45 0 0 1-2 1.63c-.16.02-.38.04-.61.11z" />
</svg>
