<svg xmlns="http://www.w3.org/2000/svg" viewBox="0 0 109.29 137.25">
    <title>pin-hall</title>
    <path d="M62.08 6.54a2.93 2.93 0 0 1 2.61 2 20.9 20.9 0 0 1 1.89 8.29c.34 12.3-3.22 23-12.85 31.22a2 2 0 0 0-.75 1.78c.1 2.85.16 5.7.22 8.55 0 .58-.09 1.14.79 1.23 6.48.68 9.44 5.06 10.93 10.75a17.81 17.81 0 0 1-1.64 13.04 11.13 11.13 0 0 1-8 6.13c-1.25.24-1.45.79-1.41 1.89.12 3.43.17 6.86.21 10.3a18.18 18.18 0 0 1-.64 5.33 8.21 8.21 0 0 1-9.86 6.09c-4.53-.85-8.5-4.81-9.09-9.06a8.13 8.13 0 0 1 1.23-5.76c2.13-3.26 6-3.21 8 .15a7.68 7.68 0 0 1 .91 5.51c-.52 2.63-1.86 3.53-5.22 3.6.82 2.93 4.53 4.44 7.93 3.24a6.7 6.7 0 0 0 4.16-4.28 15.13 15.13 0 0 0 .88-5.77c-.09-3.17-.27-6.33-.37-9.5 0-.75-.19-1.09-1-1.16-8.24-.7-13.25-5.69-16.15-12.9-4.39-10.9-1.44-20.37 6.37-28.65a92.09 92.09 0 0 1 8.62-7.86 2.8 2.8 0 0 0 1.18-2.67 47.22 47.22 0 0 1 3.34-22.33 27.39 27.39 0 0 1 5.41-8.08zM51.23 50.05a40.91 40.91 0 0 0-6.89 5.15c-4.76 4.32-8.26 9.34-8.57 16-.41 8.87 6.31 16.48 14.78 16.82 1.18 0 1.38-.31 1.36-1.37q-.26-9.23-.26-18.5c0-1.19-.34-1.45-1.48-1.08-5.5 1.77-7.31 9.28-3.23 13.55.35.37 1 .57.86 1.33-4.19-1.8-6.84-7.25-5.72-11.9s3.62-8.35 8.38-10.15c.44-.16.89-.26.88-.93-.06-2.89-.08-5.78-.11-8.92zm13-32.43a2.45 2.45 0 0 0-2.91-1.33 5 5 0 0 0-3.37 2.41c-3.6 5.48-5.73 11.44-5.3 18.15.09 1.34.49 1.42 1.47.72a23.35 23.35 0 0 0 4.66-4.71c2.81-3.61 5.23-7.42 5.76-12.12a6.17 6.17 0 0 0-.28-3.13zm-11 49.39c.12 6.43.24 12.76.37 19.08 0 2 .15 2 1.9 1.21 3.62-1.72 4.83-5 5.33-8.61A10.68 10.68 0 0 0 53.31 67z" />
</svg>
