<svg xmlns="http://www.w3.org/2000/svg" id="Layer_1" viewBox="0 0 109.3 137.2">
    <title>pin-restroom</title>
    <path d="M34.3 36c2.9 0 5.2-2.2 5.3-5.1-.1-2.8-2.4-5.1-5.2-5.2-2.8-.1-5.1 2-5.2 4.8v.4c-.1 2.7 2 5 4.7 5.1h.4zM44.4 42.5c-1-2.9-3.6-4.9-6.6-5.1h-7.1c-2.8.1-5.3 1.9-6.3 4.6-.5 1.6-1 3.3-1.5 4.9-1 3.4-2.1 6.8-3.2 10.2-.5 1.7.4 3.2 1.9 3.2 1.1 0 1.9-.7 2.4-2.1l3-9.9c.3-1 .7-2 .9-3.1.2-.6.6-.6 1-.5s.1.5 0 .7c-.4 1.5-.9 3-1.3 4.5-1.8 6.1-3.6 12.3-5.4 18.4-.1.5-.1.7.5.6h5.2c.6 0 .7.1.7.7V87c-.1 1.3.9 2.4 2.2 2.4.3 0 .6 0 .8-.1 1.2-.3 1.8-1.2 1.8-2.7V69.5c0-.6.2-.7.7-.7s.7.1.7.7v17.6c0 1.1.7 2 1.7 2.2 1.3.4 2.7-.3 3.1-1.6.4-.1.4-.4.4-.7V70.1c0-1.1 0-1.1 1.1-1.1h4.5c.9 0 .9 0 .6-.8-2.2-7.6-4.3-15.1-6.5-22.7-.1-.2-.2-.5 0-.6.2-.1.5-.1.7 0 .3 0 .3.4.4.6l2.7 8.9c.5 1.5.9 3 1.4 4.5.2.9 1.1 1.6 2 1.6 1-.1 1.8-.8 2-1.7.2-.7.2-1.4-.1-2-1.4-4.8-2.9-9.6-4.4-14.3zM76.7 36c2.8.1 5.2-2 5.3-4.9v-.2c0-2.9-2.3-5.2-5.2-5.2s-5.2 2.3-5.2 5.2c0 2.8 2.3 5.1 5.1 5.1zM81.7 37.4h-10c-3.8 0-6.9 3.1-6.9 6.9V59.9c0 .4 0 .7.1 1.1.1.8.6 1.4 1.4 1.7 1.2.4 2.5-.1 2.9-1.3.1-.3.2-.6.1-.9v-5.8-8.5c0-.5.2-.6.6-.6.6 0 .5.4.5.7v39.9c-.1 1.4.7 2.6 2 3.1 1.6.5 3.3-.3 3.8-1.9.1-.4.2-.7.1-1.1V75 63.3c0-.5.2-.8.7-.7s.2.5.2.8V86.6c.1 1.6 1.4 2.8 2.9 2.9 1.5.1 2.9-1 3.1-2.5.1-.4.1-.8.1-1.2V46.4c0-.3-.2-.8.5-.8s.6.4.6.8v14.1c0 1.2.9 2.2 2.1 2.2h.4c1.3-.1 2.2-1.2 2.1-2.4V44.7c.1-3.9-2.9-7.1-6.7-7.3h-.6zM58.9 55V27c0-.7-.2-.9-.8-.8-1.3.1-2.7.1-4 0-.8 0-1 .2-1 1v61.4s.1.6.6.6H58c.7 0 .9-.2.9-.9V55z" />
    <path d="M76.8 25.7c2.9 0 5.2 2.3 5.3 5.2 0 2.9-2.3 5.2-5.2 5.2s-5.2-2.3-5.2-5.2c-.1-2.9 2.3-5.2 5.1-5.2zm-42.4 0c2.8.1 5.1 2.3 5.2 5.2-.1 2.9-2.5 5.1-5.3 5.1-2.7.1-5-2-5.1-4.7v-.4c-.1-2.8 2.1-5.1 4.8-5.2h.4zm14.5 33c-.3.9-1.1 1.6-2.1 1.7-.9 0-1.8-.6-2-1.6-.5-1.5-.9-3-1.4-4.5l-2.7-8.9c-.1-.2 0-.6-.4-.6-.2-.1-.5 0-.7 0-.2.1 0 .4 0 .6 2.2 7.6 4.3 15.1 6.5 22.7.2.8.2.8-.6.8h-4.4C40 69 40 69 40 70.1V87c.1 1.4-1 2.5-2.3 2.6-.3 0-.6 0-.9-.1-1-.2-1.8-1.2-1.7-2.2v-8.8-8.8c0-.6-.2-.7-.7-.7s-.7.1-.7.7v17.1c0 1.5-.6 2.4-1.8 2.7-1.2.4-2.5-.3-2.9-1.5-.1-.3-.1-.5-.1-.8V80 69.8c0-.6-.2-.7-.7-.7H23c-.6 0-.6-.2-.5-.6 1.8-6.1 3.6-12.3 5.4-18.4.4-1.5.9-3 1.3-4.5 0-.2.4-.5 0-.7s-.8-.1-1 .5c-.3 1-.6 2-.9 3.1l-3 9.9c-.4 1.5-1.2 2.2-2.4 2.2-1.5 0-2.4-1.5-1.9-3.2 1-3.4 2.1-6.8 3.2-10.2.5-1.6 1-3.3 1.5-4.9 1-2.7 3.5-4.5 6.3-4.6h7.1c3 .2 5.6 2.2 6.6 5.1 1.5 4.8 3 9.5 4.5 14.3-.1.3-.1 1-.3 1.6zM58 89.1c-1.4-.1-2.9 0-4.3 0-.5 0-.7-.1-.6-.6v-1-60.4c0-.8.2-1 1-1 1.3.1 2.7.1 4 0 .7 0 .8.2.8.8V88.3c0 .7-.2.9-.9.8zm31-28.9c.1 1.2-.8 2.4-2.1 2.5-1.2.1-2.2-.7-2.4-1.9v-.3-7.3-6.8c0-.4.1-.8-.6-.8s-.5.4-.5.8v39.4c0 .4 0 .8-.1 1.2-.2 1.5-1.6 2.6-3.1 2.5-1.6-.1-2.9-1.3-2.9-2.9v-1.1-22.1c0-.3.2-.7-.2-.8s-.7.1-.7.7v23.1c.1 1.7-1.2 3.1-2.8 3.1-.4 0-.7 0-1.1-.1-1.3-.4-2.1-1.7-2-3.1V66.4v-20c0-.3.1-.7-.5-.7-.4 0-.6.1-.6.6v14.3c0 1.2-.9 2.3-2.2 2.3-.3 0-.6 0-.9-.1-.8-.2-1.3-.9-1.4-1.7 0-.4-.1-.7-.1-1.1V44.7c-.1-3.8 2.9-7 6.7-7.1h10.1c3.9-.2 7.1 2.8 7.3 6.6v.7c.1 5 .1 10.2.1 15.3z" />
</svg>
