<svg xmlns="http://www.w3.org/2000/svg" viewBox="0 0 109.29 137.25">
    <title>pin-zep</title>
    <path d="M97.22 55.22v-.28-10.35a3.58 3.58 0 0 0-.42-1.94c.05-.08.12-.05.18-.05h2.67c.16 0 .21 0 .12.19a3 3 0 0 0-.33 1.34v24.41a4.38 4.38 0 0 0 .43 2.42h-3.06l.16-.31a3 3 0 0 0 .26-1.33v-6.39a2.24 2.24 0 0 0-.13-.74l-3.26-9.38a.26.26 0 0 0-.09-.13v.23q0 6.68-.06 13.36a4 4 0 0 0 .36 2c.06.11 0 .14-.09.14h-2.87v-.06a3.52 3.52 0 0 0 .41-1.89v-8.48-13a4 4 0 0 0-.42-2.29.21.21 0 0 1 .17 0h3.11c.16 0 .23 0 .17.21a1.5 1.5 0 0 0-.06.44v4.55a1 1 0 0 0 .05.35l2.53 6.91a.23.23 0 0 0 .17.07zM21.91 42.61h6.2a6.87 6.87 0 0 1 2.86.57 3.47 3.47 0 0 1 2.11 3.15 12.3 12.3 0 0 1-.59 4.06c-.62 2.26-1.4 4.47-2.12 6.7-.63 1.95-1.18 3.92-1.9 5.83a18.08 18.08 0 0 1-1.67 3.52 4.43 4.43 0 0 1-1.71 1.64 3.24 3.24 0 0 1-1.38.33h-1.65c-.11 0-.19 0-.13-.15a7.75 7.75 0 0 0 .41-2.87V45.5a6.9 6.9 0 0 0-.43-2.89zm2.67 22.61a5 5 0 0 0 .87-1.29 27.26 27.26 0 0 0 1.38-3.67c1.15-3.37 2.3-6.74 3.21-10.18a19.07 19.07 0 0 0 .61-3.08 1.67 1.67 0 0 0-1.44-2 4.21 4.21 0 0 0-.89-.1h-3.49c-.31 0-.31 0-.31.32v19.77zM36.05 45.27v-2.52c0-.12 0-.15.15-.14h8.32c.26 0 .26 0 .17.25L35.97 65.7c-.05.14-.14.25.13.25h12.55a4.33 4.33 0 0 0 2.23-.56h.09c.06.08 0 .16 0 .23v2.19c0 .22 0 .29-.28.29H32.8c-.32 0-.32 0-.21-.29l8.76-22.77c.11-.28.11-.28-.2-.28h-2.69a4.66 4.66 0 0 0-2.2.52l-.17.08zM80.45 65.59v2.66c0 .1 0 .15-.14.14h-7.12a.34.34 0 0 1-.22 0 4.13 4.13 0 0 0 .43-2.37v-21-.57a3.15 3.15 0 0 0-.42-1.71c0-.08.12-.05.17-.05l5.35-.06c.21 0 .26.05.26.26v2.5h-.07a3.61 3.61 0 0 0-2.64-.53c-.44 0-.44 0-.44.48v.87s.05.25.25.25h4.55c.25 0 .29.07.29.3v2.47c-.11 0-.17 0-.24-.09a3.05 3.05 0 0 0-1.68-.47h-2.95c-.18 0-.22.05-.22.23v17.13c0 .14 0 .22.19.22h3a2.12 2.12 0 0 0 1.14-.33c.16-.15.32-.22.51-.33zM63.19 68a4.21 4.21 0 0 0 .46-2.38V44.91a4.08 4.08 0 0 0-.43-2.27.37.37 0 0 1 .24 0h6a3.37 3.37 0 0 1 1.48.34 2.05 2.05 0 0 1 1.18 1.63 3.26 3.26 0 0 1-.21 2.14 2.55 2.55 0 0 1-2.4 1.49h-3.43c-.18 0-.26 0-.26.24v17.86a3.44 3.44 0 0 0 .34 1.57c.05.11.07.17-.09.17h-2.8zm4.74-21.76h1.72c.59 0 .72-.12.76-.7v-.14a.55.55 0 0 0-.59-.62H66c-.15 0-.18.07-.18.2v1.06c0 .16 0 .21.21.21zM53.39 55.29V44.4a3.26 3.26 0 0 0-.37-1.7c-.12-.2.07-.13.14-.14h6.08a3.38 3.38 0 0 1 1.28.25 2.09 2.09 0 0 1 1.36 1.67 3.82 3.82 0 0 1 0 1.64 2.61 2.61 0 0 1-2.61 2h-3.45c-.17 0-.23 0-.23.22v17.94a3.28 3.28 0 0 0 .33 1.5c.08.15 0 .19-.12.19h-2.67c-.07 0-.21 0-.12-.13a3.69 3.69 0 0 0 .38-2V55.19zm4.28-9h1.67c.64 0 .77-.12.8-.76v-.07a.56.56 0 0 0-.6-.63h-3.77c-.14 0-.19 0-.19.19v1.08c0 .15 0 .2.2.2zM9.57 42.61h3.21c0 .09 0 .15-.08.21a4.32 4.32 0 0 0-.49 2v21c0 .37 0 .34.34.34h5.21a4.33 4.33 0 0 0 2.16-.46c.17-.09.22-.08.22.13v2.36c0 .16 0 .22-.21.22H9.79c-.16 0-.22 0-.12-.19a3.31 3.31 0 0 0 .35-1.59v-.21-21.85a3.47 3.47 0 0 0-.45-1.96z" />
    <path d="M14.3 42.6h5.35c.18 0 .24 0 .24.23v2.51h-.16a3.09 3.09 0 0 0-1.83-.52h-.68c-.16 0-.22 0-.22.21v1.13c0 .17 0 .23.22.23h4c.11 0 .22 0 .22.16v2.63l-.34-.19a2.67 2.67 0 0 0-1.45-.41h-2.47c-.2 0-.23.07-.23.25V61.11c0 .18 0 .25.23.24h1.55a2.89 2.89 0 0 0 1.14-.47c.16-.09.21-.07.21.12v2.38c0 .15 0 .21-.2.21h-5.53a3.39 3.39 0 0 0 .39-1.89V44.38a3.18 3.18 0 0 0-.44-1.78zM81.29 68.38a3.38 3.38 0 0 0 .44-1.89q0-8.41.06-16.83V44.9a4 4 0 0 0-.44-2.3h3.21c0 .1 0 .16-.08.23a4.29 4.29 0 0 0-.48 2q0 10.53-.07 21.07c0 .36 0 .33.33.33h3a4.38 4.38 0 0 0 2.15-.52l.16-.08c.07 0 0 .11 0 .16v2.4c0 .15 0 .22-.2.22h-8.14zM52.37 49.14h-.1a3.22 3.22 0 0 0-1.94-.53h-2.1c-.18 0-.25 0-.24.23v12.3c0 .18.05.23.23.22h1.13a2.35 2.35 0 0 0 1.3-.38c.15-.09.3-.17.44-.25s.05.09.05.13v2.45c0 .12 0 .21-.17.2h-5.58v-.05a3.82 3.82 0 0 0 .41-2V44.7a3.47 3.47 0 0 0-.43-2c.08-.07.15 0 .21 0h5.07c.2 0 .25.05.25.25v2.52a.43.43 0 0 1-.24-.11 2.88 2.88 0 0 0-1.56-.46h-.87c-.17 0-.22.06-.21.22v1.08c0 .2 0 .27.26.27h3.86c.24 0 .3.06.3.3v2.26a.43.43 0 0 1-.07.11z" />
    <path d="M86.16 42.6h2.93c.1 0 .15 0 .09.13a4 4 0 0 0-.36 1.92v16.24a4.64 4.64 0 0 0 .36 2.34c0 .08 0 .12-.07.12h-2.73c-.17 0-.21 0-.11-.19a3.47 3.47 0 0 0 .35-1.8v-3.44-13.17a3.74 3.74 0 0 0-.46-2.15zM34.42 55.28h1.55c.17 0 .24 0 .17.22-.32.84-.63 1.69-.94 2.54a.22.22 0 0 1-.25.17h-3.2c-.19 0-.2 0-.14-.21q.48-1.26.94-2.54a.23.23 0 0 1 .25-.18z" />
</svg>
