<?xml version="1.0" encoding="utf-8"?>
<svg xmlns="http://www.w3.org/2000/svg" viewBox="0 0 1200 800"><style>.st0{fill:#DCDBDB;} .st1{fill:none;stroke:#FFFFFF;stroke-width:20;} .st2{fill:none;stroke:#FFFFFF;stroke-width:20.1578;} .st3{fill:#A5D5A1;} .st4{fill:#BCBCBC;}</style><g id="Layer_1"><path class="st0" d="M0 2.1h1200v114.7H0z"/><path class="st0" d="M47.1 4.6h193.5v796.5H47.1z"/><path class="st1" d="M1200 29.2H0"/><path class="st2" d="M143.1 30.1v769.2"/><circle class="st3" cx="1158" cy="156.8" r="30"/><circle class="st3" cx="1086" cy="156.8" r="30"/><circle class="st3" cx="1011.7" cy="156.8" r="30"/><circle class="st3" cx="940.8" cy="156.8" r="30"/><path class="st4" d="M981.8 800v-27.9L893.1 800zM867.8 800l114-36.7V643.1H422.9V800zM411.5 800V643.1H254.1l1 156.9zM1198.6 230.2h-79.9v239.9h-73.5v221.8h153.4z"/><path class="st0" d="M255.3 127.6h43.9v84h-43.9z"/><path class="st4" d="M192.7 354.9H184v-9.3h8.6l19.6-10.3v9.3l-10.9 5.7 10.9 5.5v9.3l-19.5-10.2zM198.1 395c-8.4 0-14.5-6.5-14.5-15.5s6.1-15.5 14.5-15.5 14.4 6.5 14.4 15.5c-.1 9-6.1 15.5-14.4 15.5zm-.1-21.4c-3.9 0-6.7 2.8-6.7 6s2.9 5.8 6.7 5.8 6.6-2.6 6.6-5.8c.1-3.2-2.7-6-6.6-6zM212.2 405.4l-14.5 11.1h14.5v8.4H184v-7.8l14.4-11.1H184v-8.5h28.2v7.9zM198.8 447.2v8h-11.6c-2.1-3.1-3.6-8.3-3.6-12.3 0-8.8 6.1-15.3 14.5-15.3 8.3 0 14.4 6.7 14.4 15.9 0 4.4-1.7 9.2-4.3 12.2l-6.4-5.3c1.8-1.9 3-4.6 3-7 0-3.6-2.8-6.3-6.6-6.3-3.9 0-6.7 2.7-6.7 6.4 0 1 .4 2.3.9 3.7h6.4zM212.2 482.5h-7.1V468h-3.5v13.2h-7.1V468H191v14.9h-7v-24.2h28.2v23.8z"/><g><path class="st4" d="M390.7 79.8c0 8.6-6.2 14.1-15.7 14.1h-12.2V65.7h12.6c9.3 0 15.3 5.5 15.3 14.1zm-9.5.1c0-4.2-2.4-6.9-6-6.9h-3.1v13.7h3.5c3.4 0 5.6-2.7 5.6-6.8zM412.5 89.9h-10.6l-1.4 4h-9.6l11.9-28.2h9.6l11.5 28.2H414l-1.5-4zm-2.3-6.6l-2.9-8.2-3 8.2h5.9zM428.4 65.7l5.8 18.5 5.8-18.5h9.5l-10.8 28.2h-9.6l-10.7-28.2h10zM475.2 65.7v7.1h-14.5v3.5h13.2v7.1h-13.2v3.5h14.9V94h-24.2V65.7h23.8zM486.9 65.7L498 80.2V65.7h8.4v28.2h-7.8l-11.1-14.4v14.4H479V65.7h7.9zM535.3 75.8c0 6.8-4.2 10.8-11.5 10.8h-3.9v7.3h-9.3V65.7h13.2c7.3 0 11.5 3.7 11.5 10.1zm-8.9.3c0-2.1-1.2-3.3-3.2-3.3h-3.4v6.7h3.4c2.1 0 3.2-1.2 3.2-3.4zM567.6 79.8c0 8.4-6.5 14.5-15.5 14.5s-15.5-6.1-15.5-14.5 6.5-14.4 15.5-14.4c9 .1 15.5 6.1 15.5 14.4zm-21.3.1c0 3.9 2.8 6.7 6 6.7s5.8-2.9 5.8-6.7-2.6-6.6-5.8-6.6c-3.3-.1-6 2.7-6 6.6zM586.5 93.9l-3.4-7.3h-3.5v7.3h-9.3V65.7h13.6c7.6 0 12 3.7 12 10.1 0 4.1-1.6 7.2-4.5 8.9l5.5 9.2h-10.4zm-6.9-14.4h4.3c2 0 3.2-1.2 3.2-3.4 0-2.1-1.2-3.3-3.2-3.3h-4.3v6.7zM623 65.7v7.4h-8v20.8h-9.3V73.1h-8v-7.4H623z"/></g><path class="st4" d="M276.9 184.9l6.9 3.8v-3.9l6.1 2.3v-31.4l-6.1 2.3v-3.9l-6.9 3.8v-20l-9.4 7.2v18.2c-2.3 2-3.4 5.1-3.4 8 0 2.9 1.1 6.1 3.4 8v18.2l9.4 7.2v-19.8z"/></g></svg>
